<svg width="89" height="110" viewBox="0 0 89 110" fill="none" xmlns="http://www.w3.org/2000/svg">
<g clip-path="url(#clip0_16_210)">
<path d="M52.1989 61.2975C50.3902 60.466 48.534 59.742 46.6399 59.1295L46.8067 66.3747M37.3378 78.7899H24.7373L25.1265 59.1295C14.3605 62.6131 2.11213 70.6923 2.11213 82.5515L1.24121 101.193M15.9541 63.7991V101.193M30.2964 13.2119V3.94687C30.2964 3.23427 30.5794 2.55087 31.0833 2.04698C31.5872 1.5431 32.2707 1.26004 32.9833 1.26004H36.2075C36.5594 1.26003 36.9079 1.32967 37.2329 1.46492C37.5578 1.60017 37.8528 1.79837 38.1009 2.04811C38.3489 2.29786 38.5451 2.59417 38.6781 2.92005C38.8111 3.24592 38.8783 3.5949 38.8758 3.94687V13.2119M30.2964 3.70597C26.0814 4.68525 22.322 7.06252 19.6303 10.4507C16.9385 13.8389 15.473 18.0385 15.4723 22.3658C15.4723 22.5325 15.4723 22.6994 15.4723 22.8661H53.6813C53.6813 22.6994 53.6813 22.5325 53.6813 22.3658C53.6806 18.0385 52.2151 13.8389 49.5234 10.4507C46.8317 7.06252 43.0723 4.68525 38.8573 3.70597M17.3809 37.931C17.3809 42.4868 19.1907 46.8559 22.412 50.0773C25.6334 53.2987 30.0025 55.1085 34.5583 55.1085C39.114 55.1085 43.4832 53.2987 46.7046 50.0773C49.9259 46.8559 51.7357 42.4868 51.7357 37.931M57.6838 88.4255L65.0959 96.3935L78.8267 78.6787M53.2922 30.9452H16.0097C15.1644 30.9452 14.3537 30.6094 13.756 30.0117C13.1583 29.414 12.8225 28.6033 12.8225 27.758V26.0718C12.8274 25.2297 13.1654 24.4238 13.7625 23.8301C14.3597 23.2364 15.1676 22.9032 16.0097 22.9032H53.2922C54.1326 22.9032 54.9385 23.237 55.5328 23.8313C56.127 24.4255 56.4608 25.2314 56.4608 26.0718V27.758C56.4633 28.1757 56.3831 28.5898 56.225 28.9763C56.0668 29.3629 55.8339 29.7144 55.5394 30.0106C55.2449 30.3068 54.8948 30.5419 54.5091 30.7023C54.1235 30.8627 53.7099 30.9452 53.2922 30.9452V30.9452ZM87.7396 87.184C87.7396 91.2448 86.5355 95.2142 84.2795 98.5906C82.0235 101.967 78.8169 104.599 75.0653 106.152C71.3137 107.706 67.1855 108.113 63.2028 107.321C59.2201 106.529 55.5618 104.573 52.6905 101.702C49.8191 98.8305 47.8637 95.1722 47.0715 91.1895C46.2792 87.2068 46.6858 83.0786 48.2398 79.327C49.7938 75.5754 52.4253 72.3689 55.8017 70.1129C59.1781 67.8569 63.1476 66.6527 67.2083 66.6527C72.6536 66.6527 77.8758 68.8158 81.7261 72.6662C85.5765 76.5166 87.7396 81.7388 87.7396 87.184V87.184Z" stroke="#0C4E98" stroke-width="2.66833" stroke-linecap="round" stroke-linejoin="round"/>
</g>
<defs>
<clipPath id="clip0_16_210">
<rect width="89" height="109.068" fill="white"/>
</clipPath>
</defs>
</svg>
