<svg width="114" height="113" viewBox="0 0 114 113" fill="none" xmlns="http://www.w3.org/2000/svg">
<g clip-path="url(#clip0_16_188)">
<path d="M77.0792 7.60183C76.9297 7.60183 76.7862 7.66122 76.6805 7.76695C76.5748 7.87269 76.5154 8.01607 76.5154 8.16561V27.7049C76.5154 27.8544 76.5748 27.9978 76.6805 28.1036C76.7862 28.2093 76.9297 28.2687 77.0792 28.2687H105.892C106.038 28.2637 106.177 28.202 106.278 28.0968C106.38 27.9917 106.437 27.8511 106.437 27.7049V8.16561C106.437 8.01938 106.38 7.87885 106.278 7.77366C106.177 7.66846 106.038 7.60687 105.892 7.60183H77.0792ZM105.892 31.1656H77.0792C76.1648 31.1604 75.2895 30.7936 74.6447 30.1451C73.9999 29.4967 73.6379 28.6194 73.6379 27.7049V8.16561C73.6379 7.25114 73.9999 6.37383 74.6447 5.72538C75.2895 5.07694 76.1648 4.71006 77.0792 4.70493H105.892C106.807 4.71006 107.682 5.07694 108.327 5.72538C108.972 6.37383 109.334 7.25114 109.334 8.16561V27.7049C109.334 28.6194 108.972 29.4967 108.327 30.1451C107.682 30.7936 106.807 31.1604 105.892 31.1656Z" fill="#0C4E98"/>
<path d="M100.857 19.3837H82.0955C81.7402 19.3425 81.4126 19.1721 81.1747 18.9051C80.9369 18.638 80.8054 18.2929 80.8054 17.9353C80.8054 17.5777 80.9369 17.2325 81.1747 16.9655C81.4126 16.6984 81.7402 16.528 82.0955 16.4868H100.857C101.212 16.528 101.54 16.6984 101.778 16.9655C102.016 17.2325 102.147 17.5777 102.147 17.9353C102.147 18.2929 102.016 18.638 101.778 18.9051C101.54 19.1721 101.212 19.3425 100.857 19.3837Z" fill="#0C4E98"/>
<path d="M91.525 94.78C91.1399 94.7749 90.7719 94.6197 90.4995 94.3473C90.2272 94.075 90.0719 93.707 90.0669 93.3218V29.7075C90.1081 29.3522 90.2785 29.0245 90.5455 28.7867C90.8126 28.5488 91.1577 28.4174 91.5153 28.4174C91.8729 28.4174 92.2181 28.5488 92.4852 28.7867C92.7522 29.0245 92.9225 29.3522 92.9637 29.7075V93.3218C92.9638 93.7052 92.8128 94.0732 92.5435 94.3461C92.2743 94.619 91.9084 94.7749 91.525 94.78Z" fill="#0C4E98"/>
<path d="M91.5251 82.6287C91.2103 82.6247 90.9045 82.5228 90.6502 82.3371L79.3155 73.5687H70.45C70.2457 73.5924 70.0386 73.5727 69.8425 73.5107C69.6464 73.4487 69.4656 73.346 69.312 73.2092C69.1584 73.0724 69.0356 72.9046 68.9514 72.717C68.8673 72.5293 68.8237 72.326 68.8237 72.1203C68.8237 71.9146 68.8673 71.7113 68.9514 71.5236C69.0356 71.3359 69.1584 71.1682 69.312 71.0314C69.4656 70.8947 69.6464 70.7919 69.8425 70.7299C70.0386 70.668 70.2457 70.6482 70.45 70.6719H79.8599C80.1777 70.6775 80.4849 70.7867 80.7348 70.9829L92.4001 80.0429C92.6802 80.275 92.8619 80.6046 92.9088 80.9653C92.9557 81.326 92.8642 81.6911 92.6528 81.9871C92.52 82.1654 92.3468 82.3096 92.1474 82.4076C91.9479 82.5057 91.7279 82.5548 91.5057 82.551" fill="#0C4E98"/>
<path d="M110.228 111.267C110.038 111.267 109.849 111.229 109.673 111.155C109.497 111.082 109.338 110.974 109.204 110.839C109.07 110.703 108.965 110.542 108.893 110.365C108.822 110.188 108.787 109.999 108.789 109.809V96.3936L96.4243 86.8087C96.1518 86.5716 95.9756 86.2428 95.9291 85.8845C95.8825 85.5263 95.9688 85.1634 96.1716 84.8645C96.4036 84.5852 96.7315 84.4026 97.091 84.3522C97.4506 84.3019 97.816 84.3875 98.1158 84.5923L111.025 94.5855C111.204 94.7182 111.348 94.8915 111.446 95.091C111.544 95.2904 111.593 95.5104 111.589 95.7326V109.867C111.592 110.058 111.556 110.247 111.485 110.424C111.414 110.6 111.309 110.761 111.175 110.897C111.041 111.033 110.881 111.14 110.706 111.214C110.53 111.287 110.341 111.325 110.15 111.325" fill="#0C4E98"/>
<path d="M112.581 111.267H84.4479C84.2573 111.267 84.0687 111.229 83.8928 111.156C83.717 111.082 83.5575 110.974 83.4236 110.839C83.2898 110.703 83.1842 110.542 83.1131 110.365C83.0419 110.188 83.0066 109.999 83.0092 109.809V96.3548L68.5638 84.0674C68.4183 83.9398 68.2993 83.7847 68.2137 83.611C68.1281 83.4374 68.0776 83.2486 68.0649 83.0555C68.0523 82.8623 68.0778 82.6685 68.14 82.4852C68.2023 82.3019 68.3 82.1327 68.4277 81.9871C68.5553 81.8416 68.7104 81.7227 68.8841 81.6371C69.0577 81.5515 69.2465 81.5009 69.4396 81.4883C69.6328 81.4756 69.8266 81.5011 70.0099 81.5634C70.1932 81.6256 70.3625 81.7234 70.508 81.8511L85.4589 94.5856C85.6147 94.7216 85.7401 94.8888 85.8272 95.0763C85.9143 95.2639 85.961 95.4676 85.9644 95.6743V108.37H112.658C113.014 108.411 113.341 108.582 113.579 108.849C113.817 109.116 113.948 109.461 113.948 109.818C113.948 110.176 113.817 110.521 113.579 110.788C113.341 111.055 113.014 111.226 112.658 111.267" fill="#0C4E98"/>
<path d="M64.9864 112.394C64.7297 112.392 64.4782 112.322 64.2566 112.193C64.035 112.063 63.851 111.878 63.7226 111.656L53.36 93.0885C53.1823 92.7568 53.1398 92.3693 53.2413 92.0069C53.3427 91.6446 53.5803 91.3355 53.9044 91.1443C54.2374 90.9632 54.6284 90.9208 54.9924 91.0264C55.3564 91.132 55.6641 91.3769 55.8486 91.7081L66.2112 110.275C66.3888 110.607 66.4314 110.995 66.3299 111.357C66.2285 111.719 65.9909 112.028 65.6668 112.219C65.4555 112.346 65.2135 112.414 64.9669 112.414" fill="#0C4E98"/>
<path d="M2.5389 112.394C2.29202 112.396 2.04953 112.329 1.83895 112.2C1.50782 112.016 1.26286 111.708 1.15728 111.344C1.05171 110.98 1.09404 110.589 1.27512 110.256L11.6572 91.6887C11.8417 91.3576 12.1493 91.1126 12.5134 91.007C12.8774 90.9014 13.2684 90.9438 13.6014 91.1249C13.9219 91.3194 14.1563 91.6285 14.2574 91.9895C14.3585 92.3505 14.3186 92.7364 14.1458 93.0691L3.78316 111.636C3.65483 111.859 3.47082 112.044 3.24923 112.173C3.02763 112.303 2.77611 112.372 2.51944 112.375" fill="#0C4E98"/>
<path d="M61.0009 106.562H4.7551C4.37175 106.557 4.00586 106.401 3.7366 106.128C3.46733 105.855 3.31637 105.487 3.31641 105.104C3.31641 104.722 3.46797 104.356 3.73779 104.086C4.0076 103.817 4.37353 103.665 4.7551 103.665H61.0009C61.3825 103.665 61.7485 103.817 62.0183 104.086C62.2881 104.356 62.4397 104.722 62.4397 105.104C62.4397 105.487 62.2887 105.855 62.0195 106.128C61.7502 106.401 61.3843 106.557 61.0009 106.562Z" fill="#0C4E98"/>
<path d="M25.4217 14.2316C25.1516 14.2344 24.8862 14.1611 24.6558 14.0201C24.4255 13.8792 24.2394 13.6762 24.119 13.4345L18.4808 2.09971C18.3109 1.75634 18.283 1.35988 18.403 0.996068C18.5231 0.632254 18.7815 0.330311 19.1224 0.155506C19.292 0.068761 19.4771 0.0165589 19.6669 0.0018939C19.8568 -0.0127711 20.0477 0.0103845 20.2286 0.0700668C20.4094 0.129749 20.5766 0.224782 20.7205 0.349582C20.8644 0.474382 20.982 0.626508 21.0667 0.797126L26.7048 12.1318C26.8747 12.4752 26.9027 12.8716 26.7826 13.2355C26.6626 13.5993 26.4041 13.9012 26.0632 14.076C25.8629 14.1732 25.6442 14.2262 25.4217 14.2316Z" fill="#0C4E98"/>
<path d="M42.181 14.2316C41.9585 14.2263 41.7397 14.1732 41.5394 14.0761C41.1985 13.9013 40.9401 13.5993 40.82 13.2355C40.7 12.8717 40.7279 12.4752 40.8978 12.1319L46.536 0.79719C46.6164 0.622791 46.7318 0.4668 46.875 0.338907C47.0183 0.211014 47.1863 0.113933 47.3687 0.0537553C47.551 -0.00642226 47.7438 -0.0284347 47.9351 -0.0109171C48.1263 0.00660054 48.3118 0.063262 48.4802 0.15557C48.6525 0.238446 48.8066 0.354824 48.9334 0.497918C49.0602 0.641011 49.1572 0.80794 49.2187 0.988953C49.2803 1.16997 49.3051 1.36147 49.2918 1.5522C49.2785 1.74292 49.2274 1.92905 49.1413 2.09977L43.4836 13.4539C43.3647 13.6927 43.1816 13.8937 42.9551 14.0345C42.7285 14.1753 42.4672 14.2502 42.2005 14.2511" fill="#0C4E98"/>
<path d="M44.592 28.8132H23.478C23.0947 28.8081 22.7288 28.6522 22.4595 28.3793C22.1902 28.1064 22.0393 27.7384 22.0393 27.355C22.0393 26.9735 22.1909 26.6075 22.4607 26.3377C22.7305 26.0679 23.0964 25.9163 23.478 25.9163H44.5726C44.9542 25.9163 45.3201 26.0679 45.5899 26.3377C45.8598 26.6075 46.0113 26.9735 46.0113 27.355C46.0114 27.7384 45.8604 28.1064 45.5911 28.3793C45.3219 28.6522 44.956 28.8081 44.5726 28.8132" fill="#0C4E98"/>
<path d="M53.3604 68.8637H53.2632C53.0741 68.8514 52.8893 68.8018 52.7194 68.7179C52.5496 68.6339 52.398 68.5172 52.2733 68.3745C52.1487 68.2318 52.0534 68.0658 51.9931 67.8862C51.9327 67.7066 51.9085 67.5169 51.9217 67.3278L55.013 18.6255C55.0077 18.4252 55.0442 18.226 55.1204 18.0406C55.1965 17.8553 55.3105 17.6879 55.4551 17.5491C55.5997 17.4104 55.7717 17.3034 55.96 17.235C56.1483 17.1666 56.3489 17.1383 56.5488 17.1519C56.7487 17.1655 56.9436 17.2207 57.121 17.314C57.2983 17.4073 57.4542 17.5366 57.5787 17.6936C57.7032 17.8506 57.7935 18.0319 57.8438 18.2259C57.8941 18.4198 57.9034 18.6222 57.871 18.8199L54.7991 67.425C54.7792 67.793 54.6189 68.1392 54.3512 68.3924C54.0835 68.6457 53.7289 68.7865 53.3604 68.786" fill="#0C4E98"/>
<path d="M47.8195 82.9203H46.9446C46.5894 82.8791 46.2617 82.7087 46.0238 82.4417C45.786 82.1746 45.6545 81.8295 45.6545 81.4719C45.6545 81.1143 45.786 80.7691 46.0238 80.502C46.2617 80.235 46.5894 80.0647 46.9446 80.0234H47.8195C48.5943 80.0265 49.342 79.7384 49.9145 79.2163C50.487 78.6942 50.8425 77.9761 50.9107 77.2043L51.0858 75.474C51.1027 75.2855 51.1571 75.1022 51.2459 74.935C51.3347 74.7679 51.4561 74.6202 51.6028 74.5006C51.7495 74.381 51.9187 74.292 52.1004 74.2388C52.282 74.1856 52.4725 74.1693 52.6606 74.1908C52.8498 74.2079 53.0338 74.2622 53.2019 74.3508C53.37 74.4393 53.519 74.5603 53.6401 74.7067C53.7612 74.8531 53.8521 75.0221 53.9076 75.2039C53.963 75.3856 53.9819 75.5765 53.9632 75.7656L53.7882 77.4959C53.6477 78.9811 52.958 80.3603 51.854 81.3636C50.75 82.367 49.3112 82.9221 47.8195 82.9203Z" fill="#0C4E98"/>
<path d="M53.3213 68.8638H14.2039H13.9512L2.51925 66.7446C2.33287 66.7101 2.15512 66.6393 1.99611 66.5362C1.83711 66.433 1.69995 66.2995 1.59253 66.1433C1.48512 65.9872 1.40952 65.8114 1.37004 65.626C1.33056 65.4406 1.32798 65.2493 1.36244 65.0629C1.39691 64.8765 1.46777 64.6988 1.57094 64.5397C1.67411 64.3807 1.80755 64.2436 1.96372 64.1362C2.11988 64.0287 2.29571 63.9532 2.4811 63.9137C2.66648 63.8742 2.85778 63.8716 3.04416 63.9061L14.34 66.0058H53.2241L65.3559 63.7506C65.5423 63.7161 65.7336 63.7187 65.919 63.7582C66.1044 63.7976 66.2802 63.8732 66.4364 63.9807C66.5926 64.0881 66.726 64.2252 66.8292 64.3842C66.9323 64.5432 67.0032 64.7209 67.0377 64.9073C67.0721 65.0937 67.0696 65.2851 67.0301 65.4704C66.9906 65.6558 66.915 65.8316 66.8076 65.9878C66.7002 66.144 66.563 66.2774 66.404 66.3806C66.245 66.4838 66.0672 66.5546 65.8809 66.5891L53.6129 68.8638H53.3602" fill="#0C4E98"/>
<path d="M63.3148 42.792C63.0645 42.7916 62.8179 42.7317 62.5955 42.617L54.9547 38.2037H12.5711L4.93034 42.5976C4.59791 42.7554 4.2181 42.7816 3.86711 42.6711C3.51611 42.5606 3.21992 42.3215 3.03788 42.0017C2.85583 41.6818 2.80141 41.305 2.88557 40.9468C2.96973 40.5886 3.18624 40.2754 3.49165 40.0701L11.4629 35.5012C11.684 35.3805 11.9305 35.3139 12.1822 35.3068H55.3436C55.5896 35.3115 55.8303 35.3784 56.0435 35.5012L64.0147 40.0701C64.3388 40.2613 64.5764 40.5704 64.6778 40.9328C64.7793 41.2951 64.7368 41.6826 64.5591 42.0143C64.433 42.2328 64.2516 42.4143 64.0333 42.5405C63.8149 42.6668 63.5671 42.7333 63.3148 42.7336" fill="#0C4E98"/>
<path d="M15.2345 19.3837C12.6365 19.3782 10.1407 20.3945 8.28556 22.2132C6.43046 24.032 5.36493 26.5073 5.319 29.1048L3.88031 76.9516C3.81519 78.8935 4.14088 80.8287 4.83811 82.6423C5.53534 84.4559 6.58986 86.1109 7.93906 87.509C9.28826 88.9072 10.9047 90.02 12.6922 90.7815C14.4798 91.5429 16.4021 91.9373 18.3451 91.9415H49.1802C51.1232 91.9373 53.0456 91.5429 54.8331 90.7815C56.6207 90.02 58.2371 88.9072 59.5863 87.509C60.9355 86.1109 61.99 84.4559 62.6873 82.6423C63.3845 80.8287 63.7103 78.8935 63.6451 76.9516L62.2064 29.1048C62.1605 26.5073 61.095 24.032 59.2399 22.2132C57.3848 20.3945 54.8889 19.3782 52.291 19.3837H15.2345ZM49.1802 94.78H18.3451C16.0189 94.7602 13.7201 94.2768 11.5829 93.358C9.44575 92.4392 7.51324 91.1034 5.89844 89.4289C4.28365 87.7544 3.01895 85.7747 2.17836 83.6056C1.33776 81.4364 0.938161 79.1215 1.00286 76.7961L2.44156 28.9687C2.51783 25.6284 3.89988 22.4509 6.29134 20.1176C8.6828 17.7843 11.8933 16.4809 15.2345 16.4868H52.291C55.6321 16.4809 58.8426 17.7843 61.2341 20.1176C63.6256 22.4509 65.0076 25.6284 65.0838 28.9687L66.5226 76.7961C66.5873 79.1215 66.1876 81.4364 65.347 83.6056C64.5064 85.7747 63.2417 87.7544 61.6269 89.4289C60.0121 91.1034 58.0797 92.4392 55.9425 93.358C53.8054 94.2768 51.5065 94.7602 49.1802 94.78Z" fill="#0C4E98"/>
<path d="M14.165 68.8637C13.7966 68.8642 13.4419 68.7234 13.1742 68.4702C12.9066 68.217 12.7463 67.8707 12.7263 67.5028L9.63506 18.8977C9.61375 18.514 9.74475 18.1374 9.9996 17.8498C10.2544 17.5621 10.6125 17.3868 10.996 17.3617C11.184 17.3486 11.3728 17.373 11.5513 17.4335C11.7297 17.4941 11.8944 17.5897 12.0355 17.7145C12.1767 17.8394 12.2916 17.9911 12.3735 18.1609C12.4554 18.3307 12.5026 18.515 12.5124 18.7033L15.701 67.3667C15.7225 67.7472 15.5941 68.1211 15.3434 68.4081C15.0926 68.6952 14.7394 68.8727 14.3595 68.9026H14.2623" fill="#0C4E98"/>
<path d="M21.1642 82.9204H19.6866C18.1969 82.9217 16.7606 82.366 15.6598 81.3623C14.559 80.3586 13.8732 78.9795 13.7374 77.496L13.5624 75.7657C13.5243 75.3868 13.638 75.0083 13.8786 74.7131C14.1191 74.418 14.4668 74.2302 14.8456 74.1909C15.2266 74.1526 15.6073 74.2658 15.9056 74.5058C16.2039 74.7459 16.3958 75.0937 16.4398 75.4741L16.5953 77.2044C16.6679 77.9745 17.0247 78.69 17.5963 79.2113C18.1678 79.7325 18.9131 80.0221 19.6866 80.0235H21.1642C21.5195 80.0647 21.8472 80.235 22.085 80.5021C22.3229 80.7691 22.4543 81.1143 22.4543 81.4719C22.4543 81.8296 22.3229 82.1747 22.085 82.4417C21.8472 82.7088 21.5195 82.8791 21.1642 82.9204Z" fill="#0C4E98"/>
<path d="M61.8951 5.24934H61.5451L52.3296 2.93573H15.1953L5.97975 5.15215C5.61985 5.20803 5.2521 5.12719 4.94879 4.92556C4.64549 4.72393 4.42857 4.41611 4.34081 4.06263C4.25305 3.70915 4.30077 3.33561 4.47455 3.01553C4.64833 2.69545 4.93562 2.45197 5.27987 2.33303L14.6509 -0.0194397H15.0009H52.5046H52.8545L62.245 2.33303C62.578 2.42924 62.8658 2.64096 63.0569 2.93015C63.2479 3.21934 63.3298 3.56712 63.2876 3.91115C63.2455 4.25519 63.0822 4.57294 62.827 4.80749C62.5718 5.04203 62.2415 5.17799 61.8951 5.19101" fill="#0C4E98"/>
</g>
<defs>
<clipPath id="clip0_16_188">
<rect width="113.017" height="112.394" fill="white" transform="translate(0.983398)"/>
</clipPath>
</defs>
</svg>
