<svg width="107" height="111" viewBox="0 0 107 111" fill="none" xmlns="http://www.w3.org/2000/svg">
<g clip-path="url(#clip0_16_228)">
<path d="M52.2367 73.3914H51.5213C51.1966 73.3877 50.8859 73.2592 50.6535 73.0325C50.4211 72.8057 50.285 72.4983 50.2733 72.1738C50.2601 71.847 50.3727 71.5276 50.5879 71.2813C50.803 71.035 51.1044 70.8805 51.43 70.8496C51.6867 70.804 51.9495 70.804 52.2062 70.8496C52.5291 70.8841 52.8267 71.0401 53.0387 71.2861C53.2507 71.532 53.3612 71.8494 53.3478 72.1738C53.3361 72.4983 53.1999 72.8057 52.9675 73.0325C52.7351 73.2592 52.4243 73.3877 52.0997 73.3914" fill="#0C4E98"/>
<path d="M40.867 47.0907H1.29377C0.954689 47.0907 0.629502 46.956 0.389732 46.7162C0.149963 46.4765 0.0152588 46.1513 0.0152588 45.8122C0.0152588 45.4731 0.149963 45.1479 0.389732 44.9082C0.629502 44.6684 0.954689 44.5337 1.29377 44.5337H40.867C41.2061 44.5337 41.5313 44.6684 41.7711 44.9082C42.0109 45.1479 42.1456 45.4731 42.1456 45.8122C42.1456 46.1513 42.0109 46.4765 41.7711 46.7162C41.5313 46.956 41.2061 47.0907 40.867 47.0907Z" fill="#0C4E98"/>
<path d="M94.1387 21.5961C91.3532 21.6402 88.6986 22.786 86.756 24.7828C84.8134 26.7797 83.741 29.4648 83.7736 32.2504V89.1903C84.9417 87.5259 86.4935 86.1674 88.2977 85.2295C90.1018 84.2915 92.1053 83.8019 94.1387 83.8019C96.1721 83.8019 98.1756 84.2915 99.9798 85.2295C101.784 86.1674 103.336 87.5259 104.504 89.1903V32.2504C104.54 29.4636 103.469 26.7762 101.526 24.7785C99.5825 22.7808 96.9255 21.6362 94.1387 21.5961ZM94.1387 110.21H1.29377C0.954689 110.21 0.629502 110.075 0.389732 109.835C0.149963 109.596 0.0152588 109.27 0.0152588 108.931C0.0152588 108.592 0.149963 108.267 0.389732 108.027C0.629502 107.787 0.954689 107.653 1.29377 107.653H94.1387C96.2573 107.71 98.3449 107.135 100.135 105.999C101.924 104.864 103.335 103.221 104.186 101.28C105.037 99.3389 105.289 97.1882 104.912 95.1028C104.534 93.0174 103.542 91.092 102.065 89.5729C100.587 88.0538 98.6894 87.01 96.6152 86.5749C94.5409 86.1398 92.384 86.3332 90.4203 87.1304C88.4566 87.9276 86.7752 89.2924 85.5912 91.0502C84.4072 92.808 83.7744 94.879 83.7736 96.9984C83.7929 97.1728 83.7753 97.3494 83.7218 97.5165C83.6683 97.6837 83.5801 97.8377 83.463 97.9684C83.3459 98.0992 83.2027 98.2038 83.0424 98.2754C82.8822 98.347 82.7086 98.3841 82.5331 98.3841C82.3576 98.3841 82.1841 98.347 82.0238 98.2754C81.8636 98.2038 81.7203 98.0992 81.6032 97.9684C81.4862 97.8377 81.398 97.6837 81.3445 97.5165C81.2909 97.3494 81.2733 97.1728 81.2926 96.9984V32.2504C81.2333 30.5253 81.5218 28.8058 82.141 27.1944C82.7602 25.5831 83.6975 24.1129 84.8969 22.8715C86.0964 21.6301 87.5335 20.6428 89.1225 19.9685C90.7116 19.2942 92.4201 18.9468 94.1463 18.9468C95.8725 18.9468 97.5811 19.2942 99.1702 19.9685C100.759 20.6428 102.196 21.6301 103.396 22.8715C104.595 24.1129 105.532 25.5831 106.152 27.1944C106.771 28.8058 107.059 30.5253 107 32.2504V96.9984C107.045 100.455 105.715 103.789 103.304 106.266C100.892 108.743 97.5956 110.162 94.1387 110.21Z" fill="#0C4E98"/>
<path d="M59.3143 47.0907C59.0012 47.0564 58.7118 46.9077 58.5015 46.6731C58.2913 46.4386 58.175 46.1347 58.175 45.8198C58.175 45.5048 58.2913 45.2009 58.5015 44.9664C58.7118 44.7318 59.0012 44.5831 59.3143 44.5488H81.1405C81.4796 44.5488 81.8047 44.6835 82.0445 44.9233C82.2843 45.1631 82.419 45.4883 82.419 45.8274C82.419 46.1665 82.2843 46.4917 82.0445 46.7314C81.8047 46.9712 81.4796 47.1059 81.1405 47.1059H59.3295L59.3143 47.0907Z" fill="#0C4E98"/>
<path d="M56.0113 59.0845H49.36C49.1941 59.0825 49.0302 59.0478 48.8777 58.9825C48.7252 58.9172 48.587 58.8224 48.4711 58.7037C48.3553 58.585 48.2638 58.4446 48.2022 58.2906C48.1406 58.1365 48.1099 57.9718 48.1119 57.8059V47.593C48.1119 47.262 48.2434 46.9445 48.4775 46.7105C48.7115 46.4764 49.029 46.3449 49.36 46.3449C49.691 46.3449 50.0085 46.4764 50.2425 46.7105C50.4766 46.9445 50.6081 47.262 50.6081 47.593V56.5274H54.7633V47.593C54.7592 47.4265 54.7885 47.2609 54.8494 47.106C54.9103 46.951 55.0016 46.8099 55.1179 46.6907C55.2342 46.5716 55.3732 46.4769 55.5266 46.4123C55.68 46.3477 55.8449 46.3144 56.0113 46.3145C56.3437 46.3185 56.6612 46.4533 56.8948 46.6898C57.1284 46.9263 57.2595 47.2454 57.2594 47.5778V57.7451C57.2624 57.9117 57.2316 58.0771 57.1688 58.2315C57.106 58.3858 57.0125 58.5258 56.8941 58.6431C56.781 58.7638 56.6443 58.8599 56.4924 58.9254C56.3405 58.9908 56.1767 59.0243 56.0113 59.0236" fill="#0C4E98"/>
<path d="M59.3143 48.8563H46.042C45.7096 48.8523 45.3922 48.7174 45.1586 48.4809C44.9249 48.2445 44.7939 47.9254 44.7939 47.593V33.8945C44.7939 33.5635 44.9254 33.2461 45.1595 33.012C45.3936 32.778 45.711 32.6465 46.042 32.6465C46.373 32.6465 46.6905 32.778 46.9245 33.012C47.1586 33.2461 47.2901 33.5635 47.2901 33.8945V46.2536H58.0662V33.8945C58.0662 33.7306 58.0985 33.5684 58.1612 33.4169C58.2239 33.2655 58.3159 33.1279 58.4318 33.012C58.5477 32.8961 58.6852 32.8042 58.8367 32.7415C58.9881 32.6788 59.1504 32.6465 59.3143 32.6465C59.4782 32.6465 59.6405 32.6788 59.7919 32.7415C59.9433 32.8042 60.0809 32.8961 60.1968 33.012C60.3127 33.1279 60.4046 33.2655 60.4674 33.4169C60.5301 33.5684 60.5623 33.7306 60.5623 33.8945V47.593C60.5624 47.9254 60.4314 48.2445 60.1978 48.4809C59.9641 48.7174 59.6467 48.8523 59.3143 48.8563Z" fill="#0C4E98"/>
<path d="M52.6781 65.9028C52.5122 65.9008 52.3483 65.8662 52.1958 65.8009C52.0433 65.7355 51.9052 65.6408 51.7893 65.5221C51.6734 65.4034 51.582 65.263 51.5204 65.109C51.4587 64.9549 51.428 64.7902 51.43 64.6243V57.7447C51.43 57.5808 51.4623 57.4185 51.5251 57.267C51.5878 57.1156 51.6797 56.978 51.7956 56.8621C51.9115 56.7462 52.0491 56.6543 52.2005 56.5916C52.3519 56.5289 52.5142 56.4966 52.6781 56.4966C52.842 56.4966 53.0043 56.5289 53.1558 56.5916C53.3072 56.6543 53.4448 56.7462 53.5607 56.8621C53.6765 56.978 53.7685 57.1156 53.8312 57.267C53.8939 57.4185 53.9262 57.5808 53.9262 57.7447V64.5635C53.9282 64.7294 53.8975 64.894 53.8359 65.0481C53.7742 65.2021 53.6829 65.3425 53.567 65.4612C53.4511 65.58 53.3129 65.6747 53.1604 65.74C53.0079 65.8054 52.844 65.84 52.6781 65.842" fill="#0C4E98"/>
<path d="M59.3143 42.0526H46.042C45.7029 42.0526 45.3777 41.9179 45.1379 41.6782C44.8981 41.4384 44.7634 41.1132 44.7634 40.7741C44.7634 40.435 44.8981 40.1098 45.1379 39.8701C45.3777 39.6303 45.7029 39.4956 46.042 39.4956H59.3143C59.6533 39.4956 59.9785 39.6303 60.2183 39.8701C60.4581 40.1098 60.5928 40.435 60.5928 40.7741C60.5928 41.1132 60.4581 41.4384 60.2183 41.6782C59.9785 41.9179 59.6533 42.0526 59.3143 42.0526Z" fill="#0C4E98"/>
<path d="M59.3141 35.2336H46.0419C45.876 35.2316 45.7121 35.1969 45.5596 35.1316C45.407 35.0663 45.2689 34.9715 45.153 34.8528C45.0371 34.7341 44.9457 34.5937 44.8841 34.4397C44.8225 34.2856 44.7918 34.1209 44.7938 33.955V1.5811C44.7938 1.25009 44.9253 0.932624 45.1593 0.698563C45.3934 0.464503 45.7109 0.333008 46.0419 0.333008C46.3729 0.333008 46.6903 0.464503 46.9244 0.698563C47.1584 0.932624 47.2899 1.25009 47.2899 1.5811V32.6765H58.0661V1.5811C58.0661 1.4172 58.0983 1.25489 58.161 1.10346C58.2238 0.952037 58.3157 0.814458 58.4316 0.698563C58.5475 0.582668 58.6851 0.490718 58.8365 0.427996C58.9879 0.365275 59.1502 0.333008 59.3141 0.333008C59.478 0.333008 59.6403 0.365275 59.7917 0.427996C59.9432 0.490718 60.0807 0.582668 60.1966 0.698563C60.3125 0.814458 60.4045 0.952037 60.4672 1.10346C60.5299 1.25489 60.5622 1.4172 60.5622 1.5811V33.955C60.5642 34.1209 60.5335 34.2856 60.4719 34.4397C60.4103 34.5937 60.3189 34.7341 60.203 34.8528C60.0871 34.9715 59.9489 35.0663 59.7964 35.1316C59.6439 35.1969 59.4801 35.2316 59.3141 35.2336Z" fill="#0C4E98"/>
<path d="M52.678 13.5143C52.3456 13.5103 52.0282 13.3755 51.7946 13.139C51.5609 12.9025 51.4299 12.5834 51.4299 12.251V1.59668C51.4299 1.43278 51.4622 1.27051 51.525 1.11909C51.5877 0.967662 51.6796 0.830083 51.7955 0.714188C51.9114 0.598293 52.049 0.506343 52.2004 0.443621C52.3518 0.3809 52.5141 0.348633 52.678 0.348633C52.8419 0.348633 53.0042 0.3809 53.1557 0.443621C53.3071 0.506343 53.4447 0.598293 53.5606 0.714188C53.6765 0.830083 53.7684 0.967662 53.8311 1.11909C53.8938 1.27051 53.9261 1.43278 53.9261 1.59668V12.251C53.9261 12.5834 53.7951 12.9025 53.5615 13.139C53.3279 13.3755 53.0104 13.5103 52.678 13.5143Z" fill="#0C4E98"/>
<path d="M69.2685 65.0505C69.1026 65.0485 68.9387 65.0139 68.7862 64.9486C68.6337 64.8832 68.4955 64.7885 68.3796 64.6698C68.2637 64.5511 68.1724 64.4107 68.1107 64.2567C68.0491 64.1026 68.0184 63.9379 68.0204 63.772V55.6748H59.6035C59.2644 55.6748 58.9392 55.54 58.6994 55.3003C58.4597 55.0605 58.325 54.7353 58.325 54.3962C58.325 54.0571 58.4597 53.7319 58.6994 53.4921C58.9392 53.2524 59.2644 53.1177 59.6035 53.1177H69.2685C69.4344 53.1197 69.5983 53.1543 69.7508 53.2196C69.9033 53.285 70.0414 53.3797 70.1573 53.4984C70.2732 53.6171 70.3646 53.7575 70.4263 53.9116C70.4879 54.0656 70.5186 54.2303 70.5166 54.3962V63.8329C70.5186 63.9988 70.4879 64.1635 70.4263 64.3175C70.3646 64.4716 70.2732 64.612 70.1573 64.7307C70.0414 64.8494 69.9033 64.9441 69.7508 65.0095C69.5983 65.0748 69.4344 65.1094 69.2685 65.1114" fill="#0C4E98"/>
<path d="M69.2684 100.758H19.4975C19.3315 100.756 19.1676 100.721 19.0151 100.656C18.8626 100.591 18.7245 100.496 18.6086 100.377C18.4927 100.258 18.4013 100.118 18.3397 99.9639C18.278 99.8099 18.2473 99.6452 18.2494 99.4793V54.3962C18.2473 54.2303 18.278 54.0656 18.3397 53.9116C18.4013 53.7575 18.4927 53.6171 18.6086 53.4984C18.7245 53.3797 18.8626 53.285 19.0151 53.2196C19.1676 53.1543 19.3315 53.1197 19.4975 53.1177H44.5199C44.859 53.1177 45.1842 53.2524 45.424 53.4921C45.6637 53.7319 45.7984 54.0571 45.7984 54.3962C45.7984 54.7353 45.6637 55.0605 45.424 55.3003C45.1842 55.54 44.859 55.6748 44.5199 55.6748H20.7455V98.2007H68.0204V73.1478C68.0204 72.9839 68.0526 72.8217 68.1153 72.6702C68.1781 72.5188 68.27 72.3812 68.3859 72.2653C68.5018 72.1494 68.6394 72.0575 68.7908 71.9948C68.9422 71.9321 69.1045 71.8997 69.2684 71.8997C69.4323 71.8997 69.5946 71.9321 69.746 71.9948C69.8975 72.0575 70.035 72.1494 70.1509 72.2653C70.2668 72.3812 70.3588 72.5188 70.4215 72.6702C70.4842 72.8217 70.5165 72.9839 70.5165 73.1478V99.4793C70.5185 99.6452 70.4878 99.8099 70.4262 99.9639C70.3646 100.118 70.2732 100.258 70.1573 100.377C70.0414 100.496 69.9032 100.591 69.7507 100.656C69.5982 100.721 69.4343 100.756 69.2684 100.758Z" fill="#0C4E98"/>
<path d="M39.4059 65.9032C39.24 65.9012 39.0761 65.8665 38.9236 65.8012C38.7711 65.7359 38.6329 65.6411 38.517 65.5224C38.4011 65.4037 38.3098 65.2633 38.2482 65.1093C38.1865 64.9553 38.1558 64.7906 38.1578 64.6246V54.3965C38.1578 54.0655 38.2893 53.7481 38.5234 53.514C38.7574 53.2799 39.0749 53.1484 39.4059 53.1484C39.7369 53.1484 40.0544 53.2799 40.2884 53.514C40.5225 53.7481 40.654 54.0655 40.654 54.3965V64.6246C40.656 64.7906 40.6253 64.9553 40.5637 65.1093C40.5021 65.2633 40.4106 65.4037 40.2948 65.5224C40.1789 65.6411 40.0407 65.7359 39.8882 65.8012C39.7357 65.8665 39.5718 65.9012 39.4059 65.9032Z" fill="#0C4E98"/>
<path d="M39.4059 84.6851C39.24 84.6831 39.0761 84.6484 38.9236 84.5831C38.7711 84.5178 38.6329 84.4231 38.517 84.3043C38.4011 84.1856 38.3098 84.0452 38.2482 83.8912C38.1865 83.7371 38.1558 83.5724 38.1578 83.4065V69.7842C38.1578 69.4532 38.2893 69.1357 38.5234 68.9017C38.7574 68.6676 39.0749 68.5361 39.4059 68.5361C39.7369 68.5361 40.0544 68.6676 40.2884 68.9017C40.5225 69.1357 40.654 69.4532 40.654 69.7842V83.4065C40.656 83.5724 40.6253 83.7371 40.5637 83.8912C40.5021 84.0452 40.4106 84.1856 40.2948 84.3043C40.1789 84.4231 40.0407 84.5178 39.8882 84.5831C39.7357 84.6484 39.5718 84.6831 39.4059 84.6851Z" fill="#0C4E98"/>
<path d="M39.4059 100.758C39.24 100.756 39.0761 100.721 38.9236 100.656C38.7711 100.591 38.6329 100.496 38.517 100.377C38.4011 100.258 38.3098 100.118 38.2482 99.964C38.1865 99.8099 38.1558 99.6453 38.1578 99.4793V88.688C38.1578 88.357 38.2893 88.0396 38.5234 87.8055C38.7574 87.5714 39.0749 87.4399 39.4059 87.4399C39.7369 87.4399 40.0544 87.5714 40.2884 87.8055C40.5225 88.0396 40.654 88.357 40.654 88.688V99.4793C40.656 99.6453 40.6253 99.8099 40.5637 99.964C40.5021 100.118 40.4106 100.258 40.2948 100.377C40.1789 100.496 40.0407 100.591 39.8882 100.656C39.7357 100.721 39.5718 100.756 39.4059 100.758Z" fill="#0C4E98"/>
<path d="M39.4058 77.8665H19.4974C19.1843 77.8322 18.8949 77.6835 18.6846 77.449C18.4744 77.2145 18.3582 76.9106 18.3582 76.5957C18.3582 76.2807 18.4744 75.9768 18.6846 75.7422C18.8949 75.5077 19.1843 75.359 19.4974 75.3247H39.4058C39.7189 75.359 40.0083 75.5077 40.2185 75.7422C40.4287 75.9768 40.545 76.2807 40.545 76.5957C40.545 76.9106 40.4287 77.2145 40.2185 77.449C40.0083 77.6835 39.7189 77.8322 39.4058 77.8665Z" fill="#0C4E98"/>
</g>
<defs>
<clipPath id="clip0_16_228">
<rect width="107" height="109.907" fill="white" transform="translate(0 0.302734)"/>
</clipPath>
</defs>
</svg>
