<svg width="110" height="110" fill="none" xmlns="http://www.w3.org/2000/svg"><g clip-path="url(#clip0_16_174)"><path d="M83.029 110C82.801 110 82.577 109.939 82.38 109.824C82.1831 109.709 82.0201 109.544 81.9077 109.346L72.1897 92.0591C72.0214 91.7617 71.978 91.4096 72.0691 91.0802C72.1602 90.7508 72.3784 90.4711 72.6756 90.3024C72.9764 90.1406 73.3285 90.1027 73.6567 90.197C73.985 90.2913 74.2633 90.5103 74.4323 90.807L84.1503 108.075C84.3122 108.376 84.35 108.728 84.2557 109.056C84.1614 109.384 83.9425 109.663 83.6457 109.832C83.4585 109.941 83.2458 109.999 83.029 110Z" fill="#0C4E98"/><path d="M26.6087 110C26.392 109.999 26.1792 109.941 25.992 109.832C25.6948 109.663 25.4766 109.383 25.3855 109.054C25.2944 108.725 25.3378 108.372 25.5061 108.075L35.2241 90.807C35.3042 90.6589 35.413 90.5281 35.544 90.4224C35.6751 90.3167 35.8259 90.2381 35.9876 90.1911C36.1493 90.1442 36.3187 90.1298 36.486 90.1489C36.6533 90.168 36.8152 90.2202 36.9621 90.3024C37.2594 90.471 37.4775 90.7508 37.5686 91.0802C37.6597 91.4096 37.6164 91.7616 37.448 92.0591L27.7301 109.346C27.6177 109.544 27.4547 109.709 27.2577 109.824C27.0607 109.939 26.8368 110 26.6087 110Z" fill="#0C4E98"/><path d="M80.1505 104.263H29.4114C29.2439 104.265 29.0775 104.234 28.9222 104.171C28.7668 104.108 28.6257 104.014 28.5072 103.896C28.3887 103.777 28.2952 103.636 28.2322 103.481C28.1693 103.326 28.1381 103.159 28.1406 102.992C28.1382 102.823 28.1692 102.656 28.232 102.5C28.2947 102.343 28.3879 102.201 28.5062 102.081C28.6244 101.961 28.7654 101.866 28.9208 101.801C29.0762 101.736 29.243 101.702 29.4114 101.702H80.1505C80.4925 101.702 80.8205 101.838 81.0623 102.08C81.3041 102.322 81.44 102.65 81.44 102.992C81.44 103.16 81.4065 103.327 81.3415 103.482C81.2765 103.638 81.1812 103.779 81.0612 103.897C80.9412 104.015 80.7989 104.109 80.6426 104.171C80.4862 104.234 80.319 104.265 80.1505 104.263Z" fill="#0C4E98"/><path d="M92.8774 92.7132C92.7149 92.7148 92.5536 92.6843 92.4028 92.6234C92.2521 92.5624 92.1149 92.4723 91.9991 92.3581C91.8724 92.2376 91.7716 92.0927 91.7027 91.9321C91.6337 91.7714 91.5982 91.5985 91.5982 91.4237C91.5982 91.2489 91.6337 91.0759 91.7027 90.9153C91.7716 90.7547 91.8724 90.6097 91.9991 90.4893C99.0744 83.1858 103.842 73.9604 105.707 63.9642C107.572 53.9681 106.452 43.6441 102.486 34.2806C98.5205 24.9172 91.885 16.9291 83.4078 11.3133C74.9305 5.69749 64.9871 2.70272 54.8185 2.70272C44.6499 2.70272 34.7064 5.69749 26.2292 11.3133C17.752 16.9291 11.1164 24.9172 7.15067 34.2806C3.18494 43.6441 2.06469 53.9681 3.92973 63.9642C5.79477 73.9604 10.5625 83.1858 17.6379 90.4893C17.7645 90.6097 17.8654 90.7547 17.9343 90.9153C18.0032 91.0759 18.0387 91.2489 18.0387 91.4237C18.0387 91.5985 18.0032 91.7714 17.9343 91.9321C17.8654 92.0927 17.7645 92.2376 17.6379 92.3581C17.5161 92.4824 17.3707 92.5811 17.2102 92.6486C17.0498 92.716 16.8775 92.7508 16.7034 92.7508C16.5294 92.7508 16.3571 92.716 16.1967 92.6486C16.0362 92.5811 15.8908 92.4824 15.769 92.3581C8.34695 84.6922 3.34661 75.0105 1.39193 64.5209C-0.562762 54.0313 0.614779 43.1984 4.77758 33.3737C8.94037 23.5491 15.9041 15.1677 24.7999 9.2756C33.6957 3.38345 44.1296 0.241364 54.7998 0.241364C65.47 0.241364 75.9039 3.38345 84.7997 9.2756C93.6954 15.1677 100.659 23.5491 104.822 33.3737C108.985 43.1984 110.162 54.0313 108.208 64.5209C106.253 75.0105 101.253 84.6922 93.8305 92.3581C93.7087 92.4824 93.5633 92.5811 93.4029 92.6485C93.2424 92.7159 93.0701 92.7506 92.8961 92.7505" fill="#0C4E98"/><path d="M54.7905 67.297C54.4485 67.297 54.1206 67.1611 53.8787 66.9193C53.6369 66.6775 53.501 66.3495 53.501 66.0075V42.8899C53.4791 42.7088 53.4959 42.5251 53.5502 42.3509C53.6045 42.1768 53.6952 42.0162 53.8161 41.8797C53.9371 41.7432 54.0857 41.6338 54.2521 41.559C54.4184 41.4841 54.5988 41.4454 54.7812 41.4454C54.9636 41.4454 55.144 41.4841 55.3103 41.559C55.4767 41.6338 55.6252 41.7432 55.7462 41.8797C55.8672 42.0162 55.9579 42.1768 56.0122 42.3509C56.0665 42.5251 56.0833 42.7088 56.0614 42.8899V66.0075C56.0614 66.3462 55.9281 66.6714 55.6903 66.9127C55.4525 67.154 55.1293 67.292 54.7905 67.297Z" fill="#0C4E98"/><path d="M59.3879 92.7132H50.1745C49.8325 92.7132 49.5045 92.5773 49.2627 92.3355C49.0209 92.0937 48.885 91.7656 48.885 91.4236C48.885 91.2552 48.9185 91.0884 48.9835 90.933C49.0485 90.7776 49.1438 90.6366 49.2638 90.5184C49.3838 90.4001 49.5261 90.3069 49.6825 90.2442C49.8388 90.1814 50.0061 90.1504 50.1745 90.1528H59.3879C59.5564 90.1504 59.7236 90.1814 59.88 90.2442C60.0363 90.3069 60.1786 90.4001 60.2986 90.5184C60.4186 90.6366 60.5139 90.7776 60.5789 90.933C60.644 91.0884 60.6774 91.2552 60.6774 91.4236C60.6774 91.7656 60.5416 92.0937 60.2997 92.3355C60.0579 92.5773 59.7299 92.7132 59.3879 92.7132Z" fill="#0C4E98"/><path d="M38.644 83.5372H31.7293C31.5482 83.5592 31.3645 83.5424 31.1903 83.4881C31.0162 83.4338 30.8555 83.3431 30.719 83.2221C30.5825 83.1011 30.4732 82.9525 30.3983 82.7862C30.3235 82.6198 30.2848 82.4395 30.2848 82.2571C30.2848 82.0747 30.3235 81.8943 30.3983 81.7279C30.4732 81.5616 30.5825 81.413 30.719 81.292C30.8555 81.171 31.0162 81.0804 31.1903 81.0261C31.3645 80.9718 31.5482 80.955 31.7293 80.9769H38.644C38.8251 80.955 39.0087 80.9718 39.1829 81.0261C39.357 81.0804 39.5177 81.171 39.6542 81.292C39.7907 81.413 39.9 81.5616 39.9749 81.7279C40.0497 81.8943 40.0884 82.0747 40.0884 82.2571C40.0884 82.4395 40.0497 82.6198 39.9749 82.7862C39.9 82.9525 39.7907 83.1011 39.6542 83.2221C39.5177 83.3431 39.357 83.4338 39.1829 83.4881C39.0087 83.5424 38.8251 83.5592 38.644 83.5372Z" fill="#0C4E98"/><path d="M77.8336 83.5372H70.9188C70.606 83.4994 70.3178 83.3482 70.1088 83.1123C69.8997 82.8765 69.7843 82.5722 69.7843 82.2571C69.7843 81.9419 69.8997 81.6377 70.1088 81.4018C70.3178 81.166 70.606 81.0148 70.9188 80.9769H77.8336C78.0147 80.955 78.1983 80.9718 78.3725 81.0261C78.5466 81.0804 78.7073 81.171 78.8438 81.292C78.9803 81.413 79.0896 81.5616 79.1645 81.7279C79.2393 81.8943 79.278 82.0747 79.278 82.2571C79.278 82.4395 79.2393 82.6198 79.1645 82.7862C79.0896 82.9525 78.9803 83.1011 78.8438 83.2221C78.7073 83.3431 78.5466 83.4338 78.3725 83.4881C78.1983 83.5424 78.0147 83.5592 77.8336 83.5372Z" fill="#0C4E98"/><path d="M84.7672 67.297H24.7961C24.4541 67.297 24.1261 67.1611 23.8843 66.9193C23.6425 66.6775 23.5066 66.3495 23.5066 66.0075C23.5066 65.6655 23.6425 65.3375 23.8843 65.0957C24.1261 64.8539 24.4541 64.718 24.7961 64.718H84.7672C85.1092 64.718 85.4372 64.8539 85.679 65.0957C85.9209 65.3375 86.0567 65.6655 86.0567 66.0075C86.0567 66.3495 85.9209 66.6775 85.679 66.9193C85.4372 67.1611 85.1092 67.297 84.7672 67.297Z" fill="#0C4E98"/><path d="M67.312 90.1529H80.1509C81.0349 90.1479 81.881 89.7933 82.5043 89.1665C83.1276 88.5397 83.4775 87.6916 83.4775 86.8076V33.6391C83.4873 32.5905 83.2899 31.5503 82.8966 30.5781C82.5032 29.606 81.9217 28.7212 81.1854 27.9745C80.4491 27.2278 79.5725 26.6339 78.6061 26.2269C77.6396 25.82 76.6022 25.608 75.5536 25.6031H34.0279C31.9197 25.608 29.8995 26.449 28.4105 27.9415C26.9215 29.434 26.0853 31.4561 26.0853 33.5644V86.7329C26.0853 87.6168 26.4352 88.4649 27.0585 89.0917C27.6818 89.7185 28.5279 90.0732 29.4119 90.0781H42.2508L44.3065 81.7992C44.3773 81.5209 44.5389 81.2742 44.7657 81.0982C44.9925 80.9221 45.2715 80.8268 45.5587 80.8273H64.0041C64.2912 80.8268 64.5703 80.9221 64.7971 81.0982C65.0239 81.2742 65.1855 81.5209 65.2563 81.7992L67.312 90.1529ZM80.1509 92.7132H66.3215C66.0344 92.7137 65.7553 92.6184 65.5285 92.4424C65.3017 92.2664 65.1401 92.0197 65.0694 91.7414L62.9949 83.5372H46.5678L44.4934 91.8161C44.4264 92.0929 44.2684 92.3391 44.0448 92.5153C43.8211 92.6916 43.5447 92.7876 43.26 92.7879H29.4119C27.8489 92.783 26.3516 92.1586 25.2481 91.0517C24.1446 89.9447 23.525 88.4454 23.525 86.8824V33.6391C23.525 30.8518 24.631 28.1784 26.6001 26.2058C28.5692 24.2332 31.2406 23.1225 34.0279 23.1176H75.5536C78.3408 23.1225 81.0122 24.2332 82.9814 26.2058C84.9505 28.1784 86.0564 30.8518 86.0564 33.6391V86.8076C86.0564 88.3707 85.4368 89.8699 84.3334 90.9769C83.2299 92.0838 81.7326 92.7082 80.1696 92.7132" fill="#0C4E98"/><path d="M66.3212 34.9473H43.2597C42.9177 34.9473 42.5897 34.8115 42.3479 34.5697C42.1061 34.3278 41.9702 33.9998 41.9702 33.6578C41.9702 33.4894 42.0037 33.3226 42.0687 33.1672C42.1337 33.0118 42.229 32.8708 42.349 32.7526C42.469 32.6343 42.6113 32.5411 42.7677 32.4784C42.924 32.4156 43.0913 32.3846 43.2597 32.387H66.3212C66.4888 32.3845 66.6552 32.4157 66.8105 32.4786C66.9658 32.5416 67.1069 32.6351 67.2254 32.7536C67.3439 32.8722 67.4374 33.0132 67.5004 33.1686C67.5634 33.3239 67.5946 33.4903 67.592 33.6578C67.5945 33.8263 67.5635 33.9936 67.5007 34.1499C67.438 34.3063 67.3447 34.4485 67.2265 34.5685C67.1082 34.6885 66.9673 34.7838 66.8119 34.8489C66.6565 34.9139 66.4897 34.9474 66.3212 34.9473Z" fill="#0C4E98"/><path d="M84.7672 44.1794H24.7961C24.4541 44.1794 24.1261 44.0436 23.8843 43.8017C23.6425 43.5599 23.5066 43.2319 23.5066 42.8899C23.5066 42.5479 23.6425 42.2199 23.8843 41.9781C24.1261 41.7362 24.4541 41.6004 24.7961 41.6004H84.7672C85.1092 41.6004 85.4372 41.7362 85.679 41.9781C85.9209 42.2199 86.0567 42.5479 86.0567 42.8899C86.0567 43.2319 85.9209 43.5599 85.679 43.8017C85.4372 44.0436 85.1092 44.1794 84.7672 44.1794Z" fill="#0C4E98"/></g><defs><clipPath id="clip0_16_174"><rect width="108.636" height="110" fill="white" transform="translate(0.463379)"/></clipPath></defs></svg>