<svg width="63" height="75" viewBox="0 0 63 75" fill="none" xmlns="http://www.w3.org/2000/svg">
<g clip-path="url(#clip0_233_3434)">
<path d="M20.0984 21.2008H1.10236C0.808197 21.1956 0.527822 21.0751 0.321636 20.8653C0.11545 20.6554 -4.52665e-05 20.373 1.33089e-08 20.0787V1.10237C1.33089e-08 0.810008 0.116135 0.529616 0.322868 0.322883C0.529601 0.11615 0.809993 0 1.10236 0H13.8583C14.1506 0 14.431 0.11615 14.6377 0.322883C14.8445 0.529616 14.9606 0.810008 14.9606 1.10237C14.9606 1.39474 14.8445 1.67511 14.6377 1.88185C14.431 2.08858 14.1506 2.20473 13.8583 2.20473H2.30315V18.9764H19.0945V12.1654C19.0945 11.873 19.2106 11.5926 19.4174 11.3859C19.6241 11.1791 19.9045 11.063 20.1968 11.063C20.4892 11.063 20.7696 11.1791 20.9763 11.3859C21.1831 11.5926 21.2992 11.873 21.2992 12.1654V20.0394C21.2992 20.3336 21.1837 20.616 20.9776 20.8259C20.7714 21.0358 20.491 21.1563 20.1968 21.1614" fill="white"/>
<path d="M10.61 16.4368C10.4642 16.4412 10.319 16.4154 10.1835 16.3613C10.0481 16.3071 9.92522 16.2256 9.82262 16.1218L5.07852 11.3777C4.87174 11.1678 4.75586 10.885 4.75586 10.5904C4.75586 10.2957 4.87174 10.0129 5.07852 9.80295C5.28509 9.5974 5.56466 9.48199 5.85608 9.48199C6.1475 9.48199 6.42708 9.5974 6.63365 9.80295L10.5707 13.74L20.8856 0.472249C20.9748 0.357213 21.0858 0.260864 21.2122 0.188715C21.3386 0.116565 21.478 0.0700252 21.6224 0.0517459C21.7668 0.0334667 21.9134 0.0437994 22.0538 0.0821734C22.1942 0.120547 22.3257 0.186201 22.4407 0.275386C22.5558 0.364571 22.6521 0.475545 22.7243 0.601963C22.7964 0.728382 22.8429 0.867773 22.8612 1.01218C22.8795 1.15658 22.8692 1.30318 22.8308 1.44358C22.7924 1.58399 22.7268 1.71547 22.6376 1.83051L11.5549 16.0825C11.455 16.202 11.332 16.3002 11.1934 16.3712C11.0547 16.4422 10.9032 16.4846 10.7478 16.4959" fill="white"/>
<path d="M20.0978 46.5151H1.10176C0.826614 46.4954 0.568843 46.3733 0.379336 46.1729C0.189828 45.9724 0.0823485 45.7082 0.078125 45.4324V26.4363C0.078125 26.144 0.19426 25.8636 0.400993 25.6569C0.607726 25.4501 0.888118 25.334 1.18048 25.334H13.8577C14.15 25.334 14.4304 25.4501 14.6371 25.6569C14.8439 25.8636 14.96 26.144 14.96 26.4363C14.96 26.7287 14.8439 27.0091 14.6371 27.2158C14.4304 27.4226 14.15 27.5387 13.8577 27.5387H2.30254V44.3103H19.0939V37.5584C19.0939 37.266 19.21 36.9856 19.4167 36.7789C19.6235 36.5722 19.9039 36.456 20.1962 36.456C20.4886 36.456 20.769 36.5722 20.9757 36.7789C21.1825 36.9856 21.2986 37.266 21.2986 37.5584V45.4324C21.2986 45.5772 21.2701 45.7205 21.2147 45.8543C21.1593 45.988 21.0781 46.1095 20.9757 46.2119C20.8734 46.3143 20.7518 46.3955 20.6181 46.4509C20.4843 46.5063 20.341 46.5348 20.1962 46.5348" fill="white"/>
<path d="M10.6103 41.7708C10.4631 41.7726 10.317 41.7438 10.1815 41.6862C10.0459 41.6286 9.92382 41.5435 9.82292 41.4362L5.07882 36.6921C4.96458 36.5929 4.87199 36.4712 4.8068 36.3347C4.74161 36.1982 4.70522 36.0497 4.6999 35.8985C4.69458 35.7473 4.72043 35.5966 4.77586 35.4558C4.83129 35.3151 4.91513 35.1872 5.02211 35.0802C5.12909 34.9733 5.25695 34.8894 5.39772 34.834C5.53849 34.7786 5.68918 34.7527 5.84038 34.758C5.99158 34.7634 6.14004 34.7998 6.27657 34.8649C6.4131 34.9301 6.53476 35.0227 6.63395 35.137L10.571 39.074L20.8859 25.8063C21.071 25.58 21.337 25.4348 21.6275 25.4017C21.9179 25.3687 22.2098 25.4502 22.441 25.6291C22.669 25.8078 22.8175 26.0691 22.8543 26.3564C22.8912 26.6438 22.8134 26.9341 22.6379 27.1645L11.5552 41.4165C11.4596 41.5423 11.338 41.6461 11.1988 41.7208C11.0595 41.7955 10.9058 41.8394 10.7481 41.8496" fill="white"/>
<path d="M20.0984 74.9606H1.10236C0.809993 74.9606 0.529601 74.8444 0.322868 74.6377C0.116135 74.431 0 74.1506 0 73.8582V54.8621C0 54.5698 0.116135 54.2894 0.322868 54.0827C0.529601 53.8759 0.809993 53.7598 1.10236 53.7598H13.8583C14.1506 53.7598 14.431 53.8759 14.6377 54.0827C14.8445 54.2894 14.9606 54.5698 14.9606 54.8621C14.9606 55.1545 14.8445 55.4349 14.6377 55.6416C14.431 55.8483 14.1506 55.9645 13.8583 55.9645H2.30315V72.7361H19.0945V70.7676C19.0945 70.4753 19.2106 70.1949 19.4174 69.9881C19.6241 69.7814 19.9045 69.6653 20.1968 69.6653C20.4892 69.6653 20.7696 69.7814 20.9763 69.9881C21.1831 70.1949 21.2992 70.4753 21.2992 70.7676V73.9369C21.2992 74.2293 21.1831 74.5097 20.9763 74.7164C20.7696 74.9232 20.4892 75.0393 20.1968 75.0393" fill="white"/>
<path d="M55.9637 22.2235C55.6149 22.2214 55.2694 22.2902 54.9479 22.4255C54.6265 22.5608 54.3359 22.76 54.0936 23.0109L27.3022 49.8022C23.7916 53.3035 21.2133 57.6278 19.8023 62.3809C24.5591 60.9652 28.8887 58.3877 32.4007 54.881L59.133 28.0896C59.38 27.8428 59.5759 27.5497 59.7096 27.2272C59.8433 26.9046 59.9121 26.5589 59.9121 26.2097C59.9121 25.8605 59.8433 25.5148 59.7096 25.1922C59.5759 24.8696 59.38 24.5766 59.133 24.3298L57.8141 23.0109C57.559 22.7496 57.2521 22.5446 56.9131 22.409C56.5741 22.2734 56.2104 22.2102 55.8456 22.2235M18.2471 65.1172C18.1032 65.1163 17.9609 65.0862 17.8289 65.0286C17.6969 64.9711 17.578 64.8874 17.4794 64.7825C17.3428 64.6542 17.2432 64.4914 17.1913 64.3112C17.1393 64.1311 17.1368 63.9403 17.1841 63.7589C18.5293 57.9055 21.4971 52.5498 25.7471 48.3062L52.5385 21.5148C53.45 20.6048 54.6855 20.0938 55.9735 20.0938C57.2616 20.0938 58.497 20.6048 59.4085 21.5148L60.7471 22.8534C61.6536 23.7708 62.1618 25.0086 62.1618 26.2983C62.1618 27.588 61.6536 28.8257 60.7471 29.7431L33.9558 56.5148C29.7147 60.7683 24.358 63.7367 18.503 65.0778H18.2471" fill="white"/>
<path d="M49.2915 48.6022C49.0586 48.6131 48.8281 48.5511 48.632 48.4249C48.4359 48.2988 48.284 48.1146 48.1975 47.8981C48.1109 47.6816 48.0938 47.4435 48.1488 47.2169C48.2037 46.9903 48.3279 46.7865 48.5041 46.6337L56.3781 38.6613C56.6251 38.4145 56.8211 38.1214 56.9548 37.7989C57.0885 37.4763 57.1573 37.1305 57.1573 36.7814C57.1573 36.4322 57.0885 36.0865 56.9548 35.7639C56.8211 35.4413 56.6251 35.1483 56.3781 34.9015L48.5041 26.9093C48.3899 26.8101 48.2972 26.6885 48.2321 26.552C48.1669 26.4154 48.1305 26.267 48.1252 26.1158C48.1198 25.9646 48.1457 25.8139 48.2011 25.6731C48.2566 25.5323 48.3404 25.4045 48.4474 25.2975C48.5543 25.1905 48.6822 25.1067 48.823 25.0513C48.9637 24.9958 49.1144 24.97 49.2656 24.9753C49.4168 24.9806 49.5653 25.017 49.7018 25.0822C49.8384 25.1474 49.96 25.24 50.0592 25.3542L58.0513 33.2282C58.9577 34.1457 59.466 35.3834 59.466 36.6731C59.466 37.9628 58.9577 39.2005 58.0513 40.118L50.0592 48.0904C49.8573 48.2986 49.5815 48.4189 49.2915 48.4251" fill="white"/>
<path d="M39.6267 50.3154C39.3332 50.3175 39.0505 50.2044 38.8393 50.0005L32.2055 43.3469C31.9987 43.137 31.8828 42.8542 31.8828 42.5595C31.8828 42.2649 31.9987 41.982 32.2055 41.7721C32.4121 41.5666 32.6916 41.4512 32.983 41.4512C33.2745 41.4512 33.554 41.5666 33.7606 41.7721L40.4142 48.4257C40.6209 48.6356 40.7368 48.9184 40.7368 49.2131C40.7368 49.5077 40.6209 49.7906 40.4142 50.0005C40.3109 50.1033 40.1879 50.1841 40.0526 50.2383C39.9173 50.2924 39.7724 50.3186 39.6267 50.3154Z" fill="white"/>
</g>
<defs>
<clipPath id="clip0_233_3434">
<rect width="62.1654" height="75" fill="white"/>
</clipPath>
</defs>
</svg>
