<svg width="88" height="75" viewBox="0 0 88 75" fill="none" xmlns="http://www.w3.org/2000/svg">
<path d="M22.5929 21.2727L52.0426 41.1754C52.1815 41.2645 52.2958 41.387 52.3751 41.5318C52.4544 41.6765 52.496 41.8388 52.4963 42.0038V63.0703L65.4163 54.7463V33.4234L34.5464 14.0533L22.5929 21.2727ZM51.4903 65.9502C51.3188 65.951 51.1497 65.9104 50.9972 65.8318C50.8363 65.746 50.7018 65.6181 50.608 65.4618C50.5142 65.3054 50.4646 65.1265 50.4646 64.9442V42.5561L20.147 22.0617C20.0063 21.9651 19.8914 21.8354 19.8123 21.6841C19.7332 21.5329 19.6924 21.3645 19.6934 21.1938C19.6944 21.0217 19.7405 20.8528 19.827 20.704C19.9135 20.5552 20.0374 20.4316 20.1865 20.3456L33.9941 12.0019C34.153 11.8999 34.3379 11.8457 34.5267 11.8457C34.7155 11.8457 34.9003 11.8999 35.0593 12.0019L66.9351 32.0032C67.0808 32.0962 67.2005 32.2246 67.2833 32.3763C67.3661 32.5281 67.4091 32.6982 67.4085 32.8711V55.2986C67.4047 55.4657 67.3617 55.6295 67.2829 55.7768C67.2041 55.9242 67.0917 56.0509 66.9549 56.1468L51.9835 65.7924C51.8234 65.892 51.6394 65.9466 51.4509 65.9502" fill="white"/>
<path d="M30.915 56.2268C30.7252 56.2325 30.5385 56.1772 30.3824 56.069L0.479073 37.3892C0.332382 37.2968 0.211484 37.1688 0.127707 37.017C0.043929 36.8652 0 36.6947 0 36.5213C0 36.348 0.043929 36.1774 0.127707 36.0257C0.211484 35.8739 0.332382 35.7458 0.479073 35.6534L22.591 21.9839C22.8185 21.8426 23.0929 21.7976 23.3537 21.8586C23.6145 21.9196 23.8403 22.0818 23.9816 22.3094C24.1228 22.5369 24.1679 22.8113 24.1069 23.0721C24.0459 23.3329 23.8837 23.5587 23.6561 23.7L2.925 36.5213L30.915 54.0175L50.9361 41.3343C51.1636 41.1904 51.439 41.1428 51.7017 41.202C51.9643 41.2612 52.1927 41.4223 52.3365 41.6499C52.4804 41.8774 52.528 42.1529 52.4688 42.4155C52.4096 42.6782 52.2485 42.9065 52.0209 43.0503L31.4673 56.069C31.3 56.1685 31.1096 56.2229 30.915 56.2268Z" fill="white"/>
<path d="M30.9139 65.5769C30.7254 65.5732 30.5414 65.5187 30.3813 65.419L0.477977 46.7394C0.281591 46.5835 0.149086 46.3612 0.105481 46.1143C0.0618765 45.8674 0.110193 45.6131 0.241314 45.3994C0.372436 45.1857 0.577266 45.0275 0.817123 44.9545C1.05698 44.8816 1.31524 44.899 1.54312 45.0035L30.9139 63.3677L50.935 50.6844C51.0476 50.6132 51.1732 50.5648 51.3046 50.5421C51.436 50.5194 51.5705 50.5228 51.7006 50.5521C51.8306 50.5814 51.9536 50.6361 52.0625 50.7129C52.1715 50.7898 52.2642 50.8873 52.3354 50.9999C52.4067 51.1126 52.455 51.2382 52.4777 51.3696C52.5004 51.501 52.497 51.6355 52.4677 51.7656C52.4384 51.8956 52.3837 52.0186 52.3069 52.1275C52.23 52.2365 52.1325 52.3292 52.0198 52.4005L31.4662 65.419C31.2989 65.5186 31.1086 65.573 30.9139 65.5769Z" fill="white"/>
<path d="M30.9152 74.9283C30.7267 74.9247 30.5427 74.8702 30.3826 74.7705L0.479281 56.0711C0.251713 55.9298 0.0895665 55.7039 0.0285299 55.4431C-0.0325066 55.1823 0.0125499 54.908 0.153799 54.6805C0.295048 54.4529 0.520915 54.2907 0.781708 54.2297C1.0425 54.1687 1.31686 54.2137 1.54443 54.355L30.9152 72.7191L50.9363 60.0358C51.0489 59.9646 51.1745 59.9162 51.3059 59.8935C51.4373 59.8708 51.5718 59.8743 51.7019 59.9036C51.8319 59.9329 51.9549 59.9875 52.0638 60.0644C52.1728 60.1412 52.2655 60.2388 52.3367 60.3514C52.408 60.4641 52.4563 60.5897 52.479 60.721C52.5017 60.8524 52.4983 60.987 52.469 61.117C52.4397 61.2471 52.385 61.3701 52.3082 61.479C52.2313 61.588 52.1338 61.6807 52.0211 61.7519L31.4675 74.7705C31.3002 74.8701 31.1099 74.9244 30.9152 74.9283Z" fill="white"/>
<path d="M66.3224 33.7996C66.1522 33.8006 65.9846 33.7575 65.836 33.6745C65.6873 33.5916 65.5627 33.4716 65.4742 33.3262C65.3331 33.0979 65.2871 32.8234 65.3461 32.5615C65.4051 32.2997 65.5644 32.0715 65.7898 31.9257L85.081 19.7158L57.091 2.21962L37.1883 15.0015C37.0772 15.0749 36.9526 15.1254 36.8218 15.1502C36.6909 15.1751 36.5565 15.1737 36.4262 15.1461C36.296 15.1186 36.1725 15.0655 36.0629 14.9899C35.9533 14.9143 35.8598 14.8176 35.7878 14.7056C35.6449 14.4797 35.5958 14.2069 35.6511 13.9453C35.7063 13.6837 35.8616 13.454 36.0837 13.3052L56.5387 0.148474C56.7029 0.0512825 56.8903 0 57.0811 0C57.272 0 57.4593 0.0512825 57.6236 0.148474L87.5269 18.8479C87.6723 18.9364 87.7923 19.0611 87.8753 19.2097C87.9582 19.3583 88.0013 19.5259 88.0003 19.6961C88.0009 19.8689 87.9578 20.0391 87.8751 20.1908C87.7923 20.3426 87.6726 20.4709 87.5269 20.564L66.8747 33.6418C66.7114 33.7503 66.5184 33.8055 66.3224 33.7996Z" fill="white"/>
<path d="M66.439 43.0703C66.2683 43.0713 66.0999 43.0304 65.9487 42.9514C65.7974 42.8723 65.6677 42.7573 65.5711 42.6166C65.43 42.3883 65.3841 42.1138 65.4431 41.852C65.5021 41.5902 65.6613 41.3619 65.8867 41.2161L86.4403 28.2173C86.5526 28.1448 86.6783 28.0955 86.8099 28.0721C86.9415 28.0488 87.0764 28.0519 87.2068 28.0812C87.3372 28.1106 87.4604 28.1657 87.5693 28.2432C87.6781 28.3208 87.7704 28.4192 87.8408 28.5329C87.9819 28.7612 88.0279 29.0357 87.9689 29.2975C87.9099 29.5593 87.7506 29.7876 87.5252 29.9333L66.9716 42.9322C66.8155 43.0404 66.6289 43.0958 66.439 43.09" fill="white"/>
<path d="M66.439 52.4207C66.2683 52.4216 66.0999 52.3809 65.9487 52.3018C65.7974 52.2227 65.6677 52.1078 65.5711 51.967C65.43 51.7387 65.3841 51.4642 65.4431 51.2023C65.5021 50.9405 65.6613 50.7122 65.8867 50.5665L86.4403 37.5282C86.6679 37.3843 86.9433 37.3367 87.2059 37.3959C87.4686 37.4551 87.6969 37.6162 87.8408 37.8438C87.9847 38.0714 88.0322 38.3467 87.9731 38.6094C87.9139 38.872 87.7528 39.1004 87.5252 39.2443L66.9716 52.2629C66.8155 52.3711 66.6289 52.4264 66.439 52.4207Z" fill="white"/>
</svg>
