<svg width="70" height="75" viewBox="0 0 70 75" fill="none" xmlns="http://www.w3.org/2000/svg">
<g clip-path="url(#clip0_233_3447)">
<path d="M32.4813 60.6491L44.0889 72.2633L67.2846 49.0743L62.2677 44.0547L44.8956 61.4366C44.7927 61.5443 44.6691 61.6301 44.5321 61.6887C44.3951 61.7474 44.2477 61.7776 44.0988 61.7776C43.9498 61.7776 43.8024 61.7474 43.6655 61.6887C43.5285 61.6301 43.4049 61.5443 43.302 61.4366L37.3998 55.6294L32.4813 60.6491ZM44.0889 74.9995C43.7932 74.9943 43.5111 74.8743 43.302 74.6649L30.0811 61.4366C29.9734 61.3336 29.8876 61.2099 29.829 61.0729C29.7704 60.9358 29.7402 60.7884 29.7402 60.6393C29.7402 60.4903 29.7704 60.3428 29.829 60.2057C29.8876 60.0687 29.9734 59.945 30.0811 59.8421L36.6915 53.2279C36.9046 53.0199 37.1906 52.9034 37.4884 52.9034C37.7861 52.9034 38.072 53.0199 38.2852 53.2279L44.0889 59.035L61.4807 41.6531C61.5816 41.5458 61.7036 41.4607 61.8391 41.4031C61.9746 41.3454 62.1205 41.3166 62.2677 41.3184C62.5703 41.3186 62.8604 41.4389 63.0743 41.6531L69.6848 48.2673C69.8927 48.4805 70.0091 48.7666 70.0091 49.0645C70.0091 49.3624 69.8927 49.6485 69.6848 49.8617L44.8956 74.6649C44.6817 74.879 44.3915 74.9994 44.0889 74.9995Z" fill="white"/>
<path d="M34.1737 74.9608H1.14112C0.838488 74.9608 0.54824 74.8405 0.334244 74.6264C0.120248 74.4123 0 74.1219 0 73.8191V7.73639C0.000127233 7.43364 0.120459 7.14333 0.334484 6.92932L6.94491 0.31514C7.16624 0.114987 7.45322 0.00292728 7.75155 0.000172649H55.6577C55.8066 -0.00244175 55.9545 0.0246593 56.0929 0.0798758C56.2312 0.135092 56.3572 0.217326 56.4634 0.321779C56.5697 0.426232 56.654 0.550813 56.7116 0.688245C56.7692 0.825677 56.7988 0.973199 56.7988 1.12222V39.1537C56.7625 39.4282 56.6278 39.6802 56.4197 39.8627C56.2115 40.0452 55.9443 40.1459 55.6675 40.1459C55.3908 40.1459 55.1235 40.0452 54.9154 39.8627C54.7072 39.6802 54.5725 39.4282 54.5363 39.1537V2.24427H8.20407L2.30188 8.14978V72.6773H34.2131C34.3741 72.656 34.5379 72.6694 34.6934 72.7165C34.8489 72.7637 34.9926 72.8435 35.1148 72.9506C35.2369 73.0578 35.3348 73.1898 35.4019 73.3379C35.4689 73.486 35.5036 73.6467 35.5036 73.8092C35.5036 73.9718 35.4689 74.1325 35.4019 74.2806C35.3348 74.4286 35.2369 74.5607 35.1148 74.6678C34.9926 74.775 34.8489 74.8548 34.6934 74.9019C34.5379 74.9491 34.3741 74.9624 34.2131 74.9411" fill="white"/>
<path d="M11.0559 12.1648H6.0981C5.94918 12.1674 5.80126 12.1403 5.66292 12.0851C5.52459 12.0299 5.39864 11.9477 5.29242 11.8432C5.18619 11.7388 5.10179 11.6142 5.04421 11.4768C4.98663 11.3393 4.95701 11.1918 4.95703 11.0428C4.95703 10.74 5.07722 10.4496 5.29122 10.2354C5.50521 10.0213 5.79546 9.90103 6.0981 9.90103H9.91485V6.06245C9.95111 5.78794 10.0858 5.53597 10.2939 5.35346C10.5021 5.17094 10.7694 5.07031 11.0461 5.07031C11.3229 5.07031 11.5901 5.17094 11.7983 5.35346C12.0064 5.53597 12.1411 5.78794 12.1773 6.06245V11.0231C12.1773 11.3207 12.0592 11.6061 11.8489 11.8165C11.6386 12.0269 11.3533 12.1451 11.0559 12.1451" fill="white"/>
<path d="M42.4366 23.7794H14.3618C14.2129 23.782 14.0649 23.7549 13.9266 23.6997C13.7883 23.6445 13.6623 23.5623 13.5561 23.4578C13.4499 23.3534 13.3655 23.2288 13.3079 23.0914C13.2504 22.9539 13.2207 22.8064 13.2207 22.6574C13.2207 22.3546 13.341 22.0641 13.5549 21.85C13.7689 21.6359 14.0592 21.5156 14.3618 21.5156H42.4366C42.7392 21.5156 43.0294 21.6359 43.2434 21.85C43.4574 22.0641 43.5776 22.3546 43.5776 22.6574C43.5777 22.8064 43.548 22.9539 43.4905 23.0914C43.4329 23.2288 43.3485 23.3534 43.2423 23.4578C43.1361 23.5623 43.0101 23.6445 42.8717 23.6997C42.7334 23.7549 42.5855 23.782 42.4366 23.7794Z" fill="white"/>
<path d="M42.4366 30.3536H14.3618C14.2129 30.3562 14.0649 30.3291 13.9266 30.2739C13.7883 30.2187 13.6623 30.1365 13.5561 30.032C13.4499 29.9276 13.3655 29.803 13.3079 29.6656C13.2504 29.5281 13.2207 29.3806 13.2207 29.2316C13.2207 28.9288 13.341 28.6384 13.5549 28.4242C13.7689 28.2101 14.0592 28.0898 14.3618 28.0898H42.4366C42.7392 28.0898 43.0294 28.2101 43.2434 28.4242C43.4574 28.6384 43.5776 28.9288 43.5776 29.2316C43.5777 29.3806 43.548 29.5281 43.4905 29.6656C43.4329 29.803 43.3485 29.9276 43.2423 30.032C43.1361 30.1365 43.0101 30.2187 42.8717 30.2739C42.7334 30.3291 42.5855 30.3562 42.4366 30.3536Z" fill="white"/>
<path d="M34.1745 36.9689H14.3629C14.2018 36.9902 14.038 36.9769 13.8825 36.9297C13.727 36.8826 13.5834 36.8028 13.4612 36.6956C13.339 36.5885 13.2411 36.4565 13.174 36.3084C13.107 36.1603 13.0723 35.9996 13.0723 35.837C13.0723 35.6745 13.107 35.5138 13.174 35.3657C13.2411 35.2176 13.339 35.0856 13.4612 34.9784C13.5834 34.8713 13.727 34.7915 13.8825 34.7443C14.038 34.6972 14.2018 34.6839 14.3629 34.7052H34.1745C34.3356 34.6839 34.4994 34.6972 34.6549 34.7443C34.8104 34.7915 34.954 34.8713 35.0762 34.9784C35.1984 35.0856 35.2963 35.2176 35.3634 35.3657C35.4305 35.5138 35.4652 35.6745 35.4652 35.837C35.4652 35.9996 35.4305 36.1603 35.3634 36.3084C35.2963 36.4565 35.1984 36.5885 35.0762 36.6956C34.954 36.8028 34.8104 36.8826 34.6549 36.9297C34.4994 36.9769 34.3356 36.9902 34.1745 36.9689Z" fill="white"/>
</g>
<defs>
<clipPath id="clip0_233_3447">
<rect width="70" height="75" fill="white"/>
</clipPath>
</defs>
</svg>
