<svg width="88" height="75" viewBox="0 0 88 75" fill="none" xmlns="http://www.w3.org/2000/svg">
<path d="M22.5929 21.2736L52.0426 41.1763C52.1815 41.2654 52.2958 41.388 52.3751 41.5327C52.4544 41.6774 52.496 41.8397 52.4963 42.0048V63.0713L65.4163 54.7473V33.4243L34.5464 14.0542L22.5929 21.2736ZM51.4903 65.9511C51.3188 65.952 51.1497 65.9114 50.9972 65.8328C50.8363 65.747 50.7018 65.619 50.608 65.4627C50.5142 65.3064 50.4646 65.1275 50.4646 64.9451V42.5571L20.147 22.0626C20.0063 21.966 19.8914 21.8364 19.8123 21.6851C19.7332 21.5338 19.6924 21.3654 19.6934 21.1947C19.6944 21.0226 19.7405 20.8538 19.827 20.705C19.9135 20.5562 20.0374 20.4326 20.1865 20.3465L33.9941 12.0028C34.153 11.9008 34.3379 11.8466 34.5267 11.8466C34.7155 11.8466 34.9003 11.9008 35.0593 12.0028L66.9351 32.0041C67.0808 32.0972 67.2005 32.2255 67.2833 32.3773C67.3661 32.529 67.4091 32.6992 67.4085 32.872V55.2996C67.4047 55.4666 67.3617 55.6304 67.2829 55.7778C67.2041 55.9251 67.0917 56.0518 66.9549 56.1477L51.9835 65.7933C51.8234 65.893 51.6394 65.9475 51.4509 65.9511" fill="#0C4E98"/>
<path d="M30.915 56.2278C30.7252 56.2335 30.5385 56.1782 30.3824 56.0699L0.479073 37.3902C0.332382 37.2978 0.211484 37.1698 0.127707 37.018C0.043929 36.8662 0 36.6957 0 36.5223C0 36.349 0.043929 36.1784 0.127707 36.0266C0.211484 35.8749 0.332382 35.7468 0.479073 35.6544L22.591 21.9849C22.8185 21.8436 23.0929 21.7985 23.3537 21.8596C23.6145 21.9206 23.8403 22.0828 23.9816 22.3103C24.1228 22.5379 24.1679 22.8123 24.1069 23.0731C24.0459 23.3338 23.8837 23.5597 23.6561 23.701L2.925 36.5223L30.915 54.0185L50.936 41.3352C51.1636 41.1914 51.439 41.1438 51.7017 41.203C51.9643 41.2622 52.1927 41.4233 52.3365 41.6508C52.4804 41.8784 52.528 42.1538 52.4688 42.4165C52.4096 42.6791 52.2485 42.9075 52.0209 43.0513L31.4673 56.0699C31.3 56.1695 31.1096 56.2239 30.915 56.2278" fill="#0C4E98"/>
<path d="M30.9139 65.5759C30.7254 65.5723 30.5414 65.5177 30.3813 65.4181L0.477977 46.7384C0.281591 46.5825 0.149086 46.3602 0.105481 46.1133C0.0618765 45.8664 0.110193 45.6121 0.241314 45.3984C0.372436 45.1847 0.577266 45.0265 0.817123 44.9536C1.05698 44.8806 1.31524 44.898 1.54312 45.0026L30.9139 63.3667L50.935 50.6834C51.0476 50.6122 51.1732 50.5638 51.3046 50.5411C51.436 50.5184 51.5705 50.5219 51.7006 50.5512C51.8306 50.5805 51.9536 50.6351 52.0625 50.7119C52.1715 50.7888 52.2642 50.8863 52.3354 50.999C52.4067 51.1116 52.455 51.2373 52.4777 51.3686C52.5004 51.5 52.497 51.6345 52.4677 51.7646C52.4384 51.8946 52.3837 52.0176 52.3069 52.1266C52.23 52.2355 52.1325 52.3283 52.0198 52.3995L31.4662 65.4181C31.2989 65.5176 31.1086 65.572 30.9139 65.5759" fill="#0C4E98"/>
<path d="M30.9152 74.9273C30.7267 74.9237 30.5427 74.8692 30.3826 74.7696L0.479281 56.0701C0.251713 55.9288 0.0895665 55.703 0.0285299 55.4422C-0.0325066 55.1814 0.0125499 54.907 0.153799 54.6795C0.295048 54.4519 0.520915 54.2898 0.781708 54.2287C1.0425 54.1677 1.31686 54.2127 1.54443 54.354L30.9152 72.7181L50.9363 60.0349C51.0489 59.9636 51.1745 59.9152 51.3059 59.8925C51.4373 59.8699 51.5718 59.8733 51.7019 59.9026C51.8319 59.9319 51.9549 59.9865 52.0638 60.0634C52.1728 60.1402 52.2655 60.2378 52.3367 60.3505C52.408 60.4631 52.4563 60.5887 52.479 60.7201C52.5017 60.8514 52.4983 60.986 52.469 61.116C52.4397 61.2461 52.385 61.3691 52.3082 61.4781C52.2314 61.587 52.1338 61.6797 52.0211 61.7509L31.4675 74.7696C31.3002 74.8691 31.1099 74.9234 30.9152 74.9273" fill="#0C4E98"/>
<path d="M66.3224 33.7996C66.1522 33.8006 65.9846 33.7575 65.836 33.6745C65.6873 33.5916 65.5627 33.4716 65.4742 33.3262C65.3331 33.0979 65.2871 32.8234 65.3461 32.5615C65.4051 32.2997 65.5644 32.0715 65.7898 31.9257L85.081 19.7158L57.091 2.21962L37.1883 15.0015C37.0772 15.0749 36.9526 15.1254 36.8218 15.1502C36.6909 15.1751 36.5565 15.1737 36.4262 15.1461C36.296 15.1186 36.1725 15.0655 36.0629 14.9899C35.9533 14.9143 35.8598 14.8176 35.7878 14.7056C35.6449 14.4797 35.5958 14.2069 35.6511 13.9453C35.7063 13.6837 35.8616 13.454 36.0837 13.3052L56.5387 0.148474C56.7029 0.0512825 56.8903 0 57.0811 0C57.272 0 57.4593 0.0512825 57.6236 0.148474L87.5269 18.8479C87.6723 18.9364 87.7923 19.0611 87.8753 19.2097C87.9582 19.3583 88.0013 19.5259 88.0003 19.6961C88.0009 19.8689 87.9578 20.0391 87.8751 20.1908C87.7923 20.3426 87.6726 20.4709 87.5269 20.564L66.8747 33.6418C66.7114 33.7503 66.5184 33.8055 66.3224 33.7996" fill="#0C4E98"/>
<path d="M66.439 43.0703C66.2683 43.0713 66.0999 43.0304 65.9487 42.9514C65.7974 42.8723 65.6677 42.7573 65.5711 42.6166C65.43 42.3883 65.3841 42.1138 65.4431 41.852C65.5021 41.5902 65.6613 41.3619 65.8867 41.2161L86.4403 28.2173C86.5526 28.1448 86.6783 28.0955 86.8099 28.0721C86.9415 28.0488 87.0764 28.0519 87.2068 28.0812C87.3372 28.1106 87.4604 28.1657 87.5693 28.2432C87.6781 28.3208 87.7704 28.4192 87.8408 28.5329C87.9819 28.7612 88.0279 29.0357 87.9689 29.2975C87.9099 29.5593 87.7506 29.7876 87.5252 29.9333L66.9716 42.9322C66.8155 43.0404 66.6289 43.0958 66.439 43.09" fill="#0C4E98"/>
<path d="M66.439 52.4197C66.2683 52.4207 66.0999 52.3799 65.9487 52.3008C65.7974 52.2217 65.6677 52.1068 65.5711 51.966C65.43 51.7377 65.3841 51.4632 65.4431 51.2014C65.5021 50.9395 65.6613 50.7112 65.8867 50.5655L86.4403 37.5272C86.6679 37.3833 86.9433 37.3358 87.2059 37.395C87.4686 37.4541 87.6969 37.6152 87.8408 37.8428C87.9847 38.0704 88.0322 38.3458 87.9731 38.6084C87.9139 38.871 87.7528 39.0994 87.5252 39.2433L66.9716 52.2619C66.8155 52.3701 66.6289 52.4254 66.439 52.4197" fill="#0C4E98"/>
</svg>
