<svg width="70" height="69" viewBox="0 0 70 69" fill="none" xmlns="http://www.w3.org/2000/svg">
<path d="M32.0114 68.5008H3.7706C3.56312 68.5008 3.36415 68.4184 3.21744 68.2716C3.07073 68.1249 2.9883 67.926 2.9883 67.7185V43.9367C2.98733 43.8035 3.01974 43.6721 3.0826 43.5546C3.14546 43.4371 3.23673 43.3372 3.34813 43.264L15.239 35.8479C15.3592 35.7746 15.4972 35.7358 15.638 35.7358C15.7787 35.7358 15.9168 35.7746 16.037 35.8479C16.1593 35.9167 16.2614 36.0166 16.3328 36.1374C16.4042 36.2583 16.4425 36.3959 16.4438 36.5363V42.5443L27.1299 35.8791C27.2501 35.8059 27.3881 35.7672 27.5288 35.7672C27.6696 35.7672 27.8076 35.8059 27.9278 35.8791C28.0502 35.9479 28.1522 36.0478 28.2237 36.1687C28.2951 36.2896 28.3333 36.4272 28.3346 36.5676V42.5756L39.0364 35.9105C39.1535 35.8368 39.2891 35.7978 39.4275 35.7978C39.5659 35.7978 39.7015 35.8368 39.8187 35.9105C39.941 35.9793 40.0431 36.0791 40.1145 36.2C40.186 36.3209 40.2242 36.4584 40.2255 36.5988V45.6109C40.2255 45.8183 40.143 46.0173 39.9963 46.164C39.8496 46.3107 39.6506 46.3932 39.4432 46.3932C39.2357 46.3932 39.0367 46.3107 38.89 46.164C38.7433 46.0173 38.6609 45.8183 38.6609 45.6109V38.0226L27.9748 44.6878C27.8546 44.761 27.7165 44.7998 27.5758 44.7998C27.435 44.7998 27.297 44.761 27.1768 44.6878C27.0544 44.6189 26.9524 44.519 26.881 44.3982C26.8095 44.2773 26.7712 44.1397 26.77 43.9993V37.9913L16.0682 44.6565C15.948 44.7297 15.81 44.7685 15.6693 44.7685C15.5285 44.7685 15.3905 44.7297 15.2703 44.6565C15.1519 44.5845 15.0538 44.4835 14.9853 44.363C14.9169 44.2426 14.8804 44.1066 14.8792 43.9681V37.9601L4.55289 44.4061V66.9362H32.0114C32.2189 66.9362 32.4178 67.0186 32.5645 67.1653C32.7112 67.312 32.7937 67.511 32.7937 67.7185C32.7937 67.926 32.7112 68.1249 32.5645 68.2716C32.4178 68.4184 32.2189 68.5008 32.0114 68.5008Z" fill="#0C4E98"/>
<path d="M49.8479 46.2056C49.6417 46.2016 49.4451 46.1178 49.2992 45.972C49.1534 45.8261 49.0696 45.6295 49.0656 45.4233V37.2874H39.4434C39.2359 37.2874 39.037 37.205 38.8903 37.0583C38.7436 36.9116 38.6611 36.7126 38.6611 36.5051C38.6611 36.2976 38.7436 36.0987 38.8903 35.952C39.037 35.8052 39.2359 35.7228 39.4434 35.7228H49.8479C49.952 35.7207 50.0554 35.7394 50.1521 35.7778C50.2488 35.8162 50.3369 35.8735 50.4112 35.9464C50.4856 36.0192 50.5446 36.1062 50.5849 36.2021C50.6251 36.298 50.6459 36.401 50.6459 36.5051V45.4233C50.6418 45.6322 50.5559 45.8312 50.4067 45.9774C50.2575 46.1237 50.0569 46.2056 49.8479 46.2056Z" fill="#0C4E98"/>
<path d="M32.7941 66.9361H56.4976V50.6644H32.7941V66.9361ZM57.2486 68.5006H32.0118C31.8043 68.5006 31.6053 68.4182 31.4586 68.2715C31.3119 68.1248 31.2295 67.9258 31.2295 67.7183V49.8821C31.2295 49.6746 31.3119 49.4756 31.4586 49.3289C31.6053 49.1822 31.8043 49.0998 32.0118 49.0998H57.2486C57.3526 49.0977 57.4561 49.1164 57.5528 49.1548C57.6495 49.1932 57.7376 49.2504 57.8119 49.3233C57.8862 49.3961 57.9452 49.4831 57.9855 49.579C58.0258 49.675 58.0466 49.778 58.0465 49.8821V67.7027C58.0466 67.8067 58.0258 67.9098 57.9855 68.0057C57.9452 68.1017 57.8862 68.1886 57.8119 68.2615C57.7376 68.3343 57.6495 68.3916 57.5528 68.43C57.4561 68.4684 57.3526 68.4871 57.2486 68.485" fill="#0C4E98"/>
<path d="M67.6995 68.5005H57.2481C57.0406 68.5005 56.8417 68.4181 56.695 68.2713C56.5483 68.1246 56.4658 67.9257 56.4658 67.7182C56.4698 67.512 56.5536 67.3153 56.6994 67.1695C56.8452 67.0236 57.0419 66.9399 57.2481 66.9359H66.8704V50.6642H57.2481C57.0419 50.6602 56.8452 50.5765 56.6994 50.4306C56.5536 50.2848 56.4698 50.0881 56.4658 49.8819C56.4658 49.6744 56.5483 49.4755 56.695 49.3287C56.8417 49.182 57.0406 49.0996 57.2481 49.0996H67.6682C67.8757 49.0996 68.0747 49.182 68.2214 49.3287C68.3681 49.4755 68.4505 49.6744 68.4505 49.8819V67.7025C68.4505 67.91 68.3681 68.109 68.2214 68.2557C68.0747 68.4024 67.8757 68.4848 67.6682 68.4848" fill="#0C4E98"/>
<path d="M30.5256 37.2872H27.5216C27.3141 37.2872 27.1151 37.2049 26.9684 37.0582C26.8217 36.9114 26.7393 36.7124 26.7393 36.5049C26.7393 36.2975 26.8217 36.0985 26.9684 35.9518C27.1151 35.8051 27.3141 35.7227 27.5216 35.7227H30.4943C30.7017 35.7227 30.9007 35.8051 31.0474 35.9518C31.1941 36.0985 31.2766 36.2975 31.2766 36.5049C31.2766 36.7124 31.1941 36.9114 31.0474 37.0582C30.9007 37.2049 30.7017 37.2872 30.4943 37.2872" fill="#0C4E98"/>
<path d="M18.6339 37.2872H15.6612C15.4537 37.2872 15.2547 37.2049 15.108 37.0582C14.9613 36.9114 14.8789 36.7124 14.8789 36.5049C14.8789 36.2975 14.9613 36.0985 15.108 35.9518C15.2547 35.8051 15.4537 35.7227 15.6612 35.7227H18.6339C18.8414 35.7227 19.0404 35.8051 19.1871 35.9518C19.3338 36.0985 19.4162 36.2975 19.4162 36.5049C19.4162 36.7124 19.3338 36.9114 19.1871 37.0582C19.0404 37.2049 18.8414 37.2872 18.6339 37.2872Z" fill="#0C4E98"/>
<path d="M41.6808 56.61H38.7081C38.5273 56.5737 38.3648 56.4759 38.248 56.3333C38.1312 56.1907 38.0674 56.012 38.0674 55.8277C38.0674 55.6434 38.1312 55.4647 38.248 55.3221C38.3648 55.1795 38.5273 55.0817 38.7081 55.0454H41.6808C41.8615 55.0817 42.0241 55.1795 42.1409 55.3221C42.2577 55.4647 42.3215 55.6434 42.3215 55.8277C42.3215 56.012 42.2577 56.1907 42.1409 56.3333C42.0241 56.4759 41.8615 56.5737 41.6808 56.61Z" fill="#0C4E98"/>
<path d="M41.6808 62.5553H38.7081C38.5273 62.519 38.3648 62.4212 38.248 62.2786C38.1312 62.136 38.0674 61.9573 38.0674 61.773C38.0674 61.5887 38.1312 61.41 38.248 61.2674C38.3648 61.1248 38.5273 61.027 38.7081 60.9907H41.6808C41.8615 61.027 42.0241 61.1248 42.1409 61.2674C42.2577 61.41 42.3215 61.5887 42.3215 61.773C42.3215 61.9573 42.2577 62.136 42.1409 62.2786C42.0241 62.4212 41.8615 62.519 41.6808 62.5553Z" fill="#0C4E98"/>
<path d="M50.5988 56.61H47.6261C47.4454 56.5737 47.2828 56.4759 47.166 56.3333C47.0492 56.1907 46.9854 56.012 46.9854 55.8277C46.9854 55.6434 47.0492 55.4647 47.166 55.3221C47.2828 55.1795 47.4454 55.0817 47.6261 55.0454H50.5988C50.7795 55.0817 50.9421 55.1795 51.0589 55.3221C51.1757 55.4647 51.2395 55.6434 51.2395 55.8277C51.2395 56.012 51.1757 56.1907 51.0589 56.3333C50.9421 56.4759 50.7795 56.5737 50.5988 56.61Z" fill="#0C4E98"/>
<path d="M50.5988 62.5553H47.6261C47.4454 62.519 47.2828 62.4212 47.166 62.2786C47.0492 62.136 46.9854 61.9573 46.9854 61.773C46.9854 61.5887 47.0492 61.41 47.166 61.2674C47.2828 61.1248 47.4454 61.027 47.6261 60.9907H50.5988C50.7795 61.027 50.9421 61.1248 51.0589 61.2674C51.1757 61.41 51.2395 61.5887 51.2395 61.773C51.2395 61.9573 51.1757 62.136 51.0589 62.2786C50.9421 62.4212 50.7795 62.519 50.5988 62.5553Z" fill="#0C4E98"/>
<path d="M13.4396 56.61H10.4669C10.2862 56.5737 10.1236 56.4759 10.0068 56.3333C9.89 56.1907 9.82617 56.012 9.82617 55.8277C9.82617 55.6434 9.89 55.4647 10.0068 55.3221C10.1236 55.1795 10.2862 55.0817 10.4669 55.0454H13.4396C13.6203 55.0817 13.7829 55.1795 13.8997 55.3221C14.0165 55.4647 14.0803 55.6434 14.0803 55.8277C14.0803 56.012 14.0165 56.1907 13.8997 56.3333C13.7829 56.4759 13.6203 56.5737 13.4396 56.61Z" fill="#0C4E98"/>
<path d="M13.4396 62.5553H10.4669C10.2862 62.519 10.1236 62.4212 10.0068 62.2786C9.89 62.136 9.82617 61.9573 9.82617 61.773C9.82617 61.5887 9.89 61.41 10.0068 61.2674C10.1236 61.1248 10.2862 61.027 10.4669 60.9907H13.4396C13.6203 61.027 13.7829 61.1248 13.8997 61.2674C14.0165 61.41 14.0803 61.5887 14.0803 61.773C14.0803 61.9573 14.0165 62.136 13.8997 62.2786C13.7829 62.4212 13.6203 62.519 13.4396 62.5553Z" fill="#0C4E98"/>
<path d="M23.8439 56.6095H20.8712C20.7554 56.6328 20.6359 56.6301 20.5213 56.6016C20.4066 56.573 20.2998 56.5194 20.2084 56.4446C20.117 56.3697 20.0434 56.2755 19.9928 56.1688C19.9422 56.062 19.916 55.9454 19.916 55.8272C19.916 55.7091 19.9422 55.5925 19.9928 55.4857C20.0434 55.3789 20.117 55.2848 20.2084 55.2099C20.2998 55.1351 20.4066 55.0814 20.5213 55.0529C20.6359 55.0244 20.7554 55.0217 20.8712 55.0449H23.8439C24.0246 55.0813 24.1872 55.179 24.304 55.3216C24.4208 55.4642 24.4846 55.6429 24.4846 55.8272C24.4846 56.0116 24.4208 56.1902 24.304 56.3328C24.1872 56.4754 24.0246 56.5732 23.8439 56.6095Z" fill="#0C4E98"/>
<path d="M13.4396 50.6642H10.4669C10.2606 50.6602 10.064 50.5765 9.9181 50.4306C9.77225 50.2848 9.68858 50.0881 9.68457 49.8819C9.68457 49.6744 9.767 49.4755 9.91371 49.3287C10.0604 49.182 10.2594 49.0996 10.4669 49.0996H13.4396C13.647 49.0996 13.846 49.182 13.9927 49.3287C14.1394 49.4755 14.2219 49.6744 14.2219 49.8819C14.2219 50.0894 14.1394 50.2883 13.9927 50.4351C13.846 50.5818 13.647 50.6642 13.4396 50.6642Z" fill="#0C4E98"/>
<path d="M23.8439 50.6644H20.8712C20.6623 50.6644 20.4616 50.5824 20.3124 50.4362C20.1632 50.2899 20.0773 50.091 20.0732 49.8821C20.0732 49.778 20.094 49.675 20.1343 49.579C20.1746 49.4831 20.2336 49.3961 20.3079 49.3233C20.3822 49.2504 20.4703 49.1932 20.567 49.1548C20.6637 49.1164 20.7672 49.0977 20.8712 49.0998H23.8439C24.0514 49.0998 24.2503 49.1822 24.3971 49.3289C24.5438 49.4756 24.6262 49.6746 24.6262 49.8821C24.6222 50.0883 24.5385 50.2849 24.3927 50.4308C24.2468 50.5766 24.0501 50.6603 23.8439 50.6644Z" fill="#0C4E98"/>
<path d="M23.8439 62.5558H20.8712C20.7554 62.5791 20.6359 62.5764 20.5213 62.5478C20.4066 62.5193 20.2998 62.4657 20.2084 62.3909C20.117 62.316 20.0434 62.2218 19.9928 62.115C19.9422 62.0083 19.916 61.8916 19.916 61.7735C19.916 61.6554 19.9422 61.5387 19.9928 61.432C20.0434 61.3252 20.117 61.231 20.2084 61.1562C20.2998 61.0814 20.4066 61.0277 20.5213 60.9992C20.6359 60.9707 20.7554 60.968 20.8712 60.9912H23.8439C24.0246 61.0276 24.1872 61.1253 24.304 61.2679C24.4208 61.4105 24.4846 61.5892 24.4846 61.7735C24.4846 61.9579 24.4208 62.1365 24.304 62.2791C24.1872 62.4217 24.0246 62.5195 23.8439 62.5558Z" fill="#0C4E98"/>
<path d="M3.77066 68.5011H0.797955C0.693913 68.5032 0.590482 68.4845 0.493756 68.4461C0.39703 68.4077 0.308939 68.3505 0.234631 68.2776C0.160323 68.2048 0.10131 68.1178 0.0610212 68.0219C0.0207325 67.9259 -2.07989e-05 67.8229 1.56414e-08 67.7188C0.00409694 67.5099 0.0899659 67.3109 0.239167 67.1647C0.388368 67.0184 0.589011 66.9365 0.797955 66.9365H3.77066C3.97688 66.9405 4.17352 67.0243 4.31937 67.1701C4.46522 67.316 4.54895 67.5126 4.55295 67.7188C4.55295 67.9263 4.47052 68.1253 4.32381 68.272C4.17711 68.4187 3.97814 68.5011 3.77066 68.5011Z" fill="#0C4E98"/>
<path d="M69.1858 68.5011H67.6212C67.5172 68.5032 67.4138 68.4845 67.317 68.4461C67.2203 68.4077 67.1322 68.3505 67.0579 68.2776C66.9836 68.2048 66.9246 68.1178 66.8843 68.0219C66.844 67.9259 66.8232 67.8229 66.8232 67.7188C66.8273 67.5099 66.9133 67.3109 67.0625 67.1647C67.2117 67.0184 67.4123 66.9365 67.6212 66.9365H69.1858C69.392 66.9405 69.5886 67.0243 69.7345 67.1701C69.8803 67.316 69.9641 67.5126 69.9681 67.7188C69.9681 67.9263 69.8857 68.1253 69.739 68.272C69.5923 68.4187 69.3933 68.5011 69.1858 68.5011Z" fill="#0C4E98"/>
<path d="M57.2482 46.2055C57.042 46.2015 56.8454 46.1178 56.6995 45.9719C56.5537 45.8261 56.4699 45.6295 56.4659 45.4232V25.4121H50.6144V32.046C50.5781 32.2267 50.4803 32.3893 50.3377 32.5061C50.1951 32.6229 50.0164 32.6867 49.8321 32.6867C49.6478 32.6867 49.4691 32.6229 49.3265 32.5061C49.1839 32.3893 49.0861 32.2267 49.0498 32.046V24.6924C49.0538 24.4862 49.1375 24.2896 49.2833 24.1437C49.4292 23.9979 49.6259 23.9142 49.8321 23.9102H57.2482C57.4572 23.9101 57.6578 23.992 57.807 24.1383C57.9562 24.2846 58.0421 24.4835 58.0462 24.6924V45.5014C58.0421 45.7103 57.9562 45.9093 57.807 46.0556C57.6578 46.2019 57.4572 46.2838 57.2482 46.2837" fill="#0C4E98"/>
<path d="M49.0029 21.1253H48.8464C47.8787 20.93 47.0085 20.4056 46.3838 19.6411C45.7591 18.8767 45.4186 17.9194 45.42 16.9322C45.4153 16.0053 45.7179 15.103 46.2805 14.3663C46.3408 14.2823 46.4174 14.2115 46.5058 14.1579C46.5942 14.1043 46.6925 14.0692 46.7948 14.0546C46.8971 14.04 47.0012 14.0462 47.1011 14.0729C47.2009 14.0995 47.2943 14.1461 47.3757 14.2098C47.5417 14.3343 47.6514 14.5197 47.6808 14.725C47.7101 14.9304 47.6567 15.1391 47.5322 15.305C47.1867 15.7544 46.9947 16.3029 46.9846 16.8696C46.9862 17.4954 47.2033 18.1015 47.5994 18.5859C47.9955 19.0703 48.5463 19.4036 49.1593 19.5294C49.26 19.55 49.3557 19.5901 49.4408 19.6476C49.526 19.7051 49.599 19.7789 49.6556 19.8646C49.7123 19.9503 49.7516 20.0463 49.7711 20.1472C49.7906 20.2481 49.7901 20.3519 49.7695 20.4525C49.7363 20.6306 49.641 20.7912 49.5007 20.9057C49.3604 21.0203 49.184 21.0814 49.0029 21.0784" fill="#0C4E98"/>
<path d="M43.1667 19.7952C41.0919 19.7952 39.1021 18.971 37.6351 17.5039C36.168 16.0368 35.3438 14.047 35.3438 11.9722C35.3438 11.7648 35.4262 11.5658 35.5729 11.4191C35.7196 11.2724 35.9186 11.1899 36.126 11.1899C36.3335 11.1899 36.5325 11.2724 36.6792 11.4191C36.8259 11.5658 36.9083 11.7648 36.9083 11.9722C36.9083 13.6321 37.5677 15.2239 38.7414 16.3976C39.915 17.5712 41.5069 18.2306 43.1667 18.2306C44.1643 18.1913 45.1414 17.9351 46.0299 17.4796C46.1223 17.4342 46.2228 17.4075 46.3256 17.401C46.4283 17.3945 46.5314 17.4084 46.6288 17.4418C46.7261 17.4753 46.816 17.5276 46.8931 17.5958C46.9702 17.6641 47.0331 17.7468 47.0782 17.8394C47.1257 17.9314 47.1542 18.0322 47.1618 18.1355C47.1693 18.2388 47.1559 18.3425 47.1223 18.4405C47.0886 18.5385 47.0355 18.6286 46.9661 18.7055C46.8967 18.7823 46.8123 18.8443 46.7183 18.8877C45.616 19.4489 44.4031 19.7588 43.1667 19.7952Z" fill="#0C4E98"/>
<path d="M26.4102 19.1068C23.2606 19.1474 20.1746 18.2189 17.5703 16.4471C17.4861 16.3875 17.4144 16.3119 17.3594 16.2246C17.3043 16.1373 17.267 16.04 17.2496 15.9383C17.2322 15.8366 17.2349 15.7325 17.2577 15.6319C17.2805 15.5313 17.3229 15.4361 17.3825 15.3518C17.4421 15.2676 17.5177 15.1959 17.605 15.1409C17.6923 15.0859 17.7896 15.0486 17.8913 15.0311C17.993 15.0137 18.0971 15.0165 18.1977 15.0393C18.2983 15.0621 18.3935 15.1045 18.4777 15.1641C20.8148 16.7512 23.5856 17.5764 26.4102 17.5266C28.1899 17.6047 29.9652 17.2922 31.6112 16.6111C33.2573 15.93 34.7344 14.8967 35.9385 13.5839C36.0713 13.4241 36.2621 13.3237 36.469 13.3046C36.6758 13.2855 36.8818 13.3494 37.0416 13.4822C37.2013 13.6149 37.3018 13.8058 37.3209 14.0126C37.34 14.2195 37.2761 14.4255 37.1433 14.5852C35.794 16.0783 34.1335 17.257 32.279 18.0383C30.4245 18.8196 28.4211 19.1843 26.4102 19.1068Z" fill="#0C4E98"/>
<path d="M57.2483 11.4873C57.0408 11.4873 56.8418 11.4049 56.6951 11.2582C56.5484 11.1115 56.466 10.9125 56.466 10.705C56.4639 9.15386 56.0283 7.63417 55.2085 6.31733C54.3887 5.00049 53.2173 3.93891 51.8264 3.25237C50.4354 2.56584 48.8803 2.28163 47.3364 2.43184C45.7925 2.58204 44.3213 3.16069 43.0888 4.10247C42.9626 4.19065 42.8124 4.23793 42.6585 4.23793C42.5046 4.23793 42.3544 4.19065 42.2282 4.10247C39.7203 2.5027 36.8216 1.62174 33.8476 1.55553C30.8737 1.48932 27.9386 2.24041 25.362 3.72698C25.2707 3.77595 25.1706 3.8063 25.0675 3.81627C24.9644 3.82624 24.8603 3.81561 24.7614 3.78504C24.6624 3.75448 24.5704 3.7046 24.4909 3.63822C24.4114 3.57185 24.3458 3.49035 24.2981 3.39843C24.2046 3.21137 24.1882 2.99503 24.2526 2.79605C24.317 2.59708 24.4569 2.43133 24.6423 2.33448C27.3797 0.778325 30.4797 -0.0267951 33.6284 0.000680382C36.7771 0.0281559 39.8626 0.88726 42.5724 2.49095C44.0585 1.48018 45.7915 0.892844 47.5859 0.791855C49.3803 0.690866 51.1683 1.08005 52.7584 1.91769C54.3485 2.75533 55.6807 4.00986 56.6122 5.54683C57.5437 7.0838 58.0394 8.84523 58.0462 10.6424C58.0462 10.7465 58.0255 10.8495 57.9852 10.9455C57.9449 11.0414 57.8859 11.1284 57.8116 11.2012C57.7373 11.2741 57.6492 11.3314 57.5525 11.3698C57.4557 11.4082 57.3523 11.4268 57.2483 11.4247" fill="#0C4E98"/>
<path d="M58.1403 21.2188C57.9792 21.2258 57.82 21.1818 57.6853 21.0931C57.5507 21.0044 57.4474 20.8756 57.3903 20.7248C57.3331 20.574 57.3249 20.4091 57.3668 20.2534C57.4088 20.0978 57.4987 19.9593 57.6239 19.8577C58.3545 19.2135 58.8727 18.3632 59.1103 17.4187C59.3479 16.4742 59.2937 15.4798 58.9548 14.5667C58.616 13.6536 58.0085 12.8646 57.2123 12.3036C56.4161 11.7427 55.4686 11.4362 54.4948 11.4245C54.0884 11.4294 53.6841 11.4819 53.29 11.581C53.0826 11.6328 52.863 11.6002 52.6796 11.4902C52.4962 11.3801 52.364 11.2017 52.3122 10.9943C52.2603 10.7868 52.293 10.5672 52.403 10.3838C52.513 10.2004 52.6914 10.0683 52.8989 10.0164C53.4095 9.88134 53.9354 9.81297 54.4635 9.81299C55.7603 9.81256 57.0265 10.2071 58.0935 10.9441C59.1605 11.6811 59.9778 12.7257 60.4364 13.9387C60.8951 15.1516 60.9735 16.4755 60.6611 17.7341C60.3488 18.9928 59.6605 20.1264 58.6879 20.9842C58.5441 21.1071 58.3607 21.1738 58.1715 21.1719" fill="#0C4E98"/>
</svg>
