<svg width="87" height="79" viewBox="0 0 87 79" fill="none" xmlns="http://www.w3.org/2000/svg">
<path d="M85.812 72.1934H73.1761C72.9813 72.1378 72.81 72.0202 72.688 71.8585C72.566 71.6968 72.5 71.4998 72.5 71.2973C72.5 71.0947 72.566 70.8977 72.688 70.736C72.81 70.5743 72.9813 70.4567 73.1761 70.4011H85.812C85.9507 70.3615 86.0967 70.3546 86.2385 70.381C86.3803 70.4074 86.5141 70.4663 86.6292 70.5532C86.7444 70.6401 86.8378 70.7525 86.9021 70.8816C86.9665 71.0107 87 71.153 87 71.2973C87 71.4415 86.9665 71.5838 86.9021 71.7129C86.8378 71.842 86.7444 71.9544 86.6292 72.0413C86.5141 72.1282 86.3803 72.1872 86.2385 72.2135C86.0967 72.2399 85.9507 72.233 85.812 72.1934Z" fill="#0C4E98"/>
<path d="M13.3119 72.1934H0.676007C0.481253 72.1378 0.309916 72.0202 0.187941 71.8585C0.0659654 71.6968 0 71.4998 0 71.2973C0 71.0947 0.0659654 70.8977 0.187941 70.736C0.309916 70.5743 0.481253 70.4567 0.676007 70.4011H13.3119C13.4506 70.3615 13.5966 70.3546 13.7384 70.381C13.8803 70.4074 14.014 70.4663 14.1292 70.5532C14.2444 70.6401 14.3378 70.7525 14.4021 70.8816C14.4665 71.0107 14.4999 71.153 14.4999 71.2973C14.4999 71.4415 14.4665 71.5838 14.4021 71.7129C14.3378 71.842 14.2444 71.9544 14.1292 72.0413C14.014 72.1282 13.8803 72.1872 13.7384 72.2135C13.5966 72.2399 13.4506 72.233 13.3119 72.1934Z" fill="#0C4E98"/>
<path d="M40.108 72.1927H36.1828C35.9388 72.188 35.7063 72.0877 35.5354 71.9134C35.3645 71.7391 35.2687 71.5048 35.2687 71.2607C35.2663 71.1391 35.2882 71.0183 35.3331 70.9053C35.378 70.7924 35.445 70.6894 35.5301 70.6026C35.6152 70.5159 35.7167 70.4469 35.8288 70.3999C35.9409 70.3528 36.0613 70.3286 36.1828 70.3286H40.108C40.3552 70.3286 40.5923 70.4268 40.7671 70.6016C40.9419 70.7764 41.04 71.0135 41.04 71.2607C41.04 71.5078 40.9419 71.7449 40.7671 71.9197C40.5923 72.0944 40.3552 72.1927 40.108 72.1927Z" fill="#0C4E98"/>
<path d="M40.1071 66.3111H36.1819C35.9871 66.2555 35.8158 66.1379 35.6938 65.9762C35.5718 65.8145 35.5059 65.6175 35.5059 65.4149C35.5059 65.2124 35.5718 65.0154 35.6938 64.8537C35.8158 64.692 35.9871 64.5744 36.1819 64.5188H40.1071C40.2458 64.4791 40.3918 64.4722 40.5336 64.4986C40.6754 64.525 40.8092 64.584 40.9244 64.6709C41.0395 64.7578 41.1329 64.8702 41.1972 64.9993C41.2616 65.1284 41.2951 65.2707 41.2951 65.4149C41.2951 65.5592 41.2616 65.7015 41.1972 65.8306C41.1329 65.9597 41.0395 66.0721 40.9244 66.159C40.8092 66.2459 40.6754 66.3048 40.5336 66.3312C40.3918 66.3576 40.2458 66.3507 40.1071 66.3111Z" fill="#0C4E98"/>
<path d="M40.1071 60.4327H36.1819C35.9871 60.377 35.8158 60.2595 35.6938 60.0978C35.5718 59.9361 35.5059 59.7391 35.5059 59.5365C35.5059 59.334 35.5718 59.137 35.6938 58.9753C35.8158 58.8136 35.9871 58.696 36.1819 58.6403H40.1071C40.2458 58.6007 40.3918 58.5938 40.5336 58.6202C40.6754 58.6466 40.8092 58.7056 40.9244 58.7925C41.0395 58.8793 41.1329 58.9918 41.1972 59.1209C41.2616 59.25 41.2951 59.3923 41.2951 59.5365C41.2951 59.6808 41.2616 59.823 41.1972 59.9522C41.1329 60.0813 41.0395 60.1937 40.9244 60.2806C40.8092 60.3674 40.6754 60.4264 40.5336 60.4528C40.3918 60.4792 40.2458 60.4723 40.1071 60.4327Z" fill="#0C4E98"/>
<path d="M40.108 54.5535H36.1828C36.0613 54.5535 35.9409 54.5293 35.8288 54.4822C35.7167 54.4352 35.6152 54.3662 35.5301 54.2795C35.445 54.1927 35.378 54.0897 35.3331 53.9768C35.2882 53.8638 35.2663 53.743 35.2687 53.6215C35.2687 53.3774 35.3645 53.143 35.5354 52.9687C35.7063 52.7944 35.9388 52.6941 36.1828 52.6895H40.108C40.3552 52.6895 40.5923 52.7877 40.7671 52.9624C40.9419 53.1372 41.04 53.3743 41.04 53.6215C41.04 53.8687 40.9419 54.1057 40.7671 54.2805C40.5923 54.4553 40.3552 54.5535 40.108 54.5535Z" fill="#0C4E98"/>
<path d="M40.1071 48.6754H36.1819C35.9871 48.6197 35.8158 48.5021 35.6938 48.3404C35.5718 48.1787 35.5059 47.9817 35.5059 47.7792C35.5059 47.5766 35.5718 47.3796 35.6938 47.2179C35.8158 47.0562 35.9871 46.9387 36.1819 46.883H40.1071C40.2458 46.8434 40.3918 46.8365 40.5336 46.8629C40.6754 46.8893 40.8092 46.9483 40.9244 47.0351C41.0395 47.122 41.1329 47.2344 41.1972 47.3635C41.2616 47.4927 41.2951 47.6349 41.2951 47.7792C41.2951 47.9234 41.2616 48.0657 41.1972 48.1948C41.1329 48.324 41.0395 48.4364 40.9244 48.5232C40.8092 48.6101 40.6754 48.6691 40.5336 48.6955C40.3918 48.7219 40.2458 48.715 40.1071 48.6754Z" fill="#0C4E98"/>
<path d="M40.108 42.7976H36.1828C35.9388 42.7929 35.7063 42.6927 35.5354 42.5184C35.3645 42.3441 35.2687 42.1097 35.2687 41.8656C35.2663 41.744 35.2882 41.6232 35.3331 41.5103C35.378 41.3973 35.445 41.2944 35.5301 41.2076C35.6152 41.1208 35.7167 41.0519 35.8288 41.0049C35.9409 40.9578 36.0613 40.9336 36.1828 40.9336H40.108C40.3552 40.9336 40.5923 41.0318 40.7671 41.2066C40.9419 41.3814 41.04 41.6184 41.04 41.8656C41.04 42.1128 40.9419 42.3498 40.7671 42.5246C40.5923 42.6994 40.3552 42.7976 40.108 42.7976Z" fill="#0C4E98"/>
<path d="M40.1071 36.8995H36.1819C35.9871 36.8438 35.8158 36.7263 35.6938 36.5646C35.5718 36.4029 35.5059 36.2059 35.5059 36.0033C35.5059 35.8008 35.5718 35.6038 35.6938 35.4421C35.8158 35.2804 35.9871 35.1628 36.1819 35.1071H40.1071C40.2458 35.0675 40.3918 35.0606 40.5336 35.087C40.6754 35.1134 40.8092 35.1724 40.9244 35.2593C41.0395 35.3461 41.1329 35.4586 41.1972 35.5877C41.2616 35.7168 41.2951 35.8591 41.2951 36.0033C41.2951 36.1476 41.2616 36.2898 41.1972 36.419C41.1329 36.5481 41.0395 36.6605 40.9244 36.7474C40.8092 36.8342 40.6754 36.8932 40.5336 36.9196C40.3918 36.946 40.2458 36.9391 40.1071 36.8995Z" fill="#0C4E98"/>
<path d="M50.2701 72.1927H46.3449C46.1009 72.188 45.8684 72.0877 45.6974 71.9134C45.5265 71.7391 45.4308 71.5048 45.4308 71.2607C45.4285 71.1391 45.4503 71.0183 45.4952 70.9053C45.5401 70.7924 45.607 70.6894 45.6921 70.6026C45.7772 70.5159 45.8789 70.4469 45.9909 70.3999C46.103 70.3528 46.2234 70.3286 46.3449 70.3286H50.2701C50.5173 70.3286 50.7544 70.4268 50.9291 70.6016C51.1039 70.7764 51.2021 71.0135 51.2021 71.2607C51.2021 71.5078 51.1039 71.7449 50.9291 71.9197C50.7544 72.0944 50.5173 72.1927 50.2701 72.1927Z" fill="#0C4E98"/>
<path d="M50.2702 66.3111H46.345C46.1503 66.2555 45.9789 66.1379 45.8569 65.9762C45.735 65.8145 45.6689 65.6175 45.6689 65.4149C45.6689 65.2124 45.735 65.0154 45.8569 64.8537C45.9789 64.692 46.1503 64.5744 46.345 64.5188H50.2702C50.4089 64.4791 50.5549 64.4722 50.6967 64.4986C50.8386 64.525 50.9723 64.584 51.0874 64.6709C51.2026 64.7578 51.2961 64.8702 51.3604 64.9993C51.4247 65.1284 51.4582 65.2707 51.4582 65.4149C51.4582 65.5592 51.4247 65.7015 51.3604 65.8306C51.2961 65.9597 51.2026 66.0721 51.0874 66.159C50.9723 66.2459 50.8386 66.3048 50.6967 66.3312C50.5549 66.3576 50.4089 66.3507 50.2702 66.3111Z" fill="#0C4E98"/>
<path d="M50.2702 60.4327H46.345C46.1503 60.377 45.9789 60.2595 45.8569 60.0978C45.735 59.9361 45.6689 59.7391 45.6689 59.5365C45.6689 59.334 45.735 59.137 45.8569 58.9753C45.9789 58.8136 46.1503 58.696 46.345 58.6403H50.2702C50.4089 58.6007 50.5549 58.5938 50.6967 58.6202C50.8386 58.6466 50.9723 58.7056 51.0874 58.7925C51.2026 58.8793 51.2961 58.9918 51.3604 59.1209C51.4247 59.25 51.4582 59.3923 51.4582 59.5365C51.4582 59.6808 51.4247 59.823 51.3604 59.9522C51.2961 60.0813 51.2026 60.1937 51.0874 60.2806C50.9723 60.3674 50.8386 60.4264 50.6967 60.4528C50.5549 60.4792 50.4089 60.4723 50.2702 60.4327Z" fill="#0C4E98"/>
<path d="M50.2701 54.5535H46.3449C46.2234 54.5535 46.103 54.5293 45.9909 54.4822C45.8789 54.4352 45.7772 54.3662 45.6921 54.2795C45.607 54.1927 45.5401 54.0897 45.4952 53.9768C45.4503 53.8638 45.4285 53.743 45.4308 53.6215C45.4308 53.3774 45.5265 53.143 45.6974 52.9687C45.8684 52.7944 46.1009 52.6941 46.3449 52.6895H50.2701C50.5173 52.6895 50.7544 52.7877 50.9291 52.9624C51.1039 53.1372 51.2021 53.3743 51.2021 53.6215C51.2021 53.8687 51.1039 54.1057 50.9291 54.2805C50.7544 54.4553 50.5173 54.5535 50.2701 54.5535Z" fill="#0C4E98"/>
<path d="M50.2702 48.6754H46.345C46.1503 48.6197 45.9789 48.5021 45.8569 48.3404C45.735 48.1787 45.6689 47.9817 45.6689 47.7792C45.6689 47.5766 45.735 47.3796 45.8569 47.2179C45.9789 47.0562 46.1503 46.9387 46.345 46.883H50.2702C50.4089 46.8434 50.5549 46.8365 50.6967 46.8629C50.8386 46.8893 50.9723 46.9483 51.0874 47.0351C51.2026 47.122 51.2961 47.2344 51.3604 47.3635C51.4247 47.4927 51.4582 47.6349 51.4582 47.7792C51.4582 47.9234 51.4247 48.0657 51.3604 48.1948C51.2961 48.324 51.2026 48.4364 51.0874 48.5232C50.9723 48.6101 50.8386 48.6691 50.6967 48.6955C50.5549 48.7219 50.4089 48.715 50.2702 48.6754Z" fill="#0C4E98"/>
<path d="M50.2701 42.7976H46.3449C46.1009 42.7929 45.8684 42.6927 45.6974 42.5184C45.5265 42.3441 45.4308 42.1097 45.4308 41.8656C45.4285 41.744 45.4503 41.6232 45.4952 41.5103C45.5401 41.3973 45.607 41.2944 45.6921 41.2076C45.7772 41.1208 45.8789 41.0519 45.9909 41.0049C46.103 40.9578 46.2234 40.9336 46.3449 40.9336H50.2701C50.5173 40.9336 50.7544 41.0318 50.9291 41.2066C51.1039 41.3814 51.2021 41.6184 51.2021 41.8656C51.2021 42.1128 51.1039 42.3498 50.9291 42.5246C50.7544 42.6994 50.5173 42.7976 50.2701 42.7976Z" fill="#0C4E98"/>
<path d="M50.2702 36.8995H46.345C46.1503 36.8438 45.9789 36.7263 45.8569 36.5646C45.735 36.4029 45.6689 36.2059 45.6689 36.0033C45.6689 35.8008 45.735 35.6038 45.8569 35.4421C45.9789 35.2804 46.1503 35.1628 46.345 35.1071H50.2702C50.4089 35.0675 50.5549 35.0606 50.6967 35.087C50.8386 35.1134 50.9723 35.1724 51.0874 35.2593C51.2026 35.3461 51.2961 35.4586 51.3604 35.5877C51.4247 35.7168 51.4582 35.8591 51.4582 36.0033C51.4582 36.1476 51.4247 36.2898 51.3604 36.419C51.2961 36.5481 51.2026 36.6605 51.0874 36.7474C50.9723 36.8342 50.8386 36.8932 50.6967 36.9196C50.5549 36.946 50.4089 36.9391 50.2702 36.8995Z" fill="#0C4E98"/>
<path d="M4.11759 19.1931C3.99605 19.1955 3.87526 19.1736 3.76228 19.1288C3.6493 19.0839 3.54637 19.017 3.45958 18.9318C3.37279 18.8467 3.30387 18.7451 3.25682 18.633C3.20976 18.5209 3.18552 18.4006 3.18555 18.2791V9.4608C3.18555 9.21362 3.28376 8.97654 3.45854 8.80175C3.63333 8.62696 3.87041 8.52881 4.11759 8.52881H12.9716C13.1664 8.58444 13.3377 8.70197 13.4597 8.86367C13.5817 9.02536 13.6477 9.22243 13.6477 9.42497C13.6477 9.62752 13.5817 9.82453 13.4597 9.98622C13.3377 10.1479 13.1664 10.2655 12.9716 10.3211H5.04958V18.2432C5.04489 18.4873 4.94463 18.7198 4.77035 18.8907C4.59607 19.0616 4.3617 19.1574 4.11759 19.1573" fill="#0C4E98"/>
<path d="M82.37 19.1925C82.2484 19.1948 82.1276 19.173 82.0146 19.1281C81.9017 19.0832 81.7988 19.0163 81.712 18.9312C81.6252 18.8461 81.5563 18.7444 81.5092 18.6324C81.4622 18.5203 81.4379 18.4 81.438 18.2784V10.3563H73.5159C73.3212 10.3007 73.1498 10.1831 73.0278 10.0214C72.9059 9.85968 72.8398 9.66267 72.8398 9.46013C72.8398 9.25759 72.9059 9.06058 73.0278 8.89888C73.1498 8.73718 73.3212 8.6196 73.5159 8.56396H82.37C82.6171 8.56396 82.8542 8.66217 83.029 8.83696C83.2038 9.01175 83.302 9.24877 83.302 9.49596V18.3501C83.302 18.4716 83.2778 18.592 83.2307 18.7041C83.1837 18.8162 83.1148 18.9178 83.028 19.0029C82.9412 19.088 82.8383 19.1549 82.7253 19.1998C82.6123 19.2447 82.4915 19.2666 82.37 19.2642" fill="#0C4E98"/>
<path d="M56.5254 78.5536H29.9631C29.8415 78.5536 29.7212 78.5294 29.6091 78.4823C29.497 78.4353 29.3955 78.3663 29.3103 78.2795C29.2252 78.1927 29.1583 78.0899 29.1134 77.9769C29.0685 77.8639 29.0466 77.7431 29.049 77.6216V23.7979C29.0466 23.6764 29.0685 23.5556 29.1134 23.4426C29.1583 23.3296 29.2252 23.2268 29.3103 23.14C29.3955 23.0532 29.497 22.9842 29.6091 22.9372C29.7212 22.8901 29.8415 22.8659 29.9631 22.8659H38.172C38.3107 22.8263 38.4567 22.8194 38.5985 22.8458C38.7404 22.8722 38.8741 22.9312 38.9892 23.018C39.1044 23.1049 39.1979 23.2173 39.2622 23.3465C39.3265 23.4756 39.36 23.6178 39.36 23.7621C39.36 23.9064 39.3265 24.0486 39.2622 24.1777C39.1979 24.3069 39.1044 24.4193 38.9892 24.5062C38.8741 24.593 38.7404 24.6519 38.5985 24.6783C38.4567 24.7047 38.3107 24.6979 38.172 24.6583H30.8951V76.6358H55.5934V24.6583H48.3165C48.1778 24.6979 48.0318 24.7047 47.89 24.6783C47.7482 24.6519 47.6145 24.593 47.4993 24.5062C47.3841 24.4193 47.2907 24.3069 47.2264 24.1777C47.162 24.0486 47.1286 23.9064 47.1286 23.7621C47.1286 23.6178 47.162 23.4756 47.2264 23.3465C47.2907 23.2173 47.3841 23.1049 47.4993 23.018C47.6145 22.9312 47.7482 22.8722 47.89 22.8458C48.0318 22.8194 48.1778 22.8263 48.3165 22.8659H56.5254C56.647 22.8659 56.7674 22.8901 56.8794 22.9372C56.9915 22.9842 57.0931 23.0532 57.1782 23.14C57.2633 23.2268 57.3303 23.3296 57.3752 23.4426C57.42 23.5556 57.4419 23.6764 57.4395 23.7979V77.5678C57.4419 77.6893 57.42 77.8101 57.3752 77.9231C57.3303 78.0361 57.2633 78.139 57.1782 78.2258C57.0931 78.3125 56.9915 78.3815 56.8794 78.4286C56.7674 78.4756 56.647 78.4998 56.5254 78.4998" fill="#0C4E98"/>
<path d="M66.5805 72.1927H62.6732C62.426 72.1927 62.1889 72.0944 62.0142 71.9197C61.8394 71.7449 61.7412 71.5078 61.7412 71.2607C61.7412 71.0135 61.8394 70.7764 62.0142 70.6016C62.1889 70.4268 62.426 70.3286 62.6732 70.3286H66.5805C66.8277 70.3286 67.0647 70.4268 67.2395 70.6016C67.4143 70.7764 67.5125 71.0135 67.5125 71.2607C67.5125 71.5078 67.4143 71.7449 67.2395 71.9197C67.0647 72.0944 66.8277 72.1927 66.5805 72.1927Z" fill="#0C4E98"/>
<path d="M66.5806 66.2417H62.6733C62.5346 66.2813 62.3886 66.2882 62.2468 66.2619C62.105 66.2355 61.9713 66.1765 61.8561 66.0896C61.7409 66.0027 61.6475 65.8903 61.5832 65.7612C61.5188 65.6321 61.4854 65.4898 61.4854 65.3456C61.4854 65.2013 61.5188 65.059 61.5832 64.9299C61.6475 64.8008 61.7409 64.6884 61.8561 64.6015C61.9713 64.5146 62.105 64.4557 62.2468 64.4293C62.3886 64.4029 62.5346 64.4098 62.6733 64.4494H66.5806C66.7193 64.4098 66.8653 64.4029 67.0071 64.4293C67.1489 64.4557 67.2827 64.5146 67.3979 64.6015C67.513 64.6884 67.6065 64.8008 67.6708 64.9299C67.7352 65.059 67.7686 65.2013 67.7686 65.3456C67.7686 65.4898 67.7352 65.6321 67.6708 65.7612C67.6065 65.8903 67.513 66.0027 67.3979 66.0896C67.2827 66.1765 67.1489 66.2355 67.0071 66.2619C66.8653 66.2882 66.7193 66.2813 66.5806 66.2417Z" fill="#0C4E98"/>
<path d="M66.5806 60.2896H62.6733C62.5346 60.3292 62.3886 60.3361 62.2468 60.3097C62.105 60.2833 61.9713 60.2244 61.8561 60.1375C61.7409 60.0506 61.6475 59.9382 61.5832 59.8091C61.5188 59.68 61.4854 59.5377 61.4854 59.3934C61.4854 59.2492 61.5188 59.1069 61.5832 58.9778C61.6475 58.8487 61.7409 58.7362 61.8561 58.6494C61.9713 58.5625 62.105 58.5036 62.2468 58.4772C62.3886 58.4508 62.5346 58.4576 62.6733 58.4972H66.5806C66.7193 58.4576 66.8653 58.4508 67.0071 58.4772C67.1489 58.5036 67.2827 58.5625 67.3979 58.6494C67.513 58.7362 67.6065 58.8487 67.6708 58.9778C67.7352 59.1069 67.7686 59.2492 67.7686 59.3934C67.7686 59.5377 67.7352 59.68 67.6708 59.8091C67.6065 59.9382 67.513 60.0506 67.3979 60.1375C67.2827 60.2244 67.1489 60.2833 67.0071 60.3097C66.8653 60.3361 66.7193 60.3292 66.5806 60.2896Z" fill="#0C4E98"/>
<path d="M66.5806 54.2691H62.6733C62.5346 54.3087 62.3886 54.3156 62.2468 54.2892C62.105 54.2628 61.9713 54.2039 61.8561 54.117C61.7409 54.0301 61.6475 53.9177 61.5832 53.7886C61.5188 53.6595 61.4854 53.5172 61.4854 53.3729C61.4854 53.2287 61.5188 53.0864 61.5832 52.9573C61.6475 52.8282 61.7409 52.7158 61.8561 52.6289C61.9713 52.542 62.105 52.483 62.2468 52.4566C62.3886 52.4303 62.5346 52.4372 62.6733 52.4768H66.5806C66.7193 52.4372 66.8653 52.4303 67.0071 52.4566C67.1489 52.483 67.2827 52.542 67.3979 52.6289C67.513 52.7158 67.6065 52.8282 67.6708 52.9573C67.7352 53.0864 67.7686 53.2287 67.7686 53.3729C67.7686 53.5172 67.7352 53.6595 67.6708 53.7886C67.6065 53.9177 67.513 54.0301 67.3979 54.117C67.2827 54.2039 67.1489 54.2628 67.0071 54.2892C66.8653 54.3156 66.7193 54.3087 66.5806 54.2691Z" fill="#0C4E98"/>
<path d="M66.5806 48.3878H62.6733C62.5346 48.4274 62.3886 48.4343 62.2468 48.4079C62.105 48.3815 61.9713 48.3225 61.8561 48.2356C61.7409 48.1488 61.6475 48.0364 61.5832 47.9072C61.5188 47.7781 61.4854 47.6358 61.4854 47.4916C61.4854 47.3473 61.5188 47.2051 61.5832 47.0759C61.6475 46.9468 61.7409 46.8344 61.8561 46.7475C61.9713 46.6607 62.105 46.6017 62.2468 46.5753C62.3886 46.5489 62.5346 46.5558 62.6733 46.5954H66.5806C66.7193 46.5558 66.8653 46.5489 67.0071 46.5753C67.1489 46.6017 67.2827 46.6607 67.3979 46.7475C67.513 46.8344 67.6065 46.9468 67.6708 47.0759C67.7352 47.2051 67.7686 47.3473 67.7686 47.4916C67.7686 47.6358 67.7352 47.7781 67.6708 47.9072C67.6065 48.0364 67.513 48.1488 67.3979 48.2356C67.2827 48.3225 67.1489 48.3815 67.0071 48.4079C66.8653 48.4343 66.7193 48.4274 66.5806 48.3878Z" fill="#0C4E98"/>
<path d="M57.44 76.7086H72.2446V41.1309H57.44V76.7086ZM73.1767 78.501H56.508C56.3864 78.501 56.2661 78.4768 56.154 78.4297C56.0419 78.3827 55.9403 78.3137 55.8552 78.2269C55.7701 78.1401 55.7031 78.0373 55.6583 77.9243C55.6134 77.8113 55.5915 77.6905 55.5939 77.569V40.1989C55.5939 39.9565 55.6902 39.724 55.8616 39.5525C56.033 39.3811 56.2655 39.2848 56.508 39.2848H73.1767C73.2982 39.2825 73.419 39.3043 73.532 39.3492C73.645 39.394 73.7478 39.461 73.8346 39.5461C73.9214 39.6313 73.9903 39.7328 74.0374 39.8449C74.0844 39.957 74.1087 40.0773 74.1087 40.1989V77.569C74.1087 77.8161 74.0105 78.0532 73.8357 78.228C73.6609 78.4028 73.4239 78.501 73.1767 78.501Z" fill="#0C4E98"/>
<path d="M25.9121 72.1927H16.9504C16.7557 72.1371 16.5844 72.0195 16.4624 71.8578C16.3404 71.6961 16.2744 71.4991 16.2744 71.2966C16.2744 71.094 16.3404 70.897 16.4624 70.7353C16.5844 70.5736 16.7557 70.456 16.9504 70.4004H25.9121C26.1068 70.456 26.2782 70.5736 26.4001 70.7353C26.5221 70.897 26.5881 71.094 26.5881 71.2966C26.5881 71.4991 26.5221 71.6961 26.4001 71.8578C26.2782 72.0195 26.1068 72.1371 25.9121 72.1927Z" fill="#0C4E98"/>
<path d="M25.9123 66.4033H16.9507C16.812 66.443 16.666 66.4499 16.5241 66.4235C16.3823 66.3971 16.2486 66.3381 16.1334 66.2512C16.0183 66.1644 15.9248 66.0519 15.8605 65.9228C15.7962 65.7937 15.7627 65.6514 15.7627 65.5072C15.7627 65.3629 15.7962 65.2206 15.8605 65.0915C15.9248 64.9624 16.0183 64.85 16.1334 64.7631C16.2486 64.6763 16.3823 64.6173 16.5241 64.5909C16.666 64.5645 16.812 64.5714 16.9507 64.611H25.9123C26.1071 64.6667 26.2784 64.7842 26.4004 64.9459C26.5224 65.1076 26.5884 65.3046 26.5884 65.5072C26.5884 65.7097 26.5224 65.9068 26.4004 66.0685C26.2784 66.2302 26.1071 66.3477 25.9123 66.4033Z" fill="#0C4E98"/>
<path d="M25.9122 60.5589H16.9505C16.7034 60.5589 16.4663 60.4607 16.2916 60.2859C16.1168 60.1111 16.0186 59.874 16.0186 59.6268C16.0231 59.3811 16.1228 59.1467 16.2966 58.9729C16.4704 58.7991 16.7048 58.6994 16.9505 58.6948H25.9122C26.1563 58.6995 26.3888 58.7998 26.5597 58.9741C26.7306 59.1483 26.8263 59.3827 26.8263 59.6268C26.8287 59.7484 26.8068 59.8692 26.7619 59.9821C26.717 60.0951 26.6501 60.198 26.565 60.2848C26.4799 60.3716 26.3783 60.4405 26.2662 60.4876C26.1541 60.5346 26.0338 60.5589 25.9122 60.5589Z" fill="#0C4E98"/>
<path d="M25.9122 54.7166H16.9505C16.7048 54.712 16.4704 54.6123 16.2966 54.4385C16.1228 54.2647 16.0231 54.0303 16.0186 53.7846C16.0186 53.5374 16.1168 53.3003 16.2916 53.1255C16.4663 52.9507 16.7034 52.8525 16.9505 52.8525H25.9122C26.0338 52.8525 26.1541 52.8768 26.2662 52.9238C26.3783 52.9709 26.4799 53.0398 26.565 53.1266C26.6501 53.2134 26.717 53.3163 26.7619 53.4293C26.8068 53.5422 26.8287 53.663 26.8263 53.7846C26.8263 54.0287 26.7306 54.2631 26.5597 54.4373C26.3888 54.6116 26.1563 54.7119 25.9122 54.7166Z" fill="#0C4E98"/>
<path d="M25.9123 48.8926H16.9507C16.812 48.9323 16.666 48.9392 16.5241 48.9128C16.3823 48.8864 16.2486 48.8274 16.1334 48.7405C16.0183 48.6537 15.9248 48.5412 15.8605 48.4121C15.7962 48.283 15.7627 48.1407 15.7627 47.9965C15.7627 47.8522 15.7962 47.7099 15.8605 47.5808C15.9248 47.4517 16.0183 47.3393 16.1334 47.2524C16.2486 47.1656 16.3823 47.1066 16.5241 47.0802C16.666 47.0538 16.812 47.0607 16.9507 47.1003H25.9123C26.1071 47.1559 26.2784 47.2735 26.4004 47.4352C26.5224 47.5969 26.5884 47.7939 26.5884 47.9965C26.5884 48.199 26.5224 48.396 26.4004 48.5577C26.2784 48.7194 26.1071 48.837 25.9123 48.8926Z" fill="#0C4E98"/>
<path d="M25.9121 43.0125H16.9504C16.7557 42.9569 16.5844 42.8393 16.4624 42.6776C16.3404 42.5159 16.2744 42.3189 16.2744 42.1164C16.2744 41.9138 16.3404 41.7168 16.4624 41.5551C16.5844 41.3934 16.7557 41.2758 16.9504 41.2202H25.9121C26.1068 41.2758 26.2782 41.3934 26.4001 41.5551C26.5221 41.7168 26.5881 41.9138 26.5881 42.1164C26.5881 42.3189 26.5221 42.5159 26.4001 42.6776C26.2782 42.8393 26.1068 42.9569 25.9121 43.0125Z" fill="#0C4E98"/>
<path d="M14.2439 76.7069H29.0485V35.8777H14.2439V76.7069ZM29.9626 78.4992H13.3119C13.0647 78.4992 12.8277 78.4011 12.6529 78.2263C12.4781 78.0515 12.3799 77.8144 12.3799 77.5672V34.9457C12.3799 34.6985 12.4781 34.4614 12.6529 34.2866C12.8277 34.1118 13.0647 34.0137 13.3119 34.0137H29.9626C30.2098 34.0137 30.4469 34.1118 30.6217 34.2866C30.7965 34.4614 30.8946 34.6985 30.8946 34.9457V77.5672C30.8946 77.8144 30.7965 78.0515 30.6217 78.2263C30.4469 78.4011 30.2098 78.4992 29.9626 78.4992Z" fill="#0C4E98"/>
<path d="M48.3164 28.4232C48.0692 28.4232 47.8322 28.325 47.6574 28.1503C47.4826 27.9755 47.3844 27.7384 47.3844 27.4912V11.2527H39.1039V27.527C39.0482 27.7218 38.9306 27.8931 38.7689 28.0151C38.6072 28.1371 38.4102 28.2031 38.2077 28.2031C38.0051 28.2031 37.8081 28.1371 37.6464 28.0151C37.4847 27.8931 37.3672 27.7218 37.3115 27.527V10.3207C37.3115 10.0735 37.4097 9.83645 37.5845 9.66167C37.7593 9.48688 37.9963 9.38867 38.2435 9.38867H48.3881C48.6353 9.38867 48.8724 9.48688 49.0472 9.66167C49.2219 9.83645 49.3202 10.0735 49.3202 10.3207V27.527C49.3156 27.7728 49.2159 28.0072 49.0421 28.181C48.8683 28.3548 48.6339 28.4545 48.3881 28.4591" fill="#0C4E98"/>
<path d="M43.2445 11.2513C42.9973 11.2513 42.7602 11.1531 42.5854 10.9783C42.4107 10.8035 42.3125 10.5665 42.3125 10.3193V1.03502C42.3125 0.787834 42.4107 0.550809 42.5854 0.376023C42.7602 0.201237 42.9973 0.103027 43.2445 0.103027C43.4917 0.103027 43.7288 0.201237 43.9035 0.376023C44.0783 0.550809 44.1765 0.787834 44.1765 1.03502V10.3193C44.1719 10.5651 44.0723 10.7994 43.8985 10.9732C43.7247 11.147 43.4902 11.2467 43.2445 11.2513Z" fill="#0C4E98"/>
<path d="M43.2445 24.1396C42.9973 24.1396 42.7602 24.0414 42.5854 23.8666C42.4107 23.6918 42.3125 23.4548 42.3125 23.2076V14.5506C42.3125 14.3035 42.4107 14.0664 42.5854 13.8916C42.7602 13.7168 42.9973 13.6187 43.2445 13.6187C43.4917 13.6187 43.7288 13.7168 43.9035 13.8916C44.0783 14.0664 44.1765 14.3035 44.1765 14.5506V23.2076C44.1765 23.4548 44.0783 23.6918 43.9035 23.8666C43.7288 24.0414 43.4917 24.1396 43.2445 24.1396Z" fill="#0C4E98"/>
<path d="M4.11759 64.2347C3.87041 64.2347 3.63333 64.1365 3.45854 63.9617C3.28376 63.787 3.18555 63.5499 3.18555 63.3027V28.2806C3.18555 28.0334 3.28376 27.7964 3.45854 27.6216C3.63333 27.4468 3.87041 27.3486 4.11759 27.3486C4.36334 27.3532 4.5977 27.4529 4.7715 27.6267C4.9453 27.8005 5.04499 28.0349 5.04958 28.2806V63.231C5.04958 63.4782 4.95138 63.7153 4.77659 63.8901C4.6018 64.0649 4.36478 64.163 4.11759 64.163" fill="#0C4E98"/>
<path d="M82.3712 64.2335C82.124 64.2335 81.887 64.1352 81.7122 63.9605C81.5374 63.7857 81.4392 63.5486 81.4392 63.3015V28.2793C81.3996 28.1406 81.3927 27.9946 81.419 27.8528C81.4454 27.711 81.5044 27.5772 81.5913 27.462C81.6782 27.3469 81.7906 27.2535 81.9197 27.1892C82.0488 27.1248 82.1911 27.0913 82.3353 27.0913C82.4796 27.0913 82.6219 27.1248 82.751 27.1892C82.8801 27.2535 82.9925 27.3469 83.0794 27.462C83.1663 27.5772 83.2252 27.711 83.2516 27.8528C83.278 27.9946 83.2711 28.1406 83.2315 28.2793V63.2298C83.2315 63.4769 83.1333 63.714 82.9585 63.8888C82.7837 64.0636 82.5467 64.1617 82.2995 64.1617" fill="#0C4E98"/>
</svg>
