<svg width="69" height="85" viewBox="0 0 69 85" fill="none" xmlns="http://www.w3.org/2000/svg">
<path d="M11.8469 62.6901C11.5405 62.6859 11.2479 62.5624 11.0312 62.3457C10.8146 62.1291 10.691 61.8364 10.6868 61.5301V30.7088H1.18108C0.963115 30.7159 0.747669 30.6606 0.560125 30.5493C0.37258 30.438 0.220758 30.2754 0.122552 30.0806C0.0243455 29.8859 -0.0161557 29.6672 0.00582637 29.4502C0.0278085 29.2333 0.111351 29.0271 0.246616 28.856L21.5621 0.451537C21.6721 0.310888 21.8127 0.197121 21.9732 0.118889C22.1337 0.0406565 22.3099 0 22.4885 0C22.6671 0 22.8433 0.0406565 23.0038 0.118889C23.1643 0.197121 23.3049 0.310888 23.4149 0.451537L44.682 28.856C44.8103 29.0306 44.8886 29.2369 44.9084 29.4526C44.9283 29.6683 44.889 29.8854 44.7948 30.0805C44.6959 30.2723 44.5455 30.4326 44.3605 30.5436C44.1756 30.6546 43.9633 30.7119 43.7475 30.7088H34.2579V43.7591C34.2579 44.0668 34.1357 44.3618 33.9181 44.5794C33.7006 44.7969 33.4055 44.9192 33.0979 44.9192C32.7902 44.9192 32.4952 44.7969 32.2776 44.5794C32.0601 44.3618 31.9378 44.0668 31.9378 43.7591V29.5488C31.9378 29.2412 32.0601 28.9461 32.2776 28.7285C32.4952 28.511 32.7902 28.3888 33.0979 28.3888H41.4597L22.4804 3.07769L3.48501 28.3888H11.8147C12.1223 28.3888 12.4174 28.511 12.6349 28.7285C12.8524 28.9461 12.9747 29.2412 12.9747 29.5488V61.5301C12.9747 61.8377 12.8524 62.1327 12.6349 62.3503C12.4174 62.5678 12.1223 62.6901 11.8147 62.6901" fill="#0C4E98"/>
<path d="M11.8466 73.3392C11.5389 73.3392 11.2438 73.2169 11.0263 72.9994C10.8088 72.7819 10.6865 72.4868 10.6865 72.1791V68.6346C10.6865 68.327 10.8088 68.0319 11.0263 67.8144C11.2438 67.5968 11.5389 67.4746 11.8466 67.4746C12.1542 67.4746 12.4493 67.5968 12.6668 67.8144C12.8844 68.0319 13.0066 68.327 13.0066 68.6346V72.1791C13.0066 72.4868 12.8844 72.7819 12.6668 72.9994C12.4493 73.2169 12.1542 73.3392 11.8466 73.3392Z" fill="#0C4E98"/>
<path d="M11.8466 84.0057C11.5389 84.0057 11.2438 83.8835 11.0263 83.6659C10.8088 83.4484 10.6865 83.1533 10.6865 82.8456V79.285C10.6865 78.9774 10.8088 78.6823 11.0263 78.4648C11.2438 78.2472 11.5389 78.125 11.8466 78.125C12.1542 78.125 12.4493 78.2472 12.6668 78.4648C12.8844 78.6823 13.0066 78.9774 13.0066 79.285V82.8456C13.0066 83.1533 12.8844 83.4484 12.6668 83.6659C12.4493 83.8835 12.1542 84.0057 11.8466 84.0057Z" fill="#0C4E98"/>
<path d="M38.4955 55.5852C31.5032 55.5852 27.2175 58.0019 27.2175 59.742C27.2175 61.482 31.5032 63.9148 38.4955 63.9148C45.4879 63.9148 49.7736 61.4981 49.7736 59.742C49.7736 57.9858 45.4879 55.5852 38.4955 55.5852ZM38.4955 66.2349C30.7459 66.2349 24.8975 63.4476 24.8975 59.7903C24.8975 56.133 30.7459 53.3457 38.4955 53.3457C46.2451 53.3457 52.0775 56.133 52.0775 59.7903C52.0775 63.4476 46.2451 66.2349 38.4955 66.2349Z" fill="#0C4E98"/>
<path d="M38.4955 75.1124C30.7459 75.1124 24.8975 72.3251 24.8975 68.6678V59.7421C24.8975 59.4344 25.0197 59.1393 25.2372 58.9218C25.4548 58.7042 25.7498 58.582 26.0575 58.582C26.3651 58.582 26.6602 58.7042 26.8777 58.9218C27.0953 59.1393 27.2175 59.4344 27.2175 59.7421V68.6356C27.2175 70.3756 31.5032 72.7923 38.4955 72.7923C45.4879 72.7923 49.7736 70.3756 49.7736 68.6356V59.7421C49.7736 59.4344 49.8958 59.1393 50.1133 58.9218C50.3309 58.7042 50.6259 58.582 50.9336 58.582C51.2412 58.582 51.5363 58.7042 51.7538 58.9218C51.9714 59.1393 52.0936 59.4344 52.0936 59.7421V68.6356C52.0936 72.3251 46.2612 75.0802 38.5116 75.0802" fill="#0C4E98"/>
<path d="M38.4955 84.0054C30.7459 84.0054 24.8975 81.202 24.8975 77.5608V68.6835C24.8975 68.3758 25.0197 68.0807 25.2372 67.8632C25.4548 67.6456 25.7498 67.5234 26.0575 67.5234C26.3651 67.5234 26.6602 67.6456 26.8777 67.8632C27.0953 68.0807 27.2175 68.3758 27.2175 68.6835V77.5608C27.2175 79.3009 31.5032 81.7337 38.4955 81.7337C45.4879 81.7337 49.7736 79.3009 49.7736 77.5608V68.6835C49.7736 68.3758 49.8958 68.0807 50.1133 67.8632C50.3309 67.6456 50.6259 67.5234 50.9336 67.5234C51.2412 67.5234 51.5363 67.6456 51.7538 67.8632C51.9714 68.0807 52.0936 68.3758 52.0936 68.6835V77.5608C52.0936 81.2504 46.2612 84.0054 38.5116 84.0054" fill="#0C4E98"/>
<path d="M56.2498 66.1859C55.9422 66.1859 55.6471 66.0637 55.4296 65.8461C55.212 65.6286 55.0898 65.3335 55.0898 65.0258C55.0898 64.7182 55.212 64.4231 55.4296 64.2056C55.6471 63.988 55.9422 63.8658 56.2498 63.8658C61.9694 63.5114 65.8201 61.4491 65.8201 59.7574V50.8639C65.8008 50.7012 65.8162 50.5362 65.8653 50.3799C65.9144 50.2236 65.996 50.0794 66.1049 49.9569C66.2137 49.8344 66.3472 49.7363 66.4967 49.6692C66.6462 49.6021 66.8082 49.5674 66.972 49.5674C67.1359 49.5674 67.2979 49.6021 67.4474 49.6692C67.5968 49.7363 67.7304 49.8344 67.8392 49.9569C67.948 50.0794 68.0297 50.2236 68.0788 50.3799C68.1279 50.5362 68.1433 50.7012 68.124 50.8639V59.7574C68.124 63.1086 63.2906 65.7509 56.3949 66.202" fill="#0C4E98"/>
<path d="M54.478 37.8132C47.4856 37.8132 43.1999 40.2461 43.1999 41.9861C43.1999 43.7261 47.4856 46.159 54.478 46.159C61.4703 46.159 65.756 43.7261 65.756 41.9861C65.756 40.2461 61.4542 37.8132 54.478 37.8132ZM54.478 48.479C46.7283 48.479 40.8799 45.6917 40.8799 42.0344C40.8799 38.3771 46.7283 35.5898 54.478 35.5898C62.2276 35.5898 68.076 38.3932 68.076 42.0344C68.076 45.6756 62.2276 48.479 54.478 48.479Z" fill="#0C4E98"/>
<path d="M42.0399 50.2514C41.7323 50.2514 41.4372 50.1291 41.2196 49.9116C41.0021 49.694 40.8799 49.399 40.8799 49.0914V41.9862C40.8799 41.6785 41.0021 41.3835 41.2196 41.1659C41.4372 40.9484 41.7323 40.8262 42.0399 40.8262C42.3476 40.8262 42.6426 40.9484 42.8602 41.1659C43.0777 41.3835 43.1999 41.6785 43.1999 41.9862V49.0914C43.1999 49.399 43.0777 49.694 42.8602 49.9116C42.6426 50.1291 42.3476 50.2514 42.0399 50.2514Z" fill="#0C4E98"/>
<path d="M55.5898 57.3402C55.2876 57.3403 54.9973 57.2225 54.7807 57.0119C54.564 56.8013 54.4381 56.5144 54.4298 56.2124C54.4233 56.0608 54.447 55.9095 54.4996 55.7672C54.5522 55.6249 54.6325 55.4944 54.736 55.3835C54.8394 55.2725 54.9639 55.1833 55.1022 55.1209C55.2405 55.0585 55.3898 55.0243 55.5414 55.0201C61.551 54.7946 65.7561 52.6518 65.7561 50.8634V41.986C65.7368 41.8233 65.7522 41.6583 65.8013 41.502C65.8504 41.3456 65.9321 41.2015 66.0409 41.079C66.1497 40.9565 66.2833 40.8585 66.4328 40.7913C66.5822 40.7242 66.7442 40.6895 66.9081 40.6895C67.0719 40.6895 67.2339 40.7242 67.3834 40.7913C67.5329 40.8585 67.6664 40.9565 67.7752 41.079C67.8841 41.2015 67.9657 41.3456 68.0148 41.502C68.0639 41.6583 68.0793 41.8233 68.06 41.986V50.8634C68.06 54.3435 62.8399 57.0663 55.622 57.308" fill="#0C4E98"/>
<path d="M56.25 75.0641C55.9532 75.0645 55.6675 74.9512 55.4517 74.7474C55.2359 74.5436 55.1065 74.2649 55.09 73.9685C55.0767 73.6618 55.1838 73.362 55.3885 73.1332C55.5932 72.9044 55.8792 72.7648 56.1855 72.744C61.9051 72.3896 65.7396 70.3273 65.7396 68.6356V59.7421C65.7396 59.4344 65.8619 59.1393 66.0794 58.9218C66.2969 58.7042 66.592 58.582 66.8997 58.582C67.2073 58.582 67.5024 58.7042 67.7199 58.9218C67.9375 59.1393 68.0597 59.4344 68.0597 59.7421V68.6356C68.0597 71.9868 63.2263 74.6452 56.3144 75.0802" fill="#0C4E98"/>
</svg>
