<svg width="125" height="122" viewBox="0 0 125 122" fill="none" xmlns="http://www.w3.org/2000/svg">
<g clip-path="url(#clip0_292_5384)">
<path d="M17.557 85.4681C9.35014 85.4681 7.15556 93.4197 7.06412 93.7605C6.01254 97.7136 6.88119 101.644 9.94446 106.892C12.2939 110.617 14.8348 114.219 17.557 117.683C19.5687 115.048 23.3863 109.959 25.1694 106.892C28.2098 101.644 29.0785 97.8044 28.027 93.7605C28.027 93.4197 25.741 85.4681 17.557 85.4681ZM17.557 122C17.305 122.002 17.0561 121.945 16.8299 121.835C16.6037 121.724 16.4065 121.563 16.2539 121.364C15.9796 121.023 9.67016 112.958 7.10981 108.528C3.61219 102.53 2.53777 97.7363 3.90939 92.9427C4.58988 89.8302 6.32168 87.0428 8.81694 85.044C11.3122 83.0451 14.4206 81.9551 17.6256 81.9551C20.8305 81.9551 23.9389 83.0451 26.4342 85.044C28.9294 87.0428 30.6612 89.8302 31.3417 92.9427C32.6219 97.7363 31.6389 102.53 28.1413 108.528C25.3169 112.96 22.2648 117.244 18.9972 121.364C18.8494 121.563 18.6563 121.724 18.4338 121.835C18.2114 121.945 17.9658 122.002 17.717 122" fill="white"/>
<path d="M109.935 3.27152C101.751 3.27152 99.5565 11.2458 99.465 11.5866C98.4134 15.517 99.2593 19.4473 102.323 24.6953C104.106 27.7624 107.923 32.8514 109.935 35.4868C111.947 32.8514 115.764 27.7624 117.548 24.6953C120.611 19.4473 121.457 15.6078 120.428 11.5866C120.428 11.2458 118.142 3.27152 109.935 3.27152ZM109.935 39.8033C109.683 39.8034 109.435 39.746 109.209 39.6358C108.983 39.5255 108.786 39.3652 108.632 39.1672C108.381 38.8264 102.048 30.7613 99.4879 26.3311C96.0131 20.3561 95.0302 15.5397 96.2875 10.746C96.9882 7.65075 98.7281 4.88462 101.221 2.90267C103.714 0.920728 106.811 -0.159042 110.004 -0.159042C113.196 -0.159042 116.293 0.920728 118.786 2.90267C121.279 4.88462 123.019 7.65075 123.72 10.746C124.977 15.5397 123.994 20.3561 120.519 26.3311C117.936 30.7613 111.627 38.8264 111.375 39.1672C111.221 39.3652 111.024 39.5255 110.798 39.6358C110.572 39.746 110.324 39.8034 110.072 39.8033" fill="white"/>
<path d="M92.95 100.463H39.6856C39.4547 100.49 39.2207 100.468 38.9989 100.399C38.777 100.33 38.5725 100.214 38.3987 100.061C38.2249 99.9075 38.0858 99.7192 37.9906 99.5084C37.8953 99.2977 37.846 99.0693 37.846 98.8382C37.846 98.6071 37.8953 98.3787 37.9906 98.168C38.0858 97.9572 38.2249 97.7689 38.3987 97.6154C38.5725 97.4619 38.777 97.3467 38.9989 97.2775C39.2207 97.2083 39.4547 97.1866 39.6856 97.2138H92.95C95.3647 97.0955 97.6412 96.0588 99.308 94.3186C100.975 92.5783 101.905 90.2676 101.905 87.865C101.905 85.4623 100.975 83.1517 99.308 81.4114C97.6412 79.6711 95.3647 78.6345 92.95 78.5162H32.0503C23.5622 78.5162 15.4217 75.1652 9.41974 69.2004C3.41776 63.2355 0.0458984 55.1454 0.0458984 46.7099C0.0458984 38.2743 3.41776 30.1842 9.41974 24.2194C15.4217 18.2545 23.5622 14.9035 32.0503 14.9035H88.2637C88.7002 14.9035 89.1189 15.0759 89.4276 15.3826C89.7362 15.6894 89.9096 16.1055 89.9096 16.5393C89.9096 16.9731 89.7362 17.3892 89.4276 17.696C89.1189 18.0027 88.7002 18.1751 88.2637 18.1751H32.0503C24.4231 18.1751 17.1083 21.1862 11.7151 26.546C6.3219 31.9059 3.29202 39.1753 3.29202 46.7553C3.29202 54.3352 6.3219 61.6048 11.7151 66.9646C17.1083 72.3245 24.4231 75.3356 32.0503 75.3356H92.95C96.3149 75.3356 99.5421 76.664 101.921 79.0286C104.301 81.3933 105.638 84.6004 105.638 87.9445C105.638 91.2886 104.301 94.4957 101.921 96.8604C99.5421 99.225 96.3149 100.553 92.95 100.553" fill="white"/>
<path d="M92.9495 119.705H35.1131C34.6765 119.705 34.2579 119.533 33.9492 119.226C33.6405 118.92 33.4671 118.503 33.4671 118.07C33.4671 117.636 33.6405 117.22 33.9492 116.913C34.2579 116.606 34.6765 116.434 35.1131 116.434H92.9495C100.577 116.434 107.891 113.423 113.285 108.063C118.678 102.703 121.708 95.4335 121.708 87.8536C121.708 80.2736 118.678 73.0042 113.285 67.6443C107.891 62.2845 100.577 59.2734 92.9495 59.2734H32.0498C28.6849 59.2734 25.4578 57.9449 23.0784 55.5803C20.6991 53.2157 19.3623 50.0085 19.3623 46.6645C19.3623 43.3204 20.6991 40.1132 23.0784 37.7485C25.4578 35.3839 28.6849 34.0555 32.0498 34.0555H93.4525C93.6833 34.0283 93.9174 34.05 94.1392 34.1193C94.361 34.1885 94.5656 34.3036 94.7394 34.4571C94.9132 34.6106 95.0523 34.7989 95.1475 35.0096C95.2428 35.2204 95.2921 35.4488 95.2921 35.6799C95.2921 35.9109 95.2428 36.1394 95.1475 36.3502C95.0523 36.5609 94.9132 36.7492 94.7394 36.9027C94.5656 37.0561 94.361 37.1713 94.1392 37.2405C93.9174 37.3097 93.6833 37.3314 93.4525 37.3042H32.0498C29.6351 37.4226 27.3587 38.4592 25.6918 40.1995C24.0249 41.9398 23.0952 44.2504 23.0952 46.6531C23.0952 49.0557 24.0249 51.3664 25.6918 53.1067C27.3587 54.8469 29.6351 55.8835 32.0498 56.0018H92.9495C101.438 56.0018 109.578 59.3528 115.58 65.3177C121.582 71.2825 124.954 79.3726 124.954 87.8082C124.954 96.2437 121.582 104.334 115.58 110.299C109.578 116.264 101.438 119.615 92.9495 119.615" fill="white"/>
<path d="M50.9332 27.6942H41.4233C40.9867 27.6942 40.5681 27.5219 40.2594 27.2151C39.9507 26.9084 39.7773 26.4923 39.7773 26.0585C39.7773 25.6246 39.9507 25.2085 40.2594 24.9018C40.5681 24.595 40.9867 24.4227 41.4233 24.4227H50.9332C51.3697 24.4227 51.7883 24.595 52.097 24.9018C52.4056 25.2085 52.5791 25.6246 52.5791 26.0585C52.5791 26.4923 52.4056 26.9084 52.097 27.2151C51.7883 27.5219 51.3697 27.6942 50.9332 27.6942ZM69.9529 27.6942H60.443C60.0064 27.6942 59.5878 27.5219 59.2792 27.2151C58.9705 26.9084 58.797 26.4923 58.797 26.0585C58.797 25.6246 58.9705 25.2085 59.2792 24.9018C59.5878 24.595 60.0064 24.4227 60.443 24.4227H69.9529C70.3894 24.4227 70.8081 24.595 71.1167 24.9018C71.4254 25.2085 71.5988 25.6246 71.5988 26.0585C71.5988 26.4923 71.4254 26.9084 71.1167 27.2151C70.8081 27.5219 70.3894 27.6942 69.9529 27.6942ZM88.9726 27.6942H79.4627C79.0262 27.6942 78.6075 27.5219 78.2989 27.2151C77.9902 26.9084 77.8168 26.4923 77.8168 26.0585C77.8168 25.6246 77.9902 25.2085 78.2989 24.9018C78.6075 24.595 79.0262 24.4227 79.4627 24.4227H88.9726C89.4092 24.4227 89.8278 24.595 90.1365 24.9018C90.4452 25.2085 90.6186 25.6246 90.6186 26.0585C90.6186 26.4923 90.4452 26.9084 90.1365 27.2151C89.8278 27.5219 89.4092 27.6942 88.9726 27.6942ZM22.8836 29.9661C22.5871 29.9768 22.2932 29.9087 22.032 29.7689C21.7708 29.6291 21.5519 29.4227 21.3977 29.1709C21.2826 28.9805 21.2084 28.7687 21.1796 28.5485C21.1508 28.3282 21.168 28.1045 21.2302 27.8912C21.2925 27.6779 21.3983 27.4797 21.5412 27.309C21.6841 27.1383 21.8609 26.9987 22.0606 26.899C25.073 25.2864 28.4244 24.3993 31.8448 24.3091C32.2797 24.3028 32.6999 24.4655 33.0159 24.7626C33.3319 25.0596 33.5186 25.4675 33.5365 25.8994C33.5456 26.1131 33.5119 26.3266 33.4373 26.5272C33.3627 26.7279 33.2488 26.9118 33.102 27.0682C32.9552 27.2247 32.7785 27.3505 32.5823 27.4385C32.3861 27.5265 32.1743 27.5747 31.9591 27.5806C29.0383 27.6859 26.182 28.4636 23.6151 29.8525C23.3861 29.9853 23.1259 30.0559 22.8607 30.057M12.2535 44.8696H11.9792C11.7661 44.8338 11.5621 44.7567 11.3789 44.6426C11.1958 44.5284 11.0371 44.3796 10.9118 44.2044C10.7866 44.0293 10.6972 43.8314 10.649 43.622C10.6007 43.4126 10.5944 43.1957 10.6305 42.9839C11.1913 39.6343 12.5297 36.4607 14.5396 33.7147C14.7922 33.3636 15.1743 33.1259 15.6026 33.0536C16.0308 32.9812 16.4704 33.08 16.8256 33.3284C17.174 33.5832 17.4093 33.9625 17.4818 34.3864C17.5543 34.8102 17.4584 35.2454 17.2143 35.6003C15.5158 37.9553 14.389 40.6691 13.9224 43.5292C13.854 43.9107 13.6551 44.257 13.3593 44.5096C13.0635 44.7621 12.689 44.9053 12.2992 44.915M17.6485 62.2949C17.4249 62.2939 17.2038 62.247 16.9992 62.1571C16.7947 62.0672 16.611 61.9362 16.4598 61.7724C14.1023 59.3058 12.3566 56.3263 11.362 53.0711C11.2732 52.8603 11.2298 52.6335 11.2346 52.4051C11.2394 52.1767 11.2923 51.9518 11.3899 51.745C11.4874 51.5381 11.6275 51.3539 11.8011 51.2041C11.9747 51.0543 12.178 50.9423 12.3977 50.8753C12.6175 50.8084 12.849 50.7879 13.0772 50.8153C13.3055 50.8426 13.5254 50.9172 13.7228 51.0342C13.9203 51.1511 14.091 51.3079 14.2237 51.4944C14.3565 51.6809 14.4486 51.8929 14.4939 52.1169C15.3509 54.8891 16.8458 57.4249 18.8602 59.5232C19.1563 59.8281 19.3218 60.2354 19.3218 60.6591C19.3218 61.0829 19.1563 61.4902 18.8602 61.7951C18.5501 62.0838 18.1421 62.2461 17.7172 62.2495M34.8624 68.6335H32.5764C29.9621 68.6389 27.368 68.1772 24.9182 67.2703C24.6926 67.2153 24.4812 67.1135 24.2981 66.9715C24.1149 66.8295 23.9641 66.6506 23.8555 66.4465C23.7469 66.2425 23.683 66.0178 23.668 65.7874C23.653 65.5571 23.6872 65.3261 23.7684 65.1099C23.8496 64.8936 23.9759 64.6969 24.1391 64.5326C24.3023 64.3683 24.4986 64.2402 24.7152 64.1567C24.9318 64.0732 25.1636 64.0362 25.3956 64.0482C25.6276 64.0601 25.8544 64.1207 26.0612 64.226C28.1497 64.979 30.3546 65.3635 32.5764 65.362H34.8624C35.2989 65.362 35.7175 65.5343 36.0262 65.841C36.3349 66.1478 36.5083 66.5639 36.5083 66.9977C36.5083 67.4315 36.3349 67.8476 36.0262 68.1544C35.7175 68.4611 35.2989 68.6335 34.8624 68.6335ZM53.8593 68.6335H44.2579C43.8214 68.6335 43.4027 68.4611 43.0941 68.1544C42.7854 67.8476 42.612 67.4315 42.612 66.9977C42.612 66.5639 42.7854 66.1478 43.0941 65.841C43.4027 65.5343 43.8214 65.362 44.2579 65.362H53.7678C54.2043 65.362 54.623 65.5343 54.9317 65.841C55.2404 66.1478 55.4138 66.5639 55.4138 66.9977C55.4138 67.4315 55.2404 67.8476 54.9317 68.1544C54.623 68.4611 54.2043 68.6335 53.7678 68.6335M72.7876 68.6335H63.2777C62.8412 68.6335 62.4225 68.4611 62.1138 68.1544C61.8052 67.8476 61.6318 67.4315 61.6318 66.9977C61.6318 66.5639 61.8052 66.1478 62.1138 65.841C62.4225 65.5343 62.8412 65.362 63.2777 65.362H72.7876C73.2241 65.362 73.6427 65.5343 73.9514 65.841C74.2601 66.1478 74.4335 66.5639 74.4335 66.9977C74.4335 67.4315 74.2601 67.8476 73.9514 68.1544C73.6427 68.4611 73.2241 68.6335 72.7876 68.6335ZM91.8073 68.6335H82.2975C81.8609 68.6335 81.4423 68.4611 81.1336 68.1544C80.8249 67.8476 80.6515 67.4315 80.6515 66.9977C80.6515 66.5639 80.8249 66.1478 81.1336 65.841C81.4423 65.5343 81.8609 65.362 82.2975 65.362H91.8073C92.2438 65.362 92.6625 65.5343 92.9712 65.841C93.2798 66.1478 93.4532 66.5639 93.4532 66.9977C93.4532 67.4315 93.2798 67.8476 92.9712 68.1544C92.6625 68.4611 92.2438 68.6335 91.8073 68.6335ZM108.861 75.6991C108.628 75.7016 108.397 75.6542 108.184 75.5601C107.971 75.466 107.781 75.3274 107.627 75.1538C105.675 72.9346 103.234 71.1931 100.494 70.0648C100.295 69.9829 100.114 69.8624 99.9616 69.7102C99.8095 69.558 99.6895 69.3771 99.6086 69.1783C99.5278 68.9794 99.4876 68.7665 99.4905 68.5521C99.4934 68.3376 99.5393 68.1258 99.6255 67.9292C99.7972 67.5326 100.118 67.2181 100.519 67.0527C100.92 66.8872 101.371 66.8839 101.774 67.0432C104.961 68.373 107.799 70.4089 110.073 72.9955C110.288 73.2286 110.43 73.5195 110.48 73.832C110.53 74.1445 110.487 74.4648 110.355 74.753C110.224 75.0412 110.01 75.2846 109.74 75.4528C109.47 75.621 109.157 75.7066 108.838 75.6991M113.57 93.4878H113.25C112.823 93.4003 112.448 93.1478 112.208 92.7857C111.968 92.4235 111.882 91.9815 111.97 91.5567C112.532 88.6733 112.446 85.7021 111.719 82.8555C111.657 82.6481 111.638 82.4303 111.664 82.2155C111.69 82.0008 111.759 81.7935 111.868 81.6064C111.978 81.4192 112.124 81.2562 112.299 81.1272C112.473 80.9982 112.673 80.906 112.884 80.8562C113.306 80.7452 113.754 80.8049 114.131 81.0221C114.509 81.2393 114.784 81.5964 114.896 82.0149C115.38 83.8854 115.625 85.8087 115.628 87.74C115.639 89.2653 115.493 90.7878 115.193 92.2838C115.114 92.6524 114.91 92.9826 114.614 93.2186C114.318 93.4545 113.95 93.5818 113.57 93.5787M102.254 108.119C101.946 108.121 101.643 108.037 101.38 107.876C101.118 107.715 100.906 107.485 100.769 107.21C100.663 107.013 100.599 106.796 100.581 106.573C100.562 106.351 100.588 106.127 100.659 105.914C100.729 105.702 100.842 105.506 100.991 105.339C101.139 105.171 101.32 105.035 101.523 104.938C104.206 103.667 106.554 101.793 108.381 99.4629C108.648 99.1195 109.041 98.8954 109.474 98.84C109.907 98.7846 110.344 98.9024 110.69 99.1675C111.035 99.4327 111.261 99.8234 111.317 100.254C111.372 100.684 111.254 101.119 110.987 101.462C108.863 104.18 106.142 106.379 103.032 107.892C102.811 107.998 102.568 108.052 102.323 108.051M55.0251 110.118H45.5152C45.0787 110.118 44.6601 109.946 44.3514 109.639C44.0427 109.332 43.8693 108.916 43.8693 108.482C43.8693 108.048 44.0427 107.632 44.3514 107.326C44.6601 107.019 45.0787 106.847 45.5152 106.847H55.0251C55.2412 106.847 55.4553 106.889 55.655 106.971C55.8547 107.053 56.0361 107.174 56.189 107.326C56.3418 107.478 56.463 107.658 56.5457 107.856C56.6285 108.055 56.671 108.267 56.671 108.482C56.671 108.697 56.6285 108.91 56.5457 109.108C56.463 109.307 56.3418 109.487 56.189 109.639C56.0361 109.791 55.8547 109.911 55.655 109.994C55.4553 110.076 55.2412 110.118 55.0251 110.118ZM74.0449 110.118H64.535C64.0985 110.118 63.6798 109.946 63.3711 109.639C63.0624 109.332 62.889 108.916 62.889 108.482C62.889 108.048 63.0624 107.632 63.3711 107.326C63.6798 107.019 64.0985 106.847 64.535 106.847H73.9763C74.4128 106.847 74.8315 107.019 75.1402 107.326C75.4488 107.632 75.6222 108.048 75.6222 108.482C75.6222 108.916 75.4488 109.332 75.1402 109.639C74.8315 109.946 74.4128 110.118 73.9763 110.118M92.9961 110.118H83.4862C83.27 110.118 83.056 110.076 82.8563 109.994C82.6566 109.911 82.4751 109.791 82.3223 109.639C82.1695 109.487 82.0482 109.307 81.9655 109.108C81.8828 108.91 81.8402 108.697 81.8402 108.482C81.8402 108.267 81.8828 108.055 81.9655 107.856C82.0482 107.658 82.1695 107.478 82.3223 107.326C82.4751 107.174 82.6566 107.053 82.8563 106.971C83.056 106.889 83.27 106.847 83.4862 106.847H92.9961C93.4326 106.847 93.8512 107.019 94.1599 107.326C94.4685 107.632 94.642 108.048 94.642 108.482C94.642 108.916 94.4685 109.332 94.1599 109.639C93.8512 109.946 93.4326 110.118 92.9961 110.118Z" fill="white"/>
</g>
<defs>
<clipPath id="clip0_292_5384">
<rect width="125" height="122" fill="white"/>
</clipPath>
</defs>
</svg>
