<svg width="76" height="83" viewBox="0 0 76 83" fill="none" xmlns="http://www.w3.org/2000/svg">
<path d="M38.077 49.3097H24.3829C24.2406 49.3115 24.0995 49.2851 23.9676 49.2319C23.8357 49.1787 23.7156 49.0998 23.6144 48.9999C23.5132 48.9 23.4328 48.7809 23.378 48.6497C23.3232 48.5184 23.2949 48.3776 23.2949 48.2354C23.2949 47.9469 23.4095 47.6701 23.6136 47.4661C23.8176 47.2621 24.0943 47.1475 24.3829 47.1475H38.077C38.3656 47.1475 38.6423 47.2621 38.8463 47.4661C39.0503 47.6701 39.165 47.9469 39.165 48.2354C39.165 48.3776 39.1367 48.5184 39.0819 48.6497C39.027 48.7809 38.9467 48.9 38.8455 48.9999C38.7443 49.0998 38.6242 49.1787 38.4923 49.2319C38.3604 49.2851 38.2192 49.3115 38.077 49.3097Z" fill="#0C4E98"/>
<path d="M45.6792 39.3966H24.3832C24.231 39.4137 24.077 39.3984 23.9311 39.3519C23.7852 39.3054 23.6508 39.2286 23.5367 39.1266C23.4225 39.0245 23.3312 38.8995 23.2687 38.7597C23.2061 38.62 23.1738 38.4686 23.1738 38.3155C23.1738 38.1624 23.2061 38.011 23.2687 37.8712C23.3312 37.7314 23.4225 37.6064 23.5367 37.5044C23.6508 37.4023 23.7852 37.3256 23.9311 37.279C24.077 37.2325 24.231 37.2172 24.3832 37.2343H45.6792C45.8314 37.2172 45.9854 37.2325 46.1313 37.279C46.2772 37.3256 46.4116 37.4023 46.5257 37.5044C46.6399 37.6064 46.7312 37.7314 46.7937 37.8712C46.8563 38.011 46.8886 38.1624 46.8886 38.3155C46.8886 38.4686 46.8563 38.62 46.7937 38.7597C46.7312 38.8995 46.6399 39.0245 46.5257 39.1266C46.4116 39.2286 46.2772 39.3054 46.1313 39.3519C45.9854 39.3984 45.8314 39.4137 45.6792 39.3966Z" fill="#0C4E98"/>
<path d="M45.6789 29.4825H24.3829C24.0943 29.4825 23.8176 29.3679 23.6136 29.1638C23.4095 28.9598 23.2949 28.6831 23.2949 28.3945C23.2949 28.106 23.4095 27.8293 23.6136 27.6253C23.8176 27.4213 24.0943 27.3066 24.3829 27.3066H45.6789C45.9674 27.3066 46.2441 27.4213 46.4482 27.6253C46.6522 27.8293 46.7668 28.106 46.7668 28.3945C46.7668 28.6831 46.6522 28.9598 46.4482 29.1638C46.2441 29.3679 45.9674 29.4825 45.6789 29.4825Z" fill="#0C4E98"/>
<path d="M35.0309 79.0917H9.79121C9.64898 79.0917 9.50815 79.0635 9.37691 79.0087C9.24568 78.9538 9.12663 78.8735 9.02669 78.7723C8.92675 78.6711 8.84792 78.551 8.79474 78.4191C8.74156 78.2872 8.71508 78.146 8.71688 78.0038V9.4649C8.71508 9.32268 8.74156 9.18151 8.79474 9.0496C8.84792 8.91768 8.92675 8.79763 9.02669 8.69643C9.12663 8.59522 9.24568 8.51488 9.37691 8.46004C9.50815 8.4052 9.64898 8.37694 9.79121 8.37695H60.2707C60.5592 8.37695 60.8359 8.49157 61.04 8.6956C61.244 8.89962 61.3586 9.17636 61.3586 9.4649V42.4561C61.3586 42.7446 61.244 43.0213 61.04 43.2253C60.8359 43.4293 60.5592 43.544 60.2707 43.544C59.9821 43.544 59.7054 43.4293 59.5014 43.2253C59.2974 43.0213 59.1828 42.7446 59.1828 42.4561V10.6072H10.8791V76.9703H35.0309C35.3195 76.9703 35.5962 77.0849 35.8002 77.2889C36.0042 77.4929 36.1188 77.7697 36.1188 78.0582C36.1188 78.3467 36.0042 78.6235 35.8002 78.8275C35.5962 79.0315 35.3195 79.1461 35.0309 79.1461" fill="#0C4E98"/>
<path d="M1.08794 70.7691C0.79941 70.7691 0.522668 70.6545 0.318643 70.4505C0.114619 70.2465 0 69.9697 0 69.6812V1.0879C0 0.799369 0.114619 0.522668 0.318643 0.318643C0.522668 0.114619 0.79941 0 1.08794 0H51.5674C51.8559 0 52.1326 0.114619 52.3367 0.318643C52.5407 0.522668 52.6553 0.799369 52.6553 1.0879C52.6553 1.37644 52.5407 1.65314 52.3367 1.85716C52.1326 2.06119 51.8559 2.17581 51.5674 2.17581H2.17585V69.6268C2.17585 69.7697 2.14773 69.9111 2.09305 70.0431C2.03838 70.1751 1.95823 70.2951 1.8572 70.3961C1.75618 70.4971 1.63627 70.5772 1.50428 70.6319C1.37229 70.6866 1.23081 70.7148 1.08794 70.7148" fill="#0C4E98"/>
<path d="M39.5592 64.7861L53.3078 79.4187L73.4071 53.4582L68.1307 49.0929L53.5798 67.9003C53.4829 68.0216 53.3611 68.1208 53.2227 68.1912C53.0844 68.2615 52.9325 68.3015 52.7774 68.3083C52.6203 68.3186 52.463 68.2934 52.317 68.2346C52.1711 68.1757 52.0402 68.0847 51.9343 67.9683L44.1421 59.7001L39.5592 64.7861ZM53.3894 82.1656C53.2416 82.1663 53.0953 82.1364 52.9595 82.0779C52.8238 82.0194 52.7017 81.9335 52.6006 81.8257L37.2882 65.5069C37.1047 65.3063 37.0029 65.0443 37.0029 64.7725C37.0029 64.5007 37.1047 64.2388 37.2882 64.0382L43.3397 57.3203C43.4401 57.2106 43.5618 57.1226 43.6975 57.0618C43.8331 57.001 43.9798 56.9686 44.1285 56.9667C44.278 56.9674 44.426 56.9978 44.5638 57.0562C44.7015 57.1145 44.8263 57.1997 44.9308 57.3067L52.655 65.4661L67.1107 46.7811C67.2016 46.6663 67.3146 46.5709 67.4431 46.5008C67.5716 46.4307 67.713 46.3873 67.8587 46.3731C68.002 46.358 68.1469 46.3719 68.2848 46.414C68.4226 46.456 68.5506 46.5254 68.661 46.6179L75.6101 52.3567C75.8258 52.5393 75.963 52.7978 75.9933 53.0788C76.0237 53.3598 75.9449 53.6416 75.7733 53.8662L54.2597 81.6489C54.1633 81.7751 54.0401 81.8784 53.899 81.9513C53.7579 82.0242 53.6025 82.0649 53.4438 82.0704" fill="#0C4E98"/>
</svg>
