<svg width="132" height="136" viewBox="0 0 132 136" fill="none" xmlns="http://www.w3.org/2000/svg">
<g clip-path="url(#clip0_292_5390)">
<path d="M96.0746 105.737C95.6897 105.737 95.3205 105.584 95.0482 105.312C94.776 105.04 94.623 104.671 94.623 104.286V93.5123C94.6675 93.1557 94.8408 92.8276 95.1102 92.5898C95.3796 92.3519 95.7266 92.2206 96.086 92.2206C96.4454 92.2206 96.7924 92.3519 97.0618 92.5898C97.3312 92.8276 97.5043 93.1557 97.5488 93.5123V104.286C97.5429 104.673 97.3849 105.042 97.1091 105.313C96.8333 105.585 96.4617 105.737 96.0746 105.737Z" fill="white"/>
<path d="M65.9776 64.1639C65.3821 64.1684 64.8004 64.344 64.3018 64.6697C63.8032 64.9954 63.4086 65.4575 63.1652 66.001C63.0119 66.3751 62.9348 66.7761 62.9384 67.1804C62.9295 67.7776 63.1036 68.3634 63.4373 68.8588C63.7786 69.3343 64.2406 69.71 64.7755 69.9474C65.1576 70.1007 65.566 70.1778 65.9776 70.1742C66.5749 70.1831 67.1605 70.009 67.6559 69.6752C68.1488 69.347 68.5351 68.8819 68.7673 68.3371C68.9302 67.9732 69.0152 67.5791 69.0168 67.1804C69.0175 66.5809 68.8356 65.9955 68.4951 65.502C68.1539 65.0266 67.6919 64.6507 67.157 64.4134C66.7842 64.2529 66.3834 64.1681 65.9776 64.1639ZM65.9776 73.0773C64.8128 73.0678 63.6754 72.7225 62.7019 72.0829C61.7284 71.4433 60.96 70.5364 60.4889 69.4711C60.1934 68.7513 60.0394 67.9812 60.0353 67.2031C60.0276 66.0207 60.384 64.8646 61.0559 63.8918C61.6986 62.9417 62.6052 62.2006 63.6642 61.7598C64.3857 61.47 65.1547 61.3162 65.9322 61.3062C67.1172 61.3054 68.2765 61.6524 69.2662 62.3041C70.2229 62.9454 70.9717 63.8518 71.4209 64.9123C71.7341 65.6275 71.8962 66.3996 71.8972 67.1804C71.8938 68.344 71.545 69.4804 70.8949 70.4455C70.2448 71.4105 69.3227 72.1607 68.2456 72.601C67.5295 72.9112 66.758 73.0732 65.9776 73.0773Z" fill="white"/>
<path d="M117.19 105.737C116.803 105.737 116.431 105.585 116.156 105.313C115.88 105.042 115.722 104.673 115.716 104.286V93.5123C115.76 93.1557 115.933 92.8276 116.203 92.5898C116.472 92.3519 116.819 92.2206 117.179 92.2206C117.538 92.2206 117.885 92.3519 118.154 92.5898C118.424 92.8276 118.597 93.1557 118.642 93.5123V104.286C118.642 104.671 118.489 105.04 118.216 105.312C117.944 105.584 117.575 105.737 117.19 105.737Z" fill="white"/>
<path d="M14.0162 105.737C13.6291 105.737 13.2575 105.585 12.9817 105.313C12.7059 105.042 12.5479 104.673 12.542 104.286V93.5123C12.5865 93.1557 12.7597 92.8276 13.0291 92.5898C13.2985 92.3519 13.6455 92.2206 14.0049 92.2206C14.3642 92.2206 14.7113 92.3519 14.9806 92.5898C15.25 92.8276 15.4232 93.1557 15.4677 93.5123V104.286C15.4677 104.671 15.3148 105.04 15.0426 105.312C14.7704 105.584 14.4012 105.737 14.0162 105.737Z" fill="white"/>
<path d="M35.1547 105.737C34.7697 105.737 34.4005 105.584 34.1282 105.312C33.856 105.04 33.7031 104.671 33.7031 104.286V93.5123C33.7476 93.1557 33.9209 92.8276 34.1903 92.5898C34.4597 92.3519 34.8066 92.2206 35.166 92.2206C35.5254 92.2206 35.8724 92.3519 36.1418 92.5898C36.4112 92.8276 36.5844 93.1557 36.6289 93.5123V104.286C36.623 104.673 36.465 105.042 36.1892 105.313C35.9134 105.585 35.5418 105.737 35.1547 105.737Z" fill="white"/>
<path d="M62.9608 12.4526C63.2071 12.6364 63.3898 12.8927 63.4833 13.1855C63.5769 13.4783 63.5766 13.793 63.4824 14.0856L62.6659 16.5578L64.1628 15.9907C64.3361 15.9208 64.5205 15.8823 64.7072 15.8773C65.0366 15.8788 65.356 15.9906 65.6144 16.1949L66.068 16.5351L66.5216 16.2175C66.7107 16.0946 66.9245 16.0146 67.1479 15.9833C67.3712 15.9519 67.5988 15.97 67.8144 16.0361L69.2433 16.5124L68.4495 14.0856C68.3577 13.7907 68.3609 13.4744 68.4585 13.1814C68.5562 12.8884 68.7434 12.6335 68.9938 12.4526L71.602 10.5701H68.3587C68.0531 10.5677 67.7559 10.4704 67.508 10.2916C67.2601 10.1128 67.074 9.86138 66.9753 9.57215L65.9773 6.51028L64.9567 9.57215C64.8609 9.86323 64.6755 10.1165 64.427 10.2958C64.1784 10.4751 63.8796 10.5711 63.5732 10.5701H60.3298L62.9608 12.4526ZM66.3855 43.366C66.8017 43.3644 67.2127 43.4575 67.5876 43.6382C67.9871 43.8162 68.3374 44.0885 68.6082 44.4319L76.2969 53.9577L80.8329 48.2423L66.0453 17.9866L52.5505 48.7866L56.7237 53.9577L64.1628 44.4546C64.4525 44.1154 64.8073 43.8378 65.2062 43.6382C65.589 43.4571 66.0074 43.3641 66.4309 43.366M2.92572 75.1185H14.6742V67.1123L9.88863 70.832C9.63126 71.0191 9.32226 71.1222 9.00406 71.1268C8.68635 71.1193 8.37825 71.0166 8.11956 70.832L3.03917 67.067L2.92572 75.1185ZM25.3793 75.1185H37.1051V67.1123L32.2061 70.832C31.9488 71.0191 31.6398 71.1222 31.3216 71.1268C31.0039 71.1193 30.6958 71.0166 30.4371 70.832L25.3567 67.067L25.3793 75.1185ZM48.2185 50.1701V75.1185H84.5072V48.2876L77.4536 57.3598C77.3093 57.5278 77.1324 57.6647 76.9335 57.7622C76.7347 57.8597 76.518 57.9157 76.2969 57.9268C76.0761 57.9255 75.8583 57.8762 75.6585 57.7822C75.4587 57.6882 75.2818 57.5518 75.1401 57.3825L66.3628 46.4959L57.8123 57.3598C57.6743 57.5293 57.5018 57.6674 57.3063 57.7652C57.1108 57.8629 56.8967 57.9181 56.6783 57.9268C56.4546 57.9295 56.2333 57.8795 56.0324 57.781C55.8315 57.6826 55.6565 57.5383 55.5216 57.3598L48.3092 48.2876L48.2185 50.1701ZM96.1649 75.1185H107.913V67.1123L103.037 70.832C102.771 71.0196 102.455 71.1224 102.13 71.1268C101.819 71.119 101.518 71.0161 101.268 70.832L96.0742 67.067L96.1649 75.1185ZM117.326 75.1185H129.074V67.1123L124.175 70.832C123.918 71.0191 123.609 71.1222 123.291 71.1268C122.979 71.122 122.678 71.0188 122.429 70.832L117.326 67.067V75.1185ZM66.3855 88.4546C63.1539 88.4564 59.9959 89.4196 57.3134 91.2216C54.688 92.9576 52.6297 95.426 51.3938 98.3206C50.5362 100.304 50.0962 102.442 50.101 104.603V132.205H82.6928V104.694C82.7097 101.456 81.7363 98.2905 79.903 95.6216C78.3942 93.4082 76.3633 91.6005 73.9899 90.3584C71.6164 89.1163 68.9735 88.478 66.2948 88.5M115.693 135.04C115.308 135.04 114.939 134.887 114.666 134.615C114.394 134.343 114.241 133.974 114.241 133.589C114.241 133.204 114.394 132.834 114.666 132.562C114.939 132.29 115.308 132.137 115.693 132.137H128.983V78.1124H2.92572V132.205H47.1299V104.694C47.1242 100.897 48.2709 97.1878 50.4185 94.0567C53.3086 89.8682 57.7276 86.982 62.7245 86.0191C67.7213 85.0562 72.8965 86.0937 77.136 88.9083C80.222 90.9768 82.6471 93.89 84.1216 97.3C85.1168 99.6376 85.6261 102.153 85.6186 104.694V132.205H100.429C100.814 132.205 101.183 132.358 101.455 132.63C101.727 132.902 101.88 133.272 101.88 133.657C101.88 134.042 101.727 134.411 101.455 134.683C101.183 134.955 100.814 135.108 100.429 135.108H1.45151C1.06836 135.102 0.702516 134.948 0.431556 134.677C0.160596 134.406 0.00585064 134.04 0 133.657V65.6155C0.00288796 65.3842 0.0411032 65.1547 0.113374 64.935C0.177322 64.7343 0.268914 64.5435 0.385528 64.368C0.632439 64.0252 0.970201 63.7581 1.36077 63.5969C1.61952 63.4897 1.89724 63.4357 2.1773 63.4381C2.40876 63.4387 2.63854 63.4771 2.85768 63.5516C3.08595 63.6204 3.30074 63.7277 3.49273 63.8691L8.89068 67.8608L14.0618 63.9145C14.4482 63.6246 14.917 63.4657 15.3999 63.4608C15.8169 63.4637 16.225 63.5814 16.5794 63.801C16.9428 64.0273 17.2278 64.3599 17.3958 64.7536C17.5298 65.0212 17.5997 65.3163 17.6 65.6155V75.0279H22.4536V65.6155C22.4301 65.3893 22.4301 65.1612 22.4536 64.935C22.5381 64.7319 22.6367 64.5349 22.7484 64.3453C22.9984 64.0108 23.3359 63.7519 23.7237 63.5969C23.9824 63.4897 24.2601 63.4357 24.5402 63.4381C24.7716 63.4387 25.0015 63.4771 25.2206 63.5516C25.4489 63.6204 25.6637 63.7277 25.8557 63.8691L31.2309 67.8608L36.4247 63.9145C36.6132 63.7622 36.8286 63.6467 37.0598 63.5742C37.2877 63.5036 37.5243 63.4654 37.7629 63.4608C38.1798 63.4637 38.5878 63.5814 38.9422 63.801C39.3057 64.0273 39.5908 64.3599 39.7588 64.7536C39.8954 65.0283 39.9653 65.3313 39.9629 65.6381V75.0279H45.202V47.8114C45.2028 47.5114 45.2487 47.2132 45.3381 46.9268C45.4343 46.6548 45.5638 46.3958 45.7236 46.1557C46.0542 45.7154 46.5023 45.3774 47.0164 45.1804C47.352 45.0636 47.7044 45.0023 48.0597 44.9989C48.4733 44.9982 48.8826 45.0832 49.2618 45.2485C49.3975 45.3112 49.5266 45.3872 49.6474 45.4753L50.4185 45.9969L60.8288 22.2505H59.7855C59.4691 22.2571 59.159 22.1617 58.901 21.9783C58.6538 21.8005 58.4699 21.5485 58.376 21.2588C58.2822 20.9691 58.2834 20.657 58.3794 20.3681L60.4433 14.0629L55.0226 10.1846C54.7754 10.0068 54.5915 9.75461 54.4977 9.46494C54.4039 9.17527 54.4051 8.86318 54.501 8.57421C54.5928 8.2789 54.7765 8.02066 55.0254 7.83707C55.2743 7.65348 55.5752 7.55419 55.8845 7.55363H62.5752L64.6392 1.27111C64.7387 0.980243 64.9266 0.72776 65.1767 0.548993C65.4268 0.370226 65.7266 0.274139 66.034 0.274139C66.3414 0.274139 66.6411 0.370226 66.8912 0.548993C67.1413 0.72776 67.3293 0.980243 67.4288 1.27111L69.4927 7.55363H76.1835C76.4919 7.55766 76.7912 7.65827 77.0394 7.84136C77.2876 8.02445 77.4721 8.28075 77.567 8.57421C77.6629 8.86318 77.6641 9.17527 77.5703 9.46494C77.4764 9.75461 77.2925 10.0068 77.0453 10.1846L71.5567 14.267L73.6206 20.5722C73.7166 20.8611 73.7177 21.1732 73.6238 21.4629C73.53 21.7526 73.3461 22.0047 73.0989 22.1825C72.918 22.3183 72.7086 22.4113 72.4866 22.4546L71.4659 22.6134L82.8061 45.7701L83.4866 45.4979C83.8346 45.3353 84.2138 45.2502 84.5979 45.2485C85.004 45.2502 85.4053 45.335 85.7773 45.4979C86.1523 45.6655 86.4912 45.9043 86.7752 46.201C86.9604 46.42 87.1132 46.6644 87.2288 46.9268C87.3918 47.2907 87.4767 47.6848 87.4783 48.0835V75.1185H93.2618V65.7742C93.2647 65.543 93.3029 65.3135 93.3752 65.0938C93.4504 64.8865 93.5494 64.6886 93.6701 64.5041C93.8789 64.2183 94.1518 63.9853 94.4669 63.8238C94.7819 63.6623 95.1304 63.5768 95.4845 63.5742C95.7176 63.5398 95.9545 63.5398 96.1876 63.5742C96.4129 63.6601 96.6263 63.7745 96.8226 63.9145L102.153 67.8608L107.278 63.9598C107.475 63.8068 107.698 63.6915 107.936 63.6196C108.161 63.5363 108.4 63.4977 108.639 63.5062C109.064 63.5048 109.48 63.6227 109.841 63.8464C110.209 64.0836 110.501 64.4224 110.68 64.8217C110.8 65.1014 110.861 65.4021 110.862 65.7062V75.0279H114.423V65.6835C114.426 65.4523 114.464 65.2228 114.536 65.0031C114.602 64.792 114.702 64.5929 114.831 64.4134C115.078 64.0705 115.416 63.8034 115.806 63.6422C116.073 63.5367 116.358 63.4828 116.645 63.4835C116.871 63.4493 117.1 63.4493 117.326 63.4835C117.558 63.5693 117.779 63.6835 117.983 63.8237L123.313 67.7701L128.439 63.8691C128.624 63.7122 128.841 63.5963 129.074 63.5289C129.299 63.4472 129.538 63.4088 129.777 63.4155C130.21 63.4098 130.635 63.5279 131.002 63.7557C131.372 63.9843 131.659 64.3263 131.819 64.7309C131.955 65.0056 132.025 65.3087 132.023 65.6155V133.543C132.02 133.927 131.865 134.294 131.592 134.564C131.314 134.838 130.939 134.993 130.548 134.995L115.693 135.04Z" fill="white"/>
</g>
<defs>
<clipPath id="clip0_292_5390">
<rect width="132" height="134.699" fill="white" transform="translate(0 0.386597)"/>
</clipPath>
</defs>
</svg>
