<svg width="72" height="86" viewBox="0 0 72 86" fill="none" xmlns="http://www.w3.org/2000/svg">
<path d="M25.844 62.8024C25.6573 62.8058 25.473 62.7611 25.3086 62.6726C21.3234 60.4774 18.096 57.1272 16.0512 53.0628C14.0064 48.9983 13.2399 44.41 13.8526 39.9016C14.4654 35.3933 16.4285 31.176 19.4839 27.8046C22.5392 24.4333 26.5436 22.0659 30.9702 21.0139C31.2606 20.9472 31.5656 20.9986 31.8181 21.1568C32.0706 21.315 32.2499 21.567 32.3166 21.8575C32.3833 22.1479 32.3319 22.4529 32.1737 22.7054C32.0155 22.9579 31.7635 23.1372 31.4731 23.2039C27.4849 24.1476 23.8764 26.2775 21.1229 29.3129C18.3694 32.3484 16.6004 36.1469 16.0488 40.2079C15.4973 44.2689 16.1892 48.4016 18.0334 52.0615C19.8775 55.7214 22.7873 58.7366 26.3793 60.7097C26.6357 60.8533 26.8255 61.092 26.9074 61.3743C26.9894 61.6566 26.957 61.9598 26.8173 62.2184C26.7232 62.3948 26.5829 62.5423 26.4115 62.6452C26.2401 62.7481 26.0439 62.8024 25.844 62.8024ZM40.6386 64.8626C40.385 64.8613 40.1394 64.774 39.9419 64.6148C39.7444 64.4557 39.6069 64.2342 39.5517 63.9866C39.4883 63.6965 39.5411 63.393 39.6988 63.1413C39.8565 62.8896 40.1065 62.7097 40.3953 62.6402C44.3913 61.6934 48.0057 59.5557 50.7602 56.5099C53.5147 53.4641 55.2796 49.6537 55.8212 45.5829C56.3628 41.5121 55.6556 37.3728 53.7933 33.7128C51.931 30.0527 49.0012 27.0443 45.3917 25.0857C45.2618 25.0176 45.1468 24.9242 45.0534 24.811C44.9599 24.6979 44.8901 24.5673 44.8478 24.4268C44.8055 24.2863 44.7916 24.1388 44.807 23.9928C44.8224 23.8469 44.8668 23.7056 44.9375 23.577C45.0026 23.4463 45.0934 23.33 45.2044 23.2351C45.3155 23.1402 45.4445 23.0686 45.5838 23.0247C45.7231 22.9808 45.8698 22.9654 46.0152 22.9795C46.1606 22.9936 46.3017 23.0368 46.43 23.1066C50.446 25.278 53.7071 28.619 55.7807 32.6864C57.8543 36.7538 58.6425 41.3555 58.0407 45.8811C57.4389 50.4068 55.4756 54.6426 52.4112 58.0268C49.3467 61.4109 45.3259 63.7837 40.882 64.8302H40.6386M19.9715 74.6446C19.7908 74.6421 19.6131 74.5977 19.4524 74.5148C12.9052 71.0267 7.60326 65.5909 4.27936 58.9588C0.955462 52.3267 -0.226216 44.8259 0.897657 37.4931C2.02153 30.1603 5.39546 23.3577 10.5531 18.0256C15.7107 12.6934 22.3973 9.0951 29.6886 7.72791C29.8337 7.69997 29.9829 7.70146 30.1274 7.73229C30.2719 7.76313 30.4088 7.82269 30.5298 7.90742C30.6509 7.99215 30.7536 8.10033 30.8321 8.22555C30.9105 8.35077 30.963 8.49047 30.9864 8.63635C31.0343 8.92606 30.9682 9.22306 30.8018 9.46504C30.6355 9.70702 30.3818 9.87515 30.0942 9.93414C23.2611 11.217 16.995 14.5901 12.1615 19.5876C7.32807 24.585 4.16578 30.9601 3.11155 37.8322C2.05732 44.7043 3.16317 51.7342 6.27632 57.9507C9.38947 64.1672 14.3563 69.2636 20.4906 72.5357C20.7113 72.6524 20.8867 72.8395 20.9888 73.0673C21.091 73.2951 21.114 73.5504 21.0544 73.7928C20.9947 74.0352 20.8557 74.2507 20.6595 74.4051C20.4633 74.5594 20.2211 74.6437 19.9715 74.6446ZM41.9688 78.0837C41.7084 78.0802 41.4573 77.9858 41.2589 77.8171C41.0606 77.6483 40.9272 77.4156 40.882 77.1591C40.8539 77.0151 40.8548 76.867 40.8846 76.7235C40.9144 76.5799 40.9726 76.4437 41.0556 76.3229C41.1387 76.202 41.2451 76.099 41.3684 76.0197C41.4918 75.9405 41.6297 75.8866 41.7742 75.8613C48.6122 74.5823 54.8839 71.2103 59.7219 66.2114C64.5598 61.2125 67.7249 54.8339 68.7795 47.9577C69.8341 41.0815 68.726 34.0475 65.6086 27.8285C62.4911 21.6095 57.5182 16.5129 51.3777 13.2435C51.2464 13.1767 51.1298 13.0844 51.0347 12.9719C50.9397 12.8594 50.8681 12.729 50.8243 12.5884C50.7804 12.4478 50.7652 12.2998 50.7794 12.1532C50.7937 12.0066 50.8372 11.8643 50.9073 11.7348C51.0453 11.477 51.2787 11.2834 51.5576 11.1955C51.8366 11.1075 52.1388 11.1323 52.3997 11.2643C58.9531 14.7498 64.2611 20.1859 67.5893 26.8204C70.9175 33.4549 72.1014 40.9599 70.9772 48.2968C69.853 55.6337 66.4762 62.4398 61.3141 67.7734C56.152 73.1069 49.4598 76.7042 42.1635 78.0675H41.9688" fill="#0C4E98"/>
<path d="M52.2051 21.4521C51.9716 21.4544 51.7437 21.3804 51.5562 21.2412C50.6934 20.5973 49.7883 20.012 48.8471 19.4892C48.6021 19.3393 48.4241 19.1009 48.3499 18.8234C48.2757 18.5459 48.3111 18.2506 48.4486 17.9984C48.5862 17.7462 48.8154 17.5566 49.0889 17.4687C49.3623 17.3808 49.6591 17.4015 49.9178 17.5263C50.9388 18.0998 51.9246 18.7336 52.8702 19.4243C53.0632 19.5632 53.207 19.76 53.2806 19.986C53.3543 20.2121 53.3541 20.4557 53.28 20.6817C53.2059 20.9076 53.0617 21.104 52.8685 21.2426C52.6752 21.3811 52.4429 21.4545 52.2051 21.4521ZM59.716 29.7092C59.5261 29.71 59.3393 29.6609 59.1742 29.567C59.0091 29.4731 58.8715 29.3375 58.7751 29.1739C57.8361 27.6287 56.7495 26.1781 55.5307 24.8425C55.4207 24.738 55.3332 24.6122 55.2734 24.4727C55.2136 24.3333 55.1827 24.1832 55.1827 24.0314C55.1827 23.8797 55.2136 23.7296 55.2734 23.5901C55.3332 23.4507 55.4207 23.3249 55.5307 23.2203C55.634 23.1082 55.7594 23.0188 55.899 22.9576C56.0386 22.8964 56.1894 22.8648 56.3418 22.8648C56.4942 22.8648 56.645 22.8964 56.7846 22.9576C56.9242 23.0188 57.0496 23.1082 57.1529 23.2203C58.4699 24.6581 59.6334 26.2294 60.6245 27.9085C60.7741 28.1653 60.8172 28.4704 60.7444 28.7586C60.6716 29.0467 60.4888 29.2948 60.2351 29.4497C60.0611 29.5451 59.8659 29.5953 59.6673 29.5956M63.3498 40.1725C63.0794 40.1709 62.8187 40.0715 62.6159 39.8925C62.4131 39.7136 62.2819 39.4673 62.2467 39.1992C62.0016 37.4109 61.5833 35.6506 60.9976 33.9432C60.949 33.8059 60.928 33.6602 60.936 33.5147C60.944 33.3692 60.9807 33.2267 61.044 33.0955C61.1074 32.9643 61.1961 32.8469 61.3051 32.7502C61.4141 32.6534 61.5411 32.5792 61.6789 32.5319C61.8161 32.4809 61.9622 32.4583 62.1084 32.4652C62.2546 32.4721 62.3979 32.5084 62.5297 32.572C62.6614 32.6357 62.779 32.7252 62.8754 32.8354C62.9717 32.9456 63.0448 33.0741 63.0902 33.2132C63.7402 35.059 64.1968 36.9672 64.4529 38.9072C64.4734 39.0523 64.4648 39.1999 64.4276 39.3416C64.3904 39.4833 64.3254 39.6162 64.2363 39.7324C64.1472 39.8487 64.0358 39.9461 63.9087 40.0189C63.7815 40.0917 63.6412 40.1384 63.4958 40.1563H63.3498M62.6522 51.447C62.5555 51.4622 62.457 51.4622 62.3602 51.447C62.0765 51.3638 61.8363 51.1732 61.6909 50.9157C61.5455 50.6582 61.5063 50.3541 61.5816 50.0681C62.0649 48.3307 62.3639 46.5472 62.4738 44.7472C62.4986 44.4532 62.6352 44.18 62.8556 43.9838C63.0759 43.7876 63.3631 43.6834 63.658 43.6928C63.9536 43.7176 64.2276 43.8572 64.4217 44.0815C64.6157 44.3058 64.7142 44.5972 64.6962 44.8932C64.5673 46.8461 64.2411 48.781 63.7229 50.6683C63.6586 50.9025 63.5189 51.109 63.3253 51.2556C63.1317 51.4023 62.8951 51.481 62.6522 51.4794M57.6234 61.4723C57.3702 61.4712 57.1247 61.3856 56.9258 61.229C56.8055 61.1357 56.7051 61.0192 56.6307 60.8863C56.5563 60.7535 56.5094 60.607 56.4928 60.4557C56.4761 60.3044 56.4901 60.1512 56.5338 60.0054C56.5776 59.8596 56.6502 59.724 56.7473 59.6068C57.8627 58.1922 58.8354 56.6707 59.6511 55.0645C59.7148 54.9324 59.8045 54.8145 59.9149 54.7179C60.0252 54.6214 60.154 54.5481 60.2935 54.5027C60.4329 54.4572 60.5801 54.4404 60.7262 54.4534C60.8723 54.4663 61.0143 54.5086 61.1436 54.5779C61.2742 54.6432 61.3905 54.7338 61.4858 54.8445C61.5811 54.9551 61.6535 55.0836 61.6987 55.2224C61.744 55.3612 61.7613 55.5077 61.7495 55.6532C61.7377 55.7988 61.6972 55.9406 61.6302 56.0703C60.7452 57.7929 59.691 59.4232 58.4831 60.937C58.3815 61.0683 58.2512 61.1745 58.1022 61.2477C57.9532 61.3208 57.7894 61.3588 57.6234 61.3587M49.0904 68.5452C48.8462 68.5381 48.611 68.4512 48.4207 68.2978C48.2305 68.1444 48.0957 67.933 48.0368 67.6959C47.978 67.4587 47.9984 67.2088 48.0949 66.9843C48.1914 66.7598 48.3588 66.573 48.5713 66.4526C50.1492 65.592 51.6334 64.5699 53 63.4028C53.1115 63.2987 53.243 63.2186 53.3866 63.1672C53.5301 63.1158 53.6826 63.0944 53.8348 63.104C53.9869 63.1137 54.1355 63.1544 54.2714 63.2235C54.4072 63.2926 54.5276 63.3888 54.625 63.5061C54.7223 63.6234 54.7947 63.7594 54.8377 63.9057C54.8806 64.0519 54.8933 64.2055 54.8748 64.3568C54.8563 64.5081 54.8071 64.6541 54.7302 64.7857C54.6533 64.9174 54.5503 65.0319 54.4276 65.1223C52.9217 66.3689 51.2908 67.4562 49.5609 68.3668C49.3966 68.4553 49.2122 68.5 49.0256 68.4966M38.4811 71.741L38.3838 70.6379V69.5186C40.1328 69.3489 41.8608 69.0066 43.5424 68.4966C43.683 68.4518 43.8311 68.4356 43.978 68.4491C44.1249 68.4625 44.2676 68.5053 44.3977 68.5749C44.5278 68.6445 44.6426 68.7394 44.7353 68.8542C44.828 68.9689 44.8968 69.101 44.9376 69.2428C45.0191 69.5267 44.9867 69.8312 44.8474 70.0917C44.7081 70.3521 44.4728 70.5481 44.1914 70.6379C42.3288 71.1921 40.4161 71.5616 38.4811 71.741Z" fill="#0C4E98"/>
<path d="M27.9369 17.3804C27.6962 17.3829 27.4612 17.3066 27.2679 17.163C27.0746 17.0195 26.9335 16.8167 26.8663 16.5855C26.7848 16.3016 26.8171 15.9971 26.9565 15.7366C27.0958 15.4761 27.3311 15.2802 27.6125 15.1904C29.4747 14.6347 31.3875 14.2652 33.3227 14.0873C33.4681 14.0717 33.6152 14.0855 33.7551 14.128C33.895 14.1706 34.0248 14.2409 34.1369 14.3348C34.249 14.4287 34.341 14.5443 34.4073 14.6746C34.4737 14.8049 34.5131 14.9472 34.5232 15.0931C34.5503 15.3876 34.4597 15.6809 34.2713 15.9089C34.0828 16.1368 33.8118 16.281 33.5174 16.3097C31.7295 16.477 29.963 16.8248 28.2452 17.3479H27.9369M18.2036 22.6851C18.0395 22.6836 17.8777 22.6466 17.7292 22.5766C17.5808 22.5066 17.4493 22.4052 17.3438 22.2795C17.2427 22.1653 17.1659 22.0317 17.1183 21.8868C17.0707 21.7419 17.0531 21.5888 17.0668 21.4369C17.0805 21.285 17.1251 21.1375 17.1978 21.0034C17.2706 20.8693 17.3699 20.7516 17.4898 20.6573C18.9957 19.4107 20.6266 18.3234 22.3565 17.4128C22.4862 17.326 22.6327 17.2673 22.7865 17.2404C22.9403 17.2136 23.098 17.2192 23.2495 17.2569C23.401 17.2946 23.5429 17.3636 23.6662 17.4595C23.7894 17.5553 23.8913 17.6758 23.9651 17.8134C24.039 17.9509 24.0833 18.1024 24.0952 18.258C24.107 18.4137 24.0862 18.5701 24.034 18.7173C23.9818 18.8644 23.8994 18.999 23.7921 19.1124C23.6848 19.2258 23.555 19.3155 23.411 19.3757C21.8301 20.2395 20.3408 21.2613 18.9661 22.4255C18.7736 22.5953 18.5251 22.6877 18.2685 22.6851M11.3416 31.4451C11.1673 31.4481 10.9948 31.4092 10.8387 31.3315C10.5769 31.1932 10.3795 30.958 10.2886 30.6762C10.1977 30.3943 10.2204 30.0881 10.3521 29.8228C11.2372 28.104 12.2856 26.4742 13.4829 24.9562C13.5762 24.8358 13.6927 24.7355 13.8256 24.6611C13.9584 24.5867 14.1049 24.5398 14.2562 24.5232C14.4076 24.5065 14.5607 24.5205 14.7066 24.5642C14.8524 24.6079 14.9879 24.6805 15.1052 24.7777C15.2236 24.8723 15.3223 24.9894 15.3954 25.1223C15.4685 25.2551 15.5147 25.4011 15.5313 25.5518C15.5479 25.7025 15.5345 25.855 15.492 26.0006C15.4495 26.1461 15.3787 26.2818 15.2836 26.3999C14.1646 27.8119 13.1917 29.3338 12.3798 30.9422C12.2889 31.1271 12.148 31.2829 11.9731 31.3918C11.7982 31.5008 11.5963 31.5586 11.3903 31.5586M8.43782 42.3626C8.29141 42.3544 8.14812 42.3171 8.0163 42.2528C7.88448 42.1886 7.7668 42.0987 7.67013 41.9884C7.57346 41.8782 7.49974 41.7498 7.45329 41.6107C7.40684 41.4716 7.38859 41.3246 7.3996 41.1784C7.52843 39.2266 7.84901 37.2923 8.35671 35.4033C8.43415 35.1193 8.62124 34.8778 8.87679 34.7317C9.13234 34.5857 9.43543 34.5472 9.71939 34.6246C10.0034 34.7021 10.2449 34.8891 10.3909 35.1447C10.537 35.4002 10.5755 35.7033 10.4981 35.9873C10.029 37.7334 9.73022 39.5207 9.60582 41.3244C9.58926 41.6056 9.46577 41.8698 9.26067 42.0628C9.05556 42.2558 8.78438 42.3631 8.50272 42.3626M9.99517 53.4749C9.76405 53.4725 9.53951 53.3977 9.35322 53.2609C9.16693 53.1241 9.02831 52.9322 8.95694 52.7124C8.31055 50.8656 7.85397 48.9578 7.59428 47.0184C7.55687 46.8657 7.55203 46.7068 7.58012 46.5521C7.60821 46.3974 7.66859 46.2503 7.75731 46.1205C7.84602 45.9907 7.96109 45.881 8.09501 45.7987C8.22894 45.7163 8.37871 45.663 8.53458 45.6424C8.69046 45.6218 8.84895 45.6342 8.99969 45.6789C9.15044 45.7236 9.29008 45.7996 9.40951 45.9018C9.52894 46.0041 9.62546 46.1304 9.69283 46.2725C9.7602 46.4145 9.7969 46.5692 9.80051 46.7264C10.03 48.5176 10.4487 50.2795 11.0496 51.9824C11.144 52.2622 11.1256 52.5678 10.9984 52.8343C10.8712 53.1009 10.6452 53.3073 10.3683 53.41C10.2444 53.4254 10.1191 53.4254 9.99517 53.41M15.7216 63.0135C15.5664 63.0156 15.4124 62.9849 15.2698 62.9234C15.1273 62.8619 14.9993 62.771 14.8943 62.6566C13.5771 61.2131 12.4137 59.6365 11.4227 57.9522C11.2725 57.6999 11.2273 57.3986 11.2971 57.1134C11.3669 56.8281 11.546 56.5817 11.7958 56.4273C11.9202 56.3508 12.0585 56.2997 12.2028 56.277C12.3471 56.2543 12.4944 56.2605 12.6362 56.2952C12.7781 56.3299 12.9116 56.3925 13.0291 56.4792C13.1466 56.5659 13.2458 56.6751 13.3207 56.8004C14.2556 58.3535 15.3424 59.8098 16.5652 61.148C16.7154 61.305 16.8159 61.5029 16.854 61.7168C16.8922 61.9307 16.8663 62.1511 16.7797 62.3503C16.693 62.5496 16.5495 62.7189 16.367 62.8368C16.1846 62.9548 15.9713 63.0163 15.7541 63.0135M21.8698 68.0749C21.6689 68.0769 21.4716 68.0205 21.3021 67.9126C20.5991 67.4908 19.9177 67.0366 19.258 66.55C19.1328 66.4616 19.0268 66.3487 18.9464 66.2183C18.866 66.0878 18.8128 65.9424 18.7901 65.7908C18.7673 65.6392 18.7755 65.4846 18.8141 65.3363C18.8527 65.188 18.921 65.049 19.0147 64.9277C19.1 64.7987 19.2114 64.6889 19.3418 64.6057C19.4722 64.5225 19.6186 64.4676 19.7716 64.4447C19.9246 64.4217 20.0807 64.4312 20.2298 64.4725C20.3789 64.5138 20.5176 64.586 20.6369 64.6844C21.2372 65.1224 21.8698 65.5442 22.5187 65.9335C22.7279 66.0604 22.8898 66.2523 22.9796 66.4799C23.0694 66.7075 23.0821 66.9582 23.0159 67.1937C22.9496 67.4292 22.8081 67.6365 22.6128 67.784C22.4176 67.9314 22.1794 68.0107 21.9347 68.01" fill="#0C4E98"/>
<path d="M31.9918 30.3581C31.8788 30.3739 31.7642 30.3739 31.6511 30.3581C31.4438 30.2917 31.2607 30.1653 31.1251 29.995C30.9894 29.8247 30.9072 29.618 30.8887 29.401L30.1912 22.3606C30.1755 22.2156 30.1887 22.0689 30.23 21.929C30.2714 21.7892 30.34 21.6589 30.4321 21.5458C30.5241 21.4326 30.6376 21.3388 30.7661 21.2699C30.8947 21.2009 31.0356 21.1581 31.1807 21.1439C31.4753 21.1168 31.7686 21.2073 31.9965 21.3958C32.2245 21.5843 32.3686 21.8553 32.3974 22.1497L32.8516 26.6757L44.3369 13.8115L30.5156 3.52658L31.0671 8.89613C31.0943 9.19067 31.0037 9.48397 30.8153 9.71195C30.6268 9.93992 30.3558 10.084 30.0614 10.1128C29.9173 10.1285 29.7715 10.1151 29.6326 10.0736C29.4937 10.032 29.3645 9.96314 29.2527 9.87093C29.1408 9.77873 29.0485 9.66508 28.9812 9.53667C28.914 9.40826 28.8731 9.2677 28.8609 9.12324L28.066 1.23924C28.0394 1.0249 28.0763 0.807452 28.172 0.613872C28.2678 0.420292 28.4183 0.259098 28.6049 0.15027C28.7915 0.0414423 29.0059 -0.0102267 29.2215 0.00167699C29.4372 0.0135807 29.6446 0.0885277 29.8181 0.217227L46.5918 12.611C46.7149 12.7069 46.8171 12.8269 46.8924 12.9635C46.9677 13.1001 47.0145 13.2507 47.0298 13.4059C47.0451 13.5605 47.0285 13.7165 46.9811 13.8644C46.9336 14.0123 46.8564 14.1488 46.7541 14.2657L32.7705 29.9201C32.6642 30.0329 32.536 30.1228 32.3937 30.1841C32.2515 30.2455 32.0981 30.2771 31.9432 30.277" fill="#0C4E98"/>
<path d="M42.7635 86.0001C42.525 86.0024 42.2919 85.9286 42.0984 85.7892L25.2921 73.2657C25.1691 73.1697 25.0668 73.0498 24.9915 72.9132C24.9163 72.7765 24.8695 72.626 24.8541 72.4707C24.8389 72.3162 24.8554 72.1601 24.9029 72.0123C24.9503 71.8644 25.0276 71.7278 25.1299 71.611L39.0973 55.9727C39.2403 55.8074 39.4292 55.6883 39.64 55.6305C39.8509 55.5727 40.0741 55.5789 40.2815 55.6483C40.4847 55.7192 40.6632 55.8472 40.7955 56.0169C40.9279 56.1867 41.0085 56.391 41.0277 56.6054L41.7415 63.6458C41.7716 63.9384 41.6843 64.231 41.4987 64.4591C41.3131 64.6873 41.0445 64.8324 40.7519 64.8625C40.4593 64.8926 40.1668 64.8053 39.9386 64.6197C39.7105 64.4341 39.5654 64.1655 39.5352 63.873L39.081 59.347L27.5957 72.195L41.417 82.4799L40.8655 77.1265C40.8506 76.9816 40.8643 76.8353 40.906 76.6957C40.9477 76.5562 41.0164 76.4262 41.1083 76.3133C41.2002 76.2003 41.3134 76.1065 41.4415 76.0373C41.5697 75.9681 41.7102 75.9247 41.855 75.9098C41.9999 75.8949 42.1463 75.9087 42.2858 75.9504C42.4253 75.992 42.5553 76.0608 42.6683 76.1527C42.7813 76.2446 42.8751 76.3578 42.9443 76.4859C43.0135 76.614 43.0568 76.7546 43.0717 76.8994L43.8666 84.7672C43.8916 84.9825 43.8526 85.2004 43.7545 85.3937C43.6564 85.587 43.5036 85.7471 43.315 85.8541C43.1469 85.9496 42.9568 85.9999 42.7635 86.0001Z" fill="#0C4E98"/>
</svg>
