<svg width="62" height="63" viewBox="0 0 62 63" fill="none" xmlns="http://www.w3.org/2000/svg">
<path d="M47.044 62.6343C46.9136 62.6337 46.7856 62.5984 46.6734 62.5319C46.5612 62.4653 46.4687 62.3701 46.4056 62.2559L40.8606 52.3955C40.8121 52.3118 40.7806 52.2193 40.768 52.1233C40.7554 52.0273 40.7619 51.9298 40.7872 51.8364C40.8124 51.743 40.856 51.6555 40.9153 51.579C40.9745 51.5024 41.0484 51.4384 41.1325 51.3906C41.3038 51.2967 41.5051 51.2738 41.6931 51.3269C41.881 51.3799 42.0406 51.5047 42.1375 51.6743L47.6825 61.5347C47.7306 61.6192 47.7614 61.7123 47.7731 61.8088C47.7849 61.9052 47.7773 62.0031 47.7509 62.0966C47.7245 62.1901 47.6798 62.2774 47.6193 62.3535C47.5589 62.4296 47.4839 62.4929 47.3987 62.5397C47.2895 62.5985 47.168 62.631 47.044 62.6343Z" fill="#0C4E98"/>
<path d="M14.8975 62.6335C14.7695 62.6316 14.6439 62.5991 14.531 62.5389C14.4468 62.4911 14.373 62.427 14.3137 62.3505C14.2544 62.274 14.2109 62.1865 14.1856 62.0931C14.1603 61.9996 14.1538 61.9021 14.1664 61.8062C14.179 61.7102 14.2105 61.6177 14.259 61.5339L19.804 51.6735C19.8986 51.5047 20.0561 51.3802 20.2421 51.327C20.4282 51.2739 20.6277 51.2964 20.7972 51.3898C20.9668 51.4866 21.0916 51.6462 21.1447 51.8342C21.1977 52.0222 21.1748 52.2235 21.0809 52.3947L15.5359 62.2551C15.471 62.3677 15.3781 62.4617 15.2663 62.528C15.1544 62.5942 15.0274 62.6306 14.8975 62.6335Z" fill="#0C4E98"/>
<path d="M45.4474 59.3586H16.4928C16.3965 59.3586 16.3012 59.3397 16.2123 59.3028C16.1233 59.266 16.0425 59.212 15.9745 59.1439C15.9064 59.0759 15.8524 58.9951 15.8156 58.9061C15.7787 58.8172 15.7598 58.7219 15.7598 58.6256C15.7598 58.4312 15.837 58.2447 15.9745 58.1073C16.1119 57.9698 16.2984 57.8926 16.4928 57.8926H45.4474C45.6418 57.8926 45.8283 57.9698 45.9657 58.1073C46.1032 58.2447 46.1804 58.4312 46.1804 58.6256C46.1804 58.7219 46.1615 58.8172 46.1246 58.9061C46.0878 58.9951 46.0338 59.0759 45.9657 59.1439C45.8977 59.212 45.8169 59.266 45.7279 59.3028C45.639 59.3397 45.5437 59.3586 45.4474 59.3586Z" fill="#0C4E98"/>
<path d="M52.7071 52.7612C52.6133 52.763 52.52 52.7461 52.4328 52.7116C52.3455 52.6771 52.2659 52.6256 52.1987 52.5602C52.0629 52.421 51.9869 52.2343 51.9869 52.04C51.9869 51.8456 52.0629 51.6589 52.1987 51.5197C56.2422 47.3511 58.9681 42.0836 60.0359 36.375C61.1037 30.6664 60.4662 24.7698 58.2029 19.4214C55.9396 14.073 52.1509 9.50979 47.3098 6.3017C42.4687 3.0936 36.7898 1.38273 30.9823 1.38273C25.1747 1.38273 19.4958 3.0936 14.6547 6.3017C9.81363 9.50979 6.02489 14.073 3.76161 19.4214C1.49832 24.7698 0.860789 30.6664 1.92862 36.375C2.99645 42.0836 5.72232 47.3511 9.76584 51.5197C9.90161 51.6589 9.9776 51.8456 9.9776 52.04C9.9776 52.2343 9.90161 52.421 9.76584 52.5602C9.6977 52.6288 9.61666 52.6833 9.52738 52.7204C9.4381 52.7576 9.34234 52.7768 9.24562 52.7768C9.14891 52.7768 9.05315 52.7576 8.96387 52.7204C8.87459 52.6833 8.79354 52.6288 8.72541 52.5602C4.49112 48.1856 1.63871 42.661 0.524028 36.6758C-0.590653 30.6905 0.0817517 24.5094 2.45736 18.9038C4.83296 13.2982 8.8066 8.51625 13.8825 5.15448C18.9584 1.79271 24.9118 0 31 0C37.0882 0 43.0416 1.79271 48.1175 5.15448C53.1934 8.51625 57.167 13.2982 59.5426 18.9038C61.9183 24.5094 62.5907 30.6905 61.476 36.6758C60.3613 42.661 57.5089 48.1856 53.2746 52.5602C53.2062 52.6322 53.1236 52.6894 53.032 52.7281C52.9405 52.7667 52.8419 52.786 52.7426 52.7848" fill="#0C4E98"/>
<path d="M30.9645 38.2545C30.8682 38.2545 30.7729 38.2356 30.684 38.1987C30.595 38.1619 30.5142 38.1079 30.4461 38.0398C30.3781 37.9717 30.3241 37.8909 30.2872 37.802C30.2504 37.7131 30.2314 37.6177 30.2314 37.5215V24.3033C30.2314 24.1089 30.3087 23.9225 30.4461 23.785C30.5836 23.6475 30.7701 23.5703 30.9645 23.5703C31.1589 23.5703 31.3453 23.6475 31.4828 23.785C31.6203 23.9225 31.6975 24.1089 31.6975 24.3033V37.486C31.6975 37.6804 31.6203 37.8669 31.4828 38.0043C31.3453 38.1418 31.1589 38.219 30.9645 38.219" fill="#0C4E98"/>
<path d="M33.6008 52.761H28.3396C28.2429 52.7626 28.1468 52.7447 28.0572 52.7085C27.9675 52.6722 27.8861 52.6182 27.8177 52.5499C27.7493 52.4815 27.6954 52.4 27.6591 52.3104C27.6228 52.2207 27.6049 52.1247 27.6065 52.028C27.6065 51.8336 27.6838 51.6471 27.8212 51.5096C27.9587 51.3722 28.1452 51.2949 28.3396 51.2949H33.6008C33.7952 51.2949 33.9817 51.3722 34.1192 51.5096C34.2566 51.6471 34.3339 51.8336 34.3339 52.028C34.3339 52.2224 34.2566 52.4088 34.1192 52.5463C33.9817 52.6838 33.7952 52.761 33.6008 52.761Z" fill="#0C4E98"/>
<path d="M21.7542 47.4885H17.8053C17.6109 47.4885 17.4244 47.4113 17.287 47.2738C17.1495 47.1364 17.0723 46.9499 17.0723 46.7555C17.0723 46.5611 17.1495 46.3746 17.287 46.2372C17.4244 46.0997 17.6109 46.0225 17.8053 46.0225H21.7542C21.9486 46.0225 22.135 46.0997 22.2725 46.2372C22.41 46.3746 22.4872 46.5611 22.4872 46.7555C22.4872 46.9499 22.41 47.1364 22.2725 47.2738C22.135 47.4113 21.9486 47.4885 21.7542 47.4885Z" fill="#0C4E98"/>
<path d="M44.1233 47.4885H40.1744C39.98 47.4885 39.7936 47.4113 39.6561 47.2738C39.5186 47.1364 39.4414 46.9499 39.4414 46.7555C39.4414 46.5611 39.5186 46.3746 39.6561 46.2372C39.7936 46.0997 39.98 46.0225 40.1744 46.0225H44.1233C44.3177 46.0225 44.5042 46.0997 44.6416 46.2372C44.7791 46.3746 44.8563 46.5611 44.8563 46.7555C44.8563 46.9499 44.7791 47.1364 44.6416 47.2738C44.5042 47.4113 44.3177 47.4885 44.1233 47.4885Z" fill="#0C4E98"/>
<path d="M48.0729 38.2551H13.857C13.6626 38.2551 13.4762 38.1779 13.3387 38.0404C13.2013 37.903 13.124 37.7165 13.124 37.5221C13.124 37.3277 13.2013 37.1413 13.3387 37.0038C13.4762 36.8663 13.6626 36.7891 13.857 36.7891H48.0729C48.2673 36.7891 48.4538 36.8663 48.5912 37.0038C48.7287 37.1413 48.8059 37.3277 48.8059 37.5221C48.8059 37.7165 48.7287 37.903 48.5912 38.0404C48.4538 38.1779 48.2673 38.2551 48.0729 38.2551Z" fill="#0C4E98"/>
<path d="M38.1177 51.2953H45.448C45.9508 51.2922 46.4319 51.0903 46.7863 50.7337C47.1407 50.377 47.3397 49.8947 47.3397 49.3919V19.054C47.3397 17.8519 46.863 16.6989 46.0141 15.8478C45.1652 14.9967 44.0135 14.517 42.8114 14.5139H19.1654C17.9633 14.517 16.8116 14.9967 15.9627 15.8478C15.1139 16.6989 14.6372 17.8519 14.6372 19.054V49.3919C14.6372 49.6418 14.6864 49.8894 14.7821 50.1203C14.8777 50.3512 15.0179 50.5611 15.1947 50.7378C15.3714 50.9146 15.5813 51.0548 15.8122 51.1505C16.0432 51.2461 16.2907 51.2953 16.5407 51.2953H23.8591L25.0414 46.5661C25.079 46.4067 25.1697 46.2649 25.2986 46.1639C25.4276 46.0629 25.587 46.0088 25.7508 46.0104H36.2733C36.4386 46.0082 36.5997 46.0619 36.7306 46.1628C36.8615 46.2637 36.9545 46.4058 36.9945 46.5661L38.1177 51.2953ZM45.448 52.7614H37.5857C37.4214 52.7653 37.2608 52.712 37.1314 52.6107C37.002 52.5093 36.9118 52.3662 36.8763 52.2057L35.694 47.4765H26.3065L25.1242 52.2057C25.0847 52.3641 24.9935 52.5048 24.865 52.6054C24.7365 52.7061 24.578 52.761 24.4148 52.7614H16.517C15.6243 52.7583 14.7691 52.4023 14.1378 51.771C13.5066 51.1398 13.1506 50.2846 13.1475 49.3919V19.054C13.1506 17.464 13.7827 15.94 14.9059 14.8146C16.029 13.6893 17.5518 13.0541 19.1417 13.0479H42.7878C44.3787 13.051 45.9033 13.6852 47.0271 14.8112C48.1509 15.9372 48.7821 17.4631 48.7821 19.054V49.3919C48.7821 50.2835 48.4287 51.1387 47.7993 51.7703C47.17 52.4019 46.316 52.7583 45.4243 52.7614" fill="#0C4E98"/>
<path d="M37.5857 19.7873H24.3912C24.1968 19.7873 24.0104 19.7101 23.8729 19.5727C23.7354 19.4352 23.6582 19.2487 23.6582 19.0543C23.6582 18.8599 23.7354 18.6735 23.8729 18.536C24.0104 18.3985 24.1968 18.3213 24.3912 18.3213H37.5857C37.7801 18.3213 37.9666 18.3985 38.1041 18.536C38.2415 18.6735 38.3188 18.8599 38.3188 19.0543C38.3188 19.2487 38.2415 19.4352 38.1041 19.5727C37.9666 19.7101 37.7801 19.7873 37.5857 19.7873Z" fill="#0C4E98"/>
<path d="M48.0729 25.0598H13.857C13.6626 25.0598 13.4762 24.9826 13.3387 24.8451C13.2013 24.7076 13.124 24.5212 13.124 24.3268C13.124 24.1324 13.2013 23.9459 13.3387 23.8085C13.4762 23.671 13.6626 23.5938 13.857 23.5938H48.0729C48.2673 23.5938 48.4538 23.671 48.5912 23.8085C48.7287 23.9459 48.8059 24.1324 48.8059 24.3268C48.8059 24.5212 48.7287 24.7076 48.5912 24.8451C48.4538 24.9826 48.2673 25.0598 48.0729 25.0598Z" fill="#0C4E98"/>
</svg>
