<svg width="54" height="66" viewBox="0 0 54 66" fill="none" xmlns="http://www.w3.org/2000/svg">
<path d="M19.2662 47.8765C19.1268 47.8761 18.9901 47.8377 18.871 47.7654C15.8355 46.0966 13.3769 43.5474 11.8189 40.4537C10.261 37.3599 9.67686 33.8667 10.1435 30.4344C10.6102 27.0021 12.1057 23.7917 14.433 21.2262C16.7604 18.6606 19.8104 16.8604 23.1812 16.0626C23.2899 16.0371 23.4026 16.0336 23.5127 16.0522C23.6228 16.0709 23.7281 16.1113 23.8224 16.1711C23.9167 16.2309 23.9981 16.3089 24.0619 16.4005C24.1257 16.4922 24.1705 16.5956 24.1939 16.7048C24.2418 16.9242 24.2013 17.1536 24.0811 17.3432C23.9608 17.5329 23.7706 17.6674 23.5517 17.7175C20.5155 18.4359 17.7682 20.0574 15.672 22.3684C13.5758 24.6793 12.229 27.5711 11.8091 30.6628C11.3892 33.7544 11.9159 36.9008 13.3199 39.687C14.7239 42.4733 16.9392 44.7688 19.6738 46.271C19.8699 46.3827 20.0145 46.5666 20.0769 46.7835C20.1392 47.0005 20.1142 47.2331 20.0072 47.4319C19.9356 47.5662 19.8288 47.6785 19.6983 47.7568C19.5677 47.8351 19.4184 47.8765 19.2662 47.8765ZM30.5295 49.4326C30.337 49.4295 30.1511 49.3621 30.0012 49.2413C29.8513 49.1205 29.746 48.9531 29.7021 48.7657C29.6541 48.5463 29.6946 48.3169 29.8149 48.1273C29.9351 47.9377 30.1254 47.8031 30.3442 47.753C33.3856 47.0291 36.1358 45.3996 38.2315 43.0797C40.3273 40.7598 41.6698 37.8586 42.082 34.7596C42.4941 31.6605 41.9564 28.5094 40.5398 25.7224C39.1233 22.9354 36.8946 20.6437 34.1481 19.1501C34.0492 19.0982 33.9616 19.0272 33.8905 18.941C33.8193 18.8549 33.7661 18.7554 33.7339 18.6485C33.7017 18.5415 33.6912 18.4292 33.7029 18.3181C33.7146 18.2071 33.7484 18.0994 33.8023 18.0016C33.8529 17.9031 33.9228 17.8157 34.0079 17.7447C34.0929 17.6738 34.1913 17.6206 34.2972 17.5883C34.4032 17.5561 34.5145 17.5454 34.6247 17.557C34.7348 17.5686 34.8416 17.6022 34.9385 17.6558C37.9916 19.3107 40.4701 21.854 42.0457 24.9488C43.6213 28.0436 44.2198 31.544 43.7618 34.9864C43.3039 38.4289 41.8112 41.6512 39.4813 44.2265C37.1515 46.8017 34.0943 48.6086 30.7147 49.4079H30.5295M14.8325 56.9044C14.6945 56.9055 14.5585 56.8715 14.4373 56.8056C9.45281 54.1492 5.4167 50.0098 2.88691 44.9599C0.357117 39.9099 -0.5414 34.1988 0.315612 28.616C1.17262 23.0332 3.74284 17.8546 7.67088 13.796C11.5989 9.73734 16.6908 6.99924 22.2426 5.9602C22.3521 5.94075 22.4645 5.94326 22.573 5.96759C22.6816 5.99192 22.7843 6.03758 22.875 6.10193C22.9658 6.16628 23.0429 6.24803 23.1018 6.34243C23.1607 6.43683 23.2003 6.54199 23.2182 6.6518C23.258 6.87276 23.209 7.10048 23.0818 7.28548C22.9546 7.47048 22.7595 7.59781 22.539 7.63982C17.3369 8.61646 12.5665 11.1845 8.88671 14.9891C5.20695 18.7937 2.79946 23.6471 1.99687 28.8788C1.19427 34.1106 2.03618 39.4625 4.40625 44.1952C6.77632 48.9279 10.5576 52.8078 15.2277 55.2989C15.4272 55.404 15.577 55.5839 15.6441 55.7992C15.7112 56.0145 15.6903 56.2476 15.5858 56.4475C15.5161 56.5869 15.4083 56.7037 15.2751 56.7846C15.1418 56.8654 14.9884 56.907 14.8325 56.9044ZM31.5793 59.5227C31.3655 59.5236 31.1592 59.4441 31.0013 59.3001C30.8433 59.156 30.7453 58.9578 30.7266 58.7449C30.708 58.5319 30.7701 58.3197 30.9005 58.1504C31.031 57.981 31.2204 57.8669 31.4311 57.8307C36.6332 56.8541 41.4036 54.2861 45.0834 50.4815C48.7631 46.6769 51.1706 41.8234 51.9732 36.5916C52.7758 31.3599 51.9338 26.008 49.5638 21.2753C47.1937 16.5426 43.4124 12.6627 38.7423 10.1716C38.5428 10.0665 38.3931 9.88659 38.326 9.6713C38.2588 9.45602 38.2798 9.2229 38.3842 9.02302C38.435 8.92305 38.5053 8.83426 38.5909 8.76189C38.6766 8.68952 38.7758 8.63504 38.8829 8.60166C38.9899 8.56827 39.1026 8.55667 39.2142 8.56753C39.3258 8.57838 39.4341 8.61149 39.5327 8.66488C44.5172 11.3213 48.5534 15.4607 51.0832 20.5106C53.6129 25.5606 54.5114 31.2717 53.6544 36.8545C52.7974 42.4373 50.2272 47.6159 46.2992 51.6746C42.3711 55.7332 37.2792 58.4712 31.7275 59.5103H31.5793" fill="#0C4E98"/>
<path d="M39.3352 16.3711C39.1579 16.3695 38.9855 16.3134 38.8412 16.2105C38.1803 15.7261 37.4916 15.2807 36.7787 14.8767C36.6818 14.8227 36.5967 14.7501 36.528 14.663C36.4594 14.5759 36.4087 14.4761 36.3789 14.3693C36.349 14.2625 36.3406 14.1509 36.3541 14.0409C36.3676 13.9308 36.4028 13.8245 36.4576 13.7281C36.5093 13.629 36.5805 13.5414 36.6669 13.4706C36.7534 13.3998 36.8533 13.3472 36.9606 13.316C37.0679 13.2848 37.1805 13.2758 37.2914 13.2893C37.4024 13.3028 37.5094 13.3387 37.6061 13.3947C38.3775 13.83 39.1238 14.3083 39.8415 14.8273C39.9354 14.8957 40.0149 14.9821 40.0751 15.0815C40.1354 15.1808 40.1752 15.2912 40.1925 15.4061C40.2097 15.521 40.204 15.6382 40.1755 15.7508C40.1471 15.8635 40.0965 15.9694 40.0268 16.0623C39.9462 16.1697 39.8418 16.2568 39.7218 16.3168C39.6017 16.3769 39.4694 16.4081 39.3352 16.4081M45.0656 22.7067C44.918 22.7069 44.7729 22.6682 44.6449 22.5945C44.517 22.5208 44.4108 22.4146 44.337 22.2868C43.6262 21.1076 42.7987 20.0029 41.867 18.9893C41.7833 18.9097 41.7166 18.8139 41.671 18.7078C41.6255 18.6016 41.602 18.4873 41.602 18.3718C41.602 18.2563 41.6255 18.142 41.671 18.0358C41.7166 17.9297 41.7833 17.8339 41.867 17.7543C41.9456 17.669 42.041 17.6009 42.1473 17.5543C42.2536 17.5077 42.3684 17.4837 42.4845 17.4837C42.6005 17.4837 42.7153 17.5077 42.8216 17.5543C42.9278 17.6009 43.0233 17.669 43.102 17.7543C44.1018 18.8513 44.9873 20.0472 45.7449 21.3235C45.8136 21.4213 45.8609 21.5324 45.8838 21.6497C45.9068 21.767 45.9048 21.8878 45.878 22.0043C45.8512 22.1207 45.8002 22.2303 45.7284 22.3257C45.6565 22.4212 45.5653 22.5005 45.4608 22.5585C45.3309 22.6388 45.1813 22.6815 45.0286 22.682M47.8197 30.7343C47.6145 30.7305 47.4174 30.6539 47.2636 30.5181C47.1097 30.3824 47.0092 30.1963 46.9799 29.9932C46.8052 28.6296 46.4864 27.2883 46.0289 25.9918C45.9571 25.7788 45.9711 25.5461 46.0679 25.3432C46.1647 25.1403 46.3368 24.9831 46.5476 24.905C46.6521 24.8662 46.7633 24.849 46.8746 24.8542C46.9859 24.8595 47.095 24.8871 47.1953 24.9356C47.2957 24.984 47.3852 25.0522 47.4585 25.1361C47.5318 25.22 47.5875 25.3178 47.6221 25.4237C48.1142 26.8297 48.4618 28.2821 48.6595 29.7586C48.6752 29.8697 48.6687 29.9829 48.6406 30.0915C48.6124 30.2001 48.563 30.3022 48.4953 30.3917C48.4276 30.4812 48.3429 30.5564 48.246 30.6131C48.1492 30.6698 48.042 30.7067 47.9308 30.7219H47.8197M47.2639 39.2311H47.0416C46.9342 39.2026 46.8336 39.1529 46.7455 39.0851C46.6574 39.0174 46.5837 38.9328 46.5285 38.8363C46.4734 38.7398 46.4379 38.6333 46.4243 38.523C46.4106 38.4127 46.4189 38.3008 46.4488 38.1937C46.8049 36.8642 47.0324 35.5036 47.1281 34.1305C47.1428 33.9078 47.2454 33.7001 47.4133 33.553C47.5813 33.4059 47.8007 33.3316 48.0235 33.3463C48.2462 33.361 48.454 33.4637 48.601 33.6316C48.7481 33.7995 48.8225 34.019 48.8077 34.2417C48.7086 35.7275 48.4646 37.2 48.0791 38.6383C48.0305 38.8179 47.9246 38.9767 47.7774 39.0904C47.6303 39.2041 47.4499 39.2665 47.2639 39.2682M43.423 46.8635C43.2626 46.8636 43.1054 46.8184 42.9696 46.7331C42.8337 46.6479 42.7247 46.526 42.655 46.3815C42.5853 46.237 42.5578 46.0757 42.5757 45.9163C42.5936 45.7569 42.6562 45.6058 42.7561 45.4803C43.6123 44.4084 44.3533 43.2493 44.9668 42.0223C45.0166 41.9229 45.0855 41.8343 45.1698 41.7617C45.254 41.6892 45.3518 41.6341 45.4575 41.5996C45.5632 41.5651 45.6747 41.552 45.7855 41.561C45.8963 41.5699 46.0042 41.6008 46.103 41.6518C46.2029 41.7027 46.2917 41.7729 46.3644 41.8583C46.4371 41.9436 46.4922 42.0424 46.5266 42.1491C46.561 42.2558 46.5741 42.3683 46.565 42.48C46.5558 42.5918 46.5248 42.7006 46.4735 42.8003C45.8031 44.1109 45.0047 45.3519 44.09 46.5053C44.0095 46.6049 43.9079 46.6854 43.7926 46.7409C43.6773 46.7964 43.551 46.8256 43.423 46.8265M36.9392 52.3099C36.7481 52.312 36.5619 52.2498 36.4104 52.1333C36.2589 52.0168 36.1509 51.8527 36.1039 51.6675C36.0569 51.4822 36.0735 51.2865 36.1511 51.1119C36.2287 50.9372 36.3627 50.7937 36.5317 50.7044C37.7323 50.0467 38.8656 49.2732 39.9156 48.3949C40 48.3137 40.1007 48.2513 40.2109 48.2119C40.3212 48.1725 40.4386 48.157 40.5554 48.1663C40.6721 48.1757 40.7855 48.2097 40.8882 48.2661C40.9908 48.3226 41.0802 48.4001 41.1506 48.4937C41.2996 48.6722 41.3717 48.9027 41.3508 49.1343C41.33 49.3659 41.218 49.5797 41.0395 49.7287C39.8924 50.6769 38.6508 51.5046 37.3344 52.1988C37.2146 52.2694 37.0784 52.3077 36.9392 52.3099ZM28.8993 54.7799L28.8252 53.9278V53.0756C30.1607 52.9453 31.4802 52.6847 32.7649 52.2976C32.9753 52.2516 33.1953 52.287 33.3807 52.3966C33.5661 52.5063 33.703 52.6821 33.764 52.8886C33.8251 53.0952 33.8056 53.3172 33.7096 53.5099C33.6136 53.7027 33.4482 53.852 33.2466 53.9278C31.8307 54.3607 30.3739 54.6463 28.8993 54.7799Z" fill="#0C4E98"/>
<path d="M20.8596 13.2219C20.6763 13.2238 20.4975 13.1657 20.3503 13.0564C20.2031 12.9471 20.0957 12.7927 20.0445 12.6167C19.9791 12.4005 20.0023 12.1672 20.1088 11.9681C20.2153 11.7689 20.3965 11.6202 20.6126 11.5546C22.0288 11.1227 23.4855 10.8372 24.9599 10.7024C25.1859 10.6828 25.4104 10.7537 25.5841 10.8996C25.7578 11.0455 25.8665 11.2545 25.8861 11.4805C25.9058 11.7065 25.8349 11.9311 25.689 12.1048C25.543 12.2785 25.3341 12.3871 25.1081 12.4068C23.7473 12.5299 22.4025 12.7906 21.0943 13.1848C21.0165 13.1967 20.9374 13.1967 20.8596 13.1848M13.4496 17.2357C13.3255 17.2369 13.2026 17.211 13.0895 17.1598C12.9765 17.1086 12.876 17.0333 12.795 16.9392C12.646 16.7607 12.574 16.5303 12.5948 16.2987C12.6157 16.0671 12.7277 15.8533 12.9062 15.7042C14.0554 14.759 15.2966 13.9315 16.6112 13.2342C16.7083 13.1799 16.8153 13.1454 16.9258 13.1328C17.0364 13.1202 17.1484 13.1297 17.2552 13.1607C17.3621 13.1917 17.4617 13.2437 17.5483 13.3135C17.635 13.3834 17.7068 13.4698 17.7597 13.5677C17.8657 13.7679 17.8888 14.0017 17.8242 14.2188C17.7595 14.4359 17.6122 14.619 17.4139 14.7286C16.2164 15.3849 15.087 16.1586 14.0423 17.0381C13.8903 17.1662 13.6978 17.2362 13.499 17.2357M8.22546 23.9047C8.09275 23.907 7.96144 23.8774 7.8426 23.8183C7.74275 23.7673 7.65396 23.6971 7.58127 23.6118C7.50858 23.5264 7.45343 23.4276 7.41901 23.3209C7.38459 23.2142 7.37157 23.1017 7.38068 22.99C7.38979 22.8782 7.42087 22.7694 7.47212 22.6697C8.14242 21.3563 8.94524 20.1148 9.86804 18.9647C9.93558 18.8684 10.0228 18.7877 10.124 18.7279C10.2252 18.668 10.338 18.6304 10.4548 18.6175C10.5717 18.6047 10.6899 18.6169 10.8017 18.6533C10.9135 18.6897 11.0162 18.7496 11.1031 18.8288C11.1933 18.9009 11.2683 18.99 11.324 19.0911C11.3797 19.1922 11.4148 19.3034 11.4274 19.4181C11.4401 19.5329 11.4299 19.649 11.3976 19.7598C11.3652 19.8706 11.3113 19.9739 11.2389 20.0638C10.3869 21.1388 9.64625 22.2974 9.02821 23.5219C8.95843 23.6613 8.8507 23.7781 8.71742 23.8589C8.58413 23.9398 8.43073 23.9813 8.27487 23.9788M6.02714 32.204C5.91567 32.1977 5.8066 32.1693 5.70625 32.1204C5.60589 32.0715 5.51628 32.0031 5.44268 31.9191C5.36909 31.8352 5.31297 31.7374 5.2776 31.6315C5.24224 31.5256 5.22836 31.4137 5.23675 31.3024C5.33687 29.8168 5.58089 28.3443 5.9654 26.9058C6.02436 26.6896 6.16678 26.5057 6.36133 26.3945C6.55588 26.2834 6.78663 26.254 7.00281 26.313C7.21899 26.372 7.40289 26.5144 7.51407 26.7089C7.62524 26.9035 7.65458 27.1342 7.59563 27.3504C7.23761 28.679 7.01417 30.0402 6.92871 31.4136C6.9103 31.6277 6.81281 31.8272 6.65527 31.9734C6.49773 32.1195 6.29142 32.2017 6.07655 32.204M7.21274 40.6638C7.03874 40.6612 6.86976 40.6053 6.72846 40.5037C6.58716 40.4022 6.48033 40.2598 6.42235 40.0957C5.93024 38.6897 5.58265 37.2373 5.38494 35.7608C5.35662 35.5369 5.41696 35.3108 5.55311 35.1308C5.68927 34.9508 5.89043 34.8312 6.1136 34.7975C6.3361 34.7694 6.5607 34.8301 6.73872 34.9665C6.91673 35.1029 7.03381 35.304 7.06454 35.5262C7.25112 36.8877 7.56963 38.2278 8.01552 39.5276C8.09069 39.7405 8.07826 39.9745 7.981 40.1783C7.88375 40.3821 7.7096 40.5389 7.4968 40.6144C7.40304 40.6331 7.3065 40.6331 7.21274 40.6144M11.5723 47.9257C11.4541 47.9273 11.3369 47.9039 11.2284 47.8571C11.1199 47.8103 11.0224 47.7411 10.9425 47.654C9.95066 46.5505 9.06571 45.3554 8.29955 44.0848C8.18561 43.8893 8.15285 43.657 8.20827 43.4377C8.26368 43.2183 8.40288 43.0294 8.59598 42.9115C8.69045 42.854 8.79546 42.8161 8.90485 42.7999C9.01423 42.7837 9.12575 42.7896 9.23282 42.8172C9.33989 42.8449 9.44035 42.8937 9.52823 42.9608C9.61612 43.0279 9.68968 43.1119 9.74453 43.208C10.4594 44.3843 11.2866 45.4886 12.2146 46.5054C12.2999 46.5841 12.368 46.6795 12.4145 46.7858C12.4611 46.8921 12.4852 47.0069 12.4852 47.1229C12.4852 47.239 12.4611 47.3538 12.4145 47.4601C12.368 47.5663 12.2999 47.6618 12.2146 47.7404C12.1393 47.8133 12.0503 47.8704 11.9528 47.9086C11.8553 47.9468 11.7512 47.9652 11.6465 47.9628M16.3024 51.8283C16.1503 51.8238 16.0017 51.7814 15.8702 51.7048C15.3391 51.3837 14.8204 51.0256 14.3141 50.6674C14.2201 50.599 14.1407 50.5126 14.0805 50.4133C14.0202 50.3139 13.9803 50.2036 13.9631 50.0887C13.9459 49.9738 13.9516 49.8565 13.9801 49.7439C14.0085 49.6312 14.0591 49.5254 14.1288 49.4324C14.1961 49.3371 14.282 49.2564 14.3814 49.1952C14.4807 49.1339 14.5914 49.0934 14.7068 49.0761C14.8222 49.0588 14.9399 49.065 15.0528 49.0944C15.1657 49.1238 15.2715 49.1758 15.3638 49.2471C15.8208 49.5806 16.3024 49.914 16.7964 50.2104C16.9557 50.307 17.0789 50.4531 17.1473 50.6264C17.2156 50.7997 17.2253 50.9905 17.1749 51.1698C17.1245 51.3491 17.0167 51.507 16.8681 51.6192C16.7194 51.7314 16.5381 51.7919 16.3519 51.7913" fill="#0C4E98"/>
<path d="M23.91 23.1018C23.8203 23.1195 23.728 23.1195 23.6383 23.1018C23.4837 23.0515 23.3474 22.9567 23.2463 22.8293C23.1453 22.7019 23.084 22.5475 23.0702 22.3855L22.5268 17.0256C22.5154 16.9153 22.5259 16.8038 22.5576 16.6976C22.5893 16.5914 22.6417 16.4924 22.7116 16.4064C22.7816 16.3204 22.8678 16.249 22.9654 16.1963C23.0629 16.1436 23.1699 16.1107 23.2801 16.0993C23.3904 16.0879 23.5019 16.0984 23.6081 16.1301C23.7143 16.1619 23.8133 16.2142 23.8993 16.2841C23.9853 16.3541 24.0567 16.4403 24.1094 16.5379C24.1621 16.6354 24.195 16.7424 24.2064 16.8527L24.5522 20.2983L33.2961 10.5047L22.7738 2.67473L23.1937 6.76261C23.205 6.8729 23.1946 6.98435 23.1628 7.09059C23.1311 7.19682 23.0788 7.29577 23.0088 7.38178C22.9389 7.46779 22.8527 7.53917 22.7551 7.59186C22.6576 7.64455 22.5506 7.67752 22.4403 7.68887C22.3301 7.70023 22.2186 7.68976 22.1124 7.65804C22.0061 7.62633 21.9072 7.57398 21.8212 7.50402C21.7352 7.43407 21.6638 7.34786 21.6111 7.25032C21.5584 7.15277 21.5254 7.0458 21.5141 6.93551L20.9089 0.933357C20.8899 0.769434 20.9195 0.603538 20.9942 0.456376C21.0689 0.309214 21.1853 0.187311 21.3288 0.105901C21.4731 0.0270433 21.6369 -0.00902189 21.8009 0.00191552C21.965 0.0128529 22.1226 0.0703431 22.2551 0.167655L35.0498 9.70195C35.1431 9.77257 35.2209 9.86165 35.2782 9.96364C35.3356 10.0656 35.3714 10.1783 35.3833 10.2947C35.3964 10.4125 35.3845 10.5317 35.3483 10.6445C35.3122 10.7573 35.2525 10.8612 35.1733 10.9493L24.5398 22.8672C24.4605 22.9559 24.3635 23.027 24.255 23.0759C24.1465 23.1248 24.029 23.1505 23.91 23.1512" fill="#0C4E98"/>
<path d="M32.1227 65.524C31.9437 65.5214 31.7703 65.4607 31.6287 65.3511L18.8216 55.8168C18.7283 55.7462 18.6506 55.6571 18.5932 55.5551C18.5358 55.4531 18.5001 55.3404 18.4882 55.224C18.4742 55.1062 18.4858 54.9868 18.522 54.8739C18.5582 54.761 18.6183 54.6571 18.6981 54.5694L29.3439 42.6516C29.4528 42.5294 29.5945 42.4411 29.7522 42.3973C29.9099 42.3535 30.0769 42.356 30.2331 42.4046C30.3878 42.4605 30.524 42.5582 30.6264 42.6868C30.7289 42.8155 30.7937 42.97 30.8136 43.1333L31.3446 48.4932C31.356 48.6035 31.3455 48.7149 31.3138 48.8211C31.2821 48.9274 31.2298 49.0264 31.1598 49.1124C31.0899 49.1984 31.0036 49.2698 30.9061 49.3224C30.8085 49.3751 30.7016 49.4081 30.5913 49.4195C30.481 49.4308 30.3696 49.4203 30.2633 49.3886C30.1571 49.3569 30.0582 49.3045 29.9721 49.2346C29.8861 49.1646 29.8148 49.0784 29.7621 48.9809C29.7094 48.8834 29.6764 48.7764 29.665 48.6661L29.3192 45.2204L20.5753 55.0017L31.0977 62.844L30.6777 58.7561C30.6569 58.5306 30.7255 58.3058 30.8687 58.1303C31.0119 57.9548 31.2183 57.8425 31.4435 57.8175C31.5538 57.8074 31.6651 57.8192 31.7709 57.8522C31.8767 57.8852 31.9749 57.9389 32.0599 58.0101C32.1448 58.0813 32.2148 58.1685 32.2659 58.2669C32.317 58.3653 32.3481 58.4728 32.3574 58.5832L32.9625 64.5854C32.9816 64.7493 32.9519 64.9152 32.8772 65.0624C32.8025 65.2096 32.6862 65.3314 32.5426 65.4128C32.415 65.4866 32.2701 65.525 32.1227 65.524Z" fill="#0C4E98"/>
</svg>
