<svg width="106" height="72" viewBox="0 0 106 72" fill="none" xmlns="http://www.w3.org/2000/svg">
<path d="M63.299 71.1387C63.1234 71.1361 62.951 71.0916 62.7961 71.0089C62.5512 70.8752 62.3693 70.6499 62.2903 70.3823C62.2112 70.1147 62.2415 69.8267 62.3743 69.5814L68.1494 59.0694C68.285 58.8242 68.5124 58.6428 68.7816 58.5652C69.0508 58.4877 69.3399 58.5202 69.5851 58.6557C69.8304 58.7913 70.0117 59.0186 70.0893 59.2879C70.1668 59.5571 70.1343 59.8462 69.9988 60.0914L64.2885 70.5871C64.1996 70.7548 64.0663 70.8949 63.9033 70.9922C63.7403 71.0894 63.5537 71.1401 63.3639 71.1387" fill="#0C4E98"/>
<path d="M98.8249 71.1387C98.6371 71.1399 98.4523 71.0909 98.2898 70.9968C98.1272 70.9026 97.9927 70.7668 97.9002 70.6033L91.9467 60.1075C91.8709 59.9868 91.8204 59.852 91.7981 59.7113C91.7759 59.5705 91.7823 59.4267 91.8172 59.2885C91.8521 59.1503 91.9147 59.0207 92.0011 58.9073C92.0875 58.794 92.1959 58.6994 92.3199 58.6291C92.444 58.5589 92.5809 58.5145 92.7225 58.4987C92.8642 58.4829 93.0075 58.496 93.144 58.5371C93.2804 58.5783 93.4071 58.6466 93.5164 58.7381C93.6257 58.8295 93.7153 58.9422 93.7798 59.0693L99.7334 69.5651C99.8026 69.6841 99.8475 69.8157 99.8654 69.9522C99.8833 70.0888 99.8739 70.2275 99.8376 70.3604C99.8014 70.4932 99.7391 70.6176 99.6544 70.7261C99.5696 70.8347 99.4641 70.9252 99.344 70.9926C99.1875 71.0876 99.008 71.1381 98.8249 71.1387Z" fill="#0C4E98"/>
<path d="M96.4895 67.1807H66.1052C65.8256 67.1807 65.5573 67.0696 65.3596 66.8718C65.1619 66.6741 65.0508 66.4059 65.0508 66.1262C65.0508 65.8466 65.1619 65.5784 65.3596 65.3806C65.5573 65.1829 65.8256 65.0718 66.1052 65.0718H96.4895C96.7691 65.0718 97.0373 65.1829 97.2351 65.3806C97.4328 65.5784 97.5439 65.8466 97.5439 66.1262C97.5439 66.4059 97.4328 66.6741 97.2351 66.8718C97.0373 67.0696 96.7691 67.1807 96.4895 67.1807Z" fill="#0C4E98"/>
<path d="M67.0139 16.9732C66.0028 16.9732 65.0332 17.3748 64.3183 18.0897C63.6033 18.8047 63.2016 19.7743 63.2016 20.7854V54.6412C63.2016 55.1418 63.3003 55.6376 63.4918 56.1001C63.6834 56.5626 63.9643 56.9828 64.3183 57.3368C64.6723 57.6908 65.0925 57.9716 65.555 58.1632C66.0175 58.3548 66.5132 58.4534 67.0139 58.4534H94.2673C94.7679 58.4534 95.2636 58.3548 95.7261 58.1632C96.1886 57.9716 96.6089 57.6908 96.9629 57.3368C97.3169 56.9828 97.5977 56.5626 97.7893 56.1001C97.9809 55.6376 98.0794 55.1418 98.0794 54.6412V20.7854C98.0794 20.2848 97.9809 19.789 97.7893 19.3265C97.5977 18.864 97.3169 18.4437 96.9629 18.0897C96.6089 17.7357 96.1886 17.4549 95.7261 17.2633C95.2636 17.0718 94.7679 16.9732 94.2673 16.9732H67.0139ZM94.2673 60.5623H67.0139C65.4435 60.5623 63.9375 59.9384 62.827 58.828C61.7166 57.7176 61.0928 56.2116 61.0928 54.6412V20.7854C61.0971 19.2163 61.7223 17.7127 62.8318 16.6032C63.9413 15.4937 65.4448 14.8685 67.0139 14.8643H94.2673C95.8363 14.8685 97.3399 15.4937 98.4493 16.6032C99.5588 17.7127 100.184 19.2163 100.188 20.7854V54.6412C100.188 56.2116 99.5645 57.7176 98.4541 58.828C97.3437 59.9384 95.8376 60.5623 94.2673 60.5623Z" fill="#0C4E98"/>
<path d="M99.1339 43.3994H62.1472C61.8676 43.3994 61.5993 43.2883 61.4016 43.0906C61.2038 42.8928 61.0928 42.6246 61.0928 42.345C61.0928 42.0653 61.2038 41.7971 61.4016 41.5994C61.5993 41.4016 61.8676 41.2905 62.1472 41.2905H99.1339C99.4136 41.2905 99.6817 41.4016 99.8795 41.5994C100.077 41.7971 100.188 42.0653 100.188 42.345C100.188 42.6246 100.077 42.8928 99.8795 43.0906C99.6817 43.2883 99.4136 43.3994 99.1339 43.3994Z" fill="#0C4E98"/>
<path d="M72.7077 50.0015H66.1052C65.8256 50.0015 65.5573 49.8904 65.3596 49.6926C65.1619 49.4949 65.0508 49.2267 65.0508 48.947C65.0508 48.6674 65.1619 48.3992 65.3596 48.2014C65.5573 48.0037 65.8256 47.8926 66.1052 47.8926H72.7077C72.9873 47.8926 73.2555 48.0037 73.4533 48.2014C73.651 48.3992 73.7621 48.6674 73.7621 48.947C73.7621 49.2267 73.651 49.4949 73.4533 49.6926C73.2555 49.8904 72.9873 50.0015 72.7077 50.0015Z" fill="#0C4E98"/>
<path d="M95.1107 50.0015H88.6218C88.3422 50.0015 88.0739 49.8904 87.8762 49.6926C87.6785 49.4949 87.5674 49.2267 87.5674 48.947C87.5674 48.6674 87.6785 48.3992 87.8762 48.2014C88.0739 48.0037 88.3422 47.8926 88.6218 47.8926H95.1107C95.3904 47.8926 95.6586 48.0037 95.8563 48.2014C96.0541 48.3992 96.1651 48.6674 96.1651 48.947C96.1651 49.2267 96.0541 49.4949 95.8563 49.6926C95.6586 49.8904 95.3904 50.0015 95.1107 50.0015Z" fill="#0C4E98"/>
<path d="M99.1339 23.5752H62.1472C61.8676 23.5752 61.5993 23.4641 61.4016 23.2664C61.2038 23.0686 61.0928 22.8004 61.0928 22.5207C61.0928 22.2411 61.2038 21.9729 61.4016 21.7752C61.5993 21.5774 61.8676 21.4663 62.1472 21.4663H99.1339C99.4136 21.4663 99.6817 21.5774 99.8795 21.7752C100.077 21.9729 100.188 22.2411 100.188 22.5207C100.188 22.8004 100.077 23.0686 99.8795 23.2664C99.6817 23.4641 99.4136 23.5752 99.1339 23.5752Z" fill="#0C4E98"/>
<path d="M104.422 38.1101C104.142 38.1101 103.874 37.999 103.676 37.8013C103.479 37.6035 103.368 37.3353 103.368 37.0557V29.6583L98.5009 26.0894C98.275 25.9238 98.1242 25.6752 98.0816 25.3984C98.039 25.1215 98.1082 24.8391 98.2738 24.6132C98.4394 24.3873 98.688 24.2365 98.9649 24.1939C99.2417 24.1513 99.5241 24.2205 99.75 24.3861L105.022 28.2794C105.157 28.375 105.267 28.5014 105.343 28.6482C105.42 28.7949 105.46 28.9577 105.46 29.123V37.0557C105.46 37.3353 105.349 37.6035 105.151 37.8013C104.954 37.999 104.685 38.1101 104.406 38.1101" fill="#0C4E98"/>
<path d="M75.3512 16.9726C75.1717 16.973 74.9951 16.9269 74.8387 16.8388C74.6824 16.7507 74.5515 16.6235 74.4589 16.4697L70.4845 9.851C70.3935 9.69018 70.3457 9.50856 70.3457 9.32378C70.3457 9.13901 70.3935 8.95739 70.4845 8.79657C70.5807 8.63631 70.716 8.50312 70.8777 8.40948C71.0394 8.31584 71.2223 8.26483 71.4092 8.26123H89.9025C90.0894 8.26483 90.2722 8.31584 90.434 8.40948C90.5957 8.50312 90.731 8.63631 90.8272 8.79657C90.9181 8.95739 90.966 9.13901 90.966 9.32378C90.966 9.50856 90.9181 9.69018 90.8272 9.851L86.8365 16.4697C86.686 16.7058 86.4501 16.8747 86.1781 16.9411C85.9061 17.0076 85.619 16.9666 85.3765 16.8266C85.1416 16.679 84.9731 16.4461 84.9065 16.1767C84.8399 15.9074 84.8805 15.6228 85.0196 15.3828L88.0207 10.3701H73.2585L76.2596 15.3828C76.3328 15.5005 76.3816 15.6317 76.4033 15.7686C76.425 15.9055 76.419 16.0454 76.3857 16.18C76.3525 16.3145 76.2926 16.441 76.2096 16.5521C76.1267 16.6632 76.0223 16.7565 75.9027 16.8266C75.7346 16.9221 75.5446 16.9724 75.3512 16.9726Z" fill="#0C4E98"/>
<path d="M20.3097 70.9603C20.129 70.9578 19.9513 70.9134 19.7906 70.8306C19.5474 70.691 19.3687 70.4615 19.2928 70.1916C19.217 69.9216 19.2501 69.6326 19.3851 69.3868L25.3872 58.891C25.4546 58.7709 25.5452 58.6654 25.6538 58.5807C25.7623 58.496 25.8867 58.4337 26.0195 58.3974C26.1524 58.3612 26.2911 58.3517 26.4276 58.3696C26.5642 58.3875 26.6958 58.4324 26.8148 58.5017C27.058 58.6413 27.2368 58.8707 27.3126 59.1407C27.3884 59.4107 27.3553 59.6996 27.2204 59.9454L21.2182 70.425C21.1271 70.5861 20.9951 70.7204 20.8356 70.8144C20.6762 70.9084 20.4948 70.9587 20.3097 70.9603Z" fill="#0C4E98"/>
<path d="M47.2712 70.9603C47.0858 70.9604 46.9038 70.9107 46.744 70.8166C46.5842 70.7224 46.4526 70.5872 46.3628 70.425L40.3606 59.9454C40.2207 59.7023 40.1832 59.4137 40.2562 59.1429C40.3292 58.8722 40.5068 58.6415 40.7499 58.5017C40.993 58.3618 41.2817 58.3243 41.5524 58.3973C41.8232 58.4703 42.0538 58.6479 42.1937 58.891L48.1797 69.3868C48.2493 69.507 48.2944 69.6399 48.3126 69.7777C48.3307 69.9155 48.3214 70.0554 48.2852 70.1896C48.249 70.3238 48.1867 70.4495 48.1018 70.5595C48.0168 70.6695 47.911 70.7616 47.7903 70.8306C47.6297 70.9134 47.452 70.9578 47.2712 70.9603Z" fill="#0C4E98"/>
<path d="M23.7328 17.0373C22.2915 17.0373 20.9092 17.6098 19.8901 18.629C18.8709 19.6481 18.2983 21.0304 18.2983 22.4717V52.9371C18.3026 54.3771 18.8765 55.7568 19.8948 56.7751C20.913 57.7933 22.2928 58.3672 23.7328 58.3715H43.7186C45.1586 58.3672 46.5383 57.7933 47.5566 56.7751C48.5748 55.7568 49.1488 54.3771 49.153 52.9371V22.4717C49.1488 21.0317 48.5748 19.6519 47.5566 18.6337C46.5383 17.6155 45.1586 17.0416 43.7186 17.0373H23.7328ZM43.7186 60.4804H23.7328C21.7335 60.4761 19.8173 59.68 18.4036 58.2663C16.9899 56.8526 16.1937 54.9364 16.1895 52.9371V22.4717C16.1895 20.4711 16.9842 18.5524 18.3988 17.1378C19.8135 15.7231 21.7322 14.9284 23.7328 14.9284H43.7186C44.7133 14.922 45.6994 15.1123 46.6202 15.4885C47.5411 15.8648 48.3784 16.4194 49.084 17.1205C49.7897 17.8216 50.3496 18.6553 50.7317 19.5737C51.1139 20.4921 51.3106 21.477 51.3106 22.4717V52.9371C51.3063 54.9364 50.5102 56.8526 49.0965 58.2663C47.6827 59.68 45.7665 60.4761 43.7672 60.4804" fill="#0C4E98"/>
<path d="M50.2723 42.5064H17.2439C16.9642 42.5064 16.696 42.3953 16.4983 42.1975C16.3005 41.9998 16.1895 41.7316 16.1895 41.4519C16.1895 41.1722 16.3005 40.9041 16.4983 40.7063C16.696 40.5086 16.9642 40.3975 17.2439 40.3975H50.2075C50.4871 40.3975 50.7553 40.5086 50.9531 40.7063C51.1508 40.9041 51.2619 41.1722 51.2619 41.4519C51.2619 41.7316 51.1508 41.9998 50.9531 42.1975C50.7553 42.3953 50.4871 42.5064 50.2075 42.5064" fill="#0C4E98"/>
<path d="M27.8047 48.4922H21.8025C21.5228 48.4922 21.2546 48.3811 21.0569 48.1834C20.8591 47.9856 20.748 47.7174 20.748 47.4377C20.748 47.1581 20.8591 46.8899 21.0569 46.6921C21.2546 46.4944 21.5228 46.3833 21.8025 46.3833H27.8047C28.0844 46.3833 28.3525 46.4944 28.5503 46.6921C28.748 46.8899 28.8592 47.1581 28.8592 47.4377C28.8592 47.7174 28.748 47.9856 28.5503 48.1834C28.3525 48.3811 28.0844 48.4922 27.8047 48.4922Z" fill="#0C4E98"/>
<path d="M45.7784 48.4922H39.7762C39.4965 48.4922 39.2283 48.3811 39.0305 48.1834C38.8328 47.9856 38.7217 47.7174 38.7217 47.4377C38.7217 47.1581 38.8328 46.8899 39.0305 46.6921C39.2283 46.4944 39.4965 46.3833 39.7762 46.3833H45.7784C46.058 46.3833 46.3262 46.4944 46.524 46.6921C46.7217 46.8899 46.8328 47.1581 46.8328 47.4377C46.8328 47.7174 46.7217 47.9856 46.524 48.1834C46.3262 48.3811 46.058 48.4922 45.7784 48.4922Z" fill="#0C4E98"/>
<path d="M11.3225 59.1183C11.0587 59.1174 10.8045 59.0192 10.6087 58.8425C4.56133 53.0808 0.841436 45.2983 0.15598 36.9738C-0.529477 28.6493 1.86727 20.363 6.89072 13.6898C11.9142 7.01653 19.2142 2.42139 27.4036 0.777608C35.5929 -0.866173 44.1007 0.55597 51.3103 4.77378C51.5276 4.92769 51.6787 5.15816 51.7331 5.41887C51.7876 5.67959 51.7413 5.95125 51.6037 6.17927C51.4661 6.40729 51.2472 6.57476 50.9912 6.64807C50.7351 6.72138 50.4608 6.69508 50.2234 6.57445C43.4603 2.52633 35.4382 1.12459 27.7031 2.63934C19.9679 4.15409 13.0672 8.47814 8.33051 14.7782C3.59387 21.0783 1.35658 28.9086 2.04979 36.7601C2.74301 44.6116 6.31768 51.9287 12.0849 57.3014C12.1825 57.3979 12.26 57.5129 12.3129 57.6396C12.3658 57.7663 12.393 57.9022 12.393 58.0395C12.393 58.1768 12.3658 58.3127 12.3129 58.4394C12.26 58.5661 12.1825 58.681 12.0849 58.7776C11.9853 58.8845 11.8648 58.9699 11.7309 59.0285C11.5969 59.0871 11.4524 59.1177 11.3062 59.1183" fill="#0C4E98"/>
<path d="M44.2694 66.4668H23.3103C23.0306 66.4668 22.7625 66.3557 22.5647 66.158C22.367 65.9602 22.2559 65.6921 22.2559 65.4124C22.2559 65.1327 22.367 64.8645 22.5647 64.6668C22.7625 64.469 23.0306 64.3579 23.3103 64.3579H44.2694C44.5491 64.3579 44.8173 64.469 45.0151 64.6668C45.2128 64.8645 45.3239 65.1327 45.3239 65.4124C45.3239 65.6921 45.2128 65.9602 45.0151 66.158C44.8173 66.3557 44.5491 66.4668 44.2694 66.4668Z" fill="#0C4E98"/>
<path d="M50.2723 24.5811H17.2439C16.9642 24.5811 16.696 24.47 16.4983 24.2722C16.3005 24.0745 16.1895 23.8063 16.1895 23.5266C16.1895 23.247 16.3005 22.9788 16.4983 22.781C16.696 22.5833 16.9642 22.4722 17.2439 22.4722H50.2075C50.4871 22.4722 50.7553 22.5833 50.9531 22.781C51.1508 22.9788 51.2619 23.247 51.2619 23.5266C51.2619 23.8063 51.1508 24.0745 50.9531 24.2722C50.7553 24.47 50.4871 24.5811 50.2075 24.5811" fill="#0C4E98"/>
<path d="M33.7898 42.5066C33.5115 42.5024 33.2457 42.3899 33.0488 42.1931C32.852 41.9962 32.7395 41.7305 32.7354 41.4521V23.4617C32.7354 23.182 32.8465 22.9138 33.0442 22.7161C33.242 22.5183 33.5102 22.4072 33.7898 22.4072C34.0695 22.4072 34.3377 22.5183 34.5354 22.7161C34.7331 22.9138 34.8443 23.182 34.8443 23.4617V41.4521C34.8401 41.7305 34.7276 41.9962 34.5308 42.1931C34.334 42.3899 34.0682 42.5024 33.7898 42.5066Z" fill="#0C4E98"/>
</svg>
