<svg width="70" height="69" viewBox="0 0 70 69" fill="none" xmlns="http://www.w3.org/2000/svg">
<path d="M47.1003 4.43867C46.9883 4.43867 46.8808 4.48316 46.8016 4.56239C46.7224 4.64161 46.6779 4.74906 46.6779 4.86109V16.7989C46.6779 16.9109 46.7224 17.0184 46.8016 17.0976C46.8808 17.1768 46.9883 17.2213 47.1003 17.2213H65.0305C65.144 17.2214 65.2531 17.1774 65.3348 17.0986C65.4166 17.0198 65.4645 16.9124 65.4686 16.7989V4.81416C65.4645 4.7007 65.4166 4.59325 65.3348 4.51445C65.2531 4.43564 65.144 4.39166 65.0305 4.39174L47.1003 4.43867ZM65.0305 18.8172H47.1003C46.8394 18.8193 46.5806 18.7699 46.3387 18.672C46.0968 18.574 45.8766 18.4294 45.6907 18.2463C45.5047 18.0633 45.3566 17.8454 45.2549 17.6051C45.1531 17.3648 45.0997 17.1068 45.0977 16.8458V4.86109C45.0976 4.59883 45.1495 4.33919 45.2504 4.09709C45.3512 3.85498 45.499 3.63521 45.6851 3.45049C45.8713 3.26577 46.0922 3.11975 46.3351 3.02081C46.578 2.92188 46.8381 2.87202 47.1003 2.87409H65.0305C65.2935 2.87202 65.5543 2.92178 65.7981 3.02053C66.0418 3.11927 66.2638 3.26507 66.4512 3.44958C66.6386 3.6341 66.7878 3.8537 66.8904 4.09589C66.9929 4.33809 67.0468 4.5981 67.0488 4.86109V16.7989C67.0468 17.0612 66.9928 17.3204 66.8901 17.5618C66.7874 17.8031 66.6379 18.0217 66.4503 18.205C66.2626 18.3882 66.0406 18.5326 65.7969 18.6296C65.5532 18.7266 65.2927 18.7744 65.0305 18.7703" fill="#0C4E98"/>
<path d="M61.8857 11.636H50.2452C50.0377 11.636 49.8387 11.5536 49.692 11.4069C49.5453 11.2602 49.4629 11.0612 49.4629 10.8537C49.4629 10.6463 49.5453 10.4472 49.692 10.3005C49.8387 10.1538 50.0377 10.0714 50.2452 10.0714H61.8857C61.9898 10.0694 62.0932 10.088 62.1899 10.1264C62.2866 10.1648 62.3747 10.2221 62.449 10.295C62.5233 10.3678 62.5824 10.4547 62.6227 10.5507C62.6629 10.6466 62.6837 10.7497 62.6836 10.8537C62.6796 11.0626 62.5937 11.2616 62.4445 11.4078C62.2953 11.5541 62.0947 11.6361 61.8857 11.636Z" fill="#0C4E98"/>
<path d="M56.0655 57.6664C55.858 57.6664 55.659 57.5839 55.5123 57.4372C55.3656 57.2905 55.2832 57.0915 55.2832 56.8841V18.051C55.2832 17.8435 55.3656 17.6446 55.5123 17.4979C55.659 17.3511 55.858 17.2687 56.0655 17.2687C56.1695 17.2666 56.2729 17.2853 56.3697 17.3237C56.4664 17.3621 56.5545 17.4194 56.6288 17.4923C56.7031 17.5651 56.7621 17.6521 56.8024 17.748C56.8427 17.8439 56.8634 17.9469 56.8634 18.051V56.8841C56.8634 56.9881 56.8427 57.0912 56.8024 57.1871C56.7621 57.2831 56.7031 57.37 56.6288 57.4429C56.5545 57.5157 56.4664 57.573 56.3697 57.6114C56.2729 57.6497 56.1695 57.6684 56.0655 57.6664Z" fill="#0C4E98"/>
<path d="M56.0663 50.2504C55.892 50.2515 55.722 50.1966 55.5813 50.0939L48.525 44.7117H43.0333C42.8258 44.7117 42.6268 44.6293 42.4801 44.4826C42.3334 44.3359 42.251 44.1369 42.251 43.9294C42.251 43.7219 42.3334 43.523 42.4801 43.3763C42.6268 43.2296 42.8258 43.1471 43.0333 43.1471H48.8535C49.0281 43.1437 49.1989 43.1988 49.3386 43.3036L56.6139 48.8422C56.6966 48.9037 56.7661 48.9812 56.8182 49.0702C56.8703 49.1591 56.904 49.2576 56.9171 49.3599C56.9303 49.4621 56.9227 49.566 56.8947 49.6652C56.8668 49.7645 56.8192 49.857 56.7547 49.9374C56.678 50.0292 56.5823 50.1033 56.4743 50.1546C56.3663 50.2059 56.2484 50.2332 56.1289 50.2347" fill="#0C4E98"/>
<path d="M67.7061 67.7418C67.4986 67.7418 67.2996 67.6593 67.1529 67.5126C67.0062 67.3659 66.9238 67.167 66.9238 66.9595V58.7141L59.2104 52.7843C59.0444 52.6598 58.9347 52.4745 58.9053 52.2691C58.876 52.0637 58.9295 51.8551 59.0539 51.6891C59.1836 51.5254 59.3713 51.4179 59.5781 51.3888C59.7849 51.3597 59.9949 51.4112 60.1648 51.5327L68.1911 57.6346C68.2892 57.7066 68.3687 57.8009 68.4232 57.9097C68.4776 58.0185 68.5053 58.1387 68.504 58.2604V66.8969C68.4999 67.1058 68.4141 67.3048 68.2649 67.451C68.1157 67.5973 67.915 67.6792 67.7061 67.6792" fill="#0C4E98"/>
<path d="M69.1618 67.7417H51.701C51.4935 67.7417 51.2945 67.6593 51.1478 67.5125C51.0011 67.3658 50.9187 67.1669 50.9187 66.9594V58.6827L41.9067 51.2197C41.749 51.0848 41.6513 50.8928 41.6352 50.686C41.619 50.4791 41.6858 50.2743 41.8206 50.1166C41.9555 49.959 42.1474 49.8613 42.3543 49.8451C42.5612 49.829 42.7659 49.8957 42.9236 50.0305L52.2173 57.8535C52.3054 57.9255 52.3764 58.0162 52.4251 58.119C52.4738 58.2218 52.499 58.3342 52.4989 58.448V66.271H69.1618C69.2658 66.2689 69.3692 66.2876 69.4659 66.326C69.5627 66.3644 69.6508 66.4217 69.7251 66.4945C69.7994 66.5674 69.8584 66.6543 69.8987 66.7503C69.939 66.8462 69.9597 66.9492 69.9597 67.0533C69.9556 67.2622 69.8697 67.4611 69.7205 67.6074C69.5713 67.7537 69.3707 67.8356 69.1618 67.8356" fill="#0C4E98"/>
<path d="M39.6218 68.4301C39.4826 68.432 39.3454 68.3968 39.2244 68.3281C39.1034 68.2593 39.0029 68.1595 38.9333 68.0389L32.4872 56.6957C32.3856 56.5131 32.3606 56.2976 32.4178 56.0966C32.475 55.8957 32.6097 55.7256 32.7923 55.6239C32.9749 55.5223 33.1904 55.4973 33.3914 55.5545C33.5924 55.6117 33.7624 55.7465 33.8641 55.9291L40.3102 67.2723C40.3754 67.3916 40.4085 67.5258 40.4061 67.6618C40.4036 67.7977 40.3658 67.9308 40.2963 68.0476C40.2268 68.1645 40.128 68.2612 40.0097 68.3283C39.8915 68.3954 39.7577 68.4305 39.6218 68.4301Z" fill="#0C4E98"/>
<path d="M0.789319 68.4302C0.653338 68.4306 0.519612 68.3955 0.401323 68.3284C0.283034 68.2614 0.184264 68.1647 0.114767 68.0478C0.0452706 67.9309 0.00744034 67.7979 0.005008 67.6619C0.00257566 67.526 0.0356252 67.3917 0.100897 67.2725L6.547 55.9292C6.65189 55.7478 6.8239 55.615 7.02588 55.5594C7.22787 55.5038 7.44363 55.5298 7.62657 55.6319C7.80379 55.7367 7.93367 55.9058 7.98907 56.1041C8.04447 56.3024 8.02109 56.5144 7.92383 56.6958L1.47774 68.0391C1.40816 68.1596 1.30769 68.2594 1.18667 68.3282C1.06566 68.397 0.928488 68.4322 0.789319 68.4302Z" fill="#0C4E98"/>
<path d="M37.1502 64.8631H2.22859C2.01965 64.8631 1.81903 64.7812 1.66983 64.6349C1.52063 64.4887 1.43476 64.2897 1.43066 64.0808C1.43064 63.9767 1.45138 63.8737 1.49167 63.7777C1.53196 63.6818 1.59099 63.5949 1.66529 63.522C1.7396 63.4492 1.82769 63.3919 1.92442 63.3535C2.02115 63.3151 2.12455 63.2964 2.22859 63.2985H37.1502C37.2542 63.2964 37.3576 63.3151 37.4544 63.3535C37.5511 63.3919 37.6392 63.4492 37.7135 63.522C37.7878 63.5949 37.8468 63.6818 37.8871 63.7777C37.9274 63.8737 37.9481 63.9767 37.9481 64.0808C37.944 64.2897 37.8582 64.4887 37.709 64.6349C37.5598 64.7812 37.3591 64.8631 37.1502 64.8631Z" fill="#0C4E98"/>
<path d="M15.0114 8.49094C14.8639 8.49511 14.7186 8.45578 14.5934 8.37788C14.4682 8.29997 14.3687 8.18694 14.3073 8.05286L10.8026 1.15303C10.7545 1.06197 10.7253 0.96218 10.7166 0.859571C10.7079 0.756961 10.72 0.653638 10.7521 0.555802C10.7843 0.457965 10.8358 0.367582 10.9036 0.290087C10.9714 0.212593 11.0541 0.149553 11.1468 0.104732C11.2391 0.0563312 11.34 0.0268379 11.4438 0.0179749C11.5476 0.00911184 11.6521 0.0210562 11.7512 0.053117C11.8503 0.0851778 11.942 0.136745 12.0209 0.204715C12.0998 0.272685 12.1644 0.355694 12.2108 0.448943L15.7154 7.36444C15.7608 7.45686 15.7875 7.55733 15.794 7.66009C15.8005 7.76286 15.7866 7.8659 15.7532 7.96329C15.7197 8.06068 15.6674 8.1505 15.5992 8.22762C15.5309 8.30474 15.4482 8.36768 15.3556 8.41273C15.2505 8.47242 15.1321 8.5047 15.0114 8.50661" fill="#0C4E98"/>
<path d="M25.4629 8.49142C25.3421 8.48952 25.2237 8.45724 25.1187 8.39755C25.0261 8.35249 24.9433 8.2896 24.8751 8.21248C24.8069 8.13536 24.7545 8.04549 24.7211 7.9481C24.6877 7.85071 24.6738 7.74772 24.6803 7.64496C24.6867 7.54219 24.7134 7.44168 24.7588 7.34926L28.2635 0.433806C28.3099 0.340557 28.3744 0.257501 28.4534 0.189531C28.5323 0.12156 28.624 0.0700411 28.7231 0.0379803C28.8222 0.00591944 28.9267 -0.00602487 29.0305 0.00283817C29.1342 0.0117012 29.2352 0.0411945 29.3274 0.0895952C29.4201 0.134416 29.5029 0.197456 29.5707 0.274951C29.6385 0.352445 29.69 0.442781 29.7221 0.540617C29.7542 0.638454 29.7663 0.741777 29.7577 0.844386C29.749 0.946996 29.7197 1.04679 29.6716 1.13784L26.167 8.05334C26.1056 8.18742 26.0061 8.30045 25.8809 8.37836C25.7557 8.45626 25.6103 8.49559 25.4629 8.49142Z" fill="#0C4E98"/>
<path d="M26.9648 17.3938H13.8692C13.6617 17.3938 13.4628 17.3114 13.316 17.1647C13.1693 17.018 13.0869 16.819 13.0869 16.6116C13.0869 16.4041 13.1693 16.2051 13.316 16.0584C13.4628 15.9117 13.6617 15.8293 13.8692 15.8293H26.9648C27.0688 15.8272 27.1723 15.8459 27.269 15.8843C27.3657 15.9226 27.4538 15.9799 27.5281 16.0528C27.6024 16.1256 27.6614 16.2126 27.7017 16.3085C27.742 16.4044 27.7628 16.5075 27.7627 16.6116C27.7586 16.8205 27.6728 17.0194 27.5236 17.1657C27.3744 17.312 27.1738 17.3939 26.9648 17.3938Z" fill="#0C4E98"/>
<path d="M32.4089 41.8326C32.2028 41.8165 32.011 41.7212 31.8738 41.5665C31.7366 41.4118 31.6648 41.2099 31.6736 41.0033L33.5824 11.2762C33.6059 11.0716 33.7062 10.8835 33.863 10.7499C34.0198 10.6163 34.2215 10.5472 34.4272 10.5565C34.53 10.5625 34.6306 10.5887 34.7233 10.6336C34.8159 10.6785 34.8988 10.7413 34.9671 10.8184C35.0354 10.8954 35.0879 10.9852 35.1214 11.0826C35.155 11.1799 35.169 11.2829 35.1626 11.3857L33.2538 41.1129C33.2383 41.3108 33.1495 41.4958 33.0048 41.6318C32.8602 41.7678 32.67 41.845 32.4715 41.8482" fill="#0C4E98"/>
<path d="M28.952 50.4686H28.4044C28.1969 50.4686 27.9979 50.3863 27.8512 50.2395C27.7045 50.0928 27.6221 49.8938 27.6221 49.6863C27.6221 49.4789 27.7045 49.2799 27.8512 49.1332C27.9979 48.9865 28.1969 48.9041 28.4044 48.9041H28.952C29.4524 48.9105 29.9371 48.7295 30.3106 48.3964C30.6842 48.0634 30.9195 47.6026 30.9703 47.1048L31.0798 46.0409C31.0914 45.9378 31.1234 45.8382 31.1739 45.7476C31.2244 45.6571 31.2923 45.5774 31.3739 45.5134C31.4554 45.4493 31.5488 45.4021 31.6488 45.3745C31.7487 45.3468 31.8531 45.3394 31.956 45.3525C32.0582 45.3603 32.1579 45.3885 32.249 45.4355C32.3401 45.4825 32.4209 45.5473 32.4866 45.6261C32.5522 45.7049 32.6014 45.796 32.6312 45.8941C32.661 45.9923 32.6708 46.0954 32.66 46.1973L32.5505 47.2613C32.4392 48.1335 32.011 48.9345 31.3475 49.5115C30.6839 50.0885 29.8313 50.4013 28.952 50.3904" fill="#0C4E98"/>
<path d="M32.3779 41.8322H7.95472L0.867145 40.5336C0.763651 40.5167 0.664608 40.4791 0.57591 40.4232C0.487212 40.3672 0.410671 40.294 0.350829 40.2079C0.290986 40.1218 0.249058 40.0245 0.227557 39.9219C0.206055 39.8193 0.205412 39.7133 0.225659 39.6104C0.267318 39.4062 0.387219 39.2265 0.559724 39.1095C0.732228 38.9926 0.943651 38.9477 1.14877 38.9846L8.17377 40.2832H32.2997L39.841 38.8907C39.9428 38.8703 40.0476 38.8704 40.1493 38.8909C40.2511 38.9114 40.3477 38.952 40.4337 39.0103C40.5196 39.0685 40.593 39.1433 40.6498 39.2302C40.7065 39.3171 40.7454 39.4145 40.7641 39.5166C40.801 39.7217 40.7562 39.9331 40.6392 40.1056C40.5223 40.2781 40.3425 40.398 40.1383 40.4397L32.5187 41.8322H32.3779Z" fill="#0C4E98"/>
<path d="M38.5737 25.9365C38.4356 25.9374 38.3 25.8995 38.1825 25.827L33.4888 23.1359H7.04725L2.35349 25.827C2.26341 25.8796 2.16371 25.9138 2.06025 25.9273C1.95679 25.9408 1.85167 25.9335 1.75107 25.9058C1.65048 25.8781 1.55644 25.8305 1.4745 25.7659C1.39255 25.7014 1.32435 25.621 1.27392 25.5297C1.2216 25.4408 1.18776 25.3423 1.17442 25.2401C1.16107 25.1378 1.16849 25.0339 1.19625 24.9345C1.224 24.8352 1.27152 24.7425 1.33594 24.6619C1.40037 24.5814 1.48038 24.5147 1.5712 24.4658L6.5153 21.6808C6.63432 21.6118 6.7689 21.5741 6.90644 21.5713H33.6452C33.7828 21.5741 33.9174 21.6118 34.0364 21.6808L38.9805 24.4658C39.1353 24.5492 39.2575 24.6824 39.3274 24.8438C39.3972 25.0053 39.4106 25.1856 39.3654 25.3556C39.3202 25.5255 39.219 25.6753 39.0782 25.7807C38.9374 25.8861 38.7652 25.941 38.5893 25.9365" fill="#0C4E98"/>
<path d="M8.73709 11.6359C7.11975 11.6346 5.56471 12.2595 4.39798 13.3795C3.23125 14.4996 2.54344 16.0278 2.47875 17.6439L1.58693 46.8547C1.5469 48.0584 1.75237 49.2576 2.19082 50.3793C2.62927 51.501 3.29151 52.5216 4.1372 53.3791C4.98883 54.2441 6.00458 54.9305 7.1249 55.398C8.24523 55.8655 9.44759 56.1046 10.6615 56.1014H29.8121C31.026 56.1046 32.2284 55.8655 33.3487 55.398C34.469 54.9305 35.4848 54.2441 36.3364 53.3791C37.1821 52.5216 37.8443 51.501 38.2828 50.3793C38.7212 49.2576 38.9267 48.0584 38.8867 46.8547L37.9949 17.6439C37.9302 16.0278 37.2424 14.4996 36.0756 13.3795C34.9089 12.2595 33.3539 11.6346 31.7365 11.6359H8.73709ZM29.8121 57.666H10.6615C9.23632 57.6719 7.82449 57.391 6.5101 56.84C5.1957 56.289 4.00562 55.4791 3.0107 54.4586C2.01168 53.4546 1.22956 52.256 0.71282 50.9372C0.196079 49.6184 -0.0442604 48.2076 0.00669515 46.7922L0.898509 17.597C0.975432 15.5741 1.83347 13.6598 3.2923 12.2565C4.75113 10.8531 6.69717 10.0698 8.72145 10.0713H31.7209C33.7452 10.0698 35.6912 10.8531 37.15 12.2565C38.6089 13.6598 39.4669 15.5741 39.5438 17.597L40.4356 46.8078C40.4844 48.2206 40.243 49.6285 39.7263 50.9445C39.2097 52.2604 38.4287 53.4564 37.4316 54.4586C36.4367 55.4791 35.2466 56.289 33.9322 56.84C32.6178 57.391 31.206 57.6719 29.7808 57.666" fill="#0C4E98"/>
<path d="M8.06465 41.833C7.86614 41.8298 7.67598 41.7526 7.53133 41.6166C7.38667 41.4806 7.2979 41.2956 7.28236 41.0977L5.37356 11.3705C5.36721 11.2678 5.38121 11.1647 5.41475 11.0674C5.4483 10.97 5.50074 10.8803 5.56906 10.8032C5.63738 10.7262 5.72023 10.6634 5.81287 10.6185C5.90551 10.5735 6.00612 10.5473 6.10892 10.5413C6.31299 10.5323 6.51273 10.602 6.667 10.7359C6.82127 10.8698 6.91832 11.0577 6.93815 11.261L8.8626 40.9882C8.87133 41.1947 8.79954 41.3966 8.66237 41.5513C8.5252 41.706 8.33335 41.8013 8.12724 41.8174" fill="#0C4E98"/>
<path d="M12.4137 50.4688H11.5062C10.6269 50.4797 9.77434 50.1669 9.11077 49.5899C8.44719 49.0128 8.01899 48.2119 7.9077 47.3396L7.79818 46.2757C7.78742 46.1737 7.79722 46.0706 7.82702 45.9725C7.85681 45.8744 7.90599 45.7832 7.97163 45.7045C8.03728 45.6257 8.11806 45.5609 8.2092 45.5139C8.30034 45.4669 8.39999 45.4386 8.50224 45.4308C8.70922 45.4086 8.9167 45.4682 9.08039 45.5968C9.24408 45.7254 9.35102 45.9129 9.3784 46.1193L9.48792 47.1832C9.53871 47.6811 9.77405 48.1419 10.1476 48.4749C10.5212 48.8079 11.0058 48.989 11.5062 48.9825H12.4137C12.6227 48.9824 12.8233 49.0643 12.9725 49.2106C13.1217 49.3569 13.2076 49.5559 13.2116 49.7648C13.2117 49.8688 13.1909 49.9718 13.1506 50.0678C13.1104 50.1637 13.0513 50.2507 12.977 50.3235C12.9027 50.3964 12.8146 50.4537 12.7179 50.4921C12.6212 50.5304 12.5177 50.5491 12.4137 50.5471" fill="#0C4E98"/>
<path d="M37.6975 2.99904H37.5097L31.7833 1.57526H8.69002L2.96362 2.99904C2.86291 3.02466 2.75811 3.02998 2.65533 3.01465C2.55255 2.99932 2.45385 2.96369 2.365 2.9098C2.27615 2.8559 2.19893 2.78483 2.13784 2.70076C2.07676 2.61669 2.03303 2.5213 2.00922 2.42015C1.98374 2.32043 1.9786 2.2166 1.9941 2.11485C2.0096 2.0131 2.04543 1.91554 2.09945 1.82794C2.15348 1.74033 2.22458 1.66449 2.30854 1.60496C2.39249 1.54542 2.48758 1.50339 2.58812 1.48139L8.40839 0.0419922H8.59613H31.8772H32.0649L37.8852 1.48139C37.9858 1.50339 38.0808 1.54542 38.1648 1.60496C38.2487 1.66449 38.3199 1.74033 38.3739 1.82794C38.4279 1.91554 38.4637 2.0131 38.4792 2.11485C38.4947 2.2166 38.4896 2.32043 38.4641 2.42015C38.4219 2.59106 38.3232 2.74275 38.1841 2.85064C38.0449 2.95853 37.8735 3.01632 37.6975 3.0147" fill="#0C4E98"/>
</svg>
