<svg width="70" height="69" viewBox="0 0 70 69" fill="none" xmlns="http://www.w3.org/2000/svg">
<path d="M58.5313 54.605C58.4052 54.6057 58.2811 54.5734 58.1714 54.5111C58.0801 54.4649 57.9989 54.4008 57.9327 54.3227C57.8665 54.2446 57.8166 54.154 57.7859 54.0563C57.7553 53.9586 57.7446 53.8557 57.7544 53.7538C57.7642 53.6519 57.7942 53.553 57.8428 53.4628C58.521 52.3547 59.3593 51.353 60.3306 50.4901C62.4584 48.3467 65.1025 45.7181 65.3372 41.3529L52.4451 38.6149L39.5685 41.3529C39.8032 45.7181 42.4473 48.3467 44.5752 50.4901C45.5465 51.353 46.3848 52.3547 47.0629 53.4628C47.1115 53.553 47.1416 53.6519 47.1514 53.7538C47.1612 53.8557 47.1504 53.9586 47.1198 54.0563C47.0892 54.154 47.0393 54.2446 46.9731 54.3227C46.9068 54.4008 46.8257 54.4649 46.7343 54.5111C46.5515 54.6051 46.3389 54.6233 46.1428 54.5618C45.9466 54.5003 45.7825 54.3641 45.686 54.1825C45.0658 53.2254 44.3184 52.3569 43.4643 51.601C41.1644 49.2854 37.9883 46.1093 37.9883 40.7271C37.9882 40.5467 38.0505 40.3719 38.1645 40.2322C38.2786 40.0925 38.4374 39.9965 38.6141 39.9605L52.2886 37.0503H52.6171L66.2917 39.9605C66.4684 39.9965 66.6272 40.0925 66.7412 40.2322C66.8552 40.3719 66.9175 40.5467 66.9175 40.7271C66.9175 46.1093 63.7883 49.2854 61.4414 51.601C60.5874 52.3569 59.84 53.2254 59.2197 54.1825C59.1542 54.3089 59.0555 54.415 58.9342 54.4895C58.8129 54.5639 58.6736 54.6038 58.5313 54.605Z" fill="#0C4E98"/>
<path d="M52.4454 52.2738C52.2379 52.2738 52.0389 52.1913 51.8922 52.0446C51.7455 51.8979 51.6631 51.6989 51.6631 51.4915V37.817C51.6994 37.6363 51.7972 37.4737 51.9398 37.3569C52.0824 37.2401 52.261 37.1763 52.4454 37.1763C52.6297 37.1763 52.8084 37.2401 52.951 37.3569C53.0936 37.4737 53.1913 37.6363 53.2277 37.817V51.4915C53.2277 51.5955 53.2069 51.6986 53.1667 51.7945C53.1264 51.8905 53.0674 51.9774 52.993 52.0503C52.9187 52.1231 52.8306 52.1804 52.7339 52.2188C52.6372 52.2571 52.5338 52.2758 52.4297 52.2738" fill="#0C4E98"/>
<path d="M61.5664 40.5401C61.3589 40.5401 61.1599 40.4577 61.0132 40.311C60.8665 40.1643 60.7841 39.9653 60.7841 39.7578V32.5294H44.1212V39.7578C44.1212 39.9653 44.0388 40.1643 43.8921 40.311C43.7454 40.4577 43.5464 40.5401 43.3389 40.5401C43.1315 40.5401 42.9325 40.4577 42.7858 40.311C42.6391 40.1643 42.5566 39.9653 42.5566 39.7578V31.7471C42.5566 31.5397 42.6391 31.3407 42.7858 31.194C42.9325 31.0473 43.1315 30.9648 43.3389 30.9648H61.5664C61.7738 30.9648 61.9729 31.0473 62.1196 31.194C62.2663 31.3407 62.3487 31.5397 62.3487 31.7471V39.7578C62.3487 39.9653 62.2663 40.1643 62.1196 40.311C61.9729 40.4577 61.7738 40.5401 61.5664 40.5401Z" fill="#0C4E98"/>
<path d="M57.0142 32.5293C56.8067 32.5293 56.6077 32.4468 56.461 32.3001C56.3143 32.1534 56.2319 31.9545 56.2319 31.747V26.443H48.6749V31.747C48.6749 31.9545 48.5925 32.1534 48.4458 32.3001C48.2991 32.4468 48.1001 32.5293 47.8926 32.5293C47.6852 32.5293 47.4862 32.4468 47.3395 32.3001C47.1928 32.1534 47.1104 31.9545 47.1104 31.747V25.6607C47.1104 25.4532 47.1928 25.2543 47.3395 25.1076C47.4862 24.9608 47.6852 24.8784 47.8926 24.8784H57.0142C57.2216 24.8784 57.4207 24.9608 57.5674 25.1076C57.7141 25.2543 57.7965 25.4532 57.7965 25.6607V31.747C57.7965 31.9545 57.7141 32.1534 57.5674 32.3001C57.4207 32.4468 57.2216 32.5293 57.0142 32.5293Z" fill="#0C4E98"/>
<path d="M29.6489 68.9993C29.4415 68.9993 29.2425 68.9169 29.0958 68.7702C28.9491 68.6235 28.8667 68.4245 28.8667 68.217V55.3248H0.782294C0.574816 55.3248 0.375848 55.2424 0.22914 55.0957C0.0824313 54.949 0 54.75 0 54.5425C0 54.3351 0.0824313 54.1361 0.22914 53.9893C0.375848 53.8426 0.574816 53.7603 0.782294 53.7603H29.6489C29.8579 53.7602 30.0585 53.8421 30.2077 53.9884C30.3569 54.1347 30.4428 54.3336 30.4469 54.5425V68.217C30.4469 68.3211 30.4262 68.4241 30.3859 68.5201C30.3456 68.616 30.2866 68.703 30.2123 68.7758C30.138 68.8487 30.0499 68.9059 29.9531 68.9443C29.8564 68.9827 29.753 69.0014 29.6489 68.9993Z" fill="#0C4E98"/>
<path d="M58.5312 14.2394H0.782294C0.574816 14.2394 0.375848 14.157 0.22914 14.0103C0.0824313 13.8635 0 13.6646 0 13.4571C0 13.2496 0.0824313 13.0507 0.22914 12.9039C0.375848 12.7572 0.574816 12.6748 0.782294 12.6748H58.5312C58.7387 12.6748 58.9377 12.7572 59.0844 12.9039C59.2311 13.0507 59.3135 13.2496 59.3135 13.4571C59.3135 13.6646 59.2311 13.8635 59.0844 14.0103C58.9377 14.157 58.7387 14.2394 58.5312 14.2394Z" fill="#0C4E98"/>
<path d="M11.4215 20.372H0.782294C0.574816 20.372 0.375848 20.2896 0.22914 20.1429C0.0824313 19.9962 0 19.7972 0 19.5898V13.5035C0 13.296 0.0824313 13.097 0.22914 12.9503C0.375848 12.8036 0.574816 12.7212 0.782294 12.7212C0.989771 12.7212 1.18879 12.8036 1.3355 12.9503C1.4822 13.097 1.56459 13.296 1.56459 13.5035V18.8075H10.6392V13.5035C10.6392 13.296 10.7217 13.097 10.8684 12.9503C11.0151 12.8036 11.214 12.7212 11.4215 12.7212C11.629 12.7212 11.828 12.8036 11.9747 12.9503C12.1214 13.097 12.2038 13.296 12.2038 13.5035V19.5898C12.2038 19.7972 12.1214 19.9962 11.9747 20.1429C11.828 20.2896 11.629 20.372 11.4215 20.372Z" fill="#0C4E98"/>
<path d="M19.0254 37.0815C18.9214 37.0835 18.818 37.0648 18.7213 37.0265C18.6246 36.9881 18.5365 36.9308 18.4622 36.8579C18.3879 36.7851 18.3288 36.6981 18.2885 36.6022C18.2482 36.5062 18.2275 36.4032 18.2275 36.2992V1.34629C18.2639 1.16557 18.3616 1.00299 18.5042 0.886195C18.6468 0.769398 18.8255 0.705566 19.0098 0.705566C19.1942 0.705566 19.3728 0.769398 19.5154 0.886195C19.658 1.00299 19.7558 1.16557 19.7921 1.34629V36.2992C19.7921 36.5066 19.7097 36.7056 19.563 36.8523C19.4163 36.999 19.2173 37.0815 19.0098 37.0815" fill="#0C4E98"/>
<path d="M25.0958 40.1172C24.8883 40.1172 24.6893 40.0348 24.5426 39.8881C24.3959 39.7414 24.3135 39.5424 24.3135 39.3349V1.34675C24.3135 1.13927 24.3959 0.940254 24.5426 0.793545C24.6893 0.646837 24.8883 0.564453 25.0958 0.564453C25.3032 0.564453 25.5022 0.646837 25.6489 0.793545C25.7956 0.940254 25.8781 1.13927 25.8781 1.34675V39.2723C25.8781 39.4798 25.7956 39.6788 25.6489 39.8255C25.5022 39.9722 25.3032 40.0546 25.0958 40.0546" fill="#0C4E98"/>
<path d="M58.5313 18.9327C58.3239 18.9327 58.1249 18.8503 57.9782 18.7036C57.8315 18.5568 57.749 18.3579 57.749 18.1504V11.1098L24.9866 2.17598H19.2289L1.56471 12.4866V13.5505C1.56471 13.758 1.48233 13.957 1.33562 14.1037C1.18891 14.2504 0.989893 14.3328 0.782416 14.3328C0.574938 14.3328 0.37597 14.2504 0.229262 14.1037C0.0825532 13.957 0.000121921 13.758 0.000121921 13.5505V11.9859C-0.0023504 11.8488 0.0328201 11.7135 0.101776 11.5949C0.170732 11.4763 0.270839 11.3789 0.391269 11.3132L18.6187 0.673938C18.7441 0.606564 18.8833 0.569117 19.0255 0.564453H25.0961H25.2995L58.7347 9.68598C58.9015 9.72808 59.0493 9.82503 59.1542 9.96124C59.2592 10.0974 59.3154 10.265 59.3136 10.437V18.0409C59.3136 18.2483 59.2312 18.4473 59.0845 18.594C58.9378 18.7407 58.7388 18.8232 58.5313 18.8232" fill="#0C4E98"/>
<path d="M3.81745 55.3099C3.60997 55.3099 3.411 55.2275 3.2643 55.0808C3.11759 54.9341 3.03516 54.7351 3.03516 54.5276V40.8375C3.03516 40.63 3.11759 40.431 3.2643 40.2843C3.411 40.1376 3.60997 40.0552 3.81745 40.0552H20.5429C20.7491 40.0592 20.9458 40.1429 21.0917 40.2888C21.2375 40.4346 21.3212 40.6312 21.3252 40.8375V48.4413C21.2889 48.6221 21.1911 48.7846 21.0485 48.9014C20.9059 49.0182 20.7272 49.0821 20.5429 49.0821C20.3586 49.0821 20.1799 49.0182 20.0373 48.9014C19.8947 48.7846 19.7969 48.6221 19.7606 48.4413V41.6198H4.6154V54.5119C4.6154 54.7194 4.53297 54.9184 4.38626 55.0651C4.23956 55.2119 4.04059 55.2942 3.83311 55.2942" fill="#0C4E98"/>
<path d="M26.6136 55.3097C26.4061 55.3097 26.2072 55.2273 26.0605 55.0806C25.9138 54.9339 25.8313 54.7349 25.8313 54.5274V44.6862H20.543C20.3623 44.6498 20.1998 44.5521 20.083 44.4095C19.9662 44.2669 19.9023 44.0882 19.9023 43.9039C19.9023 43.7195 19.9662 43.5409 20.083 43.3983C20.1998 43.2557 20.3623 43.1579 20.543 43.1216H26.6136C26.8211 43.1216 27.0201 43.204 27.1668 43.3507C27.3135 43.4974 27.3959 43.6964 27.3959 43.9039V54.5431C27.3959 54.7506 27.3135 54.9495 27.1668 55.0963C27.0201 55.243 26.8211 55.3254 26.6136 55.3254" fill="#0C4E98"/>
<path d="M9.90436 49.2385C9.69689 49.2385 9.49792 49.1561 9.35121 49.0094C9.2045 48.8627 9.12207 48.6637 9.12207 48.4563V46.8917C9.12207 46.6842 9.2045 46.4852 9.35121 46.3385C9.49792 46.1918 9.69689 46.1094 9.90436 46.1094C10.1118 46.1094 10.3108 46.1918 10.4575 46.3385C10.6042 46.4852 10.6867 46.6842 10.6867 46.8917V48.4563C10.6867 48.6637 10.6042 48.8627 10.4575 49.0094C10.3108 49.1561 10.1118 49.2385 9.90436 49.2385Z" fill="#0C4E98"/>
<path d="M14.4571 49.2385C14.2496 49.2385 14.0507 49.1561 13.9039 49.0094C13.7572 48.8627 13.6748 48.6637 13.6748 48.4563V46.8917C13.6748 46.6842 13.7572 46.4852 13.9039 46.3385C14.0507 46.1918 14.2496 46.1094 14.4571 46.1094C14.6646 46.1094 14.8635 46.1918 15.0103 46.3385C15.157 46.4852 15.2394 46.6842 15.2394 46.8917V48.4563C15.2394 48.6637 15.157 48.8627 15.0103 49.0094C14.8635 49.1561 14.6646 49.2385 14.4571 49.2385Z" fill="#0C4E98"/>
<path d="M52.445 60.7856C51.613 60.7895 50.794 60.5793 50.0668 60.1753L48.6586 59.3774C48.1615 59.1077 47.6049 58.9664 47.0393 58.9664C46.4737 58.9664 45.9171 59.1077 45.42 59.3774L44.0118 60.1753C43.2801 60.5752 42.4597 60.7848 41.6258 60.7848C40.792 60.7848 39.9715 60.5752 39.2398 60.1753L37.8317 59.3774C37.2208 59.0429 36.521 58.9062 35.8291 58.9863C35.7263 58.9986 35.6221 58.9906 35.5225 58.9627C35.4229 58.9347 35.3298 58.8874 35.2484 58.8235C35.167 58.7596 35.099 58.6803 35.0483 58.5901C34.9976 58.4999 34.9652 58.4006 34.9529 58.2979C34.9406 58.1951 34.9485 58.091 34.9765 57.9913C35.0044 57.8917 35.0517 57.7986 35.1156 57.7172C35.1795 57.6359 35.2589 57.5679 35.349 57.5172C35.4392 57.4665 35.5386 57.434 35.6413 57.4217C36.6636 57.2925 37.7003 57.4955 38.5984 58.0006L40.0065 58.7829C40.5036 59.0527 41.0602 59.1939 41.6258 59.1939C42.1914 59.1939 42.7481 59.0527 43.2452 58.7829L44.6533 58.0006C45.385 57.6007 46.2055 57.3911 47.0393 57.3911C47.8731 57.3911 48.6936 57.6007 49.4253 58.0006L50.8334 58.7829C51.3306 59.0527 51.8872 59.1939 52.4528 59.1939C53.0184 59.1939 53.575 59.0527 54.0721 58.7829L55.4803 58.0006C56.212 57.6007 57.0324 57.3911 57.8662 57.3911C58.7001 57.3911 59.5205 57.6007 60.2522 58.0006L61.6604 58.7829C62.1575 59.0527 62.7141 59.1939 63.2797 59.1939C63.8453 59.1939 64.4019 59.0527 64.8991 58.7829L66.3072 58.0006C67.2056 57.4965 68.242 57.2936 69.2643 57.4217C69.367 57.434 69.4663 57.4665 69.5565 57.5172C69.6467 57.5679 69.726 57.6359 69.7899 57.7172C69.8538 57.7986 69.9011 57.8917 69.9291 57.9913C69.957 58.091 69.965 58.1951 69.9527 58.2979C69.9404 58.4006 69.9079 58.4999 69.8572 58.5901C69.8065 58.6803 69.7385 58.7596 69.6572 58.8235C69.5758 58.8874 69.4827 58.9347 69.383 58.9627C69.2834 58.9906 69.1793 58.9986 69.0765 58.9863C68.3846 58.9062 67.6848 59.0429 67.0739 59.3774L65.6657 60.1753C64.934 60.5752 64.1135 60.7848 63.2797 60.7848C62.4459 60.7848 61.6254 60.5752 60.8937 60.1753L59.4856 59.3774C58.9885 59.1077 58.4318 58.9664 57.8662 58.9664C57.3007 58.9664 56.744 59.1077 56.2469 59.3774L54.8388 60.1753C54.1066 60.5813 53.2821 60.7915 52.445 60.7856Z" fill="#0C4E98"/>
<path d="M52.445 66.8559C51.613 66.8598 50.794 66.6497 50.0668 66.2457L48.6586 65.4478C48.159 65.186 47.6033 65.0492 47.0393 65.0492C46.4752 65.0492 45.9196 65.186 45.42 65.4478L44.0118 66.2457C43.2801 66.6456 42.4597 66.8551 41.6258 66.8551C40.792 66.8551 39.9715 66.6456 39.2398 66.2457L37.8317 65.4478C37.2219 65.1104 36.5196 64.9787 35.829 65.0723C35.6216 65.0972 35.4127 65.0386 35.2484 64.9095C35.0841 64.7804 34.9778 64.5913 34.9529 64.3838C34.928 64.1764 34.9865 63.9675 35.1156 63.8032C35.2447 63.6389 35.4338 63.5326 35.6413 63.5077C36.663 63.3934 37.6951 63.5955 38.5983 64.0866L40.0065 64.8845C40.5049 65.1502 41.061 65.2892 41.6258 65.2892C42.1906 65.2892 42.7468 65.1502 43.2452 64.8845L44.6533 64.0866C45.385 63.6867 46.2054 63.4772 47.0393 63.4772C47.8731 63.4772 48.6936 63.6867 49.4253 64.0866L50.8334 64.8845C51.3318 65.1502 51.888 65.2892 52.4528 65.2892C53.0176 65.2892 53.5737 65.1502 54.0721 64.8845L55.4803 64.0866C56.212 63.6867 57.0324 63.4772 57.8662 63.4772C58.7001 63.4772 59.5205 63.6867 60.2522 64.0866L61.6604 64.8845C62.16 65.1463 62.7156 65.2831 63.2797 65.2831C63.8438 65.2831 64.3994 65.1463 64.8991 64.8845L66.3072 64.0866C67.2111 63.5974 68.2426 63.3955 69.2643 63.5077C69.4706 63.5351 69.6581 63.642 69.7867 63.8057C69.9153 63.9694 69.9749 64.1769 69.9527 64.3838C69.9216 64.5885 69.8137 64.7737 69.6509 64.9016C69.4881 65.0295 69.2827 65.0905 69.0765 65.0723C68.386 64.9787 67.6836 65.1104 67.0739 65.4478L65.6657 66.2457C64.934 66.6456 64.1135 66.8551 63.2797 66.8551C62.4459 66.8551 61.6254 66.6456 60.8937 66.2457L59.4856 65.4478C58.986 65.186 58.4303 65.0492 57.8662 65.0492C57.3022 65.0492 56.7465 65.186 56.2469 65.4478L54.8388 66.2457C54.1066 66.6516 53.2821 66.8618 52.445 66.8559Z" fill="#0C4E98"/>
</svg>
