<svg width="73" height="76" viewBox="0 0 73 76" fill="none" xmlns="http://www.w3.org/2000/svg">
<path d="M13.448 50.6257C6.9591 50.6257 0.0322266 48.6304 0.0322266 44.9317C0.0322266 44.7166 0.117645 44.5103 0.269758 44.3582C0.421871 44.206 0.628218 44.1206 0.843338 44.1206C0.949104 44.1206 1.0538 44.1417 1.15132 44.1826C1.24883 44.2236 1.3372 44.2836 1.41123 44.3591C1.48525 44.4347 1.54344 44.5242 1.58242 44.6225C1.6214 44.7208 1.64037 44.826 1.63821 44.9317C1.63821 46.8622 6.50488 49.0359 13.448 49.0359C14.7496 49.0383 16.0501 48.957 17.3413 48.7926C17.4478 48.7787 17.556 48.786 17.6597 48.814C17.7635 48.8419 17.8606 48.8901 17.9457 48.9556C18.0309 49.0211 18.1022 49.1028 18.1558 49.1959C18.2094 49.289 18.244 49.3917 18.2579 49.4983C18.2717 49.6048 18.2645 49.713 18.2365 49.8167C18.2085 49.9204 18.1604 50.0176 18.0949 50.1027C18.0293 50.1878 17.9477 50.2592 17.8546 50.3127C17.7615 50.3663 17.6587 50.401 17.5522 50.4148C16.1914 50.5922 14.8203 50.6789 13.448 50.6744" fill="#0C4E98"/>
<path d="M32.3801 35.9124H30.9687C30.7579 35.8959 30.5614 35.7993 30.4196 35.6424C30.2778 35.4855 30.2015 35.2803 30.2063 35.0689C30.2083 34.9638 30.2315 34.8602 30.2746 34.7643C30.3177 34.6684 30.3798 34.5822 30.4571 34.511C30.5344 34.4397 30.6254 34.3849 30.7245 34.3497C30.8235 34.3146 30.9287 34.2999 31.0336 34.3064H32.3801C39.3394 34.3064 44.2061 32.1489 44.2061 30.2022C44.2061 29.9871 44.2915 29.7808 44.4436 29.6287C44.5958 29.4766 44.8021 29.3911 45.0172 29.3911C45.2323 29.3911 45.4386 29.4766 45.5907 29.6287C45.7428 29.7808 45.8283 29.9871 45.8283 30.2022C45.8283 33.9009 38.9176 35.8962 32.4125 35.8962" fill="#0C4E98"/>
<path d="M9.81448 58.591H9.73334C3.84467 57.8935 0 55.736 0 53.0917V36.7559C0 36.5408 0.0854679 36.3345 0.237581 36.1824C0.389694 36.0303 0.595991 35.9448 0.811112 35.9448C1.02623 35.9448 1.23258 36.0303 1.38469 36.1824C1.5368 36.3345 1.62222 36.5408 1.62222 36.7559V53.0917C1.62222 54.5193 4.50977 56.3362 9.87933 57.0013C9.98403 57.0133 10.0853 57.046 10.1773 57.0975C10.2692 57.1491 10.35 57.2184 10.4149 57.3014C10.4798 57.3844 10.5275 57.4795 10.5553 57.5812C10.5832 57.6828 10.5905 57.789 10.5769 57.8935C10.5531 58.087 10.4589 58.265 10.3123 58.3937C10.1658 58.5223 9.97699 58.5925 9.782 58.591" fill="#0C4E98"/>
<path d="M32.3796 9.76256C25.4203 9.76256 20.5698 11.9363 20.5698 13.8668C20.5698 15.7972 25.4365 17.971 32.3796 17.971C39.3227 17.971 44.2705 15.8135 44.2705 13.9479C44.2705 12.0823 39.4038 9.84368 32.4445 9.84368M32.4445 19.6581C25.9556 19.6581 19.0449 17.6628 19.0449 13.9479C19.0449 10.233 25.9556 8.25391 32.4445 8.25391C38.9333 8.25391 45.8602 10.2492 45.8602 13.9479C45.8602 17.6466 38.9496 19.6581 32.4445 19.6581Z" fill="#0C4E98"/>
<path d="M32.38 27.7528C25.8912 27.7528 18.9805 25.7412 18.9805 22.0426C18.9805 21.8274 19.0659 21.6211 19.218 21.469C19.3702 21.3169 19.5765 21.2314 19.7916 21.2314C20.0067 21.2314 20.213 21.3169 20.3651 21.469C20.5172 21.6211 20.6027 21.8274 20.6027 22.0426C20.6027 23.9892 25.4694 26.1468 32.4125 26.1468C39.3556 26.1468 44.2709 23.9892 44.2709 22.0588C44.2709 21.8436 44.3563 21.6374 44.5085 21.4852C44.6606 21.3331 44.8669 21.2477 45.082 21.2477C45.2972 21.2477 45.5035 21.3331 45.6556 21.4852C45.8077 21.6374 45.8931 21.8436 45.8931 22.0588C45.8931 25.7574 38.9825 27.769 32.4774 27.769" fill="#0C4E98"/>
<path d="M13.448 32.6514C6.48866 32.6514 1.63821 34.8089 1.63821 36.7556C1.63821 38.7022 6.50488 40.8598 13.448 40.8598C20.3911 40.8598 25.2578 38.7022 25.2578 36.7556C25.2578 34.8089 20.3911 32.6514 13.448 32.6514ZM13.448 42.3847C6.9591 42.3847 0.0322266 40.3894 0.0322266 36.6907C0.0322266 32.992 6.94288 30.9805 13.448 30.9805C19.9531 30.9805 26.8638 32.992 26.8638 36.6907C26.8638 40.3894 19.9531 42.3847 13.448 42.3847Z" fill="#0C4E98"/>
<path d="M19.7753 28.012C19.5645 28.012 19.3624 27.9283 19.2133 27.7792C19.0642 27.6301 18.9805 27.4279 18.9805 27.2171V13.9473C18.9805 13.7322 19.0659 13.5259 19.218 13.3738C19.3702 13.2217 19.5765 13.1362 19.7916 13.1362C20.0067 13.1362 20.213 13.2217 20.3651 13.3738C20.5172 13.5259 20.6027 13.7322 20.6027 13.9473V27.2982C20.6027 27.509 20.5189 27.7112 20.3699 27.8603C20.2208 28.0094 20.0186 28.0931 19.8078 28.0931" fill="#0C4E98"/>
<path d="M26.0855 45.2077C25.9798 45.2099 25.8747 45.1909 25.7764 45.1519C25.678 45.113 25.5885 45.0547 25.5129 44.9807C25.4374 44.9067 25.3774 44.8183 25.3364 44.7208C25.2955 44.6233 25.2744 44.5186 25.2744 44.4128V36.7559C25.2744 36.5408 25.3598 36.3345 25.5119 36.1824C25.6641 36.0303 25.8704 35.9448 26.0855 35.9448C26.3006 35.9448 26.5069 36.0303 26.6591 36.1824C26.8112 36.3345 26.8966 36.5408 26.8966 36.7559V44.4128C26.8966 44.6236 26.8129 44.8258 26.6638 44.9749C26.5147 45.124 26.3125 45.2077 26.1017 45.2077" fill="#0C4E98"/>
<path d="M45.0006 38.4757C44.7882 38.4758 44.5843 38.3926 44.4326 38.2439C44.281 38.0953 44.1937 37.8932 44.1895 37.6809V13.9477C44.1937 13.7354 44.281 13.5333 44.4326 13.3846C44.5843 13.236 44.7882 13.1528 45.0006 13.1528C45.2114 13.1528 45.4136 13.2366 45.5627 13.3857C45.7117 13.5347 45.7954 13.7369 45.7954 13.9477V37.762C45.7954 37.9728 45.7117 38.175 45.5627 38.324C45.4136 38.4731 45.2114 38.5569 45.0006 38.5569" fill="#0C4E98"/>
<path d="M15.8493 66.6538L31.5848 73.1427V63.9772L15.8493 57.4883V66.6538ZM32.3797 75.1381H32.0877L14.7461 67.9841C14.598 67.9232 14.4712 67.8199 14.3817 67.6871C14.2922 67.5543 14.244 67.398 14.2432 67.2379V56.4176C14.2415 56.2856 14.2733 56.1553 14.3357 56.039C14.3981 55.9226 14.4891 55.824 14.6001 55.7525C14.7088 55.6799 14.8334 55.6346 14.9633 55.6205C15.0932 55.6064 15.2247 55.6238 15.3464 55.6714L32.6879 62.7605C32.8347 62.8185 32.961 62.9189 33.0506 63.0489C33.1402 63.1789 33.189 63.3327 33.1908 63.4905V74.3919C33.1897 74.5234 33.1566 74.6526 33.0944 74.7685C33.0323 74.8843 32.9429 74.9834 32.8339 75.057C32.7006 75.1483 32.5412 75.1938 32.3797 75.1868" fill="#0C4E98"/>
<path d="M32.3795 75.1377C32.1971 75.1362 32.0207 75.0721 31.88 74.956C31.7393 74.84 31.6427 74.6791 31.6066 74.5003C31.5704 74.3215 31.5969 74.1357 31.6815 73.9741C31.7661 73.8125 31.9037 73.6849 32.0712 73.6128L46.2494 67.4808C46.3487 67.4204 46.4598 67.3821 46.5752 67.3684C46.6905 67.3548 46.8074 67.366 46.918 67.4015C47.0287 67.4369 47.1304 67.4956 47.2164 67.5738C47.3023 67.6519 47.3705 67.7476 47.4163 67.8544C47.462 67.9612 47.4843 68.0765 47.4816 68.1927C47.4789 68.3088 47.4513 68.423 47.4006 68.5275C47.35 68.6321 47.2775 68.7245 47.188 68.7986C47.0986 68.8727 46.9942 68.9267 46.8821 68.957L32.7039 75.0728C32.5971 75.0971 32.4862 75.0971 32.3795 75.0728" fill="#0C4E98"/>
<path d="M59.1786 63.5711C59.0226 63.5706 58.8702 63.5242 58.7404 63.4377C58.6106 63.3511 58.5091 63.2283 58.4486 63.0845C58.3669 62.8885 58.3653 62.6683 58.4441 62.4711C58.523 62.274 58.676 62.1156 58.8704 62.0301L69.4148 57.4716V48.2898L58.4811 53.0105C58.3852 53.052 58.282 53.0743 58.1776 53.076C58.0731 53.0777 57.9694 53.0588 57.8722 53.0204C57.7751 52.9819 57.6864 52.9248 57.6113 52.8521C57.5363 52.7794 57.4762 52.6927 57.4347 52.5968C57.3932 52.501 57.3709 52.3978 57.3692 52.2934C57.3676 52.1889 57.3864 52.0851 57.4248 51.988C57.4632 51.8908 57.5204 51.8022 57.5931 51.7271C57.6658 51.652 57.7525 51.592 57.8484 51.5505L69.9015 46.3918C70.0184 46.3279 70.1494 46.2944 70.2827 46.2944C70.4159 46.2944 70.5471 46.3279 70.664 46.3918C70.771 46.4673 70.859 46.5668 70.9209 46.6822C70.9829 46.7977 71.0171 46.926 71.0208 47.0569V57.9907C71.0182 58.1462 70.971 58.2978 70.8847 58.4272C70.7984 58.5566 70.6767 58.6585 70.5342 58.7207L59.5031 63.4901C59.3955 63.5054 59.2862 63.5054 59.1786 63.4901" fill="#0C4E98"/>
<path d="M32.3794 64.2361C32.2234 64.2356 32.071 64.1891 31.9412 64.1026C31.8114 64.016 31.7099 63.8932 31.6494 63.7494C31.5677 63.5535 31.5661 63.3332 31.6449 63.1361C31.7238 62.9389 31.8768 62.7805 32.0712 62.695L45.0489 57.0983C45.1448 57.0568 45.2479 57.0345 45.3524 57.0328C45.4568 57.0311 45.5606 57.05 45.6577 57.0884C45.7549 57.1268 45.8436 57.184 45.9186 57.2567C45.9937 57.3294 46.0537 57.4161 46.0953 57.512C46.1368 57.6079 46.159 57.711 46.1607 57.8154C46.1624 57.9199 46.1436 58.0237 46.1052 58.1208C46.0668 58.218 46.0095 58.3066 45.9369 58.3817C45.8642 58.4567 45.7775 58.5168 45.6816 58.5583L32.7038 64.1712C32.597 64.1955 32.4862 64.1955 32.3794 64.1712" fill="#0C4E98"/>
<path d="M70.2261 47.8683C70.1241 47.8852 70.0199 47.8852 69.9179 47.8683L52.8197 40.9738L41.0261 46.0027C40.8301 46.0844 40.6099 46.086 40.4127 46.0072C40.2156 45.9283 40.0572 45.7753 39.9716 45.5809C39.8899 45.3849 39.8883 45.1647 39.9672 44.9676C40.046 44.7704 40.1991 44.6121 40.3934 44.5265L52.4465 39.3191C52.644 39.238 52.8655 39.238 53.0629 39.3191L70.5181 46.392C70.7114 46.4746 70.8651 46.629 70.9468 46.8227C71.0285 47.0163 71.0319 47.2342 70.9561 47.4303C70.902 47.5797 70.8025 47.7085 70.6716 47.7987C70.5408 47.8889 70.385 47.9359 70.2261 47.9331" fill="#0C4E98"/>
<path d="M15.0702 57.1637C14.9142 57.1632 14.7618 57.1167 14.632 57.0302C14.5022 56.9437 14.4007 56.8208 14.3402 56.677C14.2978 56.5814 14.2752 56.4782 14.2735 56.3736C14.2719 56.2691 14.2913 56.1652 14.3307 56.0683C14.37 55.9714 14.4285 55.8835 14.5026 55.8097C14.5768 55.7359 14.665 55.6778 14.762 55.6388L27.8534 49.9773C28.042 49.9263 28.2426 49.9452 28.4184 50.0304C28.5942 50.1155 28.7334 50.2613 28.8103 50.4408C28.8873 50.6204 28.8968 50.8216 28.8373 51.0077C28.7777 51.1937 28.6529 51.352 28.486 51.4535L15.3947 57.0988C15.2879 57.1232 15.177 57.1232 15.0702 57.0988" fill="#0C4E98"/>
<path d="M28.5835 50.0258L46.8822 57.5691C47.026 57.6341 47.1483 57.7389 47.2345 57.8711C47.3208 58.0033 47.3673 58.1575 47.3688 58.3153V68.6002L58.3838 63.4902V53.2215L39.1279 45.4673L28.5835 50.0258ZM46.5739 70.7253C46.4205 70.7265 46.2695 70.6873 46.136 70.6117C46.0248 70.5366 45.9339 70.435 45.8716 70.3161C45.8093 70.1972 45.7775 70.0647 45.7791 69.9304V58.9318L26.215 50.8206C26.0734 50.7561 25.9534 50.6522 25.8692 50.5213C25.785 50.3905 25.7402 50.2381 25.7402 50.0825C25.7402 49.9269 25.785 49.7746 25.8692 49.6437C25.9534 49.5128 26.0734 49.4089 26.215 49.3444L38.8198 43.91C39.0172 43.8288 39.2387 43.8288 39.4362 43.91L59.5031 52.0211C59.6499 52.0791 59.7761 52.1794 59.8657 52.3095C59.9552 52.4395 60.0041 52.5932 60.006 52.7511V64.1067C60.0029 64.26 59.9573 64.4094 59.8742 64.5383C59.7911 64.6672 59.6738 64.7705 59.5355 64.8366L46.9309 70.6929C46.8185 70.7161 46.7025 70.7161 46.5902 70.6929" fill="#0C4E98"/>
<path d="M65.4888 39.189C65.278 39.189 65.0758 39.1053 64.9267 38.9562C64.7776 38.8072 64.6939 38.605 64.6939 38.3942V18.8139C64.6939 18.6016 64.7771 18.3977 64.9257 18.246C65.0744 18.0944 65.2765 18.007 65.4888 18.0028H70.3555L60.7519 2.38078L51.1321 18.0028H55.9987C56.211 18.007 56.4132 18.0944 56.5618 18.246C56.7105 18.3977 56.7937 18.6016 56.7936 18.8139V26.925C56.7936 27.1401 56.7082 27.3464 56.5561 27.4986C56.404 27.6507 56.1976 27.7361 55.9825 27.7361C55.7674 27.7361 55.5611 27.6507 55.409 27.4986C55.2569 27.3464 55.1714 27.1401 55.1714 26.925V19.5601H49.6559C49.5144 19.5593 49.3755 19.5214 49.2531 19.4502C49.1307 19.3791 49.0291 19.2772 48.9584 19.1546C48.8902 19.0303 48.8545 18.8908 48.8545 18.749C48.8545 18.6073 48.8902 18.4678 48.9584 18.3435L60.0057 0.385456C60.0763 0.267878 60.1762 0.170592 60.2956 0.103047C60.415 0.0355024 60.5498 0 60.687 0C60.8242 0 60.959 0.0355024 61.0784 0.103047C61.1978 0.170592 61.2976 0.267878 61.3683 0.385456L72.3995 18.3435C72.4677 18.4678 72.5034 18.6073 72.5034 18.749C72.5034 18.8908 72.4677 19.0303 72.3995 19.1546C72.3287 19.2772 72.227 19.3791 72.1046 19.4502C71.9823 19.5214 71.8434 19.5593 71.7019 19.5601H66.1864V38.3779C66.1864 38.4823 66.1658 38.5857 66.1259 38.6821C66.0859 38.7786 66.0273 38.8662 65.9535 38.94C65.8797 39.0138 65.7921 39.0723 65.6957 39.1123C65.5992 39.1522 65.4959 39.1728 65.3915 39.1728" fill="#0C4E98"/>
</svg>
