<svg width="80" height="87" viewBox="0 0 80 87" fill="none" xmlns="http://www.w3.org/2000/svg">
<path d="M39.7754 51.9465C30.463 51.9465 22.8584 41.0712 22.8262 27.6987C22.8262 27.4039 22.9433 27.1211 23.1518 26.9126C23.3602 26.7042 23.643 26.587 23.9379 26.587C24.0852 26.5849 24.2315 26.6121 24.3682 26.667C24.505 26.7219 24.6294 26.8035 24.7344 26.9069C24.8393 27.0103 24.9226 27.1336 24.9795 27.2695C25.0364 27.4055 25.0657 27.5514 25.0656 27.6987C25.0656 39.8307 31.6875 49.707 39.7754 49.707C47.8634 49.707 54.4691 39.8307 54.4852 27.6987C54.4894 27.4024 54.6101 27.1197 54.8211 26.9116C55.0322 26.7036 55.3167 26.587 55.613 26.587C55.9078 26.587 56.1906 26.7042 56.399 26.9126C56.6075 27.1211 56.7246 27.4039 56.7246 27.6987C56.7246 41.0712 49.0878 51.9465 39.7754 51.9465Z" fill="#0C4E98"/>
<path d="M19.1369 22.6714C20.0874 23.622 26.6448 24.9593 38.7123 25.0398H40.9357C53.0031 24.9593 59.5444 23.622 60.5272 22.6714C60.5192 22.2295 60.3402 21.808 60.0277 21.4953C59.6493 21.1891 59.2135 20.9616 58.7459 20.826C58.2784 20.6905 57.7885 20.6496 57.3049 20.7059C57.1543 20.7132 57.0038 20.6899 56.8626 20.6372C56.7213 20.5846 56.5923 20.5038 56.4832 20.3997C56.2712 20.1846 56.15 19.8962 56.1449 19.5942V17.1452C56.1449 6.89834 47.6703 2.24213 39.7918 2.24213C35.7124 2.15788 31.7289 3.48383 28.5137 5.9961C26.8796 7.34679 25.5768 9.05408 24.7054 10.9868C23.834 12.9195 23.4172 15.0263 23.487 17.1452V19.6586C23.4818 19.9606 23.3606 20.2491 23.1486 20.4642C22.9253 20.6698 22.6304 20.7797 22.327 20.7703C21.8471 20.714 21.3608 20.7534 20.8962 20.8861C20.4316 21.0189 19.9979 21.2423 19.6202 21.5436C19.4591 21.6971 19.3316 21.8823 19.2457 22.0875C19.1597 22.2927 19.1172 22.5135 19.1207 22.7359M39.8078 27.3438H38.6801C32.6705 27.3438 18.5408 26.8604 17.0424 23.6542C16.9305 23.4235 16.8752 23.1695 16.8813 22.9131C16.8555 22.3676 16.9455 21.8229 17.1454 21.3147C17.3454 20.8065 17.6507 20.3464 18.0413 19.9647C18.9249 19.1473 20.0625 18.6581 21.2636 18.5791V17.1452C21.193 14.6934 21.6831 12.2577 22.6967 10.024C23.7102 7.79032 25.2204 5.81754 27.1121 4.25606C30.7276 1.42949 35.2031 -0.0718116 39.7918 0.00264171C49.0397 0.00264171 58.3843 5.89943 58.3843 17.1452V18.5791C59.5855 18.6581 60.723 19.1473 61.6066 19.9647C61.9927 20.3397 62.2955 20.7916 62.4954 21.2913C62.6952 21.7909 62.7876 22.3271 62.7667 22.8648C62.7764 23.151 62.7097 23.4346 62.5733 23.6865C61.1072 26.9088 47.0258 27.2793 41.0162 27.3277C40.6295 27.3277 40.2268 27.3277 39.8401 27.3277" fill="#0C4E98"/>
<path d="M2.44502 84.073H14.303L13.3847 58.4074L10.1624 59.793C9.63726 60.009 9.09916 60.1919 8.55123 60.3408C7.84672 60.4668 7.18648 60.772 6.63396 61.2269C5.7492 62.1728 5.18539 63.3737 5.02282 64.6586L2.44502 84.073ZM15.3342 86.3124H1.12387C0.964682 86.3117 0.807508 86.2768 0.662968 86.2101C0.518429 86.1434 0.389864 86.0464 0.286045 85.9258C0.176423 85.8083 0.0948687 85.6676 0.0474311 85.5141C-6.50015e-06 85.3607 -0.0120667 85.1985 0.0121775 85.0397L2.76722 64.3686C2.97533 62.6254 3.72478 60.9914 4.91007 59.6963C5.72146 58.932 6.73238 58.4126 7.82624 58.198C8.28607 58.0687 8.73795 57.9127 9.1796 57.7307L13.868 55.7007C14.0336 55.6295 14.2139 55.5997 14.3935 55.6137C14.5732 55.6278 14.7467 55.6853 14.8991 55.7812C15.056 55.8753 15.1869 56.0071 15.2798 56.1647C15.3726 56.3223 15.4246 56.5007 15.4309 56.6835L16.4458 85.1524C16.4532 85.303 16.4299 85.4535 16.3772 85.5947C16.3246 85.736 16.2438 85.865 16.1398 85.9741C15.9266 86.189 15.6369 86.3107 15.3342 86.3124Z" fill="#0C4E98"/>
<path d="M65.0701 84.0728H77.1375L74.5597 64.6584C74.2214 62.1934 72.3685 60.9689 69.4846 59.825L66.0206 58.4072L65.0701 84.0728ZM78.3781 86.3122H63.8778C63.5751 86.3105 63.2854 86.1888 63.0722 85.9739C62.8636 85.7513 62.7484 85.4572 62.75 85.1522L63.7811 56.6833C63.7886 56.5051 63.8389 56.3313 63.9276 56.1766C64.0164 56.0219 64.1411 55.8908 64.2912 55.7944C64.4413 55.698 64.6124 55.6392 64.79 55.6228C64.9676 55.6065 65.1466 55.6331 65.3117 55.7005L70.274 57.7305C73.3191 58.9711 76.2031 60.6467 76.7186 64.3685L79.4737 85.0395C79.4978 85.197 79.4872 85.358 79.4426 85.511C79.3981 85.664 79.3208 85.8055 79.2159 85.9256C79.1077 86.0451 78.9761 86.1411 78.8292 86.2077C78.6823 86.2742 78.5233 86.3098 78.362 86.3122" fill="#0C4E98"/>
<path d="M54.1302 74.6471H25.4357C25.1474 74.6475 24.8699 74.5376 24.6602 74.3399C24.4504 74.1421 24.3244 73.8715 24.3079 73.5837L23.1801 53.4283L16.4616 56.9567C16.1988 57.0934 15.8925 57.1201 15.61 57.031C15.3275 56.9419 15.0919 56.7442 14.9552 56.4814C14.8185 56.2186 14.7917 55.9123 14.8809 55.6298C14.97 55.3473 15.1677 55.1117 15.4305 54.975L23.6796 50.641C23.8447 50.5493 24.0304 50.5012 24.2193 50.5012C24.4082 50.5012 24.5939 50.5493 24.759 50.641C24.9191 50.7345 25.054 50.8654 25.1523 51.0226C25.2505 51.1797 25.3091 51.3584 25.3229 51.5432L26.483 72.3753H53.0668L54.243 51.5432C54.2511 51.357 54.3072 51.176 54.406 51.0178C54.5049 50.8597 54.643 50.7299 54.8069 50.641C54.9691 50.5492 55.1522 50.501 55.3386 50.501C55.5249 50.501 55.7081 50.5492 55.8702 50.641L64.1193 54.975C64.2495 55.0427 64.3649 55.1353 64.4592 55.2477C64.5535 55.36 64.6248 55.4899 64.6689 55.6298C64.7131 55.7697 64.7292 55.9169 64.7165 56.063C64.7037 56.2091 64.6623 56.3513 64.5946 56.4814C64.5269 56.6115 64.4342 56.727 64.3219 56.8213C64.2095 56.9156 64.0797 56.9869 63.9398 57.031C63.7999 57.0751 63.6527 57.0913 63.5066 57.0786C63.3605 57.0658 63.2183 57.0244 63.0882 56.9567L56.3697 53.4283L55.2419 73.5837C55.2256 73.8687 55.1018 74.137 54.8955 74.3344C54.6892 74.5317 54.4157 74.6434 54.1302 74.6471Z" fill="#0C4E98"/>
<path d="M63.3463 86.3117H16.2042C15.9303 86.2788 15.6781 86.1467 15.495 85.9404C15.312 85.7341 15.2109 85.4678 15.2109 85.192C15.2109 84.9162 15.312 84.6499 15.495 84.4436C15.6781 84.2373 15.9303 84.1052 16.2042 84.0723H63.3463C63.6202 84.1052 63.8724 84.2373 64.0555 84.4436C64.2385 84.6499 64.3396 84.9162 64.3396 85.192C64.3396 85.4678 64.2385 85.7341 64.0555 85.9404C63.8724 86.1467 63.6202 86.2788 63.3463 86.3117Z" fill="#0C4E98"/>
<path d="M36.4559 14.2784C36.1568 14.2784 35.87 14.1596 35.6585 13.9481C35.447 13.7366 35.3281 13.4497 35.3281 13.1506V1.46981C35.361 1.19597 35.4932 0.94368 35.6995 0.760657C35.9058 0.577633 36.1721 0.476562 36.4479 0.476562C36.7237 0.476562 36.9899 0.577633 37.1963 0.760657C37.4026 0.94368 37.5347 1.19597 37.5676 1.46981V13.1506C37.5698 13.298 37.5426 13.4442 37.4877 13.581C37.4328 13.7177 37.3512 13.8422 37.2478 13.9471C37.1444 14.0521 37.0211 14.1354 36.8851 14.1923C36.7492 14.2491 36.6033 14.2784 36.4559 14.2784Z" fill="#0C4E98"/>
<path d="M43.1102 14.2784C42.8111 14.2784 42.5243 14.1596 42.3128 13.9481C42.1013 13.7366 41.9824 13.4497 41.9824 13.1506V1.46981C42.0153 1.19597 42.1475 0.94368 42.3538 0.760657C42.5601 0.577633 42.8264 0.476562 43.1022 0.476562C43.378 0.476562 43.6442 0.577633 43.8506 0.760657C44.0569 0.94368 44.189 1.19597 44.2219 1.46981V13.1506C44.2241 13.298 44.1969 13.4442 44.142 13.581C44.0871 13.7177 44.0055 13.8422 43.902 13.9471C43.7986 14.0521 43.6754 14.1354 43.5394 14.1923C43.4035 14.2491 43.2576 14.2784 43.1102 14.2784Z" fill="#0C4E98"/>
</svg>
