<svg width="137" height="137" viewBox="0 0 137 137" fill="none" xmlns="http://www.w3.org/2000/svg">
<g clip-path="url(#clip0_292_5366)">
<path d="M25.5779 92.6175C13.1695 92.6175 0 88.8343 0 81.8448C0 81.3431 0.199187 80.862 0.553865 80.5072C0.908542 80.1525 1.3896 79.9532 1.89119 79.9532C2.39278 79.9532 2.87384 80.1525 3.22852 80.5072C3.5832 80.862 3.78245 81.3431 3.78245 81.8448C3.78245 84.6821 12.27 88.7651 25.5779 88.7651C28.0065 88.7734 30.4331 88.627 32.8431 88.3268C33.3431 88.2742 33.844 88.418 34.2399 88.7279C34.6359 89.0378 34.8959 89.4896 34.9649 89.9877C34.9939 90.2346 34.9739 90.4848 34.9061 90.724C34.8383 90.9632 34.7239 91.1866 34.5697 91.3816C34.4155 91.5765 34.2244 91.7392 34.0073 91.8602C33.7901 91.9812 33.5512 92.0583 33.3043 92.0869C30.742 92.4147 28.1612 92.5764 25.5779 92.5713" fill="white"/>
<path d="M61.0968 65.9279C60.1973 65.9279 59.3209 65.9279 58.4444 65.9279C58.1961 65.9188 57.9519 65.8609 57.7259 65.7575C57.5 65.654 57.2966 65.5071 57.1274 65.325C56.9582 65.1429 56.8265 64.9293 56.7398 64.6963C56.6532 64.4633 56.6133 64.2156 56.6224 63.9672C56.6314 63.7188 56.6893 63.4746 56.7928 63.2486C56.8962 63.0226 57.0432 62.8191 57.2252 62.6499C57.4073 62.4807 57.6208 62.349 57.8538 62.2623C58.0867 62.1756 58.3344 62.1357 58.5828 62.1448C59.4131 62.1448 60.2434 62.1448 61.0968 62.1448C74.4047 62.1448 82.8922 58.0157 82.8922 55.2244C82.8922 54.7228 83.0914 54.2417 83.4461 53.8869C83.8008 53.5322 84.2819 53.3329 84.7834 53.3329C85.285 53.3329 85.7661 53.5322 86.1208 53.8869C86.4755 54.2417 86.6747 54.7228 86.6747 55.2244C86.6747 62.1448 73.5052 65.9971 61.0968 65.9971" fill="white"/>
<path d="M18.7281 107.012H18.5205C7.2653 105.743 0.0693359 101.66 0.0693359 96.6313V67.0121C0.0693359 66.5104 0.268594 66.0293 0.623271 65.6746C0.977948 65.3199 1.45894 65.1206 1.96053 65.1206C2.46212 65.1206 2.94318 65.3199 3.29786 65.6746C3.65253 66.0293 3.85179 66.5104 3.85179 67.0121V96.6082C3.85179 99.0303 9.52554 102.168 19.0048 103.229C19.2532 103.242 19.4964 103.305 19.7207 103.412C19.9449 103.52 20.1458 103.671 20.3118 103.856C20.4777 104.041 20.6056 104.258 20.688 104.492C20.7705 104.727 20.8059 104.976 20.7923 105.224C20.7787 105.472 20.7162 105.716 20.6086 105.94C20.5009 106.164 20.3502 106.365 20.1649 106.531C19.9797 106.697 19.7636 106.825 19.5289 106.908C19.2943 106.99 19.0456 107.025 18.7973 107.012" fill="white"/>
<path d="M61.0965 18.5696C47.7886 18.5696 39.301 22.6988 39.301 25.49C39.301 28.2812 47.7886 32.4103 61.0965 32.4103C74.4044 32.4103 82.8919 28.2581 82.8919 25.49C82.8919 22.7218 74.4044 18.5696 61.0965 18.5696ZM61.0965 36.3319C48.7111 36.3319 35.5186 32.5487 35.5186 25.5592C35.5186 18.5696 48.7111 14.7865 61.0965 14.7865C73.4818 14.7865 86.6744 18.5466 86.6744 25.5592C86.6744 32.5718 73.5049 36.3319 61.0965 36.3319Z" fill="white"/>
<path d="M61.0965 51.0953C48.7111 51.0953 35.5186 47.3122 35.5186 40.3226C35.5186 39.821 35.7178 39.3398 36.0725 38.9851C36.4272 38.6304 36.9082 38.4311 37.4097 38.4311C37.9113 38.4311 38.3924 38.6304 38.7471 38.9851C39.1018 39.3398 39.301 39.821 39.301 40.3226C39.301 43.16 47.7886 47.243 61.0965 47.243C74.4044 47.243 82.8919 43.0908 82.8919 40.3226C82.8919 39.821 83.0912 39.3398 83.4458 38.9851C83.8005 38.6304 84.2816 38.4311 84.7832 38.4311C85.2848 38.4311 85.7658 38.6304 86.1205 38.9851C86.4752 39.3398 86.6744 39.821 86.6744 40.3226C86.6744 47.243 73.5049 51.0953 61.0965 51.0953Z" fill="white"/>
<path d="M25.5779 60.0226C12.27 60.0226 3.78245 64.1517 3.78245 66.9429C3.78245 69.7341 12.27 73.8633 25.5779 73.8633C38.8858 73.8633 47.3733 69.7111 47.3733 66.9429C47.3733 64.1748 38.8858 60.0226 25.5779 60.0226ZM25.5779 77.7848C13.1695 77.7848 0 74.0017 0 67.0121C0 60.0226 13.1695 56.2394 25.5779 56.2394C37.9864 56.2394 51.1559 59.9995 51.1559 67.0121C51.1559 74.0248 37.9864 77.7848 25.5779 77.7848Z" fill="white"/>
<path d="M37.4097 51.6259C36.9082 51.6259 36.4272 51.4266 36.0725 51.0719C35.7178 50.7171 35.5186 50.236 35.5186 49.7343V25.5592C35.5186 25.0575 35.7178 24.5764 36.0725 24.2217C36.4272 23.8669 36.9082 23.6676 37.4097 23.6676C37.9113 23.6676 38.3924 23.8669 38.7471 24.2217C39.1018 24.5764 39.301 25.0575 39.301 25.5592V49.7343C39.301 50.236 39.1018 50.7171 38.7471 51.0719C38.3924 51.4266 37.9113 51.6259 37.4097 51.6259Z" fill="white"/>
<path d="M49.2645 82.7675C49.0152 82.7706 48.7679 82.7238 48.5371 82.6298C48.3062 82.5358 48.0965 82.3966 47.9202 82.2203C47.744 82.0441 47.6048 81.8343 47.5109 81.6034C47.4169 81.3725 47.3701 81.1252 47.3732 80.8759V67.0352C47.3732 66.5335 47.5724 66.0524 47.9271 65.6976C48.2818 65.3429 48.7629 65.1436 49.2645 65.1436C49.766 65.1436 50.2471 65.3429 50.6018 65.6976C50.9565 66.0524 51.1557 66.5335 51.1557 67.0352V80.8759C51.1557 81.3776 50.9565 81.8587 50.6018 82.2134C50.2471 82.5682 49.766 82.7675 49.2645 82.7675Z" fill="white"/>
<path d="M84.7829 70.5646C84.2813 70.5646 83.8002 70.3653 83.4455 70.0106C83.0909 69.6558 82.8916 69.1747 82.8916 68.673V25.5592C82.8916 25.0575 83.0909 24.5764 83.4455 24.2217C83.8002 23.8669 84.2813 23.6676 84.7829 23.6676C85.2845 23.6676 85.7655 23.8669 86.1202 24.2217C86.4749 24.5764 86.6741 25.0575 86.6741 25.5592V68.673C86.6741 69.1747 86.4749 69.6558 86.1202 70.0106C85.7655 70.3653 85.2845 70.5646 84.7829 70.5646Z" fill="white"/>
<path d="M30.4211 120.876L59.205 132.41V116.746L30.4211 105.397V120.876ZM61.0963 137.023C60.8589 137.022 60.6239 136.975 60.4043 136.885L27.838 123.921C27.4837 123.785 27.1792 123.544 26.965 123.231C26.7508 122.918 26.637 122.547 26.6387 122.167V102.56C26.6402 102.251 26.7165 101.947 26.8611 101.673C27.0057 101.4 27.2143 101.166 27.469 100.991C27.7242 100.82 28.0172 100.714 28.3226 100.682C28.628 100.65 28.9366 100.693 29.2218 100.807L61.7882 113.632C62.1443 113.765 62.4506 114.005 62.6653 114.319C62.88 114.633 62.9926 115.005 62.9875 115.385V135.131C62.988 135.441 62.9125 135.746 62.7677 136.019C62.623 136.293 62.4133 136.527 62.1572 136.7C61.8414 136.906 61.4734 137.019 61.0963 137.023Z" fill="white"/>
<path d="M61.0963 137C60.6571 137.001 60.2311 136.849 59.8916 136.571C59.5521 136.292 59.3202 135.904 59.2356 135.473C59.151 135.042 59.2191 134.594 59.4282 134.208C59.6372 133.822 59.9742 133.52 60.3813 133.355L87.0202 122.26C87.474 122.106 87.9693 122.13 88.406 122.327C88.8427 122.525 89.1882 122.88 89.3727 123.323C89.5572 123.765 89.5669 124.261 89.4 124.71C89.233 125.159 88.9018 125.528 88.4732 125.743L61.8344 136.862C61.5987 136.952 61.3486 136.999 61.0963 137Z" fill="white"/>
<path d="M111.538 116.031C111.098 116.032 110.672 115.881 110.333 115.602C109.993 115.323 109.761 114.935 109.677 114.504C109.592 114.073 109.66 113.626 109.869 113.239C110.078 112.853 110.415 112.552 110.823 112.387L130.358 104.244V88.5344L110.361 96.885C109.896 97.0777 109.374 97.0778 108.909 96.8853C108.444 96.6928 108.075 96.3234 107.882 95.8585C107.689 95.3935 107.689 94.871 107.882 94.406C108.074 93.9409 108.443 93.5714 108.908 93.3787L131.534 83.9439C131.823 83.83 132.135 83.7872 132.444 83.8194C132.754 83.8515 133.05 83.9575 133.31 84.1285C133.57 84.2994 133.784 84.5321 133.933 84.8057C134.082 85.0794 134.161 85.3855 134.163 85.6971V105.489C134.161 105.865 134.048 106.231 133.839 106.543C133.629 106.854 133.333 107.098 132.987 107.242L112.229 115.87C111.999 115.978 111.746 116.033 111.491 116.031" fill="white"/>
<path d="M61.0967 117.208C60.7214 117.205 60.3551 117.092 60.0435 116.883C59.7318 116.674 59.4885 116.378 59.3438 116.031C59.2497 115.801 59.2019 115.555 59.2031 115.306C59.2044 115.057 59.2546 114.811 59.351 114.582C59.4474 114.353 59.588 114.145 59.7649 113.97C59.9418 113.795 60.1514 113.657 60.3818 113.563L84.7604 103.413C84.9887 103.315 85.2344 103.264 85.4828 103.262C85.7313 103.26 85.9776 103.308 86.2074 103.402C86.4373 103.497 86.6459 103.636 86.8211 103.812C86.9964 103.988 87.1348 104.198 87.2282 104.428C87.4196 104.89 87.4204 105.409 87.2302 105.872C87.04 106.334 86.6744 106.703 86.2134 106.896L61.8348 117.069C61.5991 117.16 61.3491 117.206 61.0967 117.208Z" fill="white"/>
<path d="M132.156 87.5887C131.927 87.6235 131.694 87.6235 131.465 87.5887L99.4979 75.132L77.541 84.3591C77.0761 84.5519 76.5537 84.552 76.0887 84.3595C75.6237 84.167 75.2543 83.7976 75.0616 83.3326C74.8689 82.8677 74.8688 82.3452 75.0613 81.8801C75.2538 81.4151 75.623 81.0455 76.0879 80.8528L98.7368 71.4181C99.19 71.2461 99.6904 71.2461 100.144 71.4181L132.825 84.1515C133.229 84.3148 133.564 84.6124 133.774 84.9941C133.983 85.3758 134.055 85.8182 133.976 86.2466C133.898 86.675 133.674 87.0631 133.342 87.3454C133.011 87.6278 132.592 87.787 132.156 87.7963" fill="white"/>
<path d="M28.5074 104.428C28.0682 104.429 27.6422 104.278 27.3027 103.999C26.9632 103.72 26.7313 103.332 26.6467 102.901C26.5622 102.47 26.6302 102.023 26.8393 101.636C27.0484 101.25 27.3854 100.948 27.7925 100.783L52.3556 90.5414C52.5858 90.4459 52.8325 90.3968 53.0817 90.3967C53.3308 90.3967 53.5776 90.4457 53.8078 90.541C54.0381 90.6363 54.2473 90.7761 54.4235 90.9523C54.5997 91.1285 54.7396 91.3376 54.835 91.5679C54.9304 91.7981 54.9795 92.0449 54.9795 92.2941C54.9796 92.5433 54.9306 92.7901 54.8353 93.0204C54.74 93.2506 54.6002 93.4599 54.4241 93.6361C54.2479 93.8124 54.0388 93.9522 53.8086 94.0476L29.2455 104.29C29.0104 104.382 28.76 104.429 28.5074 104.428Z" fill="white"/>
<path d="M55.1002 91.0488L88.4738 104.29C88.8219 104.432 89.1197 104.675 89.3292 104.987C89.5387 105.299 89.6504 105.667 89.65 106.043V124.036L109.554 115.132V97.231L73.8051 83.3903L55.1002 91.0488ZM87.7357 128.857C87.3767 128.85 87.0262 128.746 86.7209 128.557C86.4514 128.388 86.2296 128.154 86.0762 127.875C85.9228 127.597 85.843 127.283 85.8444 126.965V107.335L49.3803 92.8481C49.0313 92.7067 48.7324 92.4643 48.522 92.152C48.3116 91.8396 48.1992 91.4716 48.1992 91.095C48.1992 90.7183 48.3116 90.3503 48.522 90.038C48.7324 89.7256 49.0313 89.4832 49.3803 89.3418L73.044 79.4918C73.2657 79.3946 73.5052 79.3445 73.7474 79.3445C73.9895 79.3445 74.2291 79.3946 74.4509 79.4918L112.137 94.1399C112.492 94.2758 112.796 94.5163 113.01 94.8295C113.225 95.1426 113.338 95.5136 113.337 95.8931V116.377C113.336 116.741 113.231 117.097 113.035 117.403C112.839 117.71 112.559 117.954 112.23 118.107L88.4738 128.696C88.2273 128.806 87.9596 128.861 87.6896 128.857" fill="white"/>
<path d="M123.254 71.8564C122.752 71.8564 122.271 71.6571 121.917 71.3024C121.562 70.9476 121.363 70.4665 121.363 69.9648V34.4403C121.363 33.9386 121.562 33.4575 121.917 33.1028C122.271 32.748 122.752 32.5488 123.254 32.5488H131.649L114.397 5.42095L97.1225 32.641H105.495C105.996 32.641 106.477 32.8403 106.832 33.1951C107.187 33.5498 107.386 34.0309 107.386 34.5326V49.3422C107.386 49.5906 107.337 49.8365 107.242 50.066C107.147 50.2955 107.008 50.504 106.832 50.6797C106.656 50.8553 106.448 50.9947 106.218 51.0897C105.989 51.1848 105.743 51.2337 105.495 51.2337C105.246 51.2337 105 51.1848 104.771 51.0897C104.541 50.9947 104.333 50.8553 104.157 50.6797C103.982 50.504 103.842 50.2955 103.747 50.066C103.652 49.8365 103.603 49.5906 103.603 49.3422V36.4242H93.6629C93.3219 36.4261 92.9869 36.3347 92.6942 36.1599C92.4015 35.985 92.1622 35.7334 92.0023 35.4322C91.832 35.142 91.7422 34.8115 91.7422 34.4749C91.7422 34.1384 91.832 33.8079 92.0023 33.5176L112.76 0.96885C112.931 0.702183 113.166 0.482822 113.445 0.33089C113.723 0.178958 114.034 0.0993347 114.351 0.0993347C114.668 0.0993347 114.98 0.178958 115.258 0.33089C115.536 0.482822 115.771 0.702183 115.943 0.96885L136.7 33.5176C136.882 33.8033 136.983 34.1324 136.995 34.4708C137.006 34.8091 136.926 35.1442 136.763 35.4411C136.601 35.7381 136.361 35.9859 136.07 36.1588C135.779 36.3317 135.447 36.4233 135.109 36.4242H125.168V70.0571C125.162 70.5609 124.958 71.042 124.599 71.3961C124.241 71.7501 123.758 71.9487 123.254 71.9486" fill="white"/>
</g>
<defs>
<clipPath id="clip0_292_5366">
<rect width="137" height="137" fill="white"/>
</clipPath>
</defs>
</svg>
