<svg width="86" height="86" viewBox="0 0 86 86" fill="none" xmlns="http://www.w3.org/2000/svg">
<path d="M64.5481 85.8573C64.3686 85.8577 64.192 85.8116 64.0357 85.7235C63.8793 85.6354 63.7484 85.5082 63.6559 85.3544L56.0476 71.8089C55.9196 71.5763 55.8886 71.3026 55.9616 71.0473C56.0345 70.792 56.2054 70.5759 56.437 70.4462C56.5516 70.3805 56.6782 70.3385 56.8093 70.3226C56.9404 70.3067 57.0734 70.3172 57.2004 70.3535C57.3274 70.3898 57.4458 70.4511 57.5488 70.5339C57.6517 70.6167 57.737 70.7193 57.7996 70.8355L65.4241 84.3649C65.5522 84.5974 65.5831 84.8711 65.5102 85.1264C65.4373 85.3817 65.2664 85.5977 65.0348 85.7275C64.888 85.8158 64.7193 85.8607 64.5481 85.8573Z" fill="#0C4E98"/>
<path d="M20.4236 85.8578C20.2524 85.8612 20.0837 85.8163 19.937 85.728C19.7054 85.5982 19.5345 85.3822 19.4616 85.1269C19.3886 84.8716 19.4196 84.5979 19.5476 84.3653L27.1559 70.836C27.2201 70.7192 27.307 70.6163 27.4113 70.5333C27.5157 70.4504 27.6355 70.389 27.7639 70.3528C27.8922 70.3165 28.0264 70.3062 28.1587 70.3223C28.2911 70.3384 28.4189 70.3807 28.5348 70.4466C28.6497 70.5107 28.7507 70.597 28.8318 70.7006C28.913 70.8041 28.9726 70.9228 29.0074 71.0497C29.0421 71.1765 29.0512 71.3091 29.0341 71.4395C29.017 71.57 28.9741 71.6957 28.9079 71.8093L21.2996 85.3711C21.2123 85.5259 21.0848 85.6543 20.9306 85.7427C20.7765 85.8312 20.6014 85.8766 20.4236 85.874" fill="#0C4E98"/>
<path d="M62.3418 81.3802H22.6298C22.363 81.3802 22.1072 81.2743 21.9186 81.0856C21.73 80.897 21.624 80.6412 21.624 80.3745C21.624 80.1077 21.73 79.8519 21.9186 79.6633C22.1072 79.4746 22.363 79.3687 22.6298 79.3687H62.3418C62.6086 79.3687 62.8644 79.4746 63.053 79.6633C63.2416 79.8519 63.3476 80.1077 63.3476 80.3745C63.3476 80.6412 63.2416 80.897 63.053 81.0856C62.8644 81.2743 62.6086 81.3802 62.3418 81.3802Z" fill="#0C4E98"/>
<path d="M72.3187 72.3929C72.0603 72.3896 71.812 72.2915 71.6212 72.1171C71.4349 71.9263 71.3306 71.6701 71.3306 71.4034C71.3306 71.1367 71.4349 70.8805 71.6212 70.6896C77.1692 64.9698 80.9094 57.7424 82.3745 49.9097C83.8397 42.077 82.9649 33.9863 79.8595 26.6478C76.7541 19.3093 71.5556 13.0483 64.9132 8.64648C58.2708 4.24469 50.4789 1.89723 42.5104 1.89723C34.5419 1.89723 26.7499 4.24469 20.1075 8.64648C13.4651 13.0483 8.26667 19.3093 5.16125 26.6478C2.05583 33.9863 1.18108 42.077 2.64623 49.9097C4.11139 57.7424 7.85151 64.9698 13.3996 70.6896C13.4937 70.7831 13.5685 70.8943 13.6195 71.0168C13.6705 71.1393 13.6968 71.2707 13.6968 71.4034C13.6968 71.5361 13.6705 71.6675 13.6195 71.79C13.5685 71.9125 13.4937 72.0237 13.3996 72.1171C13.2087 72.3034 12.9525 72.4077 12.6858 72.4077C12.4191 72.4077 12.1629 72.3034 11.972 72.1171C6.16221 66.1148 2.24845 58.5347 0.719013 50.3223C-0.810427 42.11 0.11217 33.6291 3.37171 25.9377C6.63125 18.2464 12.0834 11.6851 19.048 7.07242C26.0125 2.45978 34.1812 0 42.5347 0C50.8882 0 59.0569 2.45978 66.0214 7.07242C72.986 11.6851 78.4382 18.2464 81.6977 25.9377C84.9572 33.6291 85.8798 42.11 84.3504 50.3223C82.821 58.5347 78.9072 66.1148 73.0974 72.1171C73.0023 72.2145 72.8888 72.292 72.7635 72.3449C72.6381 72.3979 72.5035 72.4252 72.3674 72.4254" fill="#0C4E98"/>
<path d="M42.4862 52.4237C42.2195 52.4237 41.9637 52.3177 41.7751 52.1291C41.5864 51.9405 41.4805 51.6847 41.4805 51.4179V33.3139C41.4805 33.1818 41.5065 33.051 41.557 32.929C41.6076 32.807 41.6817 32.6961 41.7751 32.6027C41.8685 32.5093 41.9793 32.4352 42.1014 32.3847C42.2234 32.3341 42.3542 32.3081 42.4862 32.3081C42.6183 32.3081 42.7491 32.3341 42.8711 32.3847C42.9932 32.4352 43.104 32.5093 43.1974 32.6027C43.2908 32.6961 43.3649 32.807 43.4155 32.929C43.466 33.051 43.492 33.1818 43.492 33.3139V51.4179C43.492 51.6847 43.3861 51.9405 43.1974 52.1291C43.0088 52.3177 42.753 52.4237 42.4862 52.4237Z" fill="#0C4E98"/>
<path d="M46.1032 72.3929H38.8681C38.6013 72.3929 38.3455 72.2869 38.1569 72.0983C37.9683 71.9097 37.8623 71.6539 37.8623 71.3871C37.8623 71.1204 37.9683 70.8645 38.1569 70.6759C38.3455 70.4873 38.6013 70.3813 38.8681 70.3813H46.1032C46.3699 70.3813 46.6258 70.4873 46.8144 70.6759C47.003 70.8645 47.109 71.1204 47.109 71.3871C47.109 71.6539 47.003 71.9097 46.8144 72.0983C46.6258 72.2869 46.3699 72.3929 46.1032 72.3929Z" fill="#0C4E98"/>
<path d="M29.8488 65.0931H24.4306C24.1638 65.0931 23.908 64.9871 23.7194 64.7985C23.5308 64.6099 23.4248 64.3541 23.4248 64.0873C23.4248 63.8206 23.5308 63.5647 23.7194 63.3761C23.908 63.1875 24.1638 63.0815 24.4306 63.0815H29.8488C30.1156 63.0815 30.3714 63.1875 30.56 63.3761C30.7486 63.5647 30.8546 63.8206 30.8546 64.0873C30.8546 64.3541 30.7486 64.6099 30.56 64.7985C30.3714 64.9871 30.1156 65.0931 29.8488 65.0931Z" fill="#0C4E98"/>
<path d="M60.5412 65.0931H55.123C54.8562 65.0931 54.6004 64.9871 54.4118 64.7985C54.2232 64.6099 54.1172 64.3541 54.1172 64.0873C54.1172 63.8206 54.2232 63.5647 54.4118 63.3761C54.6004 63.1875 54.8562 63.0815 55.123 63.0815H60.5412C60.8079 63.0815 61.0638 63.1875 61.2524 63.3761C61.441 63.5647 61.547 63.8206 61.547 64.0873C61.547 64.3541 61.441 64.6099 61.2524 64.7985C61.0638 64.9871 60.8079 65.0931 60.5412 65.0931Z" fill="#0C4E98"/>
<path d="M65.976 52.4242H19.0126C18.7459 52.4242 18.49 52.3182 18.3014 52.1296C18.1128 51.941 18.0068 51.6851 18.0068 51.4184C18.0068 51.1516 18.1128 50.8958 18.3014 50.7072C18.49 50.5186 18.7459 50.4126 19.0126 50.4126H65.976C66.2427 50.4126 66.4985 50.5186 66.6872 50.7072C66.8758 50.8958 66.9817 51.1516 66.9817 51.4184C66.9817 51.6851 66.8758 51.941 66.6872 52.1296C66.4985 52.3182 66.2427 52.4242 65.976 52.4242Z" fill="#0C4E98"/>
<path d="M52.3008 70.3168H62.3424C62.6854 70.3168 63.025 70.2493 63.3419 70.118C63.6588 69.9867 63.9467 69.7944 64.1892 69.5518C64.4317 69.3093 64.6241 69.0214 64.7554 68.7045C64.8866 68.3877 64.9542 68.048 64.9542 67.705V26.0788C64.9542 24.4295 64.3001 22.8475 63.1354 21.6797C61.9707 20.5119 60.3904 19.8538 58.7411 19.8495H26.2966C24.6473 19.8538 23.067 20.5119 21.9023 21.6797C20.7376 22.8475 20.0835 24.4295 20.0835 26.0788V67.705C20.0835 68.3977 20.3587 69.062 20.8485 69.5518C21.3383 70.0416 22.0026 70.3168 22.6953 70.3168H32.7368L34.3591 63.8279C34.4079 63.6078 34.5316 63.4114 34.7091 63.2723C34.8866 63.1333 35.1069 63.0601 35.3324 63.0655H49.754C49.9787 63.0632 50.1975 63.1374 50.3744 63.276C50.5513 63.4146 50.6757 63.6092 50.7273 63.8279L52.3008 70.3168ZM62.3424 72.3284H51.5222C51.2954 72.3314 51.0743 72.2578 50.8947 72.1194C50.715 71.981 50.5875 71.7859 50.5326 71.5659L48.9104 65.077H36.0299L34.4077 71.5659C34.3529 71.7859 34.2253 71.981 34.0457 72.1194C33.866 72.2578 33.6449 72.3314 33.4182 72.3284H22.5979C21.3731 72.3241 20.1996 71.8356 19.3335 70.9695C18.4674 70.1034 17.9789 68.9299 17.9746 67.705V26.0788C17.9789 23.8973 18.8463 21.8061 20.3873 20.262C21.9283 18.718 24.0178 17.8465 26.1993 17.8379H58.6437C60.8252 17.8465 62.9147 18.718 64.4557 20.262C65.9968 21.8061 66.8641 23.8973 66.8684 26.0788V67.705C66.8641 68.9299 66.3757 70.1034 65.5095 70.9695C64.6434 71.8356 63.4699 72.3241 62.2451 72.3284" fill="#0C4E98"/>
<path d="M51.5054 27.0848H33.5312C33.2644 27.0848 33.0086 26.9788 32.82 26.7902C32.6314 26.6016 32.5254 26.3458 32.5254 26.079C32.5254 25.8123 32.6314 25.5564 32.82 25.3678C33.0086 25.1792 33.2644 25.0732 33.5312 25.0732H51.5865C51.8533 25.0732 52.1091 25.1792 52.2977 25.3678C52.4863 25.5564 52.5923 25.8123 52.5923 26.079C52.5923 26.3458 52.4863 26.6016 52.2977 26.7902C52.1091 26.9788 51.8533 27.0848 51.5865 27.0848" fill="#0C4E98"/>
<path d="M65.976 34.3197H19.0126C18.7459 34.3197 18.49 34.2137 18.3014 34.0251C18.1128 33.8365 18.0068 33.5806 18.0068 33.3139C18.0068 33.0472 18.1128 32.7913 18.3014 32.6027C18.49 32.4141 18.7459 32.3081 19.0126 32.3081H65.976C66.2427 32.3081 66.4985 32.4141 66.6872 32.6027C66.8758 32.7913 66.9817 33.0472 66.9817 33.3139C66.9817 33.5806 66.8758 33.8365 66.6872 34.0251C66.4985 34.2137 66.2427 34.3197 65.976 34.3197Z" fill="#0C4E98"/>
</svg>
