<svg width="73" height="69" viewBox="0 0 73 69" fill="none" xmlns="http://www.w3.org/2000/svg">
<path d="M34.092 28.5547H3.20703V30.4791H34.092V28.5547Z" fill="#0C4E98"/>
<path d="M9.16682 34.365L3.05762 66.728L4.94868 67.085L11.0579 34.722L9.16682 34.365Z" fill="#0C4E98"/>
<path d="M24.7672 35.2193H22.8428V32.6377H24.7672V35.2193ZM24.7672 40.3668H22.8428V37.7852H24.7672V40.3668ZM24.7672 45.5142H22.8428V42.9327H24.7672V45.5142ZM24.7672 50.6617H22.8428V48.1271H24.7672V50.6617ZM24.7672 55.8092H22.8428V53.2277H24.7672V55.8092Z" fill="#0C4E98"/>
<path d="M26.3633 22.2025C26.4986 22.2007 26.6327 22.2276 26.7568 22.2816C26.8809 22.3355 26.9921 22.4152 27.083 22.5154C27.4162 22.8778 27.8386 23.1465 28.308 23.2948C28.7775 23.443 29.2776 23.4656 29.7585 23.3603C30.4749 23.196 31.0974 22.7551 31.4901 22.1338C31.8829 21.5124 32.014 20.761 31.855 20.0434C31.8175 19.8996 31.7705 19.7585 31.7142 19.6209C31.6445 19.4413 31.6281 19.2454 31.6669 19.0567C31.7058 18.868 31.7982 18.6945 31.9332 18.557C32.3234 18.1515 32.597 17.6482 32.7252 17.1003C32.8534 16.5524 32.8315 15.98 32.6617 15.4435C32.4919 14.9069 32.1806 14.4261 31.7606 14.0516C31.3405 13.6772 30.8272 13.4229 30.2748 13.3157C30.1082 13.2857 29.952 13.214 29.8207 13.1073C29.6894 13.0006 29.5872 12.8623 29.5238 12.7054C29.1906 11.831 28.5392 11.115 27.7001 10.7008C26.8611 10.2866 25.8964 10.2049 24.9997 10.4721C24.103 10.7394 23.3404 11.3358 22.865 12.1417C22.3895 12.9476 22.2364 13.9035 22.4362 14.8176C22.5012 15.1245 22.6119 15.4199 22.7648 15.6938C22.8534 15.8705 22.8859 16.0702 22.858 16.2659C22.83 16.4617 22.7429 16.6442 22.6083 16.789C22.2904 17.153 22.0501 17.578 21.9022 18.038C21.7542 18.498 21.7017 18.9834 21.7478 19.4645C21.7353 19.8631 21.8014 20.2604 21.9425 20.6334C22.0836 21.0065 22.2968 21.348 22.57 21.6386C22.8431 21.9293 23.1709 22.1632 23.5346 22.3271C23.8982 22.4909 24.2906 22.5815 24.6892 22.5936C24.8866 22.5861 25.0817 22.5492 25.2681 22.4841H25.4402H25.6906L26.0348 22.3746H26.3633M29.1483 25.5038C28.0369 25.5045 26.9613 25.1109 26.113 24.3929H25.7844C25.4729 24.4855 25.1534 24.5484 24.83 24.5807C23.5197 24.5892 22.2585 24.0821 21.3189 23.1688C20.3792 22.2554 19.8364 21.0092 19.8077 19.6991C19.7122 18.4193 20.0543 17.145 20.7778 16.085C20.7009 15.8191 20.6485 15.5468 20.6213 15.2714C20.4508 14.5491 20.428 13.7998 20.5544 13.0685C20.6808 12.3371 20.9537 11.6389 21.3566 11.0157C21.7494 10.3885 22.2628 9.84566 22.8672 9.4186C23.4715 8.99154 24.1546 8.68881 24.877 8.52802C26.1092 8.26312 27.3947 8.41798 28.5288 8.96801C29.6629 9.51804 30.5804 10.4316 31.1353 11.5633C31.9335 11.7837 32.6646 12.1987 33.2631 12.771C33.8616 13.3433 34.3088 14.0552 34.5646 14.8428C34.8204 15.6304 34.8769 16.4691 34.7289 17.2839C34.581 18.0987 34.2332 18.864 33.7169 19.5114C33.7242 19.5581 33.7242 19.6056 33.7169 19.6522C33.8555 20.2554 33.8735 20.88 33.7698 21.4901C33.6662 22.1002 33.4429 22.6838 33.1128 23.2073C32.7827 23.7308 32.3523 24.1839 31.8465 24.5404C31.3406 24.8969 30.7693 25.1499 30.1653 25.2847C29.825 25.3521 29.4794 25.3888 29.1326 25.3943" fill="#0C4E98"/>
<path d="M16.7256 25.3471H8.10475C7.94176 25.3435 7.78222 25.2996 7.64038 25.2192C7.49855 25.1389 7.37884 25.0246 7.29202 24.8866C7.2052 24.7486 7.15397 24.5912 7.1429 24.4286C7.13183 24.2659 7.16127 24.1031 7.22858 23.9546L10.6237 16.9765H9.29383C9.12242 16.979 8.95351 16.9353 8.80485 16.85C8.65618 16.7646 8.53325 16.6408 8.44896 16.4915C8.36089 16.3422 8.31443 16.172 8.31443 15.9987C8.31443 15.8253 8.36089 15.6551 8.44896 15.5058L11.9536 9.90463C11.7656 9.92099 11.5769 9.88124 11.4115 9.79037C11.246 9.6995 11.1112 9.56158 11.0241 9.39411C10.9371 9.22664 10.9016 9.03713 10.9222 8.84951C10.9429 8.66188 11.0187 8.48459 11.1401 8.34004L16.7413 0.376297C16.8351 0.258896 16.9541 0.164119 17.0895 0.0989804C17.2249 0.0338422 17.3733 0 17.5236 0C17.6738 0 17.8222 0.0338422 17.9576 0.0989804C18.093 0.164119 18.2121 0.258896 18.3059 0.376297L22.3268 6.10269L20.7623 7.21354L17.4923 2.66058L13.7529 7.98017C13.9165 7.99589 14.0735 8.05293 14.209 8.14595C14.3446 8.23897 14.4542 8.3649 14.5277 8.51193C14.6012 8.65896 14.6362 8.8223 14.6293 8.98654C14.6224 9.15078 14.5739 9.31054 14.4883 9.45088L10.9836 15.0521H12.1258C12.2888 15.0519 12.4492 15.0936 12.5916 15.173C12.7341 15.2524 12.8538 15.367 12.9393 15.5058C13.016 15.6504 13.0562 15.8116 13.0562 15.9752C13.0562 16.1389 13.016 16.3 12.9393 16.4446L9.66934 23.4226H16.7882L16.7256 25.3471Z" fill="#0C4E98"/>
<path d="M27.9752 16.6636H26.0508V28.883H27.9752V16.6636Z" fill="#0C4E98"/>
<path d="M18.3366 10.2173H16.4121V29.5243H18.3366V10.2173Z" fill="#0C4E98"/>
<path d="M72.0649 66.5269H0V68.4513H72.0649V66.5269Z" fill="#0C4E98"/>
<path d="M24.7673 66.5273H71.0947V62.5063C71.0947 62.1885 71.0319 61.8739 70.9098 61.5806C70.7877 61.2872 70.6089 61.0209 70.3835 60.7969C70.1581 60.573 69.8906 60.3958 69.5965 60.2757C69.3023 60.1555 68.9873 60.0947 68.6696 60.0968H27.1924C26.5519 60.0968 25.9374 60.3501 25.4831 60.8015C25.0287 61.2529 24.7714 61.8658 24.7673 62.5063V66.5273ZM72.0648 68.4673H23.7503C23.6237 68.4694 23.4979 68.4463 23.3803 68.3992C23.2627 68.3522 23.1556 68.2822 23.0653 68.1934C22.975 68.1046 22.9033 67.9986 22.8544 67.8818C22.8054 67.765 22.7803 67.6396 22.7803 67.513V62.5219C22.7844 61.3696 23.244 60.2657 24.0588 59.4508C24.8736 58.636 25.9775 58.1765 27.1298 58.1724H68.607C69.7621 58.1724 70.87 58.6301 71.6882 59.4454C72.5064 60.2606 72.9681 61.3669 72.9722 62.5219V67.513C72.9722 67.6396 72.947 67.765 72.8981 67.8818C72.8492 67.9986 72.7774 68.1046 72.6872 68.1934C72.5969 68.2822 72.4898 68.3522 72.3722 68.3992C72.2546 68.4463 72.1288 68.4694 72.0022 68.4673" fill="#0C4E98"/>
<path d="M65.9948 58.8138L49.1755 12.2986C49.0865 12.0591 48.9265 11.8525 48.7167 11.7066C48.5069 11.5607 48.2575 11.4825 48.002 11.4825C47.7465 11.4825 47.4971 11.5607 47.2873 11.7066C47.0776 11.8525 46.9175 12.0591 46.8286 12.2986L30.0093 58.8138L28.1943 58.1567L45.0606 11.6259C45.2587 10.9881 45.6556 10.4305 46.1932 10.0344C46.7309 9.63842 47.3812 9.4248 48.049 9.4248C48.7167 9.4248 49.367 9.63842 49.9047 10.0344C50.4424 10.4305 50.8393 10.9881 51.0373 11.6259L67.9036 58.1567L65.9948 58.8138Z" fill="#0C4E98"/>
<path d="M38.8022 34.4057L32.669 51.2563L58.8915 39.0369L54.5263 27.0052L38.8022 34.4057ZM30.9792 54.1508C30.7369 54.151 30.5029 54.0618 30.3221 53.9004C30.1624 53.7768 30.0461 53.6056 29.9899 53.4116C29.9337 53.2176 29.9404 53.0108 30.0092 52.8209L37.0655 33.3417C37.1081 33.2217 37.1744 33.1113 37.2604 33.0173C37.3464 32.9232 37.4504 32.8474 37.5662 32.7942L54.6045 24.846C54.7278 24.7917 54.861 24.7637 54.9957 24.7637C55.1303 24.7637 55.2636 24.7917 55.3868 24.846C55.5104 24.8967 55.6219 24.9731 55.7136 25.0702C55.8053 25.1673 55.8753 25.283 55.9188 25.4093L60.9411 39.2559C61.0223 39.483 61.0161 39.7322 60.9235 39.955C60.831 40.1777 60.6587 40.358 60.4404 40.4606L31.3234 54.0412C31.1958 54.1003 31.0573 54.1323 30.9167 54.1351" fill="#0C4E98"/>
</svg>
