<svg width="64" height="86" viewBox="0 0 64 86" fill="none" xmlns="http://www.w3.org/2000/svg">
<path d="M13.8559 20.4294C7.25016 20.4294 2.32005 22.7011 2.32005 24.7151C2.32005 26.729 7.25016 29.0007 13.8559 29.0007C20.4616 29.0007 25.4078 26.7451 25.4078 24.7151C25.4078 22.685 20.381 20.4294 13.8559 20.4294ZM13.8559 31.3208C5.96125 31.3208 0 28.4852 0 24.7151C0 20.945 5.96125 18.1094 13.8559 18.1094C21.7505 18.1094 27.7278 20.9611 27.7278 24.7151C27.7278 28.469 21.7666 31.3208 13.8559 31.3208Z" fill="#0C4E98"/>
<path d="M13.8559 40.4234C5.96125 40.4234 0 37.5878 0 33.8177V24.7469C0 24.4393 0.122206 24.1442 0.339753 23.9267C0.557299 23.7091 0.852369 23.5869 1.16003 23.5869C1.46768 23.5869 1.76275 23.7091 1.9803 23.9267C2.19785 24.1442 2.32005 24.4393 2.32005 24.7469V33.8177C2.32005 35.8477 7.25016 38.1033 13.8559 38.1033C20.4616 38.1033 25.4078 35.8477 25.4078 33.8177V24.7469C25.4078 24.4393 25.53 24.1442 25.7475 23.9267C25.9651 23.7091 26.2602 23.5869 26.5678 23.5869C26.8755 23.5869 27.1705 23.7091 27.388 23.9267C27.6056 24.1442 27.7278 24.4393 27.7278 24.7469V33.8177C27.7278 37.5878 21.7666 40.4234 13.8559 40.4234Z" fill="#0C4E98"/>
<path d="M13.8559 49.4312C5.96125 49.4312 0 46.5956 0 42.8255V33.7547C0 33.4471 0.122206 33.152 0.339753 32.9345C0.557299 32.7169 0.852369 32.5947 1.16003 32.5947C1.46768 32.5947 1.76275 32.7169 1.9803 32.9345C2.19785 33.152 2.32005 33.4471 2.32005 33.7547V42.8255C2.32005 44.8555 7.25016 47.1111 13.8559 47.1111C20.4616 47.1111 25.4078 44.8555 25.4078 42.8255V33.7547C25.4078 33.4471 25.53 33.152 25.7475 32.9345C25.9651 32.7169 26.2602 32.5947 26.5678 32.5947C26.8755 32.5947 27.1705 32.7169 27.388 32.9345C27.6056 33.152 27.7278 33.4471 27.7278 33.7547V42.8255C27.7278 46.5956 21.7666 49.4312 13.8559 49.4312Z" fill="#0C4E98"/>
<path d="M31.9325 31.3038C31.6357 31.3042 31.35 31.1909 31.1342 30.9871C30.9184 30.7833 30.789 30.5045 30.7725 30.2082C30.7616 30.0566 30.781 29.9044 30.8295 29.7604C30.8781 29.6164 30.9549 29.4835 31.0554 29.3695C31.1559 29.2555 31.2781 29.1627 31.4148 29.0964C31.5516 29.0302 31.7002 28.9919 31.852 28.9837C37.7165 28.6293 41.6477 26.5025 41.6477 24.7464V15.6757C41.6477 15.368 41.7699 15.0729 41.9875 14.8554C42.205 14.6378 42.5001 14.5156 42.8077 14.5156C43.1154 14.5156 43.4105 14.6378 43.628 14.8554C43.8456 15.0729 43.9678 15.368 43.9678 15.6757V24.7464C43.9678 28.1781 39.0538 30.8687 31.997 31.3038" fill="#0C4E98"/>
<path d="M30.1127 2.32003C23.507 2.32003 18.5769 4.59175 18.5769 6.60568C18.5769 8.61961 23.507 10.8913 30.1127 10.8913C36.7184 10.8913 41.6485 8.63572 41.6485 6.60568C41.6485 4.57564 36.7184 2.32003 30.1127 2.32003ZM30.1127 13.2114C22.2181 13.2114 16.2568 10.3758 16.2568 6.60568C16.2568 2.8356 22.2181 0 30.1127 0C38.0073 0 43.9686 2.8356 43.9686 6.60568C43.9686 10.3758 38.0073 13.2114 30.1127 13.2114Z" fill="#0C4E98"/>
<path d="M17.4169 15.0316C17.1092 15.0316 16.8142 14.9094 16.5966 14.6919C16.3791 14.4743 16.2568 14.1793 16.2568 13.8716V6.60534C16.2568 6.29768 16.3791 6.00264 16.5966 5.78509C16.8142 5.56754 17.1092 5.44531 17.4169 5.44531C17.7245 5.44531 18.0196 5.56754 18.2371 5.78509C18.4547 6.00264 18.5769 6.29768 18.5769 6.60534V13.8716C18.5727 14.178 18.4492 14.4706 18.2325 14.6872C18.0159 14.9039 17.7232 15.0275 17.4169 15.0316Z" fill="#0C4E98"/>
<path d="M31.2401 22.2657C30.9324 22.2657 30.6374 22.1435 30.4198 21.9259C30.2023 21.7084 30.0801 21.4133 30.0801 21.1056C30.0801 20.798 30.2023 20.5029 30.4198 20.2854C30.6374 20.0679 30.9324 19.9456 31.2401 19.9456C37.3947 19.7039 41.6803 17.5128 41.6803 15.6761V6.60534C41.6803 6.29768 41.8026 6.00264 42.0201 5.78509C42.2376 5.56754 42.5327 5.44531 42.8403 5.44531C43.148 5.44531 43.443 5.56754 43.6606 5.78509C43.8781 6.00264 44.0003 6.29768 44.0003 6.60534V15.6761C44.0003 19.2206 38.6675 21.9757 31.3206 22.2657" fill="#0C4E98"/>
<path d="M31.9164 40.375C31.6224 40.3714 31.3407 40.2563 31.1284 40.0529C30.916 39.8495 30.7888 39.5731 30.7725 39.2795C30.7616 39.1279 30.781 38.9757 30.8295 38.8317C30.8781 38.6877 30.9549 38.5548 31.0554 38.4408C31.1559 38.3268 31.2781 38.234 31.4148 38.1677C31.5516 38.1015 31.7002 38.0632 31.852 38.055C37.7165 37.7005 41.6477 35.5738 41.6477 33.8177V24.7469C41.6477 24.4393 41.7699 24.1442 41.9875 23.9267C42.205 23.7091 42.5001 23.5869 42.8077 23.5869C43.1154 23.5869 43.4105 23.7091 43.628 23.9267C43.8456 24.1442 43.9678 24.4393 43.9678 24.7469V33.8177C43.9678 37.2494 39.0538 39.94 31.997 40.375H31.9164Z" fill="#0C4E98"/>
<path d="M50.0901 71.2936C49.8933 71.2932 49.6998 71.2427 49.5279 71.1468C49.3559 71.051 49.2112 70.913 49.1073 70.7458L36.4115 50.7837C36.3083 50.6049 36.2539 50.4021 36.2539 50.1956C36.2539 49.9892 36.3083 49.7863 36.4115 49.6075C36.5121 49.4267 36.6593 49.276 36.8378 49.1712C37.0163 49.0663 37.2195 49.0112 37.4265 49.0114H41.7122V42.9857C41.7245 42.6808 41.8534 42.3921 42.0722 42.1793C42.291 41.9665 42.5831 41.8457 42.8883 41.8418C43.0399 41.8418 43.19 41.8719 43.3298 41.9304C43.4697 41.9889 43.5965 42.0746 43.7029 42.1825C43.8093 42.2905 43.8933 42.4185 43.9498 42.5592C44.0064 42.6998 44.0344 42.8503 44.0322 43.0019V50.2359C44.0322 50.5436 43.91 50.8386 43.6924 51.0562C43.4749 51.2737 43.1799 51.3959 42.8722 51.3959H39.5532L50.1384 68.039L60.7237 51.3959H57.3564C57.0487 51.3959 56.7537 51.2737 56.5361 51.0562C56.3186 50.8386 56.1964 50.5436 56.1964 50.2359V17.5135C56.1964 17.2059 56.3186 16.9108 56.5361 16.6933C56.7537 16.4757 57.0487 16.3535 57.3564 16.3535C57.664 16.3535 57.9591 16.4757 58.1767 16.6933C58.3942 16.9108 58.5164 17.2059 58.5164 17.5135V49.0114H62.8021C63.009 49.0112 63.2123 49.0663 63.3908 49.1712C63.5693 49.276 63.7165 49.4267 63.8171 49.6075C63.9236 49.7852 63.9798 49.9885 63.9798 50.1956C63.9798 50.4028 63.9236 50.606 63.8171 50.7837L51.1051 70.7458C51.0038 70.9117 50.8619 71.0491 50.6928 71.145C50.5236 71.2408 50.3328 71.2919 50.1384 71.2936" fill="#0C4E98"/>
<path d="M22.8785 85.7931C22.6829 85.7959 22.4898 85.7486 22.3177 85.6555C22.1456 85.5624 22.0003 85.4267 21.8956 85.2614L9.19981 65.2994C9.09332 65.1217 9.03711 64.9184 9.03711 64.7113C9.03711 64.5041 9.09332 64.3009 9.19981 64.1232C9.30042 63.9423 9.44762 63.7917 9.6261 63.6868C9.80458 63.582 10.0079 63.5269 10.2148 63.5271H14.5005V53.8602C14.5005 53.5526 14.6227 53.2575 14.8402 53.0399C15.0578 52.8224 15.3529 52.7002 15.6605 52.7002C15.9682 52.7002 16.2632 52.8224 16.4808 53.0399C16.6983 53.2575 16.8205 53.5526 16.8205 53.8602V64.7355C16.8218 64.8881 16.7926 65.0394 16.7344 65.1805C16.6763 65.3216 16.5906 65.4497 16.4822 65.5572C16.2612 65.7702 15.9674 65.8912 15.6605 65.8955H12.2449L22.8462 82.5225L33.4314 65.8955H30.1286C29.821 65.8955 29.5259 65.7733 29.3083 65.5557C29.0908 65.3382 28.9686 65.0431 28.9686 64.7355V57.3403C28.9686 57.0326 29.0908 56.7376 29.3083 56.52C29.5259 56.3025 29.821 56.1803 30.1286 56.1803C30.4363 56.1803 30.7313 56.3025 30.9489 56.52C31.1664 56.7376 31.2886 57.0326 31.2886 57.3403V63.5754H35.5743C35.7813 63.5752 35.9846 63.6304 36.163 63.7352C36.3415 63.84 36.4887 63.9907 36.5893 64.1715C36.6958 64.3492 36.752 64.5525 36.752 64.7596C36.752 64.9668 36.6958 65.17 36.5893 65.3477L23.8935 85.3098C23.7914 85.4738 23.6489 85.6088 23.4796 85.7019C23.3103 85.795 23.12 85.8431 22.9268 85.8415" fill="#0C4E98"/>
</svg>
