<svg width="97" height="107" viewBox="0 0 97 107" fill="none" xmlns="http://www.w3.org/2000/svg">
<path d="M34.0202 25.75C32.3845 25.75 30.7856 26.235 29.4255 27.1437C28.0655 28.0525 27.0055 29.3441 26.3795 30.8553C25.7536 32.3665 25.5898 34.0294 25.9089 35.6336C26.228 37.2379 27.0157 38.7115 28.1723 39.8681C29.3289 41.0247 30.8025 41.8124 32.4068 42.1315C34.0111 42.4506 35.6739 42.2868 37.1851 41.6609C38.6963 41.0349 39.9879 39.9749 40.8966 38.6149C41.8054 37.2549 42.2904 35.6559 42.2904 34.0202C42.2904 31.8268 41.4191 29.7233 39.8681 28.1723C38.3172 26.6213 36.2136 25.75 34.0202 25.75ZM34.0202 45C31.8429 45.004 29.7134 44.3617 27.9013 43.1546C26.0893 41.9474 24.6762 40.2297 23.8412 38.2189C23.0061 36.208 22.7866 33.9946 23.2104 31.8589C23.6342 29.7233 24.6822 27.7614 26.2218 26.2218C27.7614 24.6822 29.7233 23.6342 31.8589 23.2104C33.9946 22.7866 36.208 23.0061 38.2189 23.8412C40.2297 24.6762 41.9474 26.0893 43.1546 27.9013C44.3617 29.7134 45.004 31.8429 45 34.0202C44.9946 36.9306 43.8361 39.7202 41.7782 41.7782C39.7202 43.8361 36.9306 44.9946 34.0202 45Z" fill="#0C4E98"/>
<path d="M49.5911 64C49.4149 64 49.2404 63.9642 49.0778 63.8948C48.9152 63.8253 48.7678 63.7234 48.6441 63.5952C48.5204 63.467 48.4229 63.315 48.3572 63.1479C48.2916 62.9809 48.2592 62.8022 48.2618 62.6222V55.2467C48.2618 53.7797 47.6911 52.3727 46.6753 51.3353C45.6595 50.298 44.2817 49.7151 42.8451 49.7151H23.996C22.5748 49.7416 21.2204 50.3355 20.2227 51.3694C19.2251 52.4034 18.6637 53.7952 18.6587 55.2467V62.6222C18.6587 62.9822 18.5187 63.3275 18.2694 63.5821C18.0201 63.8367 17.6819 63.9797 17.3293 63.9797C16.9768 63.9797 16.6386 63.8367 16.3893 63.5821C16.14 63.3275 16 62.9822 16 62.6222V55.2467C16 53.0596 16.8508 50.962 18.3652 49.4154C19.8797 47.8689 21.9337 47 24.0754 47H42.9245C45.0662 47 47.1202 47.8689 48.6346 49.4154C50.1491 50.962 50.9999 53.0596 50.9999 55.2467V62.6222C51.0025 62.8022 50.9701 62.9809 50.9044 63.1479C50.8388 63.315 50.7413 63.467 50.6176 63.5952C50.4939 63.7234 50.3465 63.8253 50.1839 63.8948C50.0213 63.9642 49.8468 64 49.6705 64" fill="#0C4E98"/>
<path d="M66.664 77.9802C66.3078 77.9802 65.9659 77.8411 65.7121 77.5928C65.4584 77.3446 65.3132 77.0071 65.308 76.6534V68.7328H2.69204V76.6534C2.65194 76.9799 2.49296 77.2805 2.24499 77.4986C1.99701 77.7166 1.67723 77.837 1.34602 77.837C1.01481 77.837 0.695022 77.7166 0.44705 77.4986C0.199078 77.2805 0.0400914 76.9799 8.3036e-09 76.6534V67.3269C-1.97239e-05 67.151 0.035129 66.9768 0.103516 66.8146C0.171904 66.6523 0.272118 66.5052 0.398304 66.3817C0.524489 66.2582 0.674129 66.1609 0.838538 66.0954C1.00295 66.0299 1.17887 65.9975 1.356 66.0001H66.664C66.8394 66.0001 67.0131 66.0345 67.1752 66.1012C67.3373 66.1679 67.4846 66.2656 67.6087 66.3888C67.7328 66.512 67.8312 66.6582 67.8983 66.8192C67.9655 66.9801 68 67.1527 68 67.3269V76.6733C68 76.8475 67.9655 77.02 67.8983 77.181C67.8312 77.342 67.7328 77.4882 67.6087 77.6114C67.4846 77.7346 67.3373 77.8323 67.1752 77.899C67.0131 77.9656 66.8394 78 66.664 78" fill="#0C4E98"/>
<path d="M7.67032 107C7.31582 107 6.97555 106.862 6.72303 106.616C6.47051 106.37 6.32604 106.035 6.32083 105.685V92.5132L0.486205 87.645C0.337555 87.5185 0.218075 87.362 0.135903 87.1858C0.0537305 87.0097 0.0108029 86.8182 0.00992943 86.6242V77.4964C-0.0131911 77.3088 0.00416885 77.1186 0.0609244 76.9382C0.11768 76.7578 0.21253 76.5914 0.339156 76.4499C0.465781 76.3085 0.621275 76.1952 0.795445 76.1177C0.969616 76.0401 1.15848 76 1.34949 76C1.54049 76 1.72929 76.0401 1.90347 76.1177C2.07764 76.1952 2.23319 76.3085 2.35982 76.4499C2.48644 76.5914 2.58129 76.7578 2.63805 76.9382C2.6948 77.1186 2.71216 77.3088 2.68904 77.4964V86.0157L8.52366 90.8839C8.67231 91.0104 8.79179 91.167 8.87397 91.3431C8.95614 91.5192 8.99913 91.7107 9 91.9047V105.646C9 105.994 8.85987 106.329 8.61051 106.576C8.36115 106.822 8.02296 106.961 7.67032 106.961" fill="#0C4E98"/>
<path d="M60.351 106.96C60.1746 106.963 59.9993 106.931 59.8355 106.866C59.6717 106.8 59.5226 106.703 59.3969 106.58C59.2712 106.457 59.1713 106.311 59.1032 106.149C59.0351 105.987 59 105.814 59 105.638V91.8256C58.9997 91.6333 59.0424 91.4433 59.1248 91.2693C59.2073 91.0953 59.3275 90.9416 59.4769 90.8192L65.3179 85.9058V77.3419C65.3231 76.9876 65.467 76.6492 65.7192 76.3987C65.9715 76.1481 66.3122 76.0051 66.6689 76C67.0238 76.0052 67.3623 76.1488 67.6114 76.3999C67.8604 76.651 68 76.9894 68 77.3419V86.5175C67.9991 86.7125 67.9562 86.905 67.8739 87.082C67.7916 87.259 67.672 87.4164 67.5232 87.5436L61.6821 92.4373V105.678C61.6821 105.852 61.6477 106.023 61.5808 106.184C61.5139 106.344 61.4159 106.49 61.2923 106.613C61.1687 106.735 61.0219 106.833 60.8604 106.899C60.6989 106.966 60.5258 107 60.351 107" fill="#0C4E98"/>
<path d="M50.651 106.96C50.2913 106.96 49.9461 106.819 49.6899 106.567C49.4337 106.315 49.2872 105.972 49.2819 105.613V80.6528H18.7181V105.613C18.7181 105.79 18.6833 105.965 18.6155 106.129C18.5477 106.292 18.4482 106.44 18.323 106.565C18.1977 106.69 18.049 106.79 17.8854 106.857C17.7217 106.925 17.5463 106.96 17.3691 106.96C17.0095 106.96 16.6642 106.819 16.4081 106.567C16.1519 106.315 16.0053 105.972 16 105.613V79.3465C16.0053 78.9876 16.1519 78.6451 16.4081 78.3931C16.6642 78.1412 17.0095 78 17.3691 78H50.651C51.0088 78 51.3519 78.1419 51.6048 78.3944C51.8578 78.6469 52 78.9894 52 79.3465V105.653C52 106.011 51.8578 106.353 51.6048 106.606C51.3519 106.858 51.0088 107 50.651 107" fill="#0C4E98"/>
<path d="M5.25751 63C5.0908 63 4.92575 62.965 4.77197 62.8969C4.61819 62.8288 4.47875 62.729 4.36174 62.6033C4.24474 62.4776 4.15247 62.3286 4.0904 62.1649C4.02833 62.0012 3.99765 61.8261 4.00014 61.6497V55.0767C3.9999 54.9023 4.03305 54.7298 4.09756 54.5694C4.16206 54.409 4.25661 54.264 4.37549 54.1433L8.86061 49.3973C8.97327 49.2696 9.10999 49.1683 9.2619 49.0999C9.41381 49.0315 9.57755 48.9975 9.74262 49.0001C9.9102 48.9995 10.0762 49.0343 10.2309 49.1025C10.3856 49.1707 10.5259 49.2709 10.6434 49.3973C10.8711 49.6565 10.9984 49.9967 11 50.3505C11.0012 50.699 10.8732 51.0342 10.6434 51.2838L6.5336 55.6327V61.59C6.5336 61.9482 6.39917 62.2916 6.15986 62.5449C5.92054 62.7981 5.59595 62.9404 5.25751 62.9404" fill="#0C4E98"/>
<path d="M58.8278 2.69947C57.7318 2.69947 56.6807 3.1355 55.9057 3.91175C55.1306 4.68799 54.6952 5.74081 54.6952 6.83858V30.5338C54.6952 31.6316 55.1306 32.6844 55.9057 33.4606C56.6807 34.2369 57.7318 34.673 58.8278 34.673H63.6992C63.8748 34.673 64.0488 34.7076 64.2111 34.775C64.3734 34.8423 64.5208 34.941 64.6451 35.0654C64.7693 35.1898 64.8678 35.3375 64.935 35.5C65.0022 35.6626 65.0368 35.8367 65.0368 36.0127V42.3914L72.3438 35.0729C72.4682 34.9447 72.6173 34.8432 72.782 34.7744C72.9467 34.7057 73.1236 34.6712 73.3021 34.673H90.1721C91.2682 34.673 92.3193 34.2369 93.0943 33.4606C93.8694 32.6844 94.3048 31.6316 94.3048 30.5338V6.83858C94.3048 5.74081 93.8694 4.68799 93.0943 3.91175C92.3193 3.1355 91.2682 2.69947 90.1721 2.69947H58.8278ZM63.6992 46.9705C63.5284 47.0098 63.3509 47.0098 63.1801 46.9705C62.9314 46.8733 62.718 46.7027 62.5683 46.4813C62.4186 46.2599 62.3395 45.9981 62.3416 45.7308V37.4724H58.8278C57.0186 37.4671 55.285 36.7449 54.0056 35.4636C52.7263 34.1823 52.0053 32.4459 52 30.6338V6.83858C52.0053 5.02649 52.7263 3.29016 54.0056 2.00881C55.285 0.727463 57.0186 0.00527541 58.8278 0H90.1721C91.9814 0.00527541 93.715 0.727463 94.9944 2.00881C96.2737 3.29016 96.9947 5.02649 97 6.83858V30.5338C96.9947 32.3459 96.2737 34.0823 94.9944 35.3636C93.715 36.645 91.9814 37.3672 90.1721 37.3725H73.8412L64.5976 46.5906C64.3466 46.8354 64.0096 46.9718 63.6593 46.9705" fill="#0C4E98"/>
<path d="M62.3499 16C61.9919 16 61.6485 15.8419 61.3954 15.5606C61.1422 15.2793 61 14.8978 61 14.5C61 14.1021 61.1422 13.7206 61.3954 13.4393C61.6485 13.158 61.9919 13 62.3499 13H78.65C78.8273 13 79.0029 13.0388 79.1666 13.1142C79.3304 13.1896 79.4793 13.3 79.6046 13.4393C79.73 13.5786 79.8294 13.744 79.8973 13.926C79.9651 14.108 80 14.303 80 14.5C80 14.6969 79.9651 14.892 79.8973 15.074C79.8294 15.256 79.73 15.4213 79.6046 15.5606C79.4793 15.6999 79.3304 15.8104 79.1666 15.8858C79.0029 15.9612 78.8273 16 78.65 16H62.3499Z" fill="#0C4E98"/>
<path d="M62.307 24C62.1354 24 61.9655 23.9615 61.8069 23.8867C61.6483 23.8119 61.5042 23.7022 61.3828 23.5639C61.2614 23.4257 61.1652 23.2615 61.0995 23.0809C61.0338 22.9002 61 22.7066 61 22.5111C61 22.1141 61.137 21.7331 61.3816 21.4504C61.6262 21.1676 61.9586 21.0058 62.307 21H86.6929C87.0413 21.0058 87.3738 21.1676 87.6184 21.4504C87.863 21.7331 88 22.1141 88 22.5111C88 22.906 87.8623 23.2847 87.6171 23.5639C87.372 23.8432 87.0396 24 86.6929 24H62.307Z" fill="#0C4E98"/>
</svg>
