<svg width="65" height="107" viewBox="0 0 65 107" fill="none" xmlns="http://www.w3.org/2000/svg">
<path d="M32.5 2.59462C30.7165 2.59061 28.9719 3.13878 27.4871 4.16982C26.0023 5.20086 24.8439 6.66837 24.1587 8.38662C23.4735 10.1049 23.2923 11.9966 23.6379 13.8224C23.9835 15.6482 24.8404 17.326 26.1002 18.6434C27.36 19.9608 28.966 20.8586 30.715 21.2232C32.4639 21.5877 34.2773 21.4026 35.9254 20.6914C37.5736 19.9801 38.9824 18.7746 39.9737 17.2275C40.965 15.6803 41.4941 13.8611 41.4941 12C41.4941 9.50903 40.5471 7.11981 38.861 5.35654C37.1748 3.59327 34.8872 2.59999 32.5 2.59462ZM32.5 24C30.2255 24 28.0021 23.2962 26.111 21.9776C24.2198 20.659 22.7458 18.7849 21.8754 16.5922C21.005 14.3995 20.7772 11.9867 21.221 9.6589C21.6647 7.33113 22.76 5.19295 24.3683 3.51472C25.9766 1.83649 28.0257 0.693603 30.2565 0.230581C32.4873 -0.232441 34.7995 0.00520167 36.9009 0.913452C39.0022 1.8217 40.7983 3.35977 42.0619 5.33316C43.3256 7.30654 44 9.62661 44 12C43.9949 15.1809 42.7816 18.2301 40.6261 20.4794C38.4705 22.7286 35.5484 23.9946 32.5 24Z" fill="#0C4E98"/>
<path d="M43.155 56.9403C42.9866 56.943 42.8192 56.912 42.6629 56.8492C42.5065 56.7864 42.3642 56.693 42.2442 56.5745C42.1241 56.456 42.0288 56.3147 41.9637 56.1589C41.8987 56.0031 41.8652 55.8359 41.8652 55.6669V48.4444C41.8605 45.0898 42.7955 41.8013 44.5637 38.9537L62.2426 10.163C62.4151 9.74678 62.5039 9.30051 62.5039 8.8498C62.5039 8.39909 62.4151 7.95281 62.2426 7.5366C62.0581 7.11371 61.7855 6.7352 61.4434 6.42639C61.1012 6.11758 60.6973 5.88559 60.2585 5.7459C59.9069 5.62677 59.5382 5.56628 59.1672 5.56684C58.5437 5.56849 57.9331 5.74438 57.4039 6.07476C56.8746 6.40514 56.4478 6.87693 56.1711 7.43714L44.9804 25.6625C44.305 26.7532 43.3644 27.654 42.247 28.2804C41.1295 28.9068 39.8716 29.2384 38.5914 29.244H26.5277C25.2444 29.2399 23.9832 28.9091 22.8623 28.2827C21.7413 27.6563 20.7974 26.7547 20.1188 25.6625L9.00746 7.55652C8.73422 6.96771 8.30048 6.46843 7.75628 6.11635C7.21207 5.76428 6.57963 5.57378 5.93203 5.56684C5.56095 5.56628 5.19225 5.62677 4.8407 5.7459C4.40252 5.88674 3.99912 6.11917 3.65709 6.42785C3.31507 6.73652 3.0422 7.11441 2.85654 7.5366C2.52893 8.34686 2.52893 9.25321 2.85654 10.0635L20.595 38.9337C22.3443 41.7961 23.2713 45.0873 23.2736 48.4444V55.7266C23.2736 56.0644 23.1398 56.3882 22.9017 56.6271C22.6636 56.8659 22.3406 57 22.0038 57C21.667 57 21.344 56.8659 21.1059 56.6271C20.8677 56.3882 20.7339 56.0644 20.7339 55.7266V48.4444C20.7273 45.565 19.931 42.7428 18.4322 40.2867L0.574759 11.3568L0.475575 11.1777C0.161765 10.4384 0 9.64328 0 8.83984C0 8.03639 0.161765 7.24124 0.475575 6.50199C0.946882 5.50135 1.68633 4.65175 2.6113 4.04816C3.53627 3.44458 4.61031 3.1107 5.71356 3.08387C6.81681 3.05703 7.9058 3.33833 8.85887 3.89624C9.81193 4.45416 10.5915 5.26677 11.1107 6.24332L22.2021 24.3295C22.6536 25.051 23.2796 25.6464 24.0219 26.0603C24.7643 26.4743 25.5989 26.6933 26.4483 26.6972H38.512C39.3584 26.6918 40.1897 26.4719 40.9286 26.058C41.6675 25.644 42.29 25.0494 42.7383 24.3295L53.8099 6.28309C54.3031 5.30171 55.0568 4.47588 55.9881 3.89661C56.9193 3.31734 57.992 3.00714 59.0878 3.00013C59.7639 2.99553 60.4355 3.10998 61.072 3.33835C61.8307 3.6046 62.5277 4.02221 63.121 4.56593C63.7144 5.10964 64.1918 5.76824 64.5244 6.50199C64.8382 7.24124 65 8.03639 65 8.83984C65 9.64328 64.8382 10.4384 64.5244 11.1777C64.499 11.2413 64.4656 11.3015 64.4252 11.3568L46.6669 40.2867C45.1596 42.739 44.3626 45.5637 44.3653 48.4444V55.7266C44.3653 56.0644 44.2315 56.3882 43.9934 56.6271C43.7552 56.8659 43.4322 57 43.0954 57" fill="#0C4E98"/>
<path d="M63.739 70.8974C63.4197 70.9033 63.1103 70.7809 62.8755 70.5555C62.6406 70.3301 62.4983 70.019 62.478 69.6872V61.482H2.54164V69.6872C2.50299 70.0097 2.35254 70.3064 2.11851 70.5215C1.88448 70.7367 1.58302 70.8554 1.27082 70.8554C0.958616 70.8554 0.657152 70.7367 0.423125 70.5215C0.189098 70.3064 0.0386495 70.0097 0 69.6872V60.3333C0 59.9797 0.134906 59.6405 0.375082 59.3905C0.615259 59.1405 0.941019 59 1.28068 59H63.739C64.0753 59.0054 64.396 59.1482 64.6319 59.3977C64.8678 59.6472 65 59.9832 65 60.3333V69.6872C65 70.0353 64.8672 70.3692 64.6307 70.6154C64.3942 70.8616 64.0735 71 63.739 71" fill="#0C4E98"/>
<path d="M7.64072 106.98C7.29115 106.98 6.95589 106.848 6.70871 106.612C6.46152 106.376 6.32261 106.055 6.32261 105.722V84.5967L0.473644 79.9548C0.326815 79.8361 0.208512 79.6886 0.12677 79.5223C0.0450285 79.356 0.00180803 79.1748 0 78.991V70.1202C0.0403993 69.8109 0.19766 69.5264 0.442282 69.3201C0.686904 69.1138 1.00202 69 1.32835 69C1.65469 69 1.9698 69.1138 2.21443 69.3201C2.45905 69.5264 2.61631 69.8109 2.65671 70.1202V78.4009L8.52629 83.1412C8.67312 83.2599 8.79142 83.4074 8.87317 83.5738C8.95491 83.7401 8.99819 83.9213 9 84.105V105.741C8.99459 106.077 8.85117 106.397 8.60071 106.633C8.35024 106.868 8.01284 107 7.66134 107" fill="#0C4E98"/>
<path d="M57.3211 107C56.9708 107 56.6347 106.868 56.387 106.632C56.1392 106.397 56.0001 106.078 56.0001 105.745V84.1765C55.998 83.9947 56.0375 83.8146 56.1159 83.6487C56.1943 83.4828 56.3097 83.335 56.4542 83.2157L62.3577 78.4902V70.2549C62.3577 69.9221 62.4969 69.6029 62.7446 69.3676C62.9924 69.1322 63.3285 69 63.6788 69C64.0292 69 64.3652 69.1322 64.613 69.3676C64.8607 69.6029 64.9999 69.9221 64.9999 70.2549V79.0981C65.0024 79.2819 64.961 79.4639 64.8788 79.6303C64.7965 79.7967 64.6756 79.9432 64.5251 80.0588L58.6422 84.7843V105.745C58.6422 106.078 58.503 106.397 58.2553 106.632C58.0075 106.868 57.6715 107 57.3211 107Z" fill="#0C4E98"/>
<path d="M47.7415 107C47.4077 107 47.0876 106.867 46.8516 106.629C46.6156 106.392 46.4829 106.07 46.4829 105.734V73.5516H17.5367V105.734C17.4981 106.045 17.348 106.331 17.1144 106.539C16.8808 106.746 16.5799 106.861 16.2683 106.861C15.9567 106.861 15.6559 106.746 15.4223 106.539C15.1887 106.331 15.0386 106.045 15 105.734V72.2659C15.0052 71.9284 15.1421 71.6064 15.3813 71.3696C15.6204 71.1327 15.9426 71 16.2782 71H47.7415C48.0753 71 48.3954 71.1333 48.6314 71.3708C48.8674 71.6082 49 71.9302 49 72.2659V105.734C49 106.07 48.8674 106.392 48.6314 106.629C48.3954 106.867 48.0753 107 47.7415 107Z" fill="#0C4E98"/>
<path d="M4.24832 55.9998C4.08373 56.0024 3.92026 55.9725 3.76767 55.9119C3.61509 55.8512 3.47649 55.7611 3.36009 55.6468C3.24369 55.5325 3.15185 55.3963 3.09008 55.2465C3.0283 55.0967 2.99783 54.9362 3.00047 54.7746V48.648C2.99591 48.4885 3.02472 48.3298 3.08508 48.1816C3.14544 48.0334 3.23606 47.8989 3.3514 47.7865L7.85528 43.3447C8.09863 43.1219 8.41946 42.9986 8.7522 43.0001C8.91437 42.9978 9.07536 43.0271 9.22595 43.0862C9.37654 43.1454 9.51371 43.2333 9.62955 43.3447C9.86193 43.5818 9.99429 43.8964 10 44.2254C9.99737 44.5494 9.86417 44.8592 9.62955 45.087L5.49612 49.1458V54.7746C5.49612 55.0995 5.36468 55.4112 5.13067 55.641C4.89665 55.8708 4.57927 55.9998 4.24832 55.9998Z" fill="#0C4E98"/>
<path d="M60.7541 55.9999C60.5889 56.0024 60.4248 55.9726 60.2714 55.9122C60.118 55.8517 59.9783 55.7619 59.8605 55.6478C59.7427 55.5338 59.6493 55.3979 59.5854 55.248C59.5216 55.0981 59.4888 54.9371 59.4888 54.7746V49.146L55.3617 45.0873C55.1299 44.8547 55 44.5419 55 44.2162C55 43.8905 55.1299 43.5777 55.3617 43.3451C55.4797 43.2313 55.6198 43.1421 55.7737 43.0829C55.9276 43.0237 56.092 42.9957 56.2572 43.0005C56.4191 42.9983 56.5799 43.0275 56.7302 43.0867C56.8806 43.1458 57.0175 43.2337 57.1332 43.3451L61.6301 47.7676C61.8655 48.0024 61.9983 48.3185 62 48.6482V54.7746C62 55.0996 61.8688 55.4112 61.6351 55.641C61.4015 55.8708 61.0846 55.9999 60.7541 55.9999Z" fill="#0C4E98"/>
</svg>
