<svg width="158" height="148" viewBox="0 0 158 148" fill="none" xmlns="http://www.w3.org/2000/svg">
<path d="M155.939 117H100.013C99.4583 117 98.9268 116.778 98.5349 116.383C98.143 115.989 97.9229 115.453 97.9229 114.895C97.9229 114.337 98.143 113.801 98.5349 113.407C98.9268 113.012 99.4583 112.79 100.013 112.79H153.85V4.2099H4.17929V112.702H58.0456C58.5998 112.702 59.1313 112.924 59.5232 113.319C59.915 113.714 60.1352 114.249 60.1352 114.807C60.1352 115.366 59.915 115.901 59.5232 116.296C59.1313 116.691 58.5998 116.912 58.0456 116.912H2.08964C1.81523 116.912 1.54351 116.858 1.28998 116.752C1.03646 116.646 0.806085 116.491 0.612044 116.296C0.418003 116.1 0.264087 115.868 0.159073 115.613C0.0540584 115.358 0 115.084 0 114.807V2.10495C0 1.54668 0.220161 1.01126 0.612044 0.616506C1.00393 0.221751 1.53544 0 2.08964 0H155.91C156.465 0 156.996 0.221751 157.388 0.616506C157.78 1.01126 158 1.54668 158 2.10495V114.807C158 115.084 157.946 115.358 157.841 115.613C157.736 115.868 157.582 116.1 157.388 116.296C157.194 116.491 156.964 116.646 156.71 116.752C156.457 116.858 156.185 116.912 155.91 116.912" fill="#0C4E98"/>
<path d="M88.9239 148C88.5137 148.001 88.1123 147.88 87.7705 147.653L78.5144 141.461L69.2295 147.653C68.9061 147.844 68.5378 147.944 68.1626 147.944C67.7875 147.944 67.4191 147.844 67.0957 147.653C66.7663 147.469 66.4914 147.201 66.299 146.875C66.1065 146.55 66.0033 146.179 66 145.801V111.083C66 110.531 66.2187 110.001 66.6081 109.61C66.9974 109.22 67.5255 109 68.0761 109C68.6267 109 69.1548 109.22 69.5441 109.61C69.9335 110.001 70.1522 110.531 70.1522 111.083V142.04L77.361 137.208C77.7038 136.983 78.1046 136.863 78.5144 136.863C78.9242 136.863 79.325 136.983 79.6678 137.208L86.8477 142.04V111.083C86.8477 110.531 87.0665 110.001 87.4558 109.61C87.8452 109.22 88.3732 109 88.9239 109C89.4745 109 90.0026 109.22 90.3919 109.61C90.7813 110.001 91 110.531 91 111.083V145.801C90.9967 146.179 90.8935 146.55 90.701 146.875C90.5086 147.201 90.2336 147.469 89.9043 147.653C89.5981 147.801 89.2636 147.88 88.9239 147.884" fill="#0C4E98"/>
<path d="M116.913 32H40.0873C39.5337 32 39.0028 31.7893 38.6114 31.4142C38.2199 31.0392 38 30.5304 38 30C38 29.4696 38.2199 28.9608 38.6114 28.5858C39.0028 28.2107 39.5337 28 40.0873 28H116.913C117.466 28 117.997 28.2107 118.389 28.5858C118.78 28.9608 119 29.4696 119 30C119 30.5304 118.78 31.0392 118.389 31.4142C117.997 31.7893 117.466 32 116.913 32Z" fill="#0C4E98"/>
<path d="M102.915 46H54.0852C53.5322 46 53.0018 45.7893 52.6108 45.4142C52.2197 45.0392 52 44.5304 52 44C52 43.4696 52.2197 42.9608 52.6108 42.5858C53.0018 42.2107 53.5322 42 54.0852 42H102.915C103.468 42 103.998 42.2107 104.389 42.5858C104.78 42.9608 105 43.4696 105 44C105 44.5304 104.78 45.0392 104.389 45.4142C103.998 45.7893 103.468 46 102.915 46Z" fill="#0C4E98"/>
<path d="M78.6214 107.168C80.0233 107.167 81.4046 107.505 82.6476 108.153C83.2085 108.451 83.8257 108.628 84.4593 108.673C85.0929 108.718 85.7288 108.63 86.3262 108.414C86.9329 108.192 87.4862 107.846 87.9503 107.397C88.4144 106.947 88.7788 106.405 89.02 105.806C89.5456 104.497 90.382 103.335 91.4569 102.422C92.5318 101.508 93.8129 100.87 95.1896 100.562C95.8178 100.417 96.4091 100.142 96.926 99.7567C97.4429 99.371 97.8742 98.8823 98.1927 98.3214C98.5112 97.7605 98.7099 97.1397 98.7763 96.4981C98.8427 95.8564 98.7754 95.208 98.5785 94.5937C98.1593 93.2413 98.0667 91.8088 98.3084 90.4136C98.5501 89.0185 99.1191 87.7007 99.9688 86.5682C100.363 86.0557 100.645 85.4654 100.794 84.8361C100.944 84.2069 100.959 83.553 100.838 82.9176C100.738 82.2793 100.504 81.6698 100.149 81.1301C99.794 80.5903 99.3277 80.1329 98.7813 79.7886C97.5947 79.0173 96.61 77.973 95.9096 76.7431C95.2091 75.5132 94.8133 74.1334 94.7551 72.7192C94.7291 72.0677 94.5661 71.4291 94.2766 70.845C93.9871 70.2608 93.5777 69.7444 93.0751 69.3293C92.5929 68.9172 92.0279 68.6134 91.4183 68.4385C90.8087 68.2635 90.1686 68.2216 89.5413 68.3153C88.1361 68.4873 86.7102 68.3132 85.3876 67.8082C84.065 67.3033 82.8857 66.4828 81.9524 65.418C81.5262 64.9414 81.0038 64.5606 80.4196 64.3008C79.8354 64.0411 79.2028 63.9084 78.5635 63.9114C77.9242 63.9084 77.2916 64.0411 76.7074 64.3008C76.1232 64.5606 75.6007 64.9414 75.1745 65.418C74.2412 66.4828 73.062 67.3033 71.7394 67.8082C70.4167 68.3132 68.9908 68.4873 67.5856 68.3153C66.9584 68.2235 66.3188 68.2664 65.7094 68.4412C65.1001 68.6161 64.535 68.9188 64.0519 69.3293C63.5532 69.7459 63.1483 70.2633 62.8637 70.8475C62.5792 71.4318 62.4214 72.0696 62.4008 72.7192C62.3426 74.1334 61.9468 75.5132 61.2463 76.7431C60.5459 77.973 59.5612 79.0173 58.3746 79.7886C57.8328 80.1311 57.3694 80.5844 57.015 81.1187C56.6606 81.6529 56.4231 82.2562 56.3181 82.8887C56.2017 83.5288 56.2189 84.186 56.3684 84.8192C56.5179 85.4524 56.7966 86.0479 57.1871 86.5682C58.0417 87.6982 58.6159 89.0149 58.8627 90.4101C59.1094 91.8053 59.0216 93.2391 58.6064 94.5937C58.4093 95.2167 58.3462 95.8743 58.421 96.5234C58.4959 97.1726 58.7071 97.7985 59.0408 98.3602C59.3461 98.9069 59.761 99.3846 60.2594 99.7635C60.7578 100.142 61.3291 100.414 61.9374 100.562C63.3193 100.865 64.6063 101.502 65.6866 102.416C66.7668 103.33 67.6076 104.493 68.136 105.806C68.3771 106.405 68.7415 106.947 69.2056 107.397C69.6697 107.846 70.223 108.192 70.8297 108.414C71.4271 108.63 72.0631 108.718 72.6966 108.673C73.3302 108.628 73.9474 108.451 74.5083 108.153C75.76 107.5 77.1518 107.162 78.5635 107.168M84.7041 112.963C83.2925 112.969 81.9006 112.63 80.649 111.977C80.002 111.635 79.281 111.456 78.549 111.456C77.817 111.456 77.096 111.635 76.449 111.977C75.3698 112.553 74.1813 112.895 72.9611 112.979C71.741 113.064 70.5167 112.89 69.3684 112.469C68.2201 112.048 67.1736 111.389 66.2974 110.535C65.4211 109.682 64.7349 108.653 64.2836 107.516C64.0018 106.831 63.5603 106.224 62.9959 105.745C62.4315 105.266 61.7606 104.93 61.0395 104.763C59.8488 104.488 58.7279 103.97 57.7472 103.24C56.7664 102.511 55.947 101.587 55.3404 100.526C54.7339 99.4648 54.3532 98.2896 54.2224 97.0743C54.0915 95.859 54.2134 94.6298 54.5802 93.4638C54.7982 92.7447 54.8436 91.9842 54.7127 91.2442C54.5819 90.5042 54.2784 89.8055 53.8271 89.2048C53.0738 88.2348 52.5347 87.1162 52.2451 85.9226C51.9555 84.729 51.9221 83.4876 52.1471 82.2802C52.3754 81.1008 52.8394 79.9797 53.5113 78.984C54.1833 77.9883 55.0493 77.1385 56.0574 76.4856C56.6868 76.0812 57.2083 75.5296 57.5767 74.8784C57.9451 74.2272 58.1494 73.4961 58.1719 72.7482C58.2309 71.5213 58.5416 70.3197 59.0848 69.2182C59.6279 68.1166 60.3919 67.1386 61.3291 66.3451C62.2548 65.5645 63.3333 64.9861 64.4955 64.6468C65.6577 64.3076 66.878 64.2149 68.078 64.3749C68.8101 64.4768 69.5559 64.395 70.2486 64.1371C70.9413 63.8792 71.559 63.4531 72.0463 62.8973C72.8594 61.988 73.8547 61.2601 74.9676 60.7609C76.0804 60.2618 77.2859 60.0025 78.5056 60C79.7252 60.0025 80.9306 60.2618 82.0435 60.7609C83.1564 61.2601 84.1517 61.988 84.9648 62.8973C85.464 63.4335 86.0861 63.8403 86.7774 64.0825C87.4687 64.3248 88.2085 64.3953 88.9331 64.288C90.1285 64.1322 91.3433 64.2268 92.5002 64.566C93.6571 64.9052 94.7308 65.4815 95.653 66.2582C96.6078 67.0383 97.3857 68.0128 97.9351 69.1167C98.4844 70.2207 98.7926 71.429 98.8392 72.6613C98.8641 73.4086 99.0695 74.1388 99.4377 74.7897C99.8058 75.4405 100.326 75.9925 100.954 76.3987C101.976 77.0633 102.851 77.9311 103.523 78.9482C104.196 79.9652 104.653 81.1098 104.865 82.3108C105.077 83.5118 105.039 84.7435 104.755 85.9295C104.471 87.1155 103.946 88.2303 103.213 89.2048C102.762 89.8055 102.458 90.5042 102.327 91.2442C102.197 91.9842 102.242 92.7447 102.46 93.4638C102.827 94.6278 102.95 95.8551 102.821 97.0688C102.692 98.2825 102.314 99.4565 101.71 100.517C101.106 101.578 100.29 102.503 99.3128 103.233C98.3354 103.964 97.2176 104.485 96.0296 104.763C95.3064 104.925 94.6334 105.26 94.0684 105.739C93.5033 106.219 93.063 106.828 92.7855 107.516C92.3185 108.647 91.6217 109.669 90.7391 110.517C89.8566 111.365 88.8076 112.02 87.6586 112.441C86.7297 112.778 85.7502 112.955 84.7621 112.963" fill="#0C4E98"/>
<path d="M78.5286 78.1523C76.8742 78.1467 75.2554 78.6296 73.8774 79.54C72.4995 80.4503 71.4245 81.7471 70.7887 83.2657C70.153 84.7843 69.9852 86.4565 70.3065 88.0701C70.6279 89.6837 71.424 91.1661 72.5938 92.3293C73.7636 93.4925 75.2545 94.284 76.8774 94.6035C78.5003 94.923 80.182 94.7562 81.7094 94.1241C83.2367 93.492 84.5409 92.4231 85.4565 91.053C86.3721 89.6829 86.8578 88.0733 86.8521 86.4284C86.8445 84.2357 85.9651 82.1351 84.4058 80.5847C82.8465 79.0342 80.7338 78.1599 78.5286 78.1523ZM78.5286 98.8568C76.0551 98.8625 73.6356 98.1384 71.5762 96.7762C69.5169 95.414 67.9103 93.475 66.9598 91.2045C66.0093 88.934 65.7576 86.4341 66.2367 84.0213C66.7157 81.6085 67.9039 79.3914 69.6509 77.6504C71.3979 75.9093 73.6251 74.7228 76.0505 74.2409C78.476 73.759 80.9908 74.0035 83.2765 74.9434C85.5622 75.8832 87.5161 77.4761 88.8909 79.5206C90.2656 81.565 90.9995 83.969 90.9995 86.4284C91.0147 88.069 90.7037 89.6966 90.0845 91.2175C89.4653 92.7384 88.55 94.1225 87.3912 95.2907C86.2324 96.4588 84.853 97.3879 83.332 98.0244C81.8111 98.661 80.1787 98.9925 78.5286 99" fill="#0C4E98"/>
</svg>
