<svg width="113" height="109" viewBox="0 0 113 109" fill="none" xmlns="http://www.w3.org/2000/svg">
<path d="M56.5609 55.5953C55.1766 55.5995 53.8224 55.9943 52.6579 56.7332C51.4084 57.5095 50.3809 58.5884 49.673 59.8673C48.965 61.1462 48.6002 62.5826 48.6132 64.0399C48.5617 65.0969 48.7235 66.1535 49.0893 67.1483C49.455 68.143 50.0174 69.0561 50.7437 69.8344C51.47 70.6127 52.3458 71.2407 53.3202 71.682C54.2945 72.1232 55.348 72.3689 56.4194 72.4047C57.8018 72.4076 59.1563 72.0196 60.3225 71.2867C61.5749 70.5087 62.6042 69.4266 63.3123 68.1439C64.0204 66.8613 64.3836 65.4208 64.3671 63.9601C64.4187 62.9031 64.2568 61.8465 63.8911 60.8517C63.5254 59.857 62.9629 58.9439 62.2366 58.1656C61.5103 57.3873 60.6345 56.7593 59.6601 56.318C58.6858 55.8768 57.6323 55.6311 56.5609 55.5953ZM56.4396 75C53.5858 74.9061 50.8857 73.7004 48.9302 71.6464C46.9746 69.5925 45.9226 66.8575 46.0044 64.0399C45.988 62.1449 46.4624 60.2772 47.3826 58.6141C48.3029 56.951 49.6384 55.5476 51.2625 54.5372C52.8435 53.5354 54.6823 53.002 56.5609 53C59.413 53.099 62.1099 54.3064 64.0643 56.3592C66.0188 58.412 67.0726 61.1439 66.9961 63.9601C67.0122 65.8577 66.5378 67.7281 65.6177 69.3943C64.6977 71.0606 63.3624 72.4678 61.7381 73.4828C60.1539 74.4755 58.316 75.0018 56.4396 75Z" fill="#0C4E98"/>
<path d="M69.5556 109C69.1725 109 68.8051 108.867 68.5342 108.63C68.2633 108.393 68.1111 108.071 68.1111 107.736L68 96.2833C68 95.9463 68.1514 95.6228 68.4217 95.3827C68.6919 95.1426 69.0593 95.0051 69.4444 95C69.8257 95.005 70.1899 95.1398 70.4595 95.3757C70.7292 95.6117 70.8831 95.9302 70.8888 96.2639L71 107.717C71.0002 108.05 70.8518 108.371 70.5863 108.611C70.3207 108.85 69.959 108.99 69.5778 109H69.5556Z" fill="#0C4E98"/>
<path d="M78.6658 109C78.3244 109 77.9963 108.868 77.7511 108.632C77.506 108.395 77.363 108.073 77.3525 107.733L76.5039 87.3035C76.5039 85.534 72.079 83.2819 62.6433 82.739C49.8738 81.9347 38.3974 84.6091 37.872 87.384C36.946 94.1198 36.5272 100.915 36.6193 107.713C36.614 108.056 36.4733 108.384 36.2276 108.624C35.9819 108.865 35.6508 109 35.306 109C34.9594 108.99 34.6305 108.845 34.3891 108.597C34.1477 108.35 34.0127 108.018 34.0129 107.673C33.917 100.719 34.3561 93.7683 35.3262 86.8813C36.3162 81.1103 52.0155 79.4614 62.8453 80.1451C68.9068 80.5271 79.0093 81.9347 79.1507 87.1829L79.9993 107.633C80.0103 107.981 79.8829 108.32 79.6447 108.576C79.4065 108.832 79.0766 108.984 78.7264 109" fill="#0C4E98"/>
<path d="M44.4773 109C44.2804 108.997 44.086 108.962 43.9052 108.896C43.7244 108.831 43.5608 108.735 43.4237 108.616C43.2865 108.497 43.1786 108.356 43.106 108.202C43.0335 108.048 42.9977 107.883 43.0008 107.717V96.2652C42.9942 96.096 43.0292 95.9276 43.1037 95.7705C43.1782 95.6133 43.2905 95.4709 43.4336 95.3522C43.5766 95.2334 43.7474 95.141 43.935 95.0806C44.1225 95.0202 44.3229 94.9933 44.5235 95.0014C44.9193 95.0115 45.2948 95.1512 45.5704 95.3907C45.8461 95.6303 46.0002 95.9509 46 96.2846V107.736C45.994 108.07 45.8341 108.388 45.5542 108.624C45.2742 108.86 44.8963 108.995 44.5004 109" fill="#0C4E98"/>
<path d="M1.25899 109C0.921505 108.989 0.601317 108.844 0.366272 108.594C0.131227 108.343 -0.000154919 108.009 1.37092e-07 107.66C0.157377 98.7902 0.413087 89.2706 1.19997 85.6779C2.28194 79.1015 20.6164 79 22.7213 79C23.0605 79 23.3857 79.139 23.6255 79.3864C23.8653 79.6339 24 79.9694 24 80.3193C24 80.6693 23.8653 81.0048 23.6255 81.2523C23.3857 81.4997 23.0605 81.6387 22.7213 81.6387C22.6107 81.6182 22.4975 81.6182 22.3869 81.6387C11.8032 81.6387 4.05241 84.0135 3.69832 86.1854C2.87209 90.0622 2.65572 101.977 2.55736 107.701C2.54726 108.046 2.40874 108.373 2.17055 108.615C1.93237 108.857 1.6129 108.995 1.27868 109" fill="#0C4E98"/>
<path d="M10.477 109C10.2801 108.997 10.0856 108.961 9.90481 108.894C9.72398 108.826 9.56027 108.728 9.42314 108.606C9.286 108.484 9.17811 108.339 9.10554 108.181C9.03297 108.023 8.99714 107.854 9.00019 107.683V94.2774C8.99697 94.1073 9.03376 93.9384 9.10829 93.7809C9.18282 93.6234 9.2936 93.4806 9.43384 93.3613C9.57408 93.2419 9.74088 93.1483 9.92417 93.0864C10.1075 93.0244 10.3034 92.9952 10.5001 93.0006C10.8979 93.0006 11.2794 93.1373 11.5607 93.3804C11.8419 93.6236 12 93.9535 12 94.2974V107.703C11.994 108.046 11.8341 108.372 11.5541 108.615C11.2741 108.857 10.8961 108.995 10.5001 109" fill="#0C4E98"/>
<path d="M21.5711 54.5953C20.1797 54.6023 18.8185 54.9967 17.6443 55.7332C16.3923 56.5081 15.3628 57.5867 14.6541 58.8659C13.9453 60.1451 13.581 61.5822 13.596 63.0399C13.5444 64.0953 13.7056 65.1503 14.0704 66.1438C14.4353 67.1372 14.9964 68.0494 15.7212 68.8275C16.4461 69.6055 17.3203 70.2339 18.2932 70.6763C19.2661 71.1187 20.3184 71.3663 21.389 71.4047C22.7786 71.4047 24.14 71.0172 25.3158 70.2867C26.5707 69.5101 27.6021 68.4283 28.311 67.1453C29.0199 65.8623 29.3826 64.4211 29.3642 62.96C29.4158 61.9047 29.2544 60.8497 28.8896 59.8562C28.5248 58.8627 27.9637 57.9505 27.2389 57.1725C26.514 56.3945 25.6398 55.766 24.6669 55.3236C23.694 54.8812 22.6418 54.6337 21.5711 54.5953ZM21.4294 74C18.5748 73.9061 15.8743 72.6997 13.9202 70.6452C11.9661 68.5906 10.9177 65.8556 11.005 63.0399C10.9845 61.1465 11.4554 59.2793 12.3731 57.616C13.2907 55.9527 14.6245 54.5486 16.2476 53.5372C17.8387 52.5379 19.6848 52.0048 21.5711 52C24.424 52.099 27.1213 53.307 29.0743 55.3604C31.0274 57.4138 32.0775 60.1458 31.9955 62.96C32.0155 64.8584 31.5423 66.7302 30.621 68.3971C29.6998 70.064 28.3612 71.4706 26.7327 72.4827C25.1486 73.4785 23.308 74.0051 21.4294 74Z" fill="#0C4E98"/>
<path d="M103.5 109C103.104 108.995 102.726 108.857 102.446 108.615C102.166 108.372 102.006 108.046 102 107.703V94.2981C102 93.9542 102.158 93.6244 102.439 93.3813C102.72 93.1381 103.102 93.0015 103.5 93.0015C103.697 92.9931 103.895 93.0203 104.079 93.0812C104.264 93.1421 104.432 93.2355 104.573 93.3555C104.714 93.4755 104.825 93.6194 104.898 93.7782C104.971 93.937 105.006 94.1073 104.999 94.2782V107.683C104.999 108.026 104.845 108.355 104.57 108.601C104.294 108.846 103.918 108.99 103.523 109H103.5Z" fill="#0C4E98"/>
<path d="M111.686 109C111.345 109 111.017 108.867 110.772 108.628C110.527 108.389 110.384 108.064 110.373 107.721L109.606 86.0814C109.58 85.8608 109.509 85.6479 109.398 85.4558C109.286 85.2638 109.137 85.0967 108.959 84.965C106.414 82.6102 97.7476 81.2501 88.3946 81.717C88.2209 81.7338 88.0456 81.7144 87.8797 81.6603C87.7137 81.6061 87.5607 81.5182 87.4299 81.4021C87.2992 81.286 87.1936 81.1441 87.1198 80.9852C87.0459 80.8264 87.0054 80.654 87.0007 80.4787C86.9895 80.13 87.1141 79.7908 87.348 79.533C87.5819 79.2752 87.9066 79.1193 88.2531 79.0983C96.8386 78.6517 107.141 79.687 110.737 83.0162C111.177 83.3836 111.536 83.8383 111.794 84.3517C112.051 84.8651 112.2 85.4263 112.232 86.0003L112.999 107.62C113.01 107.972 112.883 108.314 112.645 108.572C112.407 108.83 112.077 108.984 111.727 109" fill="#0C4E98"/>
<path d="M91.4902 54.6751C90.0979 54.6766 88.7351 55.0715 87.5633 55.8131C86.3114 56.588 85.2818 57.6665 84.5731 58.9458C83.8643 60.225 83.5 61.6621 83.515 63.1198C83.4744 64.1751 83.6466 65.2279 84.0214 66.2172C84.3962 67.2065 84.9663 68.1127 85.6986 68.8832C86.4309 69.6537 87.3109 70.2733 88.2877 70.7062C89.2645 71.139 90.3186 71.3764 91.389 71.4047C92.7786 71.4047 94.14 71.0172 95.3158 70.2867C96.5707 69.5101 97.6021 68.4283 98.3111 67.1453C99.02 65.8623 99.3826 64.4211 99.3642 62.9601C99.4158 61.9047 99.2544 60.8497 98.8896 59.8562C98.5248 58.8627 97.9637 57.9505 97.2389 57.1725C96.514 56.3945 95.6398 55.766 94.6669 55.3236C93.694 54.8812 92.6418 54.6337 91.5711 54.5953M91.4294 74C88.5748 73.9061 85.8743 72.6997 83.9202 70.6451C81.9661 68.5906 80.9177 65.8556 81.005 63.0399C80.9845 61.1464 81.4554 59.2793 82.3731 57.616C83.2907 55.9527 84.6245 54.5486 86.2476 53.5372C87.8387 52.5379 89.6848 52.0048 91.5711 52C94.424 52.099 97.1213 53.3071 99.0743 55.3604C101.027 57.4138 102.077 60.1458 101.996 62.9601C102.015 64.8584 101.542 66.7302 100.621 68.3971C99.6999 70.064 98.3613 71.4705 96.7328 72.4827C95.1486 73.4785 93.308 74.0051 91.4294 74Z" fill="#0C4E98"/>
<path d="M73.1 29.5754C71.7993 29.5815 70.5267 29.9524 69.4289 30.6453C68.2649 31.383 67.3096 32.4032 66.6533 33.6096C65.997 34.8159 65.6613 36.1686 65.678 37.5396C65.5914 39.5511 66.3113 41.5147 67.6801 43.0001C69.0489 44.4855 70.9548 45.3716 72.9803 45.4641C74.2811 45.4581 75.5537 45.0873 76.6515 44.3943C77.8154 43.6566 78.7708 42.6364 79.4271 41.43C80.0834 40.2237 80.4191 38.871 80.4024 37.5C80.489 35.4884 79.7691 33.5248 78.4003 32.0394C77.0315 30.554 75.1255 29.668 73.1 29.5754ZM72.9803 48C71.6326 47.9666 70.3049 47.6693 69.0732 47.125C67.8416 46.5806 66.7304 45.8 65.8035 44.8281C64.8765 43.8561 64.1521 42.7119 63.6717 41.4611C63.1914 40.2103 62.9646 38.8776 63.0045 37.5396C62.9852 35.7272 63.4335 33.94 64.3066 32.3483C65.1797 30.7566 66.4485 29.4132 67.9924 28.4462C69.4993 27.507 71.2411 27.0059 73.0202 27C74.3671 27.0359 75.6937 27.335 76.9241 27.8803C78.1545 28.4255 79.2647 29.2061 80.1911 30.1776C81.1176 31.149 81.8421 32.2922 82.3234 33.5418C82.8047 34.7914 83.0333 36.123 82.9961 37.4604C83.0116 39.2721 82.5617 41.0578 81.689 42.6489C80.8162 44.24 79.5494 45.5839 78.0082 46.5538C76.5054 47.502 74.7609 48.0038 72.9803 48Z" fill="#0C4E98"/>
<path d="M89.55 2.59663C88.3353 2.60429 87.148 2.95497 86.1275 3.60752C85.0327 4.29287 84.1338 5.24513 83.517 6.3731C82.9002 7.50106 82.5862 8.76694 82.605 10.0495C82.529 11.9253 83.2067 13.7545 84.4896 15.1365C85.7726 16.5186 87.5562 17.3408 89.45 17.4232C90.6614 17.4129 91.8462 17.0698 92.8725 16.4321C93.9662 15.7408 94.8638 14.7845 95.4802 13.6538C96.0966 12.523 96.4115 11.2552 96.395 9.97027C96.471 8.09446 95.7933 6.26528 94.5104 4.88327C93.2274 3.50125 91.4438 2.67902 89.55 2.59663ZM89.45 20C86.8734 19.9171 84.4343 18.8287 82.6647 16.9722C80.8951 15.1156 79.9383 12.6415 80.0031 10.0892C79.975 8.35786 80.3965 6.64841 81.2271 5.12472C82.0577 3.60102 83.2696 2.31418 84.7465 1.38751C86.185 0.488914 87.8493 0.00818717 89.55 0C92.1266 0.0829026 94.5656 1.17126 96.3352 3.0278C98.1049 4.88435 99.0617 7.35851 98.9969 9.91081C99.0146 11.6321 98.5883 13.3294 97.7582 14.8418C96.928 16.3542 95.7217 17.6317 94.2535 18.553C92.815 19.4516 91.1507 19.9324 89.45 19.9405" fill="#0C4E98"/>
<path d="M103.5 51C103.106 51 102.728 50.8597 102.447 50.6091C102.167 50.3586 102.006 50.0181 102 49.6611V42.3808C102 42.0182 102.157 41.6701 102.438 41.4117C102.719 41.1534 103.1 41.0055 103.5 41C103.898 41 104.279 41.1433 104.561 41.3983C104.842 41.6533 105 41.9992 105 42.3598V49.6401C105 50.0008 104.842 50.3467 104.561 50.6017C104.279 50.8567 103.898 51 103.5 51Z" fill="#0C4E98"/>
<path d="M111.665 60.9998C111.495 61.0025 111.327 60.9722 111.169 60.9108C111.011 60.8493 110.867 60.7579 110.745 60.6418C110.623 60.5256 110.526 60.387 110.458 60.2339C110.391 60.0807 110.355 59.916 110.352 59.7491L109.424 33.2064C109.424 32.2932 108.212 31.5388 107.223 31.0624C105.079 30.1287 102.807 29.5132 100.479 29.236C97.4436 28.8006 94.3801 28.5817 91.3125 28.5808C90.9644 28.5808 90.6306 28.4449 90.3844 28.2029C90.1383 27.9609 90 27.6327 90 27.2904C90 26.9482 90.1383 26.62 90.3844 26.378C90.6306 26.136 90.9644 26 91.3125 26C94.508 26.0069 97.699 26.2325 100.863 26.675C103.458 26.9721 105.995 27.641 108.394 28.6602C110.756 29.8117 111.988 31.2808 112.048 33.0476L112.997 59.6102C113.008 59.7793 112.984 59.9489 112.927 60.1086C112.869 60.2683 112.779 60.4148 112.662 60.5392C112.545 60.6636 112.403 60.7632 112.246 60.8322C112.088 60.9012 111.918 60.9379 111.746 60.9403" fill="#0C4E98"/>
<path d="M39.9 29.5755C37.8745 29.668 35.9685 30.5541 34.5997 32.0395C33.231 33.5249 32.511 35.4885 32.5976 37.5C32.5809 38.871 32.9166 40.2237 33.5729 41.43C34.2292 42.6364 35.1846 43.6566 36.3485 44.3943C37.4435 45.0933 38.7179 45.4647 40.0197 45.4641C41.0235 45.4209 42.0089 45.1815 42.9194 44.7596C43.8299 44.3378 44.6477 43.7418 45.326 43.0057C46.0043 42.2696 46.5297 41.408 46.8722 40.47C47.2147 39.5321 47.3675 38.5363 47.322 37.5396C47.3509 36.1714 47.0223 34.8191 46.3685 33.6143C45.7147 32.4096 44.7578 31.3935 43.591 30.6651C42.4906 29.9596 41.2098 29.5815 39.9 29.5755ZM40.0197 48C38.2302 48.0028 36.4778 47.4938 34.9719 46.5339C33.4346 45.5663 32.1715 44.2251 31.3021 42.6373C30.4327 41.0495 29.9859 39.2676 30.0039 37.4604C29.9667 36.123 30.1953 34.7914 30.6766 33.5418C31.1579 32.2922 31.8824 31.149 32.8089 30.1776C33.7353 29.2062 34.8455 28.4255 36.0759 27.8803C37.3063 27.3351 38.6329 27.0359 39.9798 27C41.7738 27.0087 43.5294 27.5166 45.0475 28.466C46.5797 29.4374 47.8379 30.78 48.7035 32.3673C49.5691 33.9546 50.0137 35.7346 49.9955 37.5396C50.0354 38.8777 49.8086 40.2103 49.3283 41.4611C48.8479 42.7119 48.1235 43.8561 47.1966 44.8281C46.2696 45.8 45.1584 46.5806 43.9268 47.1249C42.6952 47.6693 41.3674 47.9667 40.0197 48Z" fill="#0C4E98"/>
<path d="M23.4497 2.54473C21.5559 2.62737 19.7722 3.45205 18.4893 4.83819C17.2063 6.22433 16.5286 8.05896 16.6046 9.94036C16.5856 11.2246 16.8975 12.4923 17.5105 13.6232C18.1235 14.754 19.0174 15.7104 20.1072 16.4016C21.1363 17.0537 22.3292 17.405 23.5498 17.4155C25.4436 17.3329 27.2272 16.5082 28.5102 15.122C29.7932 13.7359 30.4709 11.9013 30.3949 10.0199C30.4139 8.73565 30.1021 7.46794 29.489 6.3371C28.876 5.20626 27.9821 4.24982 26.8923 3.55864C25.8633 2.90653 24.6703 2.55518 23.4497 2.54473ZM23.5498 20C21.8461 19.9923 20.1798 19.5027 18.7462 18.5885C17.2768 17.6703 16.0692 16.3932 15.2386 14.8791C14.4081 13.3649 13.9826 11.6645 14.0026 9.94036C13.9431 7.38191 14.9017 4.90335 16.6703 3.04242C18.4389 1.18148 20.8748 0.0882854 23.4497 0C25.1596 0.00827311 26.8321 0.497675 28.2733 1.41151C29.7363 2.33483 30.9379 3.61367 31.7645 5.12698C32.591 6.6403 33.0153 8.33805 32.9969 10.0596C33.0617 12.6195 32.1049 15.1011 30.3352 16.9631C28.5655 18.8252 26.1265 19.9168 23.5498 20Z" fill="#0C4E98"/>
<path d="M10.5115 51C10.1106 51 9.72615 50.8567 9.44269 50.6017C9.15922 50.3467 9 50.0008 9 49.6401V42.3598C9 41.9992 9.15922 41.6533 9.44269 41.3983C9.72615 41.1433 10.1106 41 10.5115 41C10.71 41.0027 10.906 41.0406 11.0883 41.1115C11.2705 41.1823 11.4354 41.2848 11.5736 41.413C11.7118 41.5413 11.8205 41.6927 11.8937 41.8587C11.9668 42.0248 12.0029 42.2022 11.9998 42.3808V49.6611C11.9937 50.0181 11.8318 50.3586 11.549 50.6091C11.2662 50.8597 10.8852 51 10.4883 51" fill="#0C4E98"/>
<path d="M1.27577 61.9192C1.1032 61.9194 0.932372 61.8845 0.773672 61.8168C0.614972 61.749 0.471657 61.6497 0.352497 61.525C0.233337 61.4002 0.140809 61.2526 0.0804586 61.091C0.0201078 60.9295 -0.00677227 60.7573 0.00144579 60.5851L0.223916 50.2157L0.911636 33.1556C0.911636 31.3567 2.22642 29.8609 4.59301 28.7087C6.98772 27.6678 9.52335 26.9867 12.1176 26.6874C15.287 26.2376 18.4839 26.008 21.6851 26.0002C21.8585 25.9974 22.0307 26.0295 22.1914 26.0946C22.3522 26.1597 22.4982 26.2564 22.6208 26.3789C22.7435 26.5015 22.8402 26.6474 22.9053 26.808C22.9704 26.9687 23.0026 27.1407 22.9998 27.314C22.9999 27.659 22.8641 27.9902 22.6219 28.236C22.3797 28.4818 22.0505 28.6226 21.7053 28.6279C18.6321 28.6272 15.5629 28.8502 12.5221 29.2949C10.1835 29.5747 7.89961 30.2014 5.74598 31.1546C4.77507 31.6195 3.58167 32.4078 3.54122 33.3578L2.8535 50.3774L2.63097 60.7266C2.62045 61.068 2.47733 61.3919 2.23189 61.6296C1.98645 61.8673 1.65801 62.0002 1.31621 62" fill="#0C4E98"/>
<path d="M56.5505 2.54473C55.3355 2.5502 54.1476 2.90211 53.1281 3.55864C52.0332 4.24603 51.1344 5.20113 50.5176 6.33246C49.9008 7.46379 49.5867 8.73344 49.6055 10.0199C49.5294 11.898 50.2044 13.7297 51.4831 15.1153C52.7617 16.5009 54.5402 17.3278 56.4304 17.4155C57.6486 17.4078 58.8405 17.0636 59.8729 16.4215C60.9667 15.7281 61.8643 14.769 62.4807 13.6348C63.0971 12.5007 63.412 11.2291 63.3955 9.94036C63.4662 8.06035 62.7867 6.22868 61.5048 4.84371C60.223 3.45875 58.4424 2.63251 56.5505 2.54473ZM56.4304 20C53.8556 19.9169 51.4186 18.8246 49.6521 16.9619C47.8857 15.0992 46.9335 12.6177 47.0036 10.0596C46.9859 8.33319 47.4123 6.63083 48.2424 5.11391C49.0725 3.59699 50.2788 2.31576 51.7471 1.39164C53.1855 0.490372 54.8498 0.00821158 56.5505 0C59.1253 0.0882854 61.5613 1.18148 63.3299 3.04242C65.0984 4.90335 66.0569 7.38191 65.9974 9.94036C66.0149 11.669 65.5863 13.3733 64.7524 14.8907C63.9185 16.4081 62.7072 17.688 61.2339 18.6084C59.7954 19.5096 58.1312 19.9918 56.4304 20Z" fill="#0C4E98"/>
</svg>
