<svg width="115" height="109" viewBox="0 0 115 109" fill="none" xmlns="http://www.w3.org/2000/svg">
<path d="M18 71.5953C16.3581 71.5953 14.753 72.06 13.3877 72.9308C12.0225 73.8016 10.9584 75.0392 10.3301 76.4872C9.70173 77.9352 9.53731 79.5286 9.85764 81.0658C10.178 82.603 10.9687 84.015 12.1297 85.1233C13.2907 86.2316 14.77 86.9863 16.3804 87.2921C17.9908 87.5978 19.66 87.4409 21.177 86.8411C22.694 86.2413 23.9905 85.2256 24.9028 83.9224C25.815 82.6192 26.3019 81.0871 26.3019 79.5198C26.3019 77.4181 25.4272 75.4025 23.8703 73.9163C22.3134 72.4302 20.2018 71.5953 18 71.5953ZM18 90C15.8244 90 13.6977 89.3842 11.8888 88.2304C10.0798 87.0767 8.6699 85.4368 7.83734 83.5182C7.00477 81.5995 6.78693 79.4884 7.21136 77.4516C7.6358 75.4148 8.68346 73.5438 10.2218 72.0754C11.7602 70.6069 13.7202 69.6069 15.854 69.2018C17.9878 68.7966 20.1996 69.0046 22.2095 69.7993C24.2195 70.594 25.9374 71.9398 27.1461 73.6665C28.3548 75.3932 29 77.4233 29 79.5C29.0027 80.8796 28.7201 82.2462 28.1682 83.5212C27.6164 84.7963 26.8063 85.9549 25.7843 86.9304C24.7623 87.906 23.5486 88.6793 22.2128 89.2061C20.877 89.7328 19.4453 90.0026 18 90Z" fill="#0C4E98"/>
<path d="M33.5813 109C33.232 109 32.8969 108.858 32.6498 108.606C32.4028 108.353 32.264 108.011 32.264 107.654V100.283C32.2587 98.818 31.6869 97.4149 30.6732 96.3793C29.6596 95.3437 28.2864 94.7594 26.8529 94.754H8.06602C6.62904 94.7539 5.25063 95.3358 4.23263 96.372C3.21463 97.4082 2.64002 98.8144 2.63466 100.283V107.654C2.63466 108.011 2.49584 108.353 2.24879 108.606C2.00175 108.858 1.66673 109 1.31736 109C0.967988 109 0.632913 108.858 0.385869 108.606C0.138825 108.353 0 108.011 0 107.654V100.283C0 98.0859 0.854073 95.9792 2.37434 94.4259C3.89461 92.8727 5.95655 92 8.10653 92H26.8935C29.0435 92 31.1054 92.8727 32.6257 94.4259C34.1459 95.9792 35 98.0859 35 100.283V107.654C35 108.011 34.8612 108.353 34.6141 108.606C34.3671 108.858 34.032 109 33.6826 109" fill="#0C4E98"/>
<path d="M58.0208 71.5953C56.3788 71.5953 54.7737 72.06 53.4085 72.9308C52.0432 73.8015 50.9792 75.0392 50.3508 76.4872C49.7225 77.9352 49.558 79.5286 49.8784 81.0658C50.1987 82.603 50.9894 84.015 52.1504 85.1233C53.3115 86.2316 54.7907 86.9863 56.4012 87.2921C58.0116 87.5978 59.6808 87.4409 61.1978 86.8411C62.7148 86.2413 64.0113 85.2256 64.9235 83.9224C65.8358 82.6192 66.3227 81.0871 66.3227 79.5198C66.3227 77.4181 65.448 75.4024 63.8911 73.9163C62.3342 72.4302 60.2226 71.5953 58.0208 71.5953ZM58.0208 90C55.8443 90.0039 53.7155 89.3914 51.9038 88.2401C50.0921 87.0887 48.6791 85.4502 47.8433 83.5319C47.0076 81.6136 46.7868 79.5018 47.2088 77.4637C47.6309 75.4256 48.677 73.5528 50.2145 72.0824C51.7521 70.612 53.712 69.61 55.8464 69.2032C57.9807 68.7965 60.1935 69.0032 62.2047 69.7974C64.2159 70.5915 65.9351 71.9373 67.1448 73.6644C68.3544 75.3916 69 77.4225 69 79.5C69 82.2813 67.8439 84.949 65.7855 86.9176C63.7271 88.8862 60.9346 89.9947 58.0208 90Z" fill="#0C4E98"/>
<path d="M73.5619 109C73.2128 109 72.8779 108.858 72.631 108.606C72.3841 108.353 72.2454 108.011 72.2454 107.654V100.283C72.2401 98.818 71.6686 97.4149 70.6555 96.3793C69.6425 95.3437 68.27 94.7594 66.8374 94.754H48.0411C46.6084 94.7594 45.236 95.3437 44.2229 96.3793C43.2099 97.4149 42.6385 98.818 42.6331 100.283V107.654C42.6331 108.011 42.4944 108.353 42.2475 108.606C42.0006 108.858 41.6657 109 41.3165 109C40.9674 109 40.6325 108.858 40.3856 108.606C40.1387 108.353 40 108.011 40 107.654V100.283C40 98.0859 40.8536 95.9792 42.373 94.4259C43.8924 92.8727 45.9531 92 48.1019 92H66.8981C69.0469 92 71.1076 92.8727 72.627 94.4259C74.1464 95.9792 75 98.0859 75 100.283V107.654C74.9948 108.009 74.8544 108.349 74.6086 108.6C74.3628 108.851 74.031 108.995 73.6835 109" fill="#0C4E98"/>
<path d="M98 71.5953C96.3581 71.5953 94.7529 72.06 93.3877 72.9308C92.0225 73.8016 90.9584 75.0392 90.33 76.4872C89.7017 77.9353 89.5373 79.5286 89.8576 81.0658C90.1779 82.603 90.9686 84.015 92.1297 85.1233C93.2907 86.2316 94.77 86.9863 96.3804 87.2921C97.9908 87.5979 99.66 87.4409 101.177 86.8411C102.694 86.2413 103.991 85.2256 104.903 83.9224C105.815 82.6193 106.302 81.0871 106.302 79.5198C106.302 77.4181 105.427 75.4025 103.87 73.9163C102.313 72.4302 100.202 71.5953 98 71.5953ZM98 90C95.8244 90 93.6977 89.3842 91.8887 88.2304C90.0798 87.0767 88.6699 85.4368 87.8373 83.5182C87.0047 81.5996 86.7869 79.4884 87.2114 77.4516C87.6358 75.4148 88.6834 73.5438 90.2218 72.0754C91.7602 70.6069 93.7202 69.6069 95.854 69.2018C97.9878 68.7966 100.2 69.0046 102.21 69.7993C104.22 70.594 105.938 71.9398 107.146 73.6665C108.355 75.3932 109 77.4233 109 79.5C109 82.2848 107.841 84.9555 105.778 86.9246C103.715 88.8938 100.917 90 98 90Z" fill="#0C4E98"/>
<path d="M113.562 109C113.213 109 112.878 108.858 112.631 108.606C112.384 108.353 112.245 108.011 112.245 107.654V100.283C112.24 98.818 111.669 97.4149 110.655 96.3793C109.642 95.3437 108.27 94.7594 106.837 94.754H88.0411C86.6084 94.7594 85.236 95.3437 84.223 96.3793C83.21 97.4149 82.6385 98.818 82.6331 100.283V107.654C82.6331 108.011 82.4944 108.353 82.2475 108.606C82.0006 108.858 81.6658 109 81.3166 109C80.9674 109 80.6325 108.858 80.3856 108.606C80.1387 108.353 80 108.011 80 107.654V100.283C80 98.0859 80.8536 95.9792 82.373 94.4259C83.8924 92.8727 85.9531 92 88.1018 92H106.898C109.047 92 111.108 92.8727 112.627 94.4259C114.146 95.9792 115 98.0859 115 100.283V107.654C115 108.011 114.861 108.353 114.614 108.606C114.367 108.858 114.033 109 113.683 109" fill="#0C4E98"/>
<path d="M58.0208 2.59528C56.3788 2.59528 54.7737 3.06004 53.4085 3.9308C52.0432 4.80156 50.9792 6.03921 50.3508 7.48723C49.7225 8.93525 49.558 10.5286 49.8784 12.0658C50.1987 13.603 50.9894 15.015 52.1504 16.1233C53.3115 17.2315 54.7907 17.9863 56.4012 18.2921C58.0116 18.5978 59.6808 18.4409 61.1978 17.8411C62.7148 17.2413 64.0113 16.2256 64.9235 14.9224C65.8358 13.6192 66.3227 12.0871 66.3227 10.5198C66.3227 8.4181 65.448 6.40246 63.8911 4.91632C62.3342 3.43018 60.2226 2.59528 58.0208 2.59528ZM58.0208 21C55.8443 21.0039 53.7155 20.3914 51.9038 19.24C50.0921 18.0887 48.6791 16.4502 47.8433 14.5319C47.0076 12.6136 46.7868 10.5018 47.2088 8.46371C47.6309 6.42561 48.677 4.55284 50.2145 3.08241C51.7521 1.61197 53.712 0.609964 55.8464 0.203211C57.9807 -0.203542 60.1935 0.00324107 62.2047 0.797375C64.2159 1.59151 65.9351 2.9373 67.1448 4.66444C68.3544 6.39159 69 8.42243 69 10.5C69 13.2813 67.8439 15.9491 65.7855 17.9176C63.7271 19.8862 60.9346 20.9947 58.0208 21Z" fill="#0C4E98"/>
<path d="M73.5619 40C73.2144 39.9947 72.8826 39.8511 72.6368 39.5999C72.391 39.3486 72.2506 39.0094 72.2454 38.6541V31.2826C72.2454 29.8163 71.6756 28.4101 70.6614 27.3732C69.6472 26.3364 68.2717 25.754 66.8374 25.754H48.0411C47.3309 25.754 46.6277 25.8969 45.9716 26.1748C45.3154 26.4526 44.7193 26.8599 44.2171 27.3732C43.7149 27.8866 43.3165 28.4961 43.0447 29.1669C42.773 29.8376 42.6331 30.5566 42.6331 31.2826V38.6541C42.6331 39.0111 42.4944 39.3534 42.2475 39.6058C42.0006 39.8582 41.6657 40 41.3165 40C40.9674 40 40.6325 39.8582 40.3856 39.6058C40.1387 39.3534 40 39.0111 40 38.6541V31.2826C40 29.0859 40.8536 26.9792 42.373 25.4259C43.8924 23.8726 45.9531 23 48.1019 23H66.8981C69.0469 23 71.1076 23.8726 72.627 25.4259C74.1464 26.9792 75 29.0859 75 31.2826V38.6541C74.9948 39.0094 74.8544 39.3486 74.6086 39.5999C74.3628 39.8511 74.031 39.9947 73.6835 40" fill="#0C4E98"/>
<path d="M28.2535 39.9391C27.9227 39.9339 27.6067 39.7933 27.3728 39.5471C27.1388 39.3009 27.0051 38.9685 27.0001 38.6203V32.0464C26.9978 31.8728 27.0291 31.7005 27.092 31.54C27.155 31.3796 27.2484 31.2343 27.3665 31.1131L31.8595 26.3855C31.9754 26.2622 32.1136 26.1645 32.266 26.0983C32.4183 26.0321 32.5817 25.9987 32.7466 26C33.079 26 33.3978 26.139 33.6329 26.3863C33.8679 26.6337 34 26.9691 34 27.3189C34.0012 27.4923 33.9694 27.6643 33.9065 27.8246C33.8436 27.9849 33.7508 28.1303 33.6336 28.2522L29.4877 32.5942V38.6812C29.4877 39.0275 29.3583 39.3599 29.1274 39.6066C28.8965 39.8534 28.5826 39.9947 28.2535 40" fill="#0C4E98"/>
<path d="M85.7466 40C85.4157 39.9948 85.0998 39.8541 84.8658 39.6079C84.6318 39.3617 84.4981 39.0293 84.4932 38.6812V32.5942L80.3664 28.2522C80.2492 28.1303 80.1564 27.9849 80.0935 27.8246C80.0306 27.6643 79.9988 27.4923 80 27.3189C80.0057 26.9702 80.1366 26.6368 80.3664 26.3855C80.4823 26.2622 80.6205 26.1645 80.7729 26.0983C80.9253 26.0321 81.0887 25.9987 81.2535 26C81.5857 26.0018 81.904 26.1402 82.1405 26.3855L86.6336 31.1131C86.8634 31.3643 86.9944 31.6977 87 32.0464V38.6203C86.995 38.9685 86.8614 39.3009 86.6274 39.5471C86.3934 39.7933 86.0775 39.9339 85.7466 39.9391" fill="#0C4E98"/>
<path d="M102.674 66C102.326 65.9946 101.993 65.851 101.749 65.6003C101.505 65.3495 101.368 65.0117 101.368 64.6598V46.6804H14.6525V64.6598C14.6525 65.0152 14.5127 65.3561 14.264 65.6075C14.0153 65.8588 13.678 66 13.3263 66C12.9745 66 12.6372 65.8588 12.3885 65.6075C12.1398 65.3561 12 65.0152 12 64.6598V45.3402C12 44.9847 12.1398 44.6439 12.3885 44.3925C12.6372 44.1412 12.9745 44 13.3263 44H102.674C103.026 44 103.363 44.1412 103.612 44.3925C103.86 44.6439 104 44.9847 104 45.3402V64.6598C104 65.0152 103.86 65.3561 103.612 65.6075C103.363 65.8588 103.026 66 102.674 66Z" fill="#0C4E98"/>
</svg>
