<svg width="101" height="103" viewBox="0 0 101 103" fill="none" xmlns="http://www.w3.org/2000/svg">
<path d="M13.8514 71.7826C7.10354 71.7826 5.276 78.5773 5.20571 78.8116C4.3388 82.1621 5.0417 85.4892 7.54871 89.9643C9.0248 92.5885 12.2347 96.9933 13.8514 99.1958C15.4446 97.0168 18.5374 92.5885 20.1306 89.9643C22.6376 85.5126 23.3405 82.1621 22.4736 78.8116C22.4736 78.507 20.5758 71.7826 13.8514 71.7826ZM13.8514 102.593C13.6639 102.592 13.4792 102.547 13.3123 102.462C13.1455 102.376 13.001 102.253 12.8907 102.101C10.2218 98.6321 7.73487 95.0269 5.44 91.2999C2.6284 86.2624 1.83179 82.2324 2.86271 78.2259C3.38722 75.6993 4.76636 73.4307 6.76786 71.8021C8.76937 70.1734 11.271 69.2842 13.8514 69.2842C16.4318 69.2842 18.9334 70.1734 20.9349 71.8021C22.9364 73.4307 24.3155 75.6993 24.8401 78.2259C25.8476 82.209 25.0509 86.239 22.2393 91.2764C20.1541 95.0018 15.0229 101.797 14.812 102.078C14.7004 102.228 14.5558 102.351 14.3892 102.436C14.2226 102.521 14.0385 102.567 13.8514 102.57" fill="#0C4E98"/>
<path d="M88.9222 2.49845C82.1743 2.49845 80.3702 9.29315 80.2999 9.52745C79.433 12.9014 80.1359 16.2284 82.6429 20.7035C84.119 23.3277 87.3289 27.7325 88.9222 29.935C90.5388 27.756 93.7487 23.3277 95.2248 20.7035C97.7084 16.2284 98.4113 12.9014 97.5678 9.52745C97.5678 9.24629 95.67 2.49845 88.9222 2.49845ZM88.9222 33.2854C88.7367 33.2873 88.5533 33.2459 88.3865 33.1645C88.2198 33.0832 88.0743 32.9642 87.9615 32.8169C87.7507 32.5123 82.6195 25.7878 80.5342 21.9922C77.6992 16.9781 76.9026 12.9482 77.9335 8.9417C78.458 6.41515 79.8371 4.14649 81.8386 2.51783C83.8402 0.889162 86.3418 0 88.9222 0C91.5026 0 94.0042 0.889162 96.0057 2.51783C98.0072 4.14649 99.3863 6.41515 99.9108 8.9417C100.942 12.9482 100.145 16.9781 97.3335 21.9922C95.2483 25.7175 90.0937 32.5123 89.8828 32.8169C89.77 32.9642 89.6245 33.0832 89.4578 33.1645C89.2911 33.2459 89.1077 33.2873 88.9222 33.2854Z" fill="#0C4E98"/>
<path d="M75.1218 84.4338H31.8934C31.5904 84.3923 31.3127 84.2424 31.1117 84.0119C30.9107 83.7815 30.7999 83.4861 30.7999 83.1803C30.7999 82.8745 30.9107 82.579 31.1117 82.3485C31.3127 82.1181 31.5904 81.9683 31.8934 81.9268H75.1218C77.169 81.8159 79.0958 80.9246 80.5058 79.4362C81.9158 77.9479 82.7017 75.9756 82.7017 73.9254C82.7017 71.8752 81.9158 69.903 80.5058 68.4146C79.0958 66.9262 77.169 66.0348 75.1218 65.924H25.6376C18.741 65.6352 12.2229 62.6924 7.44522 57.7105C2.66755 52.7286 0 46.093 0 39.1904C0 32.2878 2.66755 25.6522 7.44522 20.6703C12.2229 15.6884 18.741 12.7456 25.6376 12.4568H71.3027C71.6056 12.4983 71.8833 12.6481 72.0843 12.8786C72.2853 13.109 72.3961 13.4045 72.3961 13.7103C72.3961 14.0161 72.2853 14.3115 72.0843 14.5419C71.8833 14.7724 71.6056 14.9222 71.3027 14.9637H25.6376C19.2123 14.9637 13.0501 17.5162 8.50675 22.0596C3.96338 26.603 1.41095 32.7651 1.41095 39.1904C1.41095 45.6157 3.96338 51.7778 8.50675 56.3212C13.0501 60.8646 19.2123 63.4171 25.6376 63.4171H75.1218C77.9181 63.4171 80.5998 64.5279 82.5771 66.5052C84.5544 68.4825 85.6653 71.1643 85.6653 73.9606C85.6653 76.7569 84.5544 79.4387 82.5771 81.4159C80.5998 83.3932 77.9181 84.5041 75.1218 84.5041" fill="#0C4E98"/>
<path d="M75.1214 100.649H28.0974C27.7944 100.607 27.5167 100.457 27.3157 100.227C27.1147 99.9966 27.004 99.7011 27.004 99.3953C27.004 99.0895 27.1147 98.7941 27.3157 98.5637C27.5167 98.3332 27.7944 98.1833 28.0974 98.1418H75.1214C81.4133 97.9461 87.3819 95.3091 91.7632 90.7893C96.1446 86.2695 98.5947 80.2218 98.5947 73.9269C98.5947 67.632 96.1446 61.5844 91.7632 57.0646C87.3819 52.5447 81.4133 49.9077 75.1214 49.712H25.6373C22.8409 49.712 20.1592 48.6012 18.1819 46.6239C16.2046 44.6466 15.0938 41.9648 15.0938 39.1685C15.0938 36.3722 16.2046 33.6904 18.1819 31.7131C20.1592 29.7358 22.8409 28.625 25.6373 28.625H75.426C75.7616 28.625 76.0834 28.7583 76.3207 28.9956C76.5579 29.2329 76.6913 29.5547 76.6913 29.8902C76.6913 30.2258 76.5579 30.5476 76.3207 30.7849C76.0834 31.0222 75.7616 31.1554 75.426 31.1554H25.6373C23.5183 31.1554 21.4861 31.9972 19.9877 33.4956C18.4894 34.9939 17.6476 37.0261 17.6476 39.1451C17.6476 41.264 18.4894 43.2962 19.9877 44.7946C21.4861 46.2929 23.5183 47.1347 25.6373 47.1347H75.1214C82.018 47.4235 88.5361 50.3664 93.3138 55.3483C98.0915 60.3302 100.759 66.9657 100.759 73.8683C100.759 80.7709 98.0915 87.4065 93.3138 92.3884C88.5361 97.3703 82.018 100.313 75.1214 100.602" fill="#0C4E98"/>
<path d="M40.9844 23.0695H33.2525C32.9495 23.028 32.6718 22.8782 32.4708 22.6477C32.2698 22.4173 32.1591 22.1218 32.1591 21.816C32.1591 21.5102 32.2698 21.2147 32.4708 20.9843C32.6718 20.7538 32.9495 20.604 33.2525 20.5625H40.9844C41.2874 20.604 41.5651 20.7538 41.7661 20.9843C41.9671 21.2147 42.0778 21.5102 42.0778 21.816C42.0778 22.1218 41.9671 22.4173 41.7661 22.6477C41.5651 22.8782 41.2874 23.028 40.9844 23.0695ZM56.4248 23.0695H48.6929C48.3899 23.028 48.1122 22.8782 47.9112 22.6477C47.7102 22.4173 47.5994 22.1218 47.5994 21.816C47.5994 21.5102 47.7102 21.2147 47.9112 20.9843C48.1122 20.7538 48.3899 20.604 48.6929 20.5625H56.4248C56.7277 20.604 57.0054 20.7538 57.2064 20.9843C57.4075 21.2147 57.5182 21.5102 57.5182 21.816C57.5182 22.1218 57.4075 22.4173 57.2064 22.6477C57.0054 22.8782 56.7277 23.028 56.4248 23.0695ZM71.8886 23.0695H64.1567C63.8537 23.028 63.576 22.8782 63.375 22.6477C63.174 22.4173 63.0632 22.1218 63.0632 21.816C63.0632 21.5102 63.174 21.2147 63.375 20.9843C63.576 20.7538 63.8537 20.604 64.1567 20.5625H71.8886C72.1915 20.604 72.4692 20.7538 72.6702 20.9843C72.8713 21.2147 72.982 21.5102 72.982 21.816C72.982 22.1218 72.8713 22.4173 72.6702 22.6477C72.4692 22.8782 72.1915 23.028 71.8886 23.0695ZM18.1636 25.0845C17.9417 25.0814 17.7247 25.0189 17.5351 24.9036C17.3456 24.7882 17.1904 24.6241 17.0858 24.4284C16.934 24.132 16.903 23.7883 16.9991 23.4694C17.0951 23.1506 17.311 22.8813 17.6012 22.718C20.0265 21.3872 22.7321 20.6486 25.4972 20.5625C25.8189 20.5737 26.1248 20.705 26.3547 20.9305C26.5845 21.156 26.7216 21.4593 26.739 21.7808C26.7518 22.1064 26.6361 22.4239 26.417 22.665C26.1978 22.906 25.8927 23.0513 25.5675 23.0695C23.1767 23.1346 20.8373 23.7777 18.7493 24.9439C18.5682 25.0372 18.3673 25.0855 18.1636 25.0845ZM9.54132 37.5493H9.33046C9.00799 37.492 8.72118 37.3097 8.53249 37.042C8.34379 36.7743 8.26849 36.4429 8.32297 36.12C8.76884 33.32 9.8334 30.6546 11.4392 28.3178C11.5306 28.1844 11.6476 28.0706 11.7835 27.9829C11.9194 27.8952 12.0713 27.8355 12.2305 27.8072C12.3897 27.7788 12.553 27.7824 12.7108 27.8178C12.8686 27.8532 13.0177 27.9196 13.1495 28.0132C13.4134 28.2138 13.5898 28.5083 13.6422 28.8355C13.6945 29.1628 13.6188 29.4976 13.4307 29.7705C12.0394 31.79 11.1186 34.0959 10.7363 36.5183C10.6969 36.8083 10.5545 37.0744 10.3351 37.268C10.1157 37.4616 9.83391 37.5697 9.54132 37.5727M13.8993 52.2165C13.733 52.2194 13.5679 52.1876 13.4146 52.123C13.2613 52.0585 13.1231 51.9626 13.009 51.8416C11.0995 49.7479 9.68961 47.2485 8.88528 44.5314C8.83984 44.3667 8.82823 44.1945 8.85114 44.0252C8.87405 43.8559 8.93101 43.693 9.01858 43.5463C9.10616 43.3996 9.22254 43.2722 9.3607 43.1717C9.49887 43.0712 9.65595 42.9997 9.82249 42.9616C10.1332 42.8751 10.4655 42.9153 10.7466 43.0734C11.0277 43.2315 11.2346 43.4946 11.322 43.805C12.0061 46.093 13.1815 48.2041 14.7662 49.9906C14.9954 50.2304 15.1233 50.5493 15.1233 50.8809C15.1233 51.2126 14.9954 51.5315 14.7662 51.7713C14.658 51.8774 14.5298 51.961 14.389 52.0173C14.2483 52.0736 14.0978 52.1014 13.9462 52.0993M27.8636 57.5116H26.0595C23.9449 57.5093 21.8485 57.1202 19.874 56.3636C19.5653 56.2429 19.3162 56.006 19.1804 55.7037C19.0446 55.4013 19.0328 55.0578 19.1476 54.7469C19.2001 54.5936 19.2827 54.4524 19.3904 54.3314C19.4982 54.2105 19.6289 54.1122 19.7751 54.0424C19.9213 53.9726 20.0799 53.9327 20.2417 53.9249C20.4035 53.9171 20.5653 53.9416 20.7174 53.9971C22.4221 54.6522 24.2333 54.9859 26.0595 54.9812H27.8636C28.1991 54.9812 28.521 55.1145 28.7582 55.3518C28.9955 55.5891 29.1288 55.9109 29.1288 56.2464C29.1288 56.582 28.9955 56.9038 28.7582 57.1411C28.521 57.3783 28.1991 57.5116 27.8636 57.5116ZM43.304 57.5116H35.5955C35.2599 57.5116 34.9381 57.3783 34.7009 57.1411C34.4636 56.9038 34.3303 56.582 34.3303 56.2464C34.3303 55.9109 34.4636 55.5891 34.7009 55.3518C34.9381 55.1145 35.2599 54.9812 35.5955 54.9812H43.304C43.6395 54.9812 43.9613 55.1145 44.1986 55.3518C44.4359 55.5891 44.5692 55.9109 44.5692 56.2464C44.5692 56.582 44.4359 56.9038 44.1986 57.1411C43.9613 57.3783 43.6395 57.5116 43.304 57.5116ZM58.7678 57.5116H51.0359C50.7003 57.5116 50.3785 57.3783 50.1412 57.1411C49.9039 56.9038 49.7707 56.582 49.7707 56.2464C49.7707 55.9109 49.9039 55.5891 50.1412 55.3518C50.3785 55.1145 50.7003 54.9812 51.0359 54.9812H58.7678C59.1033 54.9812 59.4251 55.1145 59.6624 55.3518C59.8997 55.5891 60.033 55.9109 60.033 56.2464C60.033 56.582 59.8997 56.9038 59.6624 57.1411C59.4251 57.3783 59.1033 57.5116 58.7678 57.5116ZM74.2082 57.5116H66.4997C66.1641 57.5116 65.8423 57.3783 65.605 57.1411C65.3677 56.9038 65.2345 56.582 65.2345 56.2464C65.2345 55.9109 65.3677 55.5891 65.605 55.3518C65.8423 55.1145 66.1641 54.9812 66.4997 54.9812H74.2082C74.5437 54.9812 74.8655 55.1145 75.1028 55.3518C75.3401 55.5891 75.4734 55.9109 75.4734 56.2464C75.4734 56.582 75.3401 56.9038 75.1028 57.1411C74.8655 57.3783 74.5437 57.5116 74.2082 57.5116ZM88.0787 63.4628C87.9049 63.4632 87.7331 63.4257 87.5753 63.3529C87.4174 63.28 87.2774 63.1736 87.1649 63.0411C85.5866 61.175 83.5979 59.6995 81.3543 58.73C81.0527 58.5962 80.8152 58.3498 80.6927 58.0434C80.5701 57.737 80.5721 57.3948 80.6983 57.0899C80.752 56.936 80.8372 56.7949 80.9485 56.6758C81.0599 56.5567 81.1948 56.4622 81.3448 56.3982C81.4948 56.3343 81.6564 56.3023 81.8194 56.3044C81.9825 56.3065 82.1432 56.3426 82.2915 56.4104C84.8812 57.5222 87.1757 59.223 88.9925 61.3775C89.2216 61.6173 89.3495 61.9362 89.3495 62.2679C89.3495 62.5996 89.2216 62.9185 88.9925 63.1582C88.7747 63.3563 88.4902 63.465 88.1959 63.4628M92.0384 78.458H91.8041C91.4836 78.385 91.2041 78.1901 91.0248 77.9146C90.8455 77.6391 90.7805 77.3046 90.8435 76.9819C91.3428 74.5305 91.2707 71.997 90.6326 69.578C90.5526 69.2614 90.5981 68.9261 90.7597 68.6422C90.9213 68.3584 91.1864 68.148 91.4995 68.0551C91.6565 68.0096 91.8212 67.9968 91.9833 68.0175C92.1455 68.0382 92.3016 68.0919 92.4422 68.1754C92.5827 68.2588 92.7047 68.3702 92.8005 68.5026C92.8962 68.6351 92.9638 68.7858 92.999 68.9455C93.4031 70.5146 93.6077 72.1284 93.6082 73.7487C93.6006 74.9995 93.4751 76.2468 93.2333 77.474C93.1839 77.7554 93.0371 78.0105 92.8187 78.1946C92.6003 78.3788 92.3241 78.4803 92.0384 78.4815M82.8304 90.7354C82.6024 90.7333 82.3798 90.6659 82.1888 90.5414C81.9978 90.4168 81.8465 90.2402 81.7526 90.0325C81.6056 89.7338 81.5822 89.3893 81.6874 89.0735C81.7927 88.7578 82.0182 88.4962 82.3149 88.3455C84.4998 87.2285 86.3994 85.6255 87.8678 83.6595C87.9625 83.5289 88.0827 83.4189 88.2211 83.336C88.3595 83.2531 88.5132 83.199 88.673 83.1771C88.8328 83.1553 88.9954 83.166 89.151 83.2086C89.3066 83.2512 89.4519 83.3249 89.5782 83.4252C89.8362 83.6324 90.0026 83.9324 90.0421 84.2608C90.0815 84.5893 89.9907 84.9201 89.7891 85.1824C88.0834 87.4403 85.8886 89.2827 83.3693 90.5714C83.1993 90.6462 83.0161 90.6861 82.8304 90.6885M44.4052 92.4223H36.5327C36.2297 92.3808 35.9521 92.231 35.751 92.0005C35.55 91.7701 35.4392 91.4747 35.4392 91.1689C35.4392 90.8631 35.55 90.5676 35.751 90.3371C35.9521 90.1067 36.2297 89.9569 36.5327 89.9153H44.2412C44.5441 89.9569 44.8218 90.1067 45.0228 90.3371C45.2239 90.5676 45.3346 90.8631 45.3346 91.1689C45.3346 91.4747 45.2239 91.7701 45.0228 92.0005C44.8218 92.231 44.5441 92.3808 44.2412 92.4223M59.705 92.4223H51.9965C51.6935 92.3808 51.4159 92.231 51.2148 92.0005C51.0138 91.7701 50.9031 91.4747 50.9031 91.1689C50.9031 90.8631 51.0138 90.5676 51.2148 90.3371C51.4159 90.1067 51.6935 89.9569 51.9965 89.9153H59.7284C60.0314 89.9569 60.3091 90.1067 60.5101 90.3371C60.7111 90.5676 60.8218 90.8631 60.8218 91.1689C60.8218 91.4747 60.7111 91.7701 60.5101 92.0005C60.3091 92.231 60.0314 92.3808 59.7284 92.4223M75.1922 92.4223H67.4603C67.1573 92.3808 66.8797 92.231 66.6786 92.0005C66.4776 91.7701 66.3669 91.4747 66.3669 91.1689C66.3669 90.8631 66.4776 90.5676 66.6786 90.3371C66.8797 90.1067 67.1573 89.9569 67.4603 89.9153H75.1922C75.4952 89.9569 75.7729 90.1067 75.9739 90.3371C76.1749 90.5676 76.2857 90.8631 76.2857 91.1689C76.2857 91.4747 76.1749 91.7701 75.9739 92.0005C75.7729 92.231 75.4952 92.3808 75.1922 92.4223Z" fill="#0C4E98"/>
</svg>
