<svg width="114" height="103" viewBox="0 0 114 103" fill="none" xmlns="http://www.w3.org/2000/svg">
<path d="M56.8601 2.95237C55.7782 2.95888 54.721 3.27604 53.8142 3.86614L3.5568 37.1836C3.2461 37.2768 2.98513 37.4897 2.83134 37.7753C2.67755 38.0609 2.64353 38.3959 2.73674 38.7066C2.82995 39.0173 3.04282 39.2782 3.32842 39.432C3.61403 39.5858 3.94897 39.6198 4.25968 39.5266H109.367C109.677 39.6198 110.012 39.5858 110.298 39.432C110.584 39.2782 110.796 39.0173 110.89 38.7066C110.983 38.3959 110.949 38.0609 110.795 37.7753C110.641 37.4897 110.38 37.2768 110.07 37.1836L59.7888 3.86614C58.8916 3.27425 57.8412 2.95671 56.7663 2.95237M28.4864 70.5714H85.0464V63.1675H76.5179V60.1919H85.0464V54.8733H28.58V60.1919H62.6473V63.1675H28.58L28.4864 70.5714ZM28.4864 80.9509H85.0464V73.547H28.58L28.4864 80.9509ZM28.4864 99.6949H85.0464V83.9734H28.58L28.4864 99.6949ZM88.0923 99.6949H104.306V42.4085H9.43776V99.648H25.5342V51.8977H88.186L88.0923 99.6949ZM6.29815 102.67V42.4554H4.21284C3.31087 42.4594 2.43166 42.1726 1.7056 41.6375C0.97954 41.1023 0.445344 40.3473 0.182304 39.4845C-0.0807358 38.6217 -0.0586239 37.6972 0.24537 36.8479C0.549363 35.9987 1.11902 35.2702 1.86984 34.7703L52.1038 1.38257C53.4987 0.477152 55.1268 -0.00312495 56.7898 0.000204305C58.454 -0.0113762 60.0844 0.469586 61.4758 1.38257L111.71 34.7C112.292 35.0782 112.77 35.5954 113.101 36.205C113.433 36.8146 113.607 37.4973 113.608 38.1911C113.589 39.318 113.125 40.3917 112.317 41.1776C111.51 41.9635 110.423 42.3976 109.296 42.3851H107.211V102.6L6.29815 102.67Z" fill="#0C4E98"/>
</svg>
