<svg width="115" height="103" viewBox="0 0 115 103" fill="none" xmlns="http://www.w3.org/2000/svg">
<path d="M112.901 94.2395H96.3828C96.1282 94.1668 95.9042 94.0131 95.7448 93.8017C95.5853 93.5903 95.499 93.3328 95.499 93.068C95.499 92.8032 95.5853 92.5457 95.7448 92.3343C95.9042 92.1229 96.1282 91.9692 96.3828 91.8965H112.901C113.082 91.8447 113.273 91.8357 113.459 91.8702C113.644 91.9047 113.819 91.9818 113.969 92.0953C114.12 92.2089 114.242 92.3559 114.326 92.5246C114.41 92.6934 114.454 92.8794 114.454 93.068C114.454 93.2566 114.41 93.4426 114.326 93.6113C114.242 93.7801 114.12 93.9271 113.969 94.0406C113.819 94.1542 113.644 94.2313 113.459 94.2658C113.273 94.3003 113.082 94.2913 112.901 94.2395Z" fill="#0C4E98"/>
<path d="M18.1264 94.2395H1.60831C1.35372 94.1668 1.12974 94.0131 0.970293 93.8017C0.810842 93.5903 0.724609 93.3328 0.724609 93.068C0.724609 92.8032 0.810842 92.5457 0.970293 92.3343C1.12974 92.1229 1.35372 91.9692 1.60831 91.8965H18.1264C18.3078 91.8447 18.4986 91.8357 18.684 91.8702C18.8694 91.9047 19.0443 91.9818 19.1948 92.0953C19.3454 92.2089 19.4675 92.3559 19.5516 92.5246C19.6357 92.6934 19.6795 92.8794 19.6795 93.068C19.6795 93.2566 19.6357 93.4426 19.5516 93.6113C19.4675 93.7801 19.3454 93.9271 19.1948 94.0406C19.0443 94.1542 18.8694 94.2313 18.684 94.2658C18.4986 94.3003 18.3078 94.2913 18.1264 94.2395Z" fill="#0C4E98"/>
<path d="M53.1545 94.2385H48.0233C47.7043 94.2324 47.4004 94.1013 47.1769 93.8735C46.9535 93.6457 46.8283 93.3393 46.8284 93.0202C46.8252 92.8613 46.8539 92.7034 46.9125 92.5557C46.9712 92.408 47.0587 92.2734 47.17 92.16C47.2813 92.0465 47.414 91.9564 47.5605 91.8949C47.7071 91.8334 47.8644 91.8017 48.0233 91.8018H53.1545C53.4776 91.8018 53.7875 91.9301 54.016 92.1586C54.2445 92.3871 54.3728 92.697 54.3728 93.0202C54.3728 93.3433 54.2445 93.6531 54.016 93.8816C53.7875 94.1101 53.4776 94.2385 53.1545 94.2385Z" fill="#0C4E98"/>
<path d="M53.1545 86.55H48.0234C47.7688 86.4773 47.5448 86.3236 47.3853 86.1122C47.2259 85.9008 47.1396 85.6433 47.1396 85.3785C47.1396 85.1138 47.2259 84.8562 47.3853 84.6448C47.5448 84.4335 47.7688 84.2798 48.0234 84.207H53.1545C53.3358 84.1552 53.5267 84.1462 53.7121 84.1807C53.8975 84.2152 54.0724 84.2923 54.2229 84.4059C54.3735 84.5194 54.4956 84.6664 54.5796 84.8352C54.6637 85.004 54.7076 85.19 54.7076 85.3785C54.7076 85.5671 54.6637 85.7531 54.5796 85.9219C54.4956 86.0907 54.3735 86.2376 54.2229 86.3512C54.0724 86.4647 53.8975 86.5418 53.7121 86.5763C53.5267 86.6108 53.3358 86.6018 53.1545 86.55Z" fill="#0C4E98"/>
<path d="M53.1545 78.8657H48.0234C47.7688 78.793 47.5448 78.6393 47.3853 78.4279C47.2259 78.2165 47.1396 77.959 47.1396 77.6942C47.1396 77.4294 47.2259 77.1719 47.3853 76.9605C47.5448 76.7491 47.7688 76.5954 48.0234 76.5227H53.1545C53.3358 76.4709 53.5267 76.4619 53.7121 76.4964C53.8975 76.5309 54.0724 76.608 54.2229 76.7216C54.3735 76.8351 54.4956 76.9821 54.5796 77.1509C54.6637 77.3196 54.7076 77.5056 54.7076 77.6942C54.7076 77.8828 54.6637 78.0688 54.5796 78.2376C54.4956 78.4063 54.3735 78.5533 54.2229 78.6669C54.0724 78.7804 53.8975 78.8575 53.7121 78.892C53.5267 78.9265 53.3358 78.9175 53.1545 78.8657Z" fill="#0C4E98"/>
<path d="M53.1555 71.1801H48.0243C47.8654 71.1802 47.708 71.1485 47.5615 71.087C47.415 71.0255 47.2822 70.9354 47.171 70.8219C47.0597 70.7085 46.9721 70.5739 46.9135 70.4262C46.8548 70.2785 46.8262 70.1207 46.8293 69.9618C46.8293 69.6427 46.9545 69.3363 47.1779 69.1084C47.4014 68.8806 47.7052 68.7495 48.0243 68.7434H53.1555C53.4786 68.7434 53.7885 68.8718 54.017 69.1003C54.2455 69.3288 54.3738 69.6387 54.3738 69.9618C54.3738 70.2849 54.2455 70.5948 54.017 70.8233C53.7885 71.0518 53.4786 71.1801 53.1555 71.1801Z" fill="#0C4E98"/>
<path d="M53.1545 63.4953H48.0234C47.7688 63.4226 47.5448 63.2689 47.3853 63.0575C47.2259 62.8462 47.1396 62.5886 47.1396 62.3238C47.1396 62.0591 47.2259 61.8015 47.3853 61.5901C47.5448 61.3787 47.7688 61.2251 48.0234 61.1523H53.1545C53.3358 61.1005 53.5267 61.0915 53.7121 61.126C53.8975 61.1605 54.0724 61.2376 54.2229 61.3512C54.3735 61.4648 54.4956 61.6117 54.5796 61.7805C54.6637 61.9493 54.7076 62.1353 54.7076 62.3238C54.7076 62.5124 54.6637 62.6984 54.5796 62.8672C54.4956 63.036 54.3735 63.1829 54.2229 63.2965C54.0724 63.4101 53.8975 63.4872 53.7121 63.5217C53.5267 63.5562 53.3358 63.5471 53.1545 63.4953Z" fill="#0C4E98"/>
<path d="M53.1555 55.8115H48.0243C47.7052 55.8054 47.4014 55.6743 47.1779 55.4465C46.9545 55.2187 46.8293 54.9122 46.8293 54.5931C46.8262 54.4342 46.8548 54.2763 46.9135 54.1286C46.9721 53.9809 47.0597 53.8464 47.171 53.733C47.2822 53.6195 47.415 53.5294 47.5615 53.4679C47.708 53.4064 47.8654 53.3747 48.0243 53.3748H53.1555C53.4786 53.3748 53.7885 53.5031 54.017 53.7316C54.2455 53.9601 54.3738 54.27 54.3738 54.5931C54.3738 54.9162 54.2455 55.2261 54.017 55.4546C53.7885 55.6831 53.4786 55.8115 53.1555 55.8115Z" fill="#0C4E98"/>
<path d="M53.1545 48.1018H48.0234C47.7688 48.0291 47.5448 47.8754 47.3853 47.664C47.2259 47.4526 47.1396 47.1951 47.1396 46.9303C47.1396 46.6655 47.2259 46.408 47.3853 46.1966C47.5448 45.9852 47.7688 45.8315 48.0234 45.7588H53.1545C53.3358 45.707 53.5267 45.698 53.7121 45.7325C53.8975 45.767 54.0724 45.8441 54.2229 45.9576C54.3735 46.0712 54.4956 46.2182 54.5796 46.3869C54.6637 46.5557 54.7076 46.7417 54.7076 46.9303C54.7076 47.1189 54.6637 47.3049 54.5796 47.4736C54.4956 47.6424 54.3735 47.7894 54.2229 47.9029C54.0724 48.0165 53.8975 48.0936 53.7121 48.1281C53.5267 48.1626 53.3358 48.1536 53.1545 48.1018Z" fill="#0C4E98"/>
<path d="M66.4396 94.2385H61.3085C60.9894 94.2324 60.6855 94.1013 60.462 93.8735C60.2386 93.6457 60.1135 93.3393 60.1135 93.0202C60.1104 92.8613 60.139 92.7034 60.1977 92.5557C60.2563 92.408 60.3438 92.2734 60.4551 92.16C60.5664 92.0465 60.6992 91.9564 60.8457 91.8949C60.9922 91.8334 61.1496 91.8017 61.3085 91.8018H66.4396C66.7628 91.8018 67.0726 91.9301 67.3011 92.1586C67.5296 92.3871 67.658 92.697 67.658 93.0202C67.658 93.3433 67.5296 93.6531 67.3011 93.8816C67.0726 94.1101 66.7628 94.2385 66.4396 94.2385Z" fill="#0C4E98"/>
<path d="M66.4398 86.55H61.3086C61.054 86.4773 60.83 86.3236 60.6706 86.1122C60.5111 85.9008 60.4248 85.6433 60.4248 85.3785C60.4248 85.1138 60.5111 84.8562 60.6706 84.6448C60.83 84.4335 61.054 84.2798 61.3086 84.207H66.4398C66.6211 84.1552 66.8119 84.1462 66.9973 84.1807C67.1827 84.2152 67.3575 84.2923 67.5081 84.4059C67.6586 84.5194 67.7808 84.6664 67.8649 84.8352C67.949 85.004 67.9927 85.19 67.9927 85.3785C67.9927 85.5671 67.949 85.7531 67.8649 85.9219C67.7808 86.0907 67.6586 86.2376 67.5081 86.3512C67.3575 86.4647 67.1827 86.5418 66.9973 86.5763C66.8119 86.6108 66.6211 86.6018 66.4398 86.55Z" fill="#0C4E98"/>
<path d="M66.4398 78.8657H61.3086C61.054 78.793 60.83 78.6393 60.6706 78.4279C60.5111 78.2165 60.4248 77.959 60.4248 77.6942C60.4248 77.4294 60.5111 77.1719 60.6706 76.9605C60.83 76.7491 61.054 76.5954 61.3086 76.5227H66.4398C66.6211 76.4709 66.8119 76.4619 66.9973 76.4964C67.1827 76.5309 67.3575 76.608 67.5081 76.7216C67.6586 76.8351 67.7808 76.9821 67.8649 77.1509C67.949 77.3196 67.9927 77.5056 67.9927 77.6942C67.9927 77.8828 67.949 78.0688 67.8649 78.2376C67.7808 78.4063 67.6586 78.5533 67.5081 78.6669C67.3575 78.7804 67.1827 78.8575 66.9973 78.892C66.8119 78.9265 66.6211 78.9175 66.4398 78.8657Z" fill="#0C4E98"/>
<path d="M66.4396 71.1801H61.3085C61.1496 71.1802 60.9922 71.1485 60.8457 71.087C60.6992 71.0255 60.5664 70.9354 60.4551 70.8219C60.3438 70.7085 60.2563 70.5739 60.1977 70.4262C60.139 70.2785 60.1104 70.1207 60.1135 69.9618C60.1135 69.6427 60.2386 69.3363 60.462 69.1084C60.6855 68.8806 60.9894 68.7495 61.3085 68.7434H66.4396C66.7628 68.7434 67.0726 68.8718 67.3011 69.1003C67.5296 69.3288 67.658 69.6387 67.658 69.9618C67.658 70.2849 67.5296 70.5948 67.3011 70.8233C67.0726 71.0518 66.7628 71.1801 66.4396 71.1801Z" fill="#0C4E98"/>
<path d="M66.4398 63.4953H61.3086C61.054 63.4226 60.83 63.2689 60.6706 63.0575C60.5111 62.8462 60.4248 62.5886 60.4248 62.3238C60.4248 62.0591 60.5111 61.8015 60.6706 61.5901C60.83 61.3787 61.054 61.2251 61.3086 61.1523H66.4398C66.6211 61.1005 66.8119 61.0915 66.9973 61.126C67.1827 61.1605 67.3575 61.2376 67.5081 61.3512C67.6586 61.4648 67.7808 61.6117 67.8649 61.7805C67.949 61.9493 67.9927 62.1353 67.9927 62.3238C67.9927 62.5124 67.949 62.6984 67.8649 62.8672C67.7808 63.036 67.6586 63.1829 67.5081 63.2965C67.3575 63.4101 67.1827 63.4872 66.9973 63.5217C66.8119 63.5562 66.6211 63.5471 66.4398 63.4953Z" fill="#0C4E98"/>
<path d="M66.4396 55.8115H61.3085C60.9894 55.8054 60.6855 55.6743 60.462 55.4465C60.2386 55.2187 60.1135 54.9122 60.1135 54.5931C60.1104 54.4342 60.139 54.2763 60.1977 54.1286C60.2563 53.9809 60.3438 53.8464 60.4551 53.733C60.5664 53.6195 60.6992 53.5294 60.8457 53.4679C60.9922 53.4064 61.1496 53.3747 61.3085 53.3748H66.4396C66.7628 53.3748 67.0726 53.5031 67.3011 53.7316C67.5296 53.9601 67.658 54.27 67.658 54.5931C67.658 54.9162 67.5296 55.2261 67.3011 55.4546C67.0726 55.6831 66.7628 55.8115 66.4396 55.8115Z" fill="#0C4E98"/>
<path d="M66.4398 48.1018H61.3086C61.054 48.0291 60.83 47.8754 60.6706 47.664C60.5111 47.4526 60.4248 47.1951 60.4248 46.9303C60.4248 46.6655 60.5111 46.408 60.6706 46.1966C60.83 45.9852 61.054 45.8315 61.3086 45.7588H66.4398C66.6211 45.707 66.8119 45.698 66.9973 45.7325C67.1827 45.767 67.3575 45.8441 67.5081 45.9576C67.6586 46.0712 67.7808 46.2182 67.8649 46.3869C67.949 46.5557 67.9927 46.7417 67.9927 46.9303C67.9927 47.1189 67.949 47.3049 67.8649 47.4736C67.7808 47.6424 67.6586 47.7894 67.5081 47.9029C67.3575 48.0165 67.1827 48.0936 66.9973 48.1281C66.8119 48.1626 66.6211 48.1536 66.4398 48.1018Z" fill="#0C4E98"/>
<path d="M6.10708 24.9555C5.9482 24.9586 5.79029 24.93 5.6426 24.8713C5.49491 24.8126 5.36035 24.7252 5.2469 24.6139C5.13345 24.5026 5.04335 24.3698 4.98184 24.2233C4.92033 24.0767 4.88864 23.9195 4.88867 23.7606V12.233C4.88867 11.9099 5.01706 11.5999 5.24554 11.3714C5.47403 11.143 5.78395 11.0146 6.10708 11.0146H17.6814C17.936 11.0874 18.16 11.241 18.3195 11.4524C18.4789 11.6638 18.5652 11.9214 18.5652 12.1861C18.5652 12.4509 18.4789 12.7085 18.3195 12.9198C18.16 13.1312 17.936 13.2849 17.6814 13.3576H7.32541V23.7137C7.31928 24.0327 7.18822 24.3367 6.96039 24.5601C6.73257 24.7836 6.42619 24.9087 6.10708 24.9086" fill="#0C4E98"/>
<path d="M108.402 24.9545C108.244 24.9576 108.086 24.929 107.938 24.8704C107.79 24.8117 107.656 24.7242 107.542 24.613C107.429 24.5017 107.339 24.3689 107.277 24.2223C107.216 24.0758 107.184 23.9186 107.184 23.7596V13.4035H96.8281C96.5735 13.3308 96.3495 13.1771 96.1901 12.9657C96.0306 12.7544 95.9443 12.4968 95.9443 12.232C95.9443 11.9673 96.0306 11.7097 96.1901 11.4984C96.3495 11.287 96.5735 11.1333 96.8281 11.0605H108.402C108.726 11.0605 109.036 11.1889 109.264 11.4174C109.492 11.6459 109.621 11.9558 109.621 12.2789V23.8533C109.621 24.0122 109.589 24.1696 109.528 24.3161C109.466 24.4626 109.376 24.5954 109.263 24.7067C109.149 24.818 109.015 24.9055 108.867 24.9641C108.719 25.0228 108.561 25.0514 108.402 25.0483" fill="#0C4E98"/>
<path d="M74.6177 102.554H39.8944C39.7355 102.554 39.5782 102.522 39.4316 102.461C39.2851 102.399 39.1524 102.309 39.0411 102.196C38.9298 102.082 38.8423 101.948 38.7836 101.8C38.725 101.652 38.6963 101.494 38.6994 101.335V30.9752C38.6963 30.8163 38.725 30.6584 38.7836 30.5107C38.8423 30.363 38.9298 30.2285 39.0411 30.1151C39.1524 30.0016 39.2851 29.9114 39.4316 29.8499C39.5782 29.7884 39.7355 29.7568 39.8944 29.7568H50.6254C50.8067 29.705 50.9976 29.696 51.183 29.7305C51.3684 29.765 51.5432 29.8421 51.6937 29.9557C51.8443 30.0692 51.9664 30.2162 52.0505 30.385C52.1346 30.5538 52.1784 30.7398 52.1784 30.9283C52.1784 31.1169 52.1346 31.3029 52.0505 31.4717C51.9664 31.6405 51.8443 31.7874 51.6937 31.901C51.5432 32.0145 51.3684 32.0916 51.183 32.1261C50.9976 32.1606 50.8067 32.1516 50.6254 32.0998H41.1127V100.047H73.3994V32.0998H63.8867C63.7054 32.1516 63.5145 32.1606 63.3291 32.1261C63.1437 32.0916 62.9689 32.0145 62.8184 31.901C62.6678 31.7874 62.5457 31.6405 62.4616 31.4717C62.3775 31.3029 62.3337 31.1169 62.3337 30.9283C62.3337 30.7398 62.3775 30.5538 62.4616 30.385C62.5457 30.2162 62.6678 30.0692 62.8184 29.9557C62.9689 29.8421 63.1437 29.765 63.3291 29.7305C63.5145 29.696 63.7054 29.705 63.8867 29.7568H74.6177C74.7766 29.7568 74.9339 29.7884 75.0805 29.8499C75.227 29.9114 75.3597 30.0016 75.471 30.1151C75.5823 30.2285 75.6698 30.363 75.7285 30.5107C75.7871 30.6584 75.8158 30.8163 75.8126 30.9752V101.265C75.8158 101.424 75.7871 101.582 75.7285 101.73C75.6698 101.877 75.5823 102.012 75.471 102.125C75.3597 102.239 75.227 102.329 75.0805 102.39C74.9339 102.452 74.7766 102.484 74.6177 102.484" fill="#0C4E98"/>
<path d="M87.7606 94.2385H82.6529C82.3298 94.2385 82.0199 94.1101 81.7914 93.8816C81.5629 93.6531 81.4346 93.3433 81.4346 93.0202C81.4346 92.697 81.5629 92.3871 81.7914 92.1586C82.0199 91.9301 82.3298 91.8018 82.6529 91.8018H87.7606C88.0838 91.8018 88.3937 91.9301 88.6222 92.1586C88.8507 92.3871 88.979 92.697 88.979 93.0202C88.979 93.3433 88.8507 93.6531 88.6222 93.8816C88.3937 94.1101 88.0838 94.2385 87.7606 94.2385Z" fill="#0C4E98"/>
<path d="M87.7603 86.4592H82.6526C82.4713 86.511 82.2804 86.52 82.095 86.4855C81.9096 86.451 81.7348 86.3739 81.5843 86.2603C81.4337 86.1468 81.3116 85.9998 81.2275 85.831C81.1434 85.6622 81.0996 85.4762 81.0996 85.2877C81.0996 85.0991 81.1434 84.9131 81.2275 84.7443C81.3116 84.5755 81.4337 84.4286 81.5843 84.315C81.7348 84.2015 81.9096 84.1244 82.095 84.0899C82.2804 84.0554 82.4713 84.0644 82.6526 84.1162H87.7603C87.9416 84.0644 88.1325 84.0554 88.3179 84.0899C88.5033 84.1244 88.6782 84.2015 88.8287 84.315C88.9792 84.4286 89.1014 84.5755 89.1855 84.7443C89.2696 84.9131 89.3133 85.0991 89.3133 85.2877C89.3133 85.4762 89.2696 85.6622 89.1855 85.831C89.1014 85.9998 88.9792 86.1468 88.8287 86.2603C88.6782 86.3739 88.5033 86.451 88.3179 86.4855C88.1325 86.52 87.9416 86.511 87.7603 86.4592Z" fill="#0C4E98"/>
<path d="M87.7603 78.6779H82.6526C82.4713 78.7297 82.2804 78.7387 82.095 78.7042C81.9096 78.6697 81.7348 78.5927 81.5843 78.4791C81.4337 78.3656 81.3116 78.2186 81.2275 78.0498C81.1434 77.8811 81.0996 77.695 81.0996 77.5064C81.0996 77.3178 81.1434 77.1318 81.2275 76.9631C81.3116 76.7943 81.4337 76.6473 81.5843 76.5338C81.7348 76.4202 81.9096 76.3432 82.095 76.3087C82.2804 76.2742 82.4713 76.2831 82.6526 76.3349H87.7603C87.9416 76.2831 88.1325 76.2742 88.3179 76.3087C88.5033 76.3432 88.6782 76.4202 88.8287 76.5338C88.9792 76.6473 89.1014 76.7943 89.1855 76.9631C89.2696 77.1318 89.3133 77.3178 89.3133 77.5064C89.3133 77.695 89.2696 77.8811 89.1855 78.0498C89.1014 78.2186 88.9792 78.3656 88.8287 78.4791C88.6782 78.5927 88.5033 78.6697 88.3179 78.7042C88.1325 78.7387 87.9416 78.7297 87.7603 78.6779Z" fill="#0C4E98"/>
<path d="M87.7613 70.8078H82.6536C82.4722 70.8596 82.2814 70.8687 82.096 70.8342C81.9106 70.7997 81.7358 70.7226 81.5852 70.609C81.4347 70.4954 81.3125 70.3485 81.2284 70.1797C81.1443 70.0109 81.1006 69.8249 81.1006 69.6363C81.1006 69.4478 81.1443 69.2618 81.2284 69.093C81.3125 68.9242 81.4347 68.7773 81.5852 68.6637C81.7358 68.5501 81.9106 68.473 82.096 68.4385C82.2814 68.404 82.4722 68.413 82.6536 68.4648H87.7613C87.9426 68.413 88.1335 68.404 88.3189 68.4385C88.5042 68.473 88.6791 68.5501 88.8297 68.6637C88.9802 68.7773 89.1024 68.9242 89.1865 69.093C89.2706 69.2618 89.3143 69.4478 89.3143 69.6363C89.3143 69.8249 89.2706 70.0109 89.1865 70.1797C89.1024 70.3485 88.9802 70.4954 88.8297 70.609C88.6791 70.7226 88.5042 70.7997 88.3189 70.8342C88.1335 70.8687 87.9426 70.8596 87.7613 70.8078Z" fill="#0C4E98"/>
<path d="M87.7603 63.1194H82.6526C82.4713 63.1712 82.2804 63.1802 82.095 63.1457C81.9096 63.1112 81.7348 63.0341 81.5843 62.9205C81.4337 62.807 81.3116 62.66 81.2275 62.4912C81.1434 62.3224 81.0996 62.1364 81.0996 61.9479C81.0996 61.7593 81.1434 61.5733 81.2275 61.4045C81.3116 61.2357 81.4337 61.0888 81.5843 60.9752C81.7348 60.8617 81.9096 60.7846 82.095 60.7501C82.2804 60.7155 82.4713 60.7246 82.6526 60.7764H87.7603C87.9416 60.7246 88.1325 60.7155 88.3179 60.7501C88.5033 60.7846 88.6782 60.8617 88.8287 60.9752C88.9792 61.0888 89.1014 61.2357 89.1855 61.4045C89.2696 61.5733 89.3133 61.7593 89.3133 61.9479C89.3133 62.1364 89.2696 62.3224 89.1855 62.4912C89.1014 62.66 88.9792 62.807 88.8287 62.9205C88.6782 63.0341 88.5033 63.1112 88.3179 63.1457C88.1325 63.1802 87.9416 63.1712 87.7603 63.1194Z" fill="#0C4E98"/>
<path d="M75.812 100.142H95.1651V53.633H75.812V100.142ZM96.3835 102.485H74.5935C74.4346 102.485 74.2773 102.453 74.1308 102.391C73.9843 102.33 73.8515 102.24 73.7402 102.126C73.629 102.013 73.5414 101.878 73.4828 101.731C73.4241 101.583 73.3956 101.425 73.3987 101.266V52.4146C73.3987 52.0977 73.5245 51.7937 73.7486 51.5696C73.9727 51.3456 74.2766 51.2197 74.5935 51.2197H96.3835C96.5424 51.2166 96.7003 51.2451 96.848 51.3038C96.9957 51.3625 97.1302 51.45 97.2436 51.5613C97.3571 51.6726 97.4472 51.8053 97.5087 51.9518C97.5702 52.0984 97.6019 52.2557 97.6018 52.4146V101.266C97.6018 101.589 97.4735 101.899 97.245 102.128C97.0165 102.356 96.7066 102.485 96.3835 102.485Z" fill="#0C4E98"/>
<path d="M34.5987 94.2385H22.8837C22.6291 94.1658 22.4052 94.0121 22.2458 93.8007C22.0863 93.5893 22 93.3318 22 93.067C22 92.8022 22.0863 92.5447 22.2458 92.3333C22.4052 92.1219 22.6291 91.9682 22.8837 91.8955H34.5987C34.8533 91.9682 35.0773 92.1219 35.2367 92.3333C35.3962 92.5447 35.4825 92.8022 35.4825 93.067C35.4825 93.3318 35.3962 93.5893 35.2367 93.8007C35.0773 94.0121 34.8533 94.1658 34.5987 94.2385Z" fill="#0C4E98"/>
<path d="M34.5981 86.6701H22.883C22.7017 86.7219 22.5109 86.7309 22.3255 86.6964C22.1401 86.6619 21.9653 86.5848 21.8147 86.4713C21.6642 86.3577 21.542 86.2107 21.4579 86.042C21.3738 85.8732 21.3301 85.6872 21.3301 85.4986C21.3301 85.31 21.3738 85.124 21.4579 84.9553C21.542 84.7865 21.6642 84.6395 21.8147 84.526C21.9653 84.4124 22.1401 84.3354 22.3255 84.3009C22.5109 84.2664 22.7017 84.2753 22.883 84.3271H34.5981C34.8526 84.3998 35.0766 84.5535 35.2361 84.7649C35.3955 84.9763 35.4818 85.2338 35.4818 85.4986C35.4818 85.7634 35.3955 86.021 35.2361 86.2324C35.0766 86.4437 34.8526 86.5974 34.5981 86.6701Z" fill="#0C4E98"/>
<path d="M34.5984 79.0302H22.8834C22.5602 79.0302 22.2504 78.9019 22.0219 78.6734C21.7934 78.4449 21.665 78.135 21.665 77.8118C21.671 77.4906 21.8014 77.1842 22.0286 76.957C22.2558 76.7298 22.5621 76.5995 22.8834 76.5935H34.5984C34.9174 76.5996 35.2214 76.7307 35.4448 76.9585C35.6683 77.1864 35.7934 77.4927 35.7933 77.8118C35.7964 77.9707 35.7678 78.1286 35.7092 78.2763C35.6505 78.424 35.563 78.5586 35.4518 78.672C35.3405 78.7855 35.2077 78.8756 35.0611 78.9371C34.9146 78.9986 34.7573 79.0303 34.5984 79.0302Z" fill="#0C4E98"/>
<path d="M34.5984 71.393H22.8834C22.5621 71.387 22.2558 71.2567 22.0286 71.0295C21.8014 70.8023 21.671 70.496 21.665 70.1747C21.665 69.8516 21.7934 69.5417 22.0219 69.3132C22.2504 69.0847 22.5602 68.9563 22.8834 68.9563H34.5984C34.7573 68.9563 34.9146 68.988 35.0611 69.0495C35.2077 69.111 35.3405 69.2011 35.4518 69.3145C35.563 69.428 35.6505 69.5625 35.7092 69.7102C35.7678 69.8579 35.7964 70.0158 35.7933 70.1747C35.7934 70.4938 35.6683 70.8002 35.4448 71.028C35.2214 71.2558 34.9174 71.3869 34.5984 71.393Z" fill="#0C4E98"/>
<path d="M34.5981 63.7795H22.883C22.7017 63.8313 22.5109 63.8403 22.3255 63.8058C22.1401 63.7713 21.9653 63.6942 21.8147 63.5807C21.6642 63.4671 21.542 63.3202 21.4579 63.1514C21.3738 62.9826 21.3301 62.7966 21.3301 62.608C21.3301 62.4194 21.3738 62.2335 21.4579 62.0647C21.542 61.8959 21.6642 61.7489 21.8147 61.6354C21.9653 61.5218 22.1401 61.4447 22.3255 61.4102C22.5109 61.3757 22.7017 61.3847 22.883 61.4365H34.5981C34.8526 61.5092 35.0766 61.663 35.2361 61.8743C35.3955 62.0857 35.4818 62.3433 35.4818 62.608C35.4818 62.8728 35.3955 63.1303 35.2361 63.3417C35.0766 63.5531 34.8526 63.7068 34.5981 63.7795Z" fill="#0C4E98"/>
<path d="M34.5987 56.093H22.8837C22.6291 56.0203 22.4052 55.8666 22.2458 55.6552C22.0863 55.4438 22 55.1863 22 54.9215C22 54.6567 22.0863 54.3992 22.2458 54.1878C22.4052 53.9764 22.6291 53.8227 22.8837 53.75H34.5987C34.8533 53.8227 35.0773 53.9764 35.2367 54.1878C35.3962 54.3992 35.4825 54.6567 35.4825 54.9215C35.4825 55.1863 35.3962 55.4438 35.2367 55.6552C35.0773 55.8666 34.8533 56.0203 34.5987 56.093Z" fill="#0C4E98"/>
<path d="M19.3449 100.139H38.6981V46.7658H19.3449V100.139ZM39.893 102.482H18.1265C17.8034 102.482 17.4936 102.354 17.2651 102.126C17.0366 101.897 16.9082 101.587 16.9082 101.264V45.5474C16.9082 45.2243 17.0366 44.9144 17.2651 44.6859C17.4936 44.4574 17.8034 44.3291 18.1265 44.3291H39.893C40.2162 44.3291 40.5261 44.4574 40.7546 44.6859C40.9831 44.9144 41.1114 45.2243 41.1114 45.5474V101.264C41.1114 101.587 40.9831 101.897 40.7546 102.126C40.5261 102.354 40.2162 102.482 39.893 102.482Z" fill="#0C4E98"/>
<path d="M63.886 37.0213C63.5629 37.0213 63.253 36.893 63.0245 36.6645C62.796 36.436 62.6677 36.1261 62.6677 35.803V14.5754H51.843V35.8498C51.7703 36.1044 51.6166 36.3284 51.4052 36.4879C51.1938 36.6473 50.9363 36.7336 50.6715 36.7336C50.4067 36.7336 50.1492 36.6473 49.9378 36.4879C49.7264 36.3284 49.5727 36.1044 49.5 35.8498V13.3571C49.5 13.0339 49.6284 12.724 49.8569 12.4955C50.0854 12.2671 50.3952 12.1387 50.7183 12.1387H63.9797C64.3029 12.1387 64.6128 12.2671 64.8413 12.4955C65.0698 12.724 65.1981 13.0339 65.1981 13.3571V35.8498C65.1921 36.1711 65.0618 36.4775 64.8346 36.7047C64.6074 36.9319 64.301 37.0622 63.9797 37.0682" fill="#0C4E98"/>
<path d="M57.2545 14.5735C56.9313 14.5735 56.6214 14.4451 56.3929 14.2166C56.1644 13.9881 56.0361 13.6783 56.0361 13.3551V1.21833C56.0361 0.895206 56.1644 0.585357 56.3929 0.35687C56.6214 0.128383 56.9313 0 57.2545 0C57.5776 0 57.8875 0.128383 58.116 0.35687C58.3445 0.585357 58.4728 0.895206 58.4728 1.21833V13.3551C58.4668 13.6764 58.3366 13.9828 58.1094 14.21C57.8822 14.4371 57.5757 14.5675 57.2545 14.5735Z" fill="#0C4E98"/>
<path d="M57.2554 31.4214C56.9323 31.4214 56.6224 31.293 56.3939 31.0645C56.1654 30.836 56.0371 30.5262 56.0371 30.203V18.8863C56.0371 18.5632 56.1654 18.2533 56.3939 18.0248C56.6224 17.7963 56.9323 17.668 57.2554 17.668C57.5786 17.668 57.8885 17.7963 58.117 18.0248C58.3455 18.2533 58.4738 18.5632 58.4738 18.8863V30.203C58.4738 30.5262 58.3455 30.836 58.117 31.0645C57.8885 31.293 57.5786 31.4214 57.2554 31.4214Z" fill="#0C4E98"/>
<path d="M6.10708 83.8351C5.78395 83.8351 5.47403 83.7068 5.24554 83.4783C5.01706 83.2498 4.88867 82.9399 4.88867 82.6168V36.8345C4.88867 36.5114 5.01706 36.2015 5.24554 35.973C5.47403 35.7445 5.78395 35.6162 6.10708 35.6162C6.42833 35.6222 6.7347 35.7525 6.96189 35.9797C7.18909 36.2069 7.31941 36.5133 7.32541 36.8345V82.5231C7.32541 82.8462 7.19703 83.1561 6.96854 83.3846C6.74006 83.6131 6.43021 83.7414 6.10708 83.7414" fill="#0C4E98"/>
<path d="M108.404 83.8339C108.081 83.8339 107.771 83.7055 107.542 83.477C107.314 83.2486 107.186 82.9387 107.186 82.6156V36.8333C107.134 36.652 107.125 36.4611 107.159 36.2757C107.194 36.0903 107.271 35.9155 107.384 35.7649C107.498 35.6144 107.645 35.4923 107.814 35.4082C107.982 35.3241 108.168 35.2803 108.357 35.2803C108.546 35.2803 108.732 35.3241 108.9 35.4082C109.069 35.4923 109.216 35.6144 109.33 35.7649C109.443 35.9155 109.52 36.0903 109.555 36.2757C109.589 36.4611 109.58 36.652 109.529 36.8333V82.5218C109.529 82.845 109.4 83.1549 109.172 83.3834C108.943 83.6119 108.633 83.7402 108.31 83.7402" fill="#0C4E98"/>
</svg>
