<svg width="102" height="103" viewBox="0 0 102 103" fill="none" xmlns="http://www.w3.org/2000/svg">
<path d="M76.9332 102.415C76.7204 102.41 76.5123 102.352 76.328 102.246C76.1437 102.139 75.9892 101.988 75.8789 101.806L66.8349 85.686C66.6796 85.4094 66.6404 85.0825 66.7261 84.7771C66.8118 84.4717 67.0153 84.2129 67.2918 84.0576C67.5683 83.9022 67.8952 83.8631 68.2006 83.9488C68.506 84.0345 68.7648 84.2379 68.9202 84.5145L77.9876 100.634C78.1386 100.911 78.174 101.236 78.0863 101.539C77.9985 101.842 77.7946 102.098 77.519 102.251C77.3441 102.362 77.1404 102.419 76.9332 102.415Z" fill="#0C4E98"/>
<path d="M24.3797 102.414C24.1729 102.416 23.9699 102.359 23.7939 102.25C23.5223 102.093 23.3234 101.836 23.2401 101.533C23.1569 101.231 23.1959 100.908 23.3488 100.634L32.4162 84.5137C32.4897 84.375 32.5903 84.2524 32.7121 84.1533C32.8339 84.0542 32.9744 83.9807 33.1252 83.937C33.276 83.8932 33.4341 83.8803 33.59 83.8989C33.7459 83.9174 33.8965 83.9672 34.0328 84.0451C34.1724 84.1209 34.2954 84.2238 34.3947 84.3477C34.4941 84.4717 34.5677 84.6141 34.6113 84.7668C34.655 84.9195 34.6677 85.0794 34.6489 85.2371C34.63 85.3948 34.5799 85.5471 34.5014 85.6852L25.434 101.922C25.3237 102.104 25.1693 102.256 24.985 102.362C24.8007 102.468 24.5925 102.527 24.3797 102.531" fill="#0C4E98"/>
<path d="M74.3322 97.0737H27.0035C26.6866 97.0737 26.3827 96.9478 26.1586 96.7237C25.9345 96.4996 25.8086 96.1957 25.8086 95.8788C25.8086 95.5618 25.9345 95.2579 26.1586 95.0338C26.3827 94.8097 26.6866 94.6838 27.0035 94.6838H74.3322C74.6491 94.6838 74.953 94.8097 75.1771 95.0338C75.4012 95.2579 75.5271 95.5618 75.5271 95.8788C75.5271 96.1957 75.4012 96.4996 75.1771 96.7237C74.953 96.9478 74.6491 97.0737 74.3322 97.0737Z" fill="#0C4E98"/>
<path d="M86.2108 86.2942C85.9776 86.2877 85.7511 86.2144 85.5584 86.0831C85.3656 85.9517 85.2146 85.7677 85.1233 85.5531C85.032 85.3384 85.0043 85.1021 85.0434 84.8721C85.0824 84.6421 85.1867 84.4282 85.3438 84.2558C91.9424 77.4424 96.3883 68.8367 98.1268 59.5125C99.8654 50.1884 98.8195 40.5587 95.1197 31.8251C91.42 23.0916 85.2302 15.6411 77.3228 10.4032C69.4154 5.1653 60.1406 2.37207 50.6557 2.37207C41.1709 2.37207 31.896 5.1653 23.9886 10.4032C16.0812 15.6411 9.89142 23.0916 6.19167 31.8251C2.49192 40.5587 1.44604 50.1884 3.18457 59.5125C4.9231 68.8367 9.36904 77.4424 15.9676 84.2558C16.081 84.3651 16.1711 84.4961 16.2327 84.641C16.2943 84.7859 16.3261 84.9418 16.3261 85.0993C16.3261 85.2567 16.2943 85.4126 16.2327 85.5575C16.1711 85.7024 16.081 85.8334 15.9676 85.9427C15.7436 86.1659 15.4403 86.2912 15.1241 86.2912C14.8079 86.2912 14.5046 86.1659 14.2806 85.9427C7.35369 78.7928 2.68592 69.7612 0.859892 59.9751C-0.966142 50.189 0.130435 40.0818 4.01277 30.915C7.8951 21.7481 14.3912 13.9278 22.6904 8.42985C30.9895 2.93194 40.7241 0 50.6791 0C60.6342 0 70.3688 2.93194 78.6679 8.42985C86.967 13.9278 93.4632 21.7481 97.3455 30.915C101.228 40.0818 102.324 50.189 100.498 59.9751C98.6724 69.7612 94.0046 78.7928 87.0777 85.9427C86.8565 86.1734 86.5536 86.3081 86.2342 86.3176" fill="#0C4E98"/>
<path d="M50.6678 62.561C50.51 62.5641 50.3532 62.5354 50.2068 62.4765C50.0604 62.4176 49.9274 62.3297 49.8158 62.2181C49.7042 62.1065 49.6163 61.9735 49.5574 61.827C49.4984 61.6806 49.4697 61.5238 49.4729 61.366V39.8104C49.4729 39.4935 49.5988 39.1896 49.8229 38.9655C50.047 38.7414 50.3509 38.6155 50.6678 38.6155C50.8247 38.6155 50.9801 38.6464 51.1251 38.7064C51.2701 38.7665 51.4018 38.8545 51.5128 38.9655C51.6237 39.0764 51.7117 39.2082 51.7718 39.3531C51.8318 39.4981 51.8627 39.6535 51.8627 39.8104V61.366C51.8627 61.523 51.8318 61.6783 51.7718 61.8233C51.7117 61.9683 51.6237 62.1 51.5128 62.211C51.4018 62.3219 51.2701 62.4099 51.1251 62.47C50.9801 62.5301 50.8247 62.561 50.6678 62.561Z" fill="#0C4E98"/>
<path d="M54.9562 86.2951H46.3574C46.1028 86.2224 45.8788 86.0688 45.7193 85.8574C45.5599 85.646 45.4736 85.3884 45.4736 85.1236C45.4736 84.8589 45.5599 84.6013 45.7193 84.3899C45.8788 84.1785 46.1028 84.0249 46.3574 83.9521H54.9562C55.2108 84.0249 55.4347 84.1785 55.5942 84.3899C55.7536 84.6013 55.8399 84.8589 55.8399 85.1236C55.8399 85.3884 55.7536 85.646 55.5942 85.8574C55.4347 86.0688 55.2108 86.2224 54.9562 86.2951Z" fill="#0C4E98"/>
<path d="M35.6017 77.6728H29.1585C28.9772 77.7246 28.7863 77.7336 28.6009 77.6991C28.4155 77.6646 28.2407 77.5876 28.0901 77.474C27.9396 77.3604 27.8174 77.2135 27.7333 77.0447C27.6492 76.8759 27.6055 76.6899 27.6055 76.5013C27.6055 76.3127 27.6492 76.1267 27.7333 75.958C27.8174 75.7892 27.9396 75.6422 28.0901 75.5287C28.2407 75.4151 28.4155 75.338 28.6009 75.3035C28.7863 75.269 28.9772 75.278 29.1585 75.3298H35.6017C35.8563 75.4025 36.0803 75.5562 36.2397 75.7676C36.3992 75.979 36.4854 76.2365 36.4854 76.5013C36.4854 76.7661 36.3992 77.0237 36.2397 77.235C36.0803 77.4464 35.8563 77.6001 35.6017 77.6728Z" fill="#0C4E98"/>
<path d="M72.1766 77.6743H65.7099C65.4553 77.6016 65.2313 77.4479 65.0719 77.2365C64.9124 77.0251 64.8262 76.7676 64.8262 76.5028C64.8262 76.238 64.9124 75.9805 65.0719 75.7691C65.2313 75.5577 65.4553 75.404 65.7099 75.3313H72.1766C72.4312 75.404 72.6551 75.5577 72.8146 75.7691C72.974 75.9805 73.0603 76.238 73.0603 76.5028C73.0603 76.7676 72.974 77.0251 72.8146 77.2365C72.6551 77.4479 72.4312 77.6016 72.1766 77.6743Z" fill="#0C4E98"/>
<path d="M78.6204 62.5598H22.693C22.3761 62.5598 22.0721 62.4339 21.848 62.2098C21.6239 61.9857 21.498 61.6818 21.498 61.3649C21.498 61.048 21.6239 60.744 21.848 60.5199C22.0721 60.2958 22.3761 60.1699 22.693 60.1699H78.6204C78.9373 60.1699 79.2413 60.2958 79.4654 60.5199C79.6894 60.744 79.8153 61.048 79.8153 61.3649C79.8153 61.6818 79.6894 61.9857 79.4654 62.2098C79.2413 62.4339 78.9373 62.5598 78.6204 62.5598Z" fill="#0C4E98"/>
<path d="M62.36 83.8824H74.3327C74.7409 83.8824 75.1449 83.8016 75.5217 83.6447C75.8985 83.4879 76.2405 83.2579 76.528 82.9683C76.8154 82.6786 77.0428 82.3349 77.1968 81.9569C77.3509 81.579 77.4286 81.1743 77.4255 80.7662V31.1883C77.4255 29.2225 76.6462 27.3369 75.2584 25.9447C73.8705 24.5524 71.9874 23.7672 70.0216 23.761H31.1981C29.2323 23.7672 27.3491 24.5524 25.9613 25.9447C24.5735 27.3369 23.7942 29.2225 23.7942 31.1883V80.8365C23.7942 81.6629 24.1225 82.4555 24.7069 83.0399C25.2913 83.6243 26.0839 83.9527 26.9104 83.9527H38.8831L40.8044 76.2442C40.8669 75.9859 41.0137 75.7558 41.2216 75.5903C41.4296 75.4248 41.6867 75.3334 41.9524 75.3304H59.3141C59.5809 75.3292 59.8401 75.4192 60.0489 75.5853C60.2577 75.7515 60.4035 75.9839 60.4622 76.2442L62.36 83.8824ZM74.3327 86.2254H61.4228C61.153 86.2277 60.8904 86.1386 60.6777 85.9727C60.465 85.8068 60.3148 85.5738 60.2513 85.3116L58.33 77.6031H42.9131L40.9918 85.3116C40.9331 85.5719 40.7873 85.8044 40.5786 85.9705C40.3698 86.1367 40.1106 86.2266 39.8438 86.2254H27.0041C25.5657 86.2197 24.1861 85.6538 23.1581 84.6477C22.1301 83.6415 21.5346 82.2744 21.498 80.8365V31.1883C21.4979 28.6048 22.5161 26.1253 24.3319 24.2876C26.1477 22.4498 28.6147 21.4019 31.1981 21.3711H69.9279C72.5275 21.3773 75.0185 22.4144 76.8545 24.2548C78.6905 26.0952 79.7216 28.5887 79.7216 31.1883V80.8365C79.7247 81.5595 79.5853 82.2761 79.3115 82.9453C79.0376 83.6145 78.6346 84.2233 78.1255 84.7367C77.6164 85.2502 77.0111 85.6583 76.3443 85.9379C75.6774 86.2174 74.9621 86.3629 74.239 86.366" fill="#0C4E98"/>
<path d="M61.4213 32.3818H39.9126C39.642 32.3274 39.3985 32.181 39.2236 31.9674C39.0487 31.7539 38.9531 31.4864 38.9531 31.2103C38.9531 30.9343 39.0487 30.6667 39.2236 30.4532C39.3985 30.2396 39.642 30.0932 39.9126 30.0388H61.4213C61.5948 30.004 61.7737 30.008 61.9454 30.0508C62.117 30.0935 62.2771 30.1738 62.4139 30.2859C62.5508 30.3979 62.661 30.539 62.7368 30.6989C62.8125 30.8587 62.8517 31.0334 62.8517 31.2103C62.8517 31.3872 62.8125 31.5619 62.7368 31.7217C62.661 31.8816 62.5508 32.0227 62.4139 32.1347C62.2771 32.2468 62.117 32.3271 61.9454 32.3698C61.7737 32.4126 61.5948 32.4167 61.4213 32.3818Z" fill="#0C4E98"/>
<path d="M78.6193 41.0054H22.6919C22.4213 40.951 22.1778 40.8046 22.0029 40.591C21.828 40.3774 21.7324 40.1099 21.7324 39.8339C21.7324 39.5578 21.828 39.2903 22.0029 39.0767C22.1778 38.8632 22.4213 38.7167 22.6919 38.6624H78.6193C78.89 38.7167 79.1334 38.8632 79.3083 39.0767C79.4832 39.2903 79.5788 39.5578 79.5788 39.8339C79.5788 40.1099 79.4832 40.3774 79.3083 40.591C79.1334 40.8046 78.89 40.951 78.6193 41.0054Z" fill="#0C4E98"/>
</svg>
